M48
INCH,TZ
T1C0.0059
T2C0.0079
%
G90
G05
T1
X52492Y-40551
X52657Y-41642
X56322Y-40651
X59870Y-38413
X60012Y-37583
X60457Y-39232
X60480Y-37567
X60783Y-39409
X61287Y-38146
X61287Y-38303
X61287Y-38461
X61287Y-38618
X61445Y-38146
X61445Y-38303
X61445Y-38461
X61445Y-38622
X61602Y-38146
X61602Y-38307
X61602Y-38461
X61602Y-38618
X62457Y-39201
X62843Y-39205
X67626Y-40331
X68362Y-41862
X74917Y-38075
T2
X44594Y-38280
X44594Y-38492
X49453Y-38504
X49945Y-38480
X59287Y-38866
X68110Y-37441
X68917Y-37354
T0
M30
