G04 #@! TF.GenerationSoftware,KiCad,Pcbnew,(6.0.1)*
G04 #@! TF.CreationDate,2022-02-07T11:20:35+02:00*
G04 #@! TF.ProjectId,LoRaDongle_iCE40,4c6f5261-446f-46e6-976c-655f69434534,1.0*
G04 #@! TF.SameCoordinates,Original*
G04 #@! TF.FileFunction,Legend,Top*
G04 #@! TF.FilePolarity,Positive*
%FSLAX46Y46*%
G04 Gerber Fmt 4.6, Leading zero omitted, Abs format (unit mm)*
G04 Created by KiCad (PCBNEW (6.0.1)) date 2022-02-07 11:20:35*
%MOMM*%
%LPD*%
G01*
G04 APERTURE LIST*
%ADD10C,0.120000*%
%ADD11C,0.150000*%
%ADD12C,0.254000*%
%ADD13C,0.124670*%
%ADD14C,0.200000*%
%ADD15C,0.100000*%
%ADD16C,0.250000*%
G04 APERTURE END LIST*
D10*
X163900000Y-101250000D02*
X163080000Y-101250000D01*
D11*
X160450000Y-82107142D02*
X160497619Y-82154761D01*
X160450000Y-82202380D01*
X160402380Y-82154761D01*
X160450000Y-82107142D01*
X160450000Y-82202380D01*
X157550000Y-83514285D02*
X157645238Y-83609523D01*
X157550000Y-83704761D01*
X157454761Y-83609523D01*
X157550000Y-83514285D01*
X157550000Y-83704761D01*
X175900000Y-89314285D02*
X175995238Y-89409523D01*
X175900000Y-89504761D01*
X175804761Y-89409523D01*
X175900000Y-89314285D01*
X175900000Y-89504761D01*
X121512380Y-116270952D02*
X120512380Y-116270952D01*
X120512380Y-115890000D01*
X120560000Y-115794761D01*
X120607619Y-115747142D01*
X120702857Y-115699523D01*
X120845714Y-115699523D01*
X120940952Y-115747142D01*
X120988571Y-115794761D01*
X121036190Y-115890000D01*
X121036190Y-116270952D01*
X120512380Y-115366190D02*
X121512380Y-115128095D01*
X120798095Y-114937619D01*
X121512380Y-114747142D01*
X120512380Y-114509047D01*
X121512380Y-113556666D02*
X121036190Y-113890000D01*
X121512380Y-114128095D02*
X120512380Y-114128095D01*
X120512380Y-113747142D01*
X120560000Y-113651904D01*
X120607619Y-113604285D01*
X120702857Y-113556666D01*
X120845714Y-113556666D01*
X120940952Y-113604285D01*
X120988571Y-113651904D01*
X121036190Y-113747142D01*
X121036190Y-114128095D01*
X121464761Y-112413809D02*
X121512380Y-112270952D01*
X121512380Y-112032857D01*
X121464761Y-111937619D01*
X121417142Y-111890000D01*
X121321904Y-111842380D01*
X121226666Y-111842380D01*
X121131428Y-111890000D01*
X121083809Y-111937619D01*
X121036190Y-112032857D01*
X120988571Y-112223333D01*
X120940952Y-112318571D01*
X120893333Y-112366190D01*
X120798095Y-112413809D01*
X120702857Y-112413809D01*
X120607619Y-112366190D01*
X120560000Y-112318571D01*
X120512380Y-112223333D01*
X120512380Y-111985238D01*
X120560000Y-111842380D01*
X120988571Y-111413809D02*
X120988571Y-111080476D01*
X121512380Y-110937619D02*
X121512380Y-111413809D01*
X120512380Y-111413809D01*
X120512380Y-110937619D01*
X121512380Y-110032857D02*
X121512380Y-110509047D01*
X120512380Y-110509047D01*
X120988571Y-109699523D02*
X120988571Y-109366190D01*
X121512380Y-109223333D02*
X121512380Y-109699523D01*
X120512380Y-109699523D01*
X120512380Y-109223333D01*
X121417142Y-108223333D02*
X121464761Y-108270952D01*
X121512380Y-108413809D01*
X121512380Y-108509047D01*
X121464761Y-108651904D01*
X121369523Y-108747142D01*
X121274285Y-108794761D01*
X121083809Y-108842380D01*
X120940952Y-108842380D01*
X120750476Y-108794761D01*
X120655238Y-108747142D01*
X120560000Y-108651904D01*
X120512380Y-108509047D01*
X120512380Y-108413809D01*
X120560000Y-108270952D01*
X120607619Y-108223333D01*
X120512380Y-107937619D02*
X120512380Y-107366190D01*
X121512380Y-107651904D02*
X120512380Y-107651904D01*
X116350000Y-107357142D02*
X116397619Y-107404761D01*
X116350000Y-107452380D01*
X116302380Y-107404761D01*
X116350000Y-107357142D01*
X116350000Y-107452380D01*
X169269047Y-87271428D02*
X170030952Y-87271428D01*
X169650000Y-87652380D02*
X169650000Y-86890476D01*
X153100000Y-91757142D02*
X153147619Y-91804761D01*
X153100000Y-91852380D01*
X153052380Y-91804761D01*
X153100000Y-91757142D01*
X153100000Y-91852380D01*
X126700000Y-88664285D02*
X126795238Y-88759523D01*
X126700000Y-88854761D01*
X126604761Y-88759523D01*
X126700000Y-88664285D01*
X126700000Y-88854761D01*
X139350000Y-109757142D02*
X139397619Y-109804761D01*
X139350000Y-109852380D01*
X139302380Y-109804761D01*
X139350000Y-109757142D01*
X139350000Y-109852380D01*
X128150000Y-94664285D02*
X128245238Y-94759523D01*
X128150000Y-94854761D01*
X128054761Y-94759523D01*
X128150000Y-94664285D01*
X128150000Y-94854761D01*
X127350000Y-109857142D02*
X127397619Y-109904761D01*
X127350000Y-109952380D01*
X127302380Y-109904761D01*
X127350000Y-109857142D01*
X127350000Y-109952380D01*
X169269047Y-85771428D02*
X170030952Y-85771428D01*
X169650000Y-86152380D02*
X169650000Y-85390476D01*
X135819047Y-104971428D02*
X136580952Y-104971428D01*
X136200000Y-105352380D02*
X136200000Y-104590476D01*
X143750000Y-103964285D02*
X143845238Y-104059523D01*
X143750000Y-104154761D01*
X143654761Y-104059523D01*
X143750000Y-103964285D01*
X143750000Y-104154761D01*
X144000000Y-89807142D02*
X144047619Y-89854761D01*
X144000000Y-89902380D01*
X143952380Y-89854761D01*
X144000000Y-89807142D01*
X144000000Y-89902380D01*
X166750000Y-109757142D02*
X166797619Y-109804761D01*
X166750000Y-109852380D01*
X166702380Y-109804761D01*
X166750000Y-109757142D01*
X166750000Y-109852380D01*
X123719047Y-81521428D02*
X124480952Y-81521428D01*
X124100000Y-81902380D02*
X124100000Y-81140476D01*
X153900000Y-109757142D02*
X153947619Y-109804761D01*
X153900000Y-109852380D01*
X153852380Y-109804761D01*
X153900000Y-109757142D01*
X153900000Y-109852380D01*
X142830952Y-89204761D02*
X142973809Y-89252380D01*
X143211904Y-89252380D01*
X143307142Y-89204761D01*
X143354761Y-89157142D01*
X143402380Y-89061904D01*
X143402380Y-88966666D01*
X143354761Y-88871428D01*
X143307142Y-88823809D01*
X143211904Y-88776190D01*
X143021428Y-88728571D01*
X142926190Y-88680952D01*
X142878571Y-88633333D01*
X142830952Y-88538095D01*
X142830952Y-88442857D01*
X142878571Y-88347619D01*
X142926190Y-88300000D01*
X143021428Y-88252380D01*
X143259523Y-88252380D01*
X143402380Y-88300000D01*
X143830952Y-89252380D02*
X143830952Y-88252380D01*
X144211904Y-88252380D01*
X144307142Y-88300000D01*
X144354761Y-88347619D01*
X144402380Y-88442857D01*
X144402380Y-88585714D01*
X144354761Y-88680952D01*
X144307142Y-88728571D01*
X144211904Y-88776190D01*
X143830952Y-88776190D01*
X144830952Y-89252380D02*
X144830952Y-88252380D01*
X146640476Y-89157142D02*
X146592857Y-89204761D01*
X146450000Y-89252380D01*
X146354761Y-89252380D01*
X146211904Y-89204761D01*
X146116666Y-89109523D01*
X146069047Y-89014285D01*
X146021428Y-88823809D01*
X146021428Y-88680952D01*
X146069047Y-88490476D01*
X146116666Y-88395238D01*
X146211904Y-88300000D01*
X146354761Y-88252380D01*
X146450000Y-88252380D01*
X146592857Y-88300000D01*
X146640476Y-88347619D01*
X147259523Y-88252380D02*
X147450000Y-88252380D01*
X147545238Y-88300000D01*
X147640476Y-88395238D01*
X147688095Y-88585714D01*
X147688095Y-88919047D01*
X147640476Y-89109523D01*
X147545238Y-89204761D01*
X147450000Y-89252380D01*
X147259523Y-89252380D01*
X147164285Y-89204761D01*
X147069047Y-89109523D01*
X147021428Y-88919047D01*
X147021428Y-88585714D01*
X147069047Y-88395238D01*
X147164285Y-88300000D01*
X147259523Y-88252380D01*
X148116666Y-89252380D02*
X148116666Y-88252380D01*
X148688095Y-89252380D01*
X148688095Y-88252380D01*
X149497619Y-88728571D02*
X149164285Y-88728571D01*
X149164285Y-89252380D02*
X149164285Y-88252380D01*
X149640476Y-88252380D01*
X150021428Y-89252380D02*
X150021428Y-88252380D01*
X151021428Y-88300000D02*
X150926190Y-88252380D01*
X150783333Y-88252380D01*
X150640476Y-88300000D01*
X150545238Y-88395238D01*
X150497619Y-88490476D01*
X150450000Y-88680952D01*
X150450000Y-88823809D01*
X150497619Y-89014285D01*
X150545238Y-89109523D01*
X150640476Y-89204761D01*
X150783333Y-89252380D01*
X150878571Y-89252380D01*
X151021428Y-89204761D01*
X151069047Y-89157142D01*
X151069047Y-88823809D01*
X150878571Y-88823809D01*
X187097619Y-113257142D02*
X187050000Y-113304761D01*
X186907142Y-113352380D01*
X186811904Y-113352380D01*
X186669047Y-113304761D01*
X186573809Y-113209523D01*
X186526190Y-113114285D01*
X186478571Y-112923809D01*
X186478571Y-112780952D01*
X186526190Y-112590476D01*
X186573809Y-112495238D01*
X186669047Y-112400000D01*
X186811904Y-112352380D01*
X186907142Y-112352380D01*
X187050000Y-112400000D01*
X187097619Y-112447619D01*
X187383333Y-112352380D02*
X187954761Y-112352380D01*
X187669047Y-113352380D02*
X187669047Y-112352380D01*
X188764285Y-113352380D02*
X188288095Y-113352380D01*
X188288095Y-112352380D01*
X189050000Y-112447619D02*
X189097619Y-112400000D01*
X189192857Y-112352380D01*
X189430952Y-112352380D01*
X189526190Y-112400000D01*
X189573809Y-112447619D01*
X189621428Y-112542857D01*
X189621428Y-112638095D01*
X189573809Y-112780952D01*
X189002380Y-113352380D01*
X189621428Y-113352380D01*
X149802380Y-117229523D02*
X149135714Y-117229523D01*
X148802380Y-117229523D02*
X148850000Y-117277142D01*
X148897619Y-117229523D01*
X148850000Y-117181904D01*
X148802380Y-117229523D01*
X148897619Y-117229523D01*
X149707142Y-116181904D02*
X149754761Y-116229523D01*
X149802380Y-116372380D01*
X149802380Y-116467619D01*
X149754761Y-116610476D01*
X149659523Y-116705714D01*
X149564285Y-116753333D01*
X149373809Y-116800952D01*
X149230952Y-116800952D01*
X149040476Y-116753333D01*
X148945238Y-116705714D01*
X148850000Y-116610476D01*
X148802380Y-116467619D01*
X148802380Y-116372380D01*
X148850000Y-116229523D01*
X148897619Y-116181904D01*
X149278571Y-115753333D02*
X149278571Y-115420000D01*
X149802380Y-115277142D02*
X149802380Y-115753333D01*
X148802380Y-115753333D01*
X148802380Y-115277142D01*
X149897619Y-115086666D02*
X149897619Y-114324761D01*
X149754761Y-114134285D02*
X149802380Y-113991428D01*
X149802380Y-113753333D01*
X149754761Y-113658095D01*
X149707142Y-113610476D01*
X149611904Y-113562857D01*
X149516666Y-113562857D01*
X149421428Y-113610476D01*
X149373809Y-113658095D01*
X149326190Y-113753333D01*
X149278571Y-113943809D01*
X149230952Y-114039047D01*
X149183333Y-114086666D01*
X149088095Y-114134285D01*
X148992857Y-114134285D01*
X148897619Y-114086666D01*
X148850000Y-114039047D01*
X148802380Y-113943809D01*
X148802380Y-113705714D01*
X148850000Y-113562857D01*
X148802380Y-112943809D02*
X148802380Y-112753333D01*
X148850000Y-112658095D01*
X148945238Y-112562857D01*
X149135714Y-112515238D01*
X149469047Y-112515238D01*
X149659523Y-112562857D01*
X149754761Y-112658095D01*
X149802380Y-112753333D01*
X149802380Y-112943809D01*
X149754761Y-113039047D01*
X149659523Y-113134285D01*
X149469047Y-113181904D01*
X149135714Y-113181904D01*
X148945238Y-113134285D01*
X148850000Y-113039047D01*
X148802380Y-112943809D01*
X149802380Y-111562857D02*
X149802380Y-112134285D01*
X149802380Y-111848571D02*
X148802380Y-111848571D01*
X148945238Y-111943809D01*
X149040476Y-112039047D01*
X149088095Y-112134285D01*
X161488095Y-106824761D02*
X161630952Y-106872380D01*
X161869047Y-106872380D01*
X161964285Y-106824761D01*
X162011904Y-106777142D01*
X162059523Y-106681904D01*
X162059523Y-106586666D01*
X162011904Y-106491428D01*
X161964285Y-106443809D01*
X161869047Y-106396190D01*
X161678571Y-106348571D01*
X161583333Y-106300952D01*
X161535714Y-106253333D01*
X161488095Y-106158095D01*
X161488095Y-106062857D01*
X161535714Y-105967619D01*
X161583333Y-105920000D01*
X161678571Y-105872380D01*
X161916666Y-105872380D01*
X162059523Y-105920000D01*
X163059523Y-106777142D02*
X163011904Y-106824761D01*
X162869047Y-106872380D01*
X162773809Y-106872380D01*
X162630952Y-106824761D01*
X162535714Y-106729523D01*
X162488095Y-106634285D01*
X162440476Y-106443809D01*
X162440476Y-106300952D01*
X162488095Y-106110476D01*
X162535714Y-106015238D01*
X162630952Y-105920000D01*
X162773809Y-105872380D01*
X162869047Y-105872380D01*
X163011904Y-105920000D01*
X163059523Y-105967619D01*
X163488095Y-106872380D02*
X163488095Y-105872380D01*
X164059523Y-106872380D02*
X163630952Y-106300952D01*
X164059523Y-105872380D02*
X163488095Y-106443809D01*
X165011904Y-106872380D02*
X164440476Y-106872380D01*
X164726190Y-106872380D02*
X164726190Y-105872380D01*
X164630952Y-106015238D01*
X164535714Y-106110476D01*
X164440476Y-106158095D01*
X160476190Y-110452380D02*
X160476190Y-109785714D01*
X160476190Y-109452380D02*
X160428571Y-109500000D01*
X160476190Y-109547619D01*
X160523809Y-109500000D01*
X160476190Y-109452380D01*
X160476190Y-109547619D01*
X161523809Y-110357142D02*
X161476190Y-110404761D01*
X161333333Y-110452380D01*
X161238095Y-110452380D01*
X161095238Y-110404761D01*
X161000000Y-110309523D01*
X160952380Y-110214285D01*
X160904761Y-110023809D01*
X160904761Y-109880952D01*
X160952380Y-109690476D01*
X161000000Y-109595238D01*
X161095238Y-109500000D01*
X161238095Y-109452380D01*
X161333333Y-109452380D01*
X161476190Y-109500000D01*
X161523809Y-109547619D01*
X161952380Y-109928571D02*
X162285714Y-109928571D01*
X162428571Y-110452380D02*
X161952380Y-110452380D01*
X161952380Y-109452380D01*
X162428571Y-109452380D01*
X162619047Y-110547619D02*
X163380952Y-110547619D01*
X163571428Y-110404761D02*
X163714285Y-110452380D01*
X163952380Y-110452380D01*
X164047619Y-110404761D01*
X164095238Y-110357142D01*
X164142857Y-110261904D01*
X164142857Y-110166666D01*
X164095238Y-110071428D01*
X164047619Y-110023809D01*
X163952380Y-109976190D01*
X163761904Y-109928571D01*
X163666666Y-109880952D01*
X163619047Y-109833333D01*
X163571428Y-109738095D01*
X163571428Y-109642857D01*
X163619047Y-109547619D01*
X163666666Y-109500000D01*
X163761904Y-109452380D01*
X164000000Y-109452380D01*
X164142857Y-109500000D01*
X164571428Y-110452380D02*
X164571428Y-109452380D01*
X165571428Y-110452380D02*
X165000000Y-110452380D01*
X165285714Y-110452380D02*
X165285714Y-109452380D01*
X165190476Y-109595238D01*
X165095238Y-109690476D01*
X165000000Y-109738095D01*
X164358571Y-97203333D02*
X164406190Y-97060476D01*
X164453809Y-97012857D01*
X164549047Y-96965238D01*
X164691904Y-96965238D01*
X164787142Y-97012857D01*
X164834761Y-97060476D01*
X164882380Y-97155714D01*
X164882380Y-97536666D01*
X163882380Y-97536666D01*
X163882380Y-97203333D01*
X163930000Y-97108095D01*
X163977619Y-97060476D01*
X164072857Y-97012857D01*
X164168095Y-97012857D01*
X164263333Y-97060476D01*
X164310952Y-97108095D01*
X164358571Y-97203333D01*
X164358571Y-97536666D01*
X163882380Y-96536666D02*
X164691904Y-96536666D01*
X164787142Y-96489047D01*
X164834761Y-96441428D01*
X164882380Y-96346190D01*
X164882380Y-96155714D01*
X164834761Y-96060476D01*
X164787142Y-96012857D01*
X164691904Y-95965238D01*
X163882380Y-95965238D01*
X164834761Y-95536666D02*
X164882380Y-95393809D01*
X164882380Y-95155714D01*
X164834761Y-95060476D01*
X164787142Y-95012857D01*
X164691904Y-94965238D01*
X164596666Y-94965238D01*
X164501428Y-95012857D01*
X164453809Y-95060476D01*
X164406190Y-95155714D01*
X164358571Y-95346190D01*
X164310952Y-95441428D01*
X164263333Y-95489047D01*
X164168095Y-95536666D01*
X164072857Y-95536666D01*
X163977619Y-95489047D01*
X163930000Y-95441428D01*
X163882380Y-95346190D01*
X163882380Y-95108095D01*
X163930000Y-94965238D01*
X164406190Y-94346190D02*
X164882380Y-94346190D01*
X163882380Y-94679523D02*
X164406190Y-94346190D01*
X163882380Y-94012857D01*
X164882380Y-93155714D02*
X164882380Y-93727142D01*
X164882380Y-93441428D02*
X163882380Y-93441428D01*
X164025238Y-93536666D01*
X164120476Y-93631904D01*
X164168095Y-93727142D01*
X113462380Y-83649047D02*
X113462380Y-84220476D01*
X113462380Y-83934761D02*
X112462380Y-83934761D01*
X112605238Y-84030000D01*
X112700476Y-84125238D01*
X112748095Y-84220476D01*
X112462380Y-83363333D02*
X113462380Y-83030000D01*
X112462380Y-82696666D01*
X112557619Y-82410952D02*
X112510000Y-82363333D01*
X112462380Y-82268095D01*
X112462380Y-82030000D01*
X112510000Y-81934761D01*
X112557619Y-81887142D01*
X112652857Y-81839523D01*
X112748095Y-81839523D01*
X112890952Y-81887142D01*
X113462380Y-82458571D01*
X113462380Y-81839523D01*
X146404761Y-118619047D02*
X146452380Y-118476190D01*
X146452380Y-118238095D01*
X146404761Y-118142857D01*
X146357142Y-118095238D01*
X146261904Y-118047619D01*
X146166666Y-118047619D01*
X146071428Y-118095238D01*
X146023809Y-118142857D01*
X145976190Y-118238095D01*
X145928571Y-118428571D01*
X145880952Y-118523809D01*
X145833333Y-118571428D01*
X145738095Y-118619047D01*
X145642857Y-118619047D01*
X145547619Y-118571428D01*
X145500000Y-118523809D01*
X145452380Y-118428571D01*
X145452380Y-118190476D01*
X145500000Y-118047619D01*
X146404761Y-117666666D02*
X146452380Y-117523809D01*
X146452380Y-117285714D01*
X146404761Y-117190476D01*
X146357142Y-117142857D01*
X146261904Y-117095238D01*
X146166666Y-117095238D01*
X146071428Y-117142857D01*
X146023809Y-117190476D01*
X145976190Y-117285714D01*
X145928571Y-117476190D01*
X145880952Y-117571428D01*
X145833333Y-117619047D01*
X145738095Y-117666666D01*
X145642857Y-117666666D01*
X145547619Y-117619047D01*
X145500000Y-117571428D01*
X145452380Y-117476190D01*
X145452380Y-117238095D01*
X145500000Y-117095238D01*
X146547619Y-116904761D02*
X146547619Y-116142857D01*
X145928571Y-115571428D02*
X145976190Y-115428571D01*
X146023809Y-115380952D01*
X146119047Y-115333333D01*
X146261904Y-115333333D01*
X146357142Y-115380952D01*
X146404761Y-115428571D01*
X146452380Y-115523809D01*
X146452380Y-115904761D01*
X145452380Y-115904761D01*
X145452380Y-115571428D01*
X145500000Y-115476190D01*
X145547619Y-115428571D01*
X145642857Y-115380952D01*
X145738095Y-115380952D01*
X145833333Y-115428571D01*
X145880952Y-115476190D01*
X145928571Y-115571428D01*
X145928571Y-115904761D01*
X146452380Y-114380952D02*
X146452380Y-114952380D01*
X146452380Y-114666666D02*
X145452380Y-114666666D01*
X145595238Y-114761904D01*
X145690476Y-114857142D01*
X145738095Y-114952380D01*
X171921428Y-109662380D02*
X171588095Y-109186190D01*
X171350000Y-109662380D02*
X171350000Y-108662380D01*
X171730952Y-108662380D01*
X171826190Y-108710000D01*
X171873809Y-108757619D01*
X171921428Y-108852857D01*
X171921428Y-108995714D01*
X171873809Y-109090952D01*
X171826190Y-109138571D01*
X171730952Y-109186190D01*
X171350000Y-109186190D01*
X172350000Y-109138571D02*
X172683333Y-109138571D01*
X172826190Y-109662380D02*
X172350000Y-109662380D01*
X172350000Y-108662380D01*
X172826190Y-108662380D01*
X173207142Y-109614761D02*
X173350000Y-109662380D01*
X173588095Y-109662380D01*
X173683333Y-109614761D01*
X173730952Y-109567142D01*
X173778571Y-109471904D01*
X173778571Y-109376666D01*
X173730952Y-109281428D01*
X173683333Y-109233809D01*
X173588095Y-109186190D01*
X173397619Y-109138571D01*
X173302380Y-109090952D01*
X173254761Y-109043333D01*
X173207142Y-108948095D01*
X173207142Y-108852857D01*
X173254761Y-108757619D01*
X173302380Y-108710000D01*
X173397619Y-108662380D01*
X173635714Y-108662380D01*
X173778571Y-108710000D01*
X174207142Y-109138571D02*
X174540476Y-109138571D01*
X174683333Y-109662380D02*
X174207142Y-109662380D01*
X174207142Y-108662380D01*
X174683333Y-108662380D01*
X174969047Y-108662380D02*
X175540476Y-108662380D01*
X175254761Y-109662380D02*
X175254761Y-108662380D01*
X176397619Y-109662380D02*
X175826190Y-109662380D01*
X176111904Y-109662380D02*
X176111904Y-108662380D01*
X176016666Y-108805238D01*
X175921428Y-108900476D01*
X175826190Y-108948095D01*
X164082380Y-101762380D02*
X164082380Y-100762380D01*
X164415714Y-101476666D01*
X164749047Y-100762380D01*
X164749047Y-101762380D01*
X165225238Y-101762380D02*
X165225238Y-100762380D01*
X165653809Y-101714761D02*
X165796666Y-101762380D01*
X166034761Y-101762380D01*
X166130000Y-101714761D01*
X166177619Y-101667142D01*
X166225238Y-101571904D01*
X166225238Y-101476666D01*
X166177619Y-101381428D01*
X166130000Y-101333809D01*
X166034761Y-101286190D01*
X165844285Y-101238571D01*
X165749047Y-101190952D01*
X165701428Y-101143333D01*
X165653809Y-101048095D01*
X165653809Y-100952857D01*
X165701428Y-100857619D01*
X165749047Y-100810000D01*
X165844285Y-100762380D01*
X166082380Y-100762380D01*
X166225238Y-100810000D01*
X166844285Y-100762380D02*
X167034761Y-100762380D01*
X167130000Y-100810000D01*
X167225238Y-100905238D01*
X167272857Y-101095714D01*
X167272857Y-101429047D01*
X167225238Y-101619523D01*
X167130000Y-101714761D01*
X167034761Y-101762380D01*
X166844285Y-101762380D01*
X166749047Y-101714761D01*
X166653809Y-101619523D01*
X166606190Y-101429047D01*
X166606190Y-101095714D01*
X166653809Y-100905238D01*
X166749047Y-100810000D01*
X166844285Y-100762380D01*
X168225238Y-101762380D02*
X167653809Y-101762380D01*
X167939523Y-101762380D02*
X167939523Y-100762380D01*
X167844285Y-100905238D01*
X167749047Y-101000476D01*
X167653809Y-101048095D01*
X111000000Y-91238095D02*
X110952380Y-91333333D01*
X110952380Y-91476190D01*
X111000000Y-91619047D01*
X111095238Y-91714285D01*
X111190476Y-91761904D01*
X111380952Y-91809523D01*
X111523809Y-91809523D01*
X111714285Y-91761904D01*
X111809523Y-91714285D01*
X111904761Y-91619047D01*
X111952380Y-91476190D01*
X111952380Y-91380952D01*
X111904761Y-91238095D01*
X111857142Y-91190476D01*
X111523809Y-91190476D01*
X111523809Y-91380952D01*
X111952380Y-90761904D02*
X110952380Y-90761904D01*
X111952380Y-90190476D01*
X110952380Y-90190476D01*
X111952380Y-89714285D02*
X110952380Y-89714285D01*
X110952380Y-89476190D01*
X111000000Y-89333333D01*
X111095238Y-89238095D01*
X111190476Y-89190476D01*
X111380952Y-89142857D01*
X111523809Y-89142857D01*
X111714285Y-89190476D01*
X111809523Y-89238095D01*
X111904761Y-89333333D01*
X111952380Y-89476190D01*
X111952380Y-89714285D01*
X111047619Y-88761904D02*
X111000000Y-88714285D01*
X110952380Y-88619047D01*
X110952380Y-88380952D01*
X111000000Y-88285714D01*
X111047619Y-88238095D01*
X111142857Y-88190476D01*
X111238095Y-88190476D01*
X111380952Y-88238095D01*
X111952380Y-88809523D01*
X111952380Y-88190476D01*
X151576190Y-79209142D02*
X151528571Y-79256761D01*
X151385714Y-79304380D01*
X151290476Y-79304380D01*
X151147619Y-79256761D01*
X151052380Y-79161523D01*
X151004761Y-79066285D01*
X150957142Y-78875809D01*
X150957142Y-78732952D01*
X151004761Y-78542476D01*
X151052380Y-78447238D01*
X151147619Y-78352000D01*
X151290476Y-78304380D01*
X151385714Y-78304380D01*
X151528571Y-78352000D01*
X151576190Y-78399619D01*
X152576190Y-79304380D02*
X152242857Y-78828190D01*
X152004761Y-79304380D02*
X152004761Y-78304380D01*
X152385714Y-78304380D01*
X152480952Y-78352000D01*
X152528571Y-78399619D01*
X152576190Y-78494857D01*
X152576190Y-78637714D01*
X152528571Y-78732952D01*
X152480952Y-78780571D01*
X152385714Y-78828190D01*
X152004761Y-78828190D01*
X152957142Y-79256761D02*
X153100000Y-79304380D01*
X153338095Y-79304380D01*
X153433333Y-79256761D01*
X153480952Y-79209142D01*
X153528571Y-79113904D01*
X153528571Y-79018666D01*
X153480952Y-78923428D01*
X153433333Y-78875809D01*
X153338095Y-78828190D01*
X153147619Y-78780571D01*
X153052380Y-78732952D01*
X153004761Y-78685333D01*
X152957142Y-78590095D01*
X152957142Y-78494857D01*
X153004761Y-78399619D01*
X153052380Y-78352000D01*
X153147619Y-78304380D01*
X153385714Y-78304380D01*
X153528571Y-78352000D01*
X153814285Y-78304380D02*
X154385714Y-78304380D01*
X154100000Y-79304380D02*
X154100000Y-78304380D01*
X155242857Y-79304380D02*
X154671428Y-79304380D01*
X154957142Y-79304380D02*
X154957142Y-78304380D01*
X154861904Y-78447238D01*
X154766666Y-78542476D01*
X154671428Y-78590095D01*
X125066666Y-83752380D02*
X125066666Y-82752380D01*
X125447619Y-82752380D01*
X125542857Y-82800000D01*
X125590476Y-82847619D01*
X125638095Y-82942857D01*
X125638095Y-83085714D01*
X125590476Y-83180952D01*
X125542857Y-83228571D01*
X125447619Y-83276190D01*
X125066666Y-83276190D01*
X125971428Y-82752380D02*
X126209523Y-83752380D01*
X126400000Y-83038095D01*
X126590476Y-83752380D01*
X126828571Y-82752380D01*
X127780952Y-83752380D02*
X127447619Y-83276190D01*
X127209523Y-83752380D02*
X127209523Y-82752380D01*
X127590476Y-82752380D01*
X127685714Y-82800000D01*
X127733333Y-82847619D01*
X127780952Y-82942857D01*
X127780952Y-83085714D01*
X127733333Y-83180952D01*
X127685714Y-83228571D01*
X127590476Y-83276190D01*
X127209523Y-83276190D01*
X152452380Y-113333333D02*
X153166666Y-113333333D01*
X153309523Y-113380952D01*
X153404761Y-113476190D01*
X153452380Y-113619047D01*
X153452380Y-113714285D01*
X152452380Y-112952380D02*
X152452380Y-112333333D01*
X152833333Y-112666666D01*
X152833333Y-112523809D01*
X152880952Y-112428571D01*
X152928571Y-112380952D01*
X153023809Y-112333333D01*
X153261904Y-112333333D01*
X153357142Y-112380952D01*
X153404761Y-112428571D01*
X153452380Y-112523809D01*
X153452380Y-112809523D01*
X153404761Y-112904761D01*
X153357142Y-112952380D01*
D12*
X146330238Y-110546523D02*
X146330238Y-109276523D01*
X147660714Y-110425571D02*
X147600238Y-110486047D01*
X147418809Y-110546523D01*
X147297857Y-110546523D01*
X147116428Y-110486047D01*
X146995476Y-110365095D01*
X146935000Y-110244142D01*
X146874523Y-110002238D01*
X146874523Y-109820809D01*
X146935000Y-109578904D01*
X146995476Y-109457952D01*
X147116428Y-109337000D01*
X147297857Y-109276523D01*
X147418809Y-109276523D01*
X147600238Y-109337000D01*
X147660714Y-109397476D01*
X148084047Y-109276523D02*
X148870238Y-109276523D01*
X148446904Y-109760333D01*
X148628333Y-109760333D01*
X148749285Y-109820809D01*
X148809761Y-109881285D01*
X148870238Y-110002238D01*
X148870238Y-110304619D01*
X148809761Y-110425571D01*
X148749285Y-110486047D01*
X148628333Y-110546523D01*
X148265476Y-110546523D01*
X148144523Y-110486047D01*
X148084047Y-110425571D01*
D11*
X137452380Y-113333333D02*
X138166666Y-113333333D01*
X138309523Y-113380952D01*
X138404761Y-113476190D01*
X138452380Y-113619047D01*
X138452380Y-113714285D01*
X137452380Y-112952380D02*
X137452380Y-112285714D01*
X138452380Y-112714285D01*
X159022380Y-80333333D02*
X159736666Y-80333333D01*
X159879523Y-80380952D01*
X159974761Y-80476190D01*
X160022380Y-80619047D01*
X160022380Y-80714285D01*
X159022380Y-79428571D02*
X159022380Y-79619047D01*
X159070000Y-79714285D01*
X159117619Y-79761904D01*
X159260476Y-79857142D01*
X159450952Y-79904761D01*
X159831904Y-79904761D01*
X159927142Y-79857142D01*
X159974761Y-79809523D01*
X160022380Y-79714285D01*
X160022380Y-79523809D01*
X159974761Y-79428571D01*
X159927142Y-79380952D01*
X159831904Y-79333333D01*
X159593809Y-79333333D01*
X159498571Y-79380952D01*
X159450952Y-79428571D01*
X159403333Y-79523809D01*
X159403333Y-79714285D01*
X159450952Y-79809523D01*
X159498571Y-79857142D01*
X159593809Y-79904761D01*
X151722380Y-83792380D02*
X151246190Y-84125714D01*
X151722380Y-84363809D02*
X150722380Y-84363809D01*
X150722380Y-83982857D01*
X150770000Y-83887619D01*
X150817619Y-83840000D01*
X150912857Y-83792380D01*
X151055714Y-83792380D01*
X151150952Y-83840000D01*
X151198571Y-83887619D01*
X151246190Y-83982857D01*
X151246190Y-84363809D01*
X151198571Y-83363809D02*
X151198571Y-83030476D01*
X151722380Y-82887619D02*
X151722380Y-83363809D01*
X150722380Y-83363809D01*
X150722380Y-82887619D01*
X151674761Y-82506666D02*
X151722380Y-82363809D01*
X151722380Y-82125714D01*
X151674761Y-82030476D01*
X151627142Y-81982857D01*
X151531904Y-81935238D01*
X151436666Y-81935238D01*
X151341428Y-81982857D01*
X151293809Y-82030476D01*
X151246190Y-82125714D01*
X151198571Y-82316190D01*
X151150952Y-82411428D01*
X151103333Y-82459047D01*
X151008095Y-82506666D01*
X150912857Y-82506666D01*
X150817619Y-82459047D01*
X150770000Y-82411428D01*
X150722380Y-82316190D01*
X150722380Y-82078095D01*
X150770000Y-81935238D01*
X151198571Y-81506666D02*
X151198571Y-81173333D01*
X151722380Y-81030476D02*
X151722380Y-81506666D01*
X150722380Y-81506666D01*
X150722380Y-81030476D01*
X150722380Y-80744761D02*
X150722380Y-80173333D01*
X151722380Y-80459047D02*
X150722380Y-80459047D01*
X123512380Y-110026666D02*
X123512380Y-110502857D01*
X123988571Y-110550476D01*
X123940952Y-110502857D01*
X123893333Y-110407619D01*
X123893333Y-110169523D01*
X123940952Y-110074285D01*
X123988571Y-110026666D01*
X124083809Y-109979047D01*
X124321904Y-109979047D01*
X124417142Y-110026666D01*
X124464761Y-110074285D01*
X124512380Y-110169523D01*
X124512380Y-110407619D01*
X124464761Y-110502857D01*
X124417142Y-110550476D01*
X123512380Y-109693333D02*
X124512380Y-109360000D01*
X123512380Y-109026666D01*
X123512380Y-108502857D02*
X123512380Y-108407619D01*
X123560000Y-108312380D01*
X123607619Y-108264761D01*
X123702857Y-108217142D01*
X123893333Y-108169523D01*
X124131428Y-108169523D01*
X124321904Y-108217142D01*
X124417142Y-108264761D01*
X124464761Y-108312380D01*
X124512380Y-108407619D01*
X124512380Y-108502857D01*
X124464761Y-108598095D01*
X124417142Y-108645714D01*
X124321904Y-108693333D01*
X124131428Y-108740952D01*
X123893333Y-108740952D01*
X123702857Y-108693333D01*
X123607619Y-108645714D01*
X123560000Y-108598095D01*
X123512380Y-108502857D01*
X115582380Y-113183333D02*
X116296666Y-113183333D01*
X116439523Y-113230952D01*
X116534761Y-113326190D01*
X116582380Y-113469047D01*
X116582380Y-113564285D01*
X115915714Y-112278571D02*
X116582380Y-112278571D01*
X115534761Y-112516666D02*
X116249047Y-112754761D01*
X116249047Y-112135714D01*
X142952380Y-95833333D02*
X143666666Y-95833333D01*
X143809523Y-95880952D01*
X143904761Y-95976190D01*
X143952380Y-96119047D01*
X143952380Y-96214285D01*
X143047619Y-95404761D02*
X143000000Y-95357142D01*
X142952380Y-95261904D01*
X142952380Y-95023809D01*
X143000000Y-94928571D01*
X143047619Y-94880952D01*
X143142857Y-94833333D01*
X143238095Y-94833333D01*
X143380952Y-94880952D01*
X143952380Y-95452380D01*
X143952380Y-94833333D01*
X102966666Y-104952380D02*
X102966666Y-105666666D01*
X102919047Y-105809523D01*
X102823809Y-105904761D01*
X102680952Y-105952380D01*
X102585714Y-105952380D01*
X103966666Y-105952380D02*
X103395238Y-105952380D01*
X103680952Y-105952380D02*
X103680952Y-104952380D01*
X103585714Y-105095238D01*
X103490476Y-105190476D01*
X103395238Y-105238095D01*
X124563809Y-93036190D02*
X124563809Y-93512380D01*
X124230476Y-92512380D02*
X124563809Y-93036190D01*
X124897142Y-92512380D01*
X125754285Y-93512380D02*
X125182857Y-93512380D01*
X125468571Y-93512380D02*
X125468571Y-92512380D01*
X125373333Y-92655238D01*
X125278095Y-92750476D01*
X125182857Y-92798095D01*
D13*
X190969034Y-95035369D02*
X190969034Y-95439063D01*
X190992781Y-95486557D01*
X191016528Y-95510304D01*
X191064021Y-95534050D01*
X191159008Y-95534050D01*
X191206501Y-95510304D01*
X191230248Y-95486557D01*
X191253995Y-95439063D01*
X191253995Y-95035369D01*
X191705182Y-95201596D02*
X191705182Y-95534050D01*
X191586449Y-95011623D02*
X191467715Y-95367823D01*
X191776422Y-95367823D01*
D11*
X206666666Y-89552380D02*
X206666666Y-90266666D01*
X206619047Y-90409523D01*
X206523809Y-90504761D01*
X206380952Y-90552380D01*
X206285714Y-90552380D01*
X207619047Y-89552380D02*
X207142857Y-89552380D01*
X207095238Y-90028571D01*
X207142857Y-89980952D01*
X207238095Y-89933333D01*
X207476190Y-89933333D01*
X207571428Y-89980952D01*
X207619047Y-90028571D01*
X207666666Y-90123809D01*
X207666666Y-90361904D01*
X207619047Y-90457142D01*
X207571428Y-90504761D01*
X207476190Y-90552380D01*
X207238095Y-90552380D01*
X207142857Y-90504761D01*
X207095238Y-90457142D01*
X173297619Y-85757142D02*
X173250000Y-85804761D01*
X173107142Y-85852380D01*
X173011904Y-85852380D01*
X172869047Y-85804761D01*
X172773809Y-85709523D01*
X172726190Y-85614285D01*
X172678571Y-85423809D01*
X172678571Y-85280952D01*
X172726190Y-85090476D01*
X172773809Y-84995238D01*
X172869047Y-84900000D01*
X173011904Y-84852380D01*
X173107142Y-84852380D01*
X173250000Y-84900000D01*
X173297619Y-84947619D01*
X173583333Y-84852380D02*
X174154761Y-84852380D01*
X173869047Y-85852380D02*
X173869047Y-84852380D01*
X174964285Y-85852380D02*
X174488095Y-85852380D01*
X174488095Y-84852380D01*
X175821428Y-85852380D02*
X175250000Y-85852380D01*
X175535714Y-85852380D02*
X175535714Y-84852380D01*
X175440476Y-84995238D01*
X175345238Y-85090476D01*
X175250000Y-85138095D01*
D12*
X130866523Y-86849761D02*
X129596523Y-86849761D01*
X130745571Y-85519285D02*
X130806047Y-85579761D01*
X130866523Y-85761190D01*
X130866523Y-85882142D01*
X130806047Y-86063571D01*
X130685095Y-86184523D01*
X130564142Y-86245000D01*
X130322238Y-86305476D01*
X130140809Y-86305476D01*
X129898904Y-86245000D01*
X129777952Y-86184523D01*
X129657000Y-86063571D01*
X129596523Y-85882142D01*
X129596523Y-85761190D01*
X129657000Y-85579761D01*
X129717476Y-85519285D01*
X130866523Y-84309761D02*
X130866523Y-85035476D01*
X130866523Y-84672619D02*
X129596523Y-84672619D01*
X129777952Y-84793571D01*
X129898904Y-84914523D01*
X129959380Y-85035476D01*
D11*
X132738095Y-91102380D02*
X132738095Y-91911904D01*
X132785714Y-92007142D01*
X132833333Y-92054761D01*
X132928571Y-92102380D01*
X133119047Y-92102380D01*
X133214285Y-92054761D01*
X133261904Y-92007142D01*
X133309523Y-91911904D01*
X133309523Y-91102380D01*
X133738095Y-91197619D02*
X133785714Y-91150000D01*
X133880952Y-91102380D01*
X134119047Y-91102380D01*
X134214285Y-91150000D01*
X134261904Y-91197619D01*
X134309523Y-91292857D01*
X134309523Y-91388095D01*
X134261904Y-91530952D01*
X133690476Y-92102380D01*
X134309523Y-92102380D01*
X155150476Y-82602380D02*
X155817142Y-83602380D01*
X155817142Y-82602380D02*
X155150476Y-83602380D01*
X156721904Y-83602380D02*
X156150476Y-83602380D01*
X156436190Y-83602380D02*
X156436190Y-82602380D01*
X156340952Y-82745238D01*
X156245714Y-82840476D01*
X156150476Y-82888095D01*
D12*
X153624523Y-98439761D02*
X152354523Y-98439761D01*
X153503571Y-97109285D02*
X153564047Y-97169761D01*
X153624523Y-97351190D01*
X153624523Y-97472142D01*
X153564047Y-97653571D01*
X153443095Y-97774523D01*
X153322142Y-97835000D01*
X153080238Y-97895476D01*
X152898809Y-97895476D01*
X152656904Y-97835000D01*
X152535952Y-97774523D01*
X152415000Y-97653571D01*
X152354523Y-97472142D01*
X152354523Y-97351190D01*
X152415000Y-97169761D01*
X152475476Y-97109285D01*
X152475476Y-96625476D02*
X152415000Y-96565000D01*
X152354523Y-96444047D01*
X152354523Y-96141666D01*
X152415000Y-96020714D01*
X152475476Y-95960238D01*
X152596428Y-95899761D01*
X152717380Y-95899761D01*
X152898809Y-95960238D01*
X153624523Y-96685952D01*
X153624523Y-95899761D01*
D11*
X133107142Y-109427142D02*
X133059523Y-109474761D01*
X132916666Y-109522380D01*
X132821428Y-109522380D01*
X132678571Y-109474761D01*
X132583333Y-109379523D01*
X132535714Y-109284285D01*
X132488095Y-109093809D01*
X132488095Y-108950952D01*
X132535714Y-108760476D01*
X132583333Y-108665238D01*
X132678571Y-108570000D01*
X132821428Y-108522380D01*
X132916666Y-108522380D01*
X133059523Y-108570000D01*
X133107142Y-108617619D01*
X133535714Y-109522380D02*
X133535714Y-108522380D01*
X133773809Y-108522380D01*
X133916666Y-108570000D01*
X134011904Y-108665238D01*
X134059523Y-108760476D01*
X134107142Y-108950952D01*
X134107142Y-109093809D01*
X134059523Y-109284285D01*
X134011904Y-109379523D01*
X133916666Y-109474761D01*
X133773809Y-109522380D01*
X133535714Y-109522380D01*
X134535714Y-109522380D02*
X134535714Y-108522380D01*
X135107142Y-109522380D01*
X135107142Y-108522380D01*
X135583333Y-108998571D02*
X135916666Y-108998571D01*
X136059523Y-109522380D02*
X135583333Y-109522380D01*
X135583333Y-108522380D01*
X136059523Y-108522380D01*
X137011904Y-109522380D02*
X136440476Y-109522380D01*
X136726190Y-109522380D02*
X136726190Y-108522380D01*
X136630952Y-108665238D01*
X136535714Y-108760476D01*
X136440476Y-108808095D01*
X165738095Y-88232380D02*
X166309523Y-88232380D01*
X166023809Y-89232380D02*
X166023809Y-88232380D01*
X166547619Y-88232380D02*
X167214285Y-89232380D01*
X167214285Y-88232380D02*
X166547619Y-89232380D01*
X166333333Y-84736380D02*
X166000000Y-84260190D01*
X165761904Y-84736380D02*
X165761904Y-83736380D01*
X166142857Y-83736380D01*
X166238095Y-83784000D01*
X166285714Y-83831619D01*
X166333333Y-83926857D01*
X166333333Y-84069714D01*
X166285714Y-84164952D01*
X166238095Y-84212571D01*
X166142857Y-84260190D01*
X165761904Y-84260190D01*
X166666666Y-83736380D02*
X167333333Y-84736380D01*
X167333333Y-83736380D02*
X166666666Y-84736380D01*
X164952380Y-113333333D02*
X165666666Y-113333333D01*
X165809523Y-113380952D01*
X165904761Y-113476190D01*
X165952380Y-113619047D01*
X165952380Y-113714285D01*
X165380952Y-112714285D02*
X165333333Y-112809523D01*
X165285714Y-112857142D01*
X165190476Y-112904761D01*
X165142857Y-112904761D01*
X165047619Y-112857142D01*
X165000000Y-112809523D01*
X164952380Y-112714285D01*
X164952380Y-112523809D01*
X165000000Y-112428571D01*
X165047619Y-112380952D01*
X165142857Y-112333333D01*
X165190476Y-112333333D01*
X165285714Y-112380952D01*
X165333333Y-112428571D01*
X165380952Y-112523809D01*
X165380952Y-112714285D01*
X165428571Y-112809523D01*
X165476190Y-112857142D01*
X165571428Y-112904761D01*
X165761904Y-112904761D01*
X165857142Y-112857142D01*
X165904761Y-112809523D01*
X165952380Y-112714285D01*
X165952380Y-112523809D01*
X165904761Y-112428571D01*
X165857142Y-112380952D01*
X165761904Y-112333333D01*
X165571428Y-112333333D01*
X165476190Y-112380952D01*
X165428571Y-112428571D01*
X165380952Y-112523809D01*
X126322380Y-116073333D02*
X127036666Y-116073333D01*
X127179523Y-116120952D01*
X127274761Y-116216190D01*
X127322380Y-116359047D01*
X127322380Y-116454285D01*
X127322380Y-115549523D02*
X127322380Y-115359047D01*
X127274761Y-115263809D01*
X127227142Y-115216190D01*
X127084285Y-115120952D01*
X126893809Y-115073333D01*
X126512857Y-115073333D01*
X126417619Y-115120952D01*
X126370000Y-115168571D01*
X126322380Y-115263809D01*
X126322380Y-115454285D01*
X126370000Y-115549523D01*
X126417619Y-115597142D01*
X126512857Y-115644761D01*
X126750952Y-115644761D01*
X126846190Y-115597142D01*
X126893809Y-115549523D01*
X126941428Y-115454285D01*
X126941428Y-115263809D01*
X126893809Y-115168571D01*
X126846190Y-115120952D01*
X126750952Y-115073333D01*
X168950000Y-106402380D02*
X168950000Y-105402380D01*
X169188095Y-105402380D01*
X169330952Y-105450000D01*
X169426190Y-105545238D01*
X169473809Y-105640476D01*
X169521428Y-105830952D01*
X169521428Y-105973809D01*
X169473809Y-106164285D01*
X169426190Y-106259523D01*
X169330952Y-106354761D01*
X169188095Y-106402380D01*
X168950000Y-106402380D01*
X169950000Y-106402380D02*
X169950000Y-105402380D01*
X170616666Y-105402380D02*
X170807142Y-105402380D01*
X170902380Y-105450000D01*
X170997619Y-105545238D01*
X171045238Y-105735714D01*
X171045238Y-106069047D01*
X170997619Y-106259523D01*
X170902380Y-106354761D01*
X170807142Y-106402380D01*
X170616666Y-106402380D01*
X170521428Y-106354761D01*
X170426190Y-106259523D01*
X170378571Y-106069047D01*
X170378571Y-105735714D01*
X170426190Y-105545238D01*
X170521428Y-105450000D01*
X170616666Y-105402380D01*
X171997619Y-106402380D02*
X171426190Y-106402380D01*
X171711904Y-106402380D02*
X171711904Y-105402380D01*
X171616666Y-105545238D01*
X171521428Y-105640476D01*
X171426190Y-105688095D01*
X174470000Y-104892380D02*
X173993809Y-104892380D01*
X173993809Y-103892380D01*
X174565238Y-104987619D02*
X175327142Y-104987619D01*
X175517619Y-104844761D02*
X175660476Y-104892380D01*
X175898571Y-104892380D01*
X175993809Y-104844761D01*
X176041428Y-104797142D01*
X176089047Y-104701904D01*
X176089047Y-104606666D01*
X176041428Y-104511428D01*
X175993809Y-104463809D01*
X175898571Y-104416190D01*
X175708095Y-104368571D01*
X175612857Y-104320952D01*
X175565238Y-104273333D01*
X175517619Y-104178095D01*
X175517619Y-104082857D01*
X175565238Y-103987619D01*
X175612857Y-103940000D01*
X175708095Y-103892380D01*
X175946190Y-103892380D01*
X176089047Y-103940000D01*
X176470000Y-104844761D02*
X176612857Y-104892380D01*
X176850952Y-104892380D01*
X176946190Y-104844761D01*
X176993809Y-104797142D01*
X177041428Y-104701904D01*
X177041428Y-104606666D01*
X176993809Y-104511428D01*
X176946190Y-104463809D01*
X176850952Y-104416190D01*
X176660476Y-104368571D01*
X176565238Y-104320952D01*
X176517619Y-104273333D01*
X176470000Y-104178095D01*
X176470000Y-104082857D01*
X176517619Y-103987619D01*
X176565238Y-103940000D01*
X176660476Y-103892380D01*
X176898571Y-103892380D01*
X177041428Y-103940000D01*
X177993809Y-104892380D02*
X177422380Y-104892380D01*
X177708095Y-104892380D02*
X177708095Y-103892380D01*
X177612857Y-104035238D01*
X177517619Y-104130476D01*
X177422380Y-104178095D01*
X121682380Y-84188095D02*
X121682380Y-83569047D01*
X122063333Y-83902380D01*
X122063333Y-83759523D01*
X122110952Y-83664285D01*
X122158571Y-83616666D01*
X122253809Y-83569047D01*
X122491904Y-83569047D01*
X122587142Y-83616666D01*
X122634761Y-83664285D01*
X122682380Y-83759523D01*
X122682380Y-84045238D01*
X122634761Y-84140476D01*
X122587142Y-84188095D01*
X121682380Y-83283333D02*
X122682380Y-82950000D01*
X121682380Y-82616666D01*
X121682380Y-82378571D02*
X121682380Y-81759523D01*
X122063333Y-82092857D01*
X122063333Y-81950000D01*
X122110952Y-81854761D01*
X122158571Y-81807142D01*
X122253809Y-81759523D01*
X122491904Y-81759523D01*
X122587142Y-81807142D01*
X122634761Y-81854761D01*
X122682380Y-81950000D01*
X122682380Y-82235714D01*
X122634761Y-82330952D01*
X122587142Y-82378571D01*
X156752380Y-104802380D02*
X156752380Y-103802380D01*
X157085714Y-104516666D01*
X157419047Y-103802380D01*
X157419047Y-104802380D01*
X158085714Y-103802380D02*
X158276190Y-103802380D01*
X158371428Y-103850000D01*
X158466666Y-103945238D01*
X158514285Y-104135714D01*
X158514285Y-104469047D01*
X158466666Y-104659523D01*
X158371428Y-104754761D01*
X158276190Y-104802380D01*
X158085714Y-104802380D01*
X157990476Y-104754761D01*
X157895238Y-104659523D01*
X157847619Y-104469047D01*
X157847619Y-104135714D01*
X157895238Y-103945238D01*
X157990476Y-103850000D01*
X158085714Y-103802380D01*
X158895238Y-104754761D02*
X159038095Y-104802380D01*
X159276190Y-104802380D01*
X159371428Y-104754761D01*
X159419047Y-104707142D01*
X159466666Y-104611904D01*
X159466666Y-104516666D01*
X159419047Y-104421428D01*
X159371428Y-104373809D01*
X159276190Y-104326190D01*
X159085714Y-104278571D01*
X158990476Y-104230952D01*
X158942857Y-104183333D01*
X158895238Y-104088095D01*
X158895238Y-103992857D01*
X158942857Y-103897619D01*
X158990476Y-103850000D01*
X159085714Y-103802380D01*
X159323809Y-103802380D01*
X159466666Y-103850000D01*
X159895238Y-104802380D02*
X159895238Y-103802380D01*
X160895238Y-104802380D02*
X160323809Y-104802380D01*
X160609523Y-104802380D02*
X160609523Y-103802380D01*
X160514285Y-103945238D01*
X160419047Y-104040476D01*
X160323809Y-104088095D01*
X173523809Y-93176190D02*
X173523809Y-93652380D01*
X173190476Y-92652380D02*
X173523809Y-93176190D01*
X173857142Y-92652380D01*
X174142857Y-92747619D02*
X174190476Y-92700000D01*
X174285714Y-92652380D01*
X174523809Y-92652380D01*
X174619047Y-92700000D01*
X174666666Y-92747619D01*
X174714285Y-92842857D01*
X174714285Y-92938095D01*
X174666666Y-93080952D01*
X174095238Y-93652380D01*
X174714285Y-93652380D01*
X173350000Y-118168095D02*
X173302380Y-118263333D01*
X173302380Y-118406190D01*
X173350000Y-118549047D01*
X173445238Y-118644285D01*
X173540476Y-118691904D01*
X173730952Y-118739523D01*
X173873809Y-118739523D01*
X174064285Y-118691904D01*
X174159523Y-118644285D01*
X174254761Y-118549047D01*
X174302380Y-118406190D01*
X174302380Y-118310952D01*
X174254761Y-118168095D01*
X174207142Y-118120476D01*
X173873809Y-118120476D01*
X173873809Y-118310952D01*
X174302380Y-117691904D02*
X173302380Y-117691904D01*
X174302380Y-117120476D01*
X173302380Y-117120476D01*
X174302380Y-116644285D02*
X173302380Y-116644285D01*
X173302380Y-116406190D01*
X173350000Y-116263333D01*
X173445238Y-116168095D01*
X173540476Y-116120476D01*
X173730952Y-116072857D01*
X173873809Y-116072857D01*
X174064285Y-116120476D01*
X174159523Y-116168095D01*
X174254761Y-116263333D01*
X174302380Y-116406190D01*
X174302380Y-116644285D01*
X174302380Y-115120476D02*
X174302380Y-115691904D01*
X174302380Y-115406190D02*
X173302380Y-115406190D01*
X173445238Y-115501428D01*
X173540476Y-115596666D01*
X173588095Y-115691904D01*
X132874761Y-106252380D02*
X132874761Y-105252380D01*
X133112857Y-105252380D01*
X133255714Y-105300000D01*
X133350952Y-105395238D01*
X133398571Y-105490476D01*
X133446190Y-105680952D01*
X133446190Y-105823809D01*
X133398571Y-106014285D01*
X133350952Y-106109523D01*
X133255714Y-106204761D01*
X133112857Y-106252380D01*
X132874761Y-106252380D01*
X134017619Y-106252380D02*
X133922380Y-106204761D01*
X133874761Y-106157142D01*
X133827142Y-106061904D01*
X133827142Y-105776190D01*
X133874761Y-105680952D01*
X133922380Y-105633333D01*
X134017619Y-105585714D01*
X134160476Y-105585714D01*
X134255714Y-105633333D01*
X134303333Y-105680952D01*
X134350952Y-105776190D01*
X134350952Y-106061904D01*
X134303333Y-106157142D01*
X134255714Y-106204761D01*
X134160476Y-106252380D01*
X134017619Y-106252380D01*
X134779523Y-105585714D02*
X134779523Y-106252380D01*
X134779523Y-105680952D02*
X134827142Y-105633333D01*
X134922380Y-105585714D01*
X135065238Y-105585714D01*
X135160476Y-105633333D01*
X135208095Y-105728571D01*
X135208095Y-106252380D01*
X136065238Y-106204761D02*
X135970000Y-106252380D01*
X135779523Y-106252380D01*
X135684285Y-106204761D01*
X135636666Y-106109523D01*
X135636666Y-105728571D01*
X135684285Y-105633333D01*
X135779523Y-105585714D01*
X135970000Y-105585714D01*
X136065238Y-105633333D01*
X136112857Y-105728571D01*
X136112857Y-105823809D01*
X135636666Y-105919047D01*
X152067380Y-90469523D02*
X152781666Y-90469523D01*
X152924523Y-90517142D01*
X153019761Y-90612380D01*
X153067380Y-90755238D01*
X153067380Y-90850476D01*
X153067380Y-89469523D02*
X153067380Y-90040952D01*
X153067380Y-89755238D02*
X152067380Y-89755238D01*
X152210238Y-89850476D01*
X152305476Y-89945714D01*
X152353095Y-90040952D01*
X152067380Y-88850476D02*
X152067380Y-88755238D01*
X152115000Y-88660000D01*
X152162619Y-88612380D01*
X152257857Y-88564761D01*
X152448333Y-88517142D01*
X152686428Y-88517142D01*
X152876904Y-88564761D01*
X152972142Y-88612380D01*
X153019761Y-88660000D01*
X153067380Y-88755238D01*
X153067380Y-88850476D01*
X153019761Y-88945714D01*
X152972142Y-88993333D01*
X152876904Y-89040952D01*
X152686428Y-89088571D01*
X152448333Y-89088571D01*
X152257857Y-89040952D01*
X152162619Y-88993333D01*
X152115000Y-88945714D01*
X152067380Y-88850476D01*
X134981428Y-86002380D02*
X134981428Y-85002380D01*
X135219523Y-85002380D01*
X135362380Y-85050000D01*
X135457619Y-85145238D01*
X135505238Y-85240476D01*
X135552857Y-85430952D01*
X135552857Y-85573809D01*
X135505238Y-85764285D01*
X135457619Y-85859523D01*
X135362380Y-85954761D01*
X135219523Y-86002380D01*
X134981428Y-86002380D01*
X136410000Y-86002380D02*
X136410000Y-85478571D01*
X136362380Y-85383333D01*
X136267142Y-85335714D01*
X136076666Y-85335714D01*
X135981428Y-85383333D01*
X136410000Y-85954761D02*
X136314761Y-86002380D01*
X136076666Y-86002380D01*
X135981428Y-85954761D01*
X135933809Y-85859523D01*
X135933809Y-85764285D01*
X135981428Y-85669047D01*
X136076666Y-85621428D01*
X136314761Y-85621428D01*
X136410000Y-85573809D01*
X136743333Y-85335714D02*
X137124285Y-85335714D01*
X136886190Y-85002380D02*
X136886190Y-85859523D01*
X136933809Y-85954761D01*
X137029047Y-86002380D01*
X137124285Y-86002380D01*
X137886190Y-86002380D02*
X137886190Y-85478571D01*
X137838571Y-85383333D01*
X137743333Y-85335714D01*
X137552857Y-85335714D01*
X137457619Y-85383333D01*
X137886190Y-85954761D02*
X137790952Y-86002380D01*
X137552857Y-86002380D01*
X137457619Y-85954761D01*
X137410000Y-85859523D01*
X137410000Y-85764285D01*
X137457619Y-85669047D01*
X137552857Y-85621428D01*
X137790952Y-85621428D01*
X137886190Y-85573809D01*
X138886190Y-86002380D02*
X138314761Y-86002380D01*
X138600476Y-86002380D02*
X138600476Y-85002380D01*
X138505238Y-85145238D01*
X138410000Y-85240476D01*
X138314761Y-85288095D01*
X131697142Y-78037142D02*
X131649523Y-78084761D01*
X131506666Y-78132380D01*
X131411428Y-78132380D01*
X131268571Y-78084761D01*
X131173333Y-77989523D01*
X131125714Y-77894285D01*
X131078095Y-77703809D01*
X131078095Y-77560952D01*
X131125714Y-77370476D01*
X131173333Y-77275238D01*
X131268571Y-77180000D01*
X131411428Y-77132380D01*
X131506666Y-77132380D01*
X131649523Y-77180000D01*
X131697142Y-77227619D01*
X132078095Y-78084761D02*
X132220952Y-78132380D01*
X132459047Y-78132380D01*
X132554285Y-78084761D01*
X132601904Y-78037142D01*
X132649523Y-77941904D01*
X132649523Y-77846666D01*
X132601904Y-77751428D01*
X132554285Y-77703809D01*
X132459047Y-77656190D01*
X132268571Y-77608571D01*
X132173333Y-77560952D01*
X132125714Y-77513333D01*
X132078095Y-77418095D01*
X132078095Y-77322857D01*
X132125714Y-77227619D01*
X132173333Y-77180000D01*
X132268571Y-77132380D01*
X132506666Y-77132380D01*
X132649523Y-77180000D01*
X133030476Y-77465714D02*
X133744761Y-77465714D01*
X133316190Y-77037142D02*
X133030476Y-78322857D01*
X133649523Y-77894285D02*
X132935238Y-77894285D01*
X133363809Y-78322857D02*
X133649523Y-77037142D01*
X134601904Y-78132380D02*
X134030476Y-78132380D01*
X134316190Y-78132380D02*
X134316190Y-77132380D01*
X134220952Y-77275238D01*
X134125714Y-77370476D01*
X134030476Y-77418095D01*
X135738571Y-80127142D02*
X135690952Y-80174761D01*
X135548095Y-80222380D01*
X135452857Y-80222380D01*
X135310000Y-80174761D01*
X135214761Y-80079523D01*
X135167142Y-79984285D01*
X135119523Y-79793809D01*
X135119523Y-79650952D01*
X135167142Y-79460476D01*
X135214761Y-79365238D01*
X135310000Y-79270000D01*
X135452857Y-79222380D01*
X135548095Y-79222380D01*
X135690952Y-79270000D01*
X135738571Y-79317619D01*
X136643333Y-80222380D02*
X136167142Y-80222380D01*
X136167142Y-79222380D01*
X136976666Y-80222380D02*
X136976666Y-79222380D01*
X137548095Y-80222380D02*
X137119523Y-79650952D01*
X137548095Y-79222380D02*
X136976666Y-79793809D01*
X138500476Y-80222380D02*
X137929047Y-80222380D01*
X138214761Y-80222380D02*
X138214761Y-79222380D01*
X138119523Y-79365238D01*
X138024285Y-79460476D01*
X137929047Y-79508095D01*
D10*
X138870000Y-82082379D02*
X138870000Y-82417621D01*
X139630000Y-82082379D02*
X139630000Y-82417621D01*
X191400000Y-112800000D02*
G75*
G03*
X191400000Y-112800000I-700000J0D01*
G01*
X151700000Y-114500000D02*
G75*
G03*
X151700000Y-114500000I-700000J0D01*
G01*
X166690000Y-106420000D02*
G75*
G03*
X166690000Y-106420000I-700000J0D01*
G01*
X162700000Y-112000000D02*
G75*
G03*
X162700000Y-112000000I-700000J0D01*
G01*
X165140000Y-98440000D02*
G75*
G03*
X165140000Y-98440000I-700000J0D01*
G01*
X113700000Y-81000000D02*
G75*
G03*
X113700000Y-81000000I-700000J0D01*
G01*
X146700000Y-113000000D02*
G75*
G03*
X146700000Y-113000000I-700000J0D01*
G01*
X174320000Y-107520000D02*
G75*
G03*
X174320000Y-107520000I-700000J0D01*
G01*
X163080000Y-101310000D02*
G75*
G03*
X163080000Y-101310000I-700000J0D01*
G01*
X113700000Y-90000000D02*
G75*
G03*
X113700000Y-90000000I-700000J0D01*
G01*
X153800000Y-80300000D02*
G75*
G03*
X153800000Y-80300000I-700000J0D01*
G01*
X128310000Y-82510000D02*
X128310000Y-80590000D01*
X125450000Y-82510000D02*
X128310000Y-82510000D01*
X128310000Y-80590000D02*
X125450000Y-80590000D01*
X130834165Y-91390000D02*
X131065835Y-91390000D01*
X130834165Y-92110000D02*
X131065835Y-92110000D01*
X157090000Y-113150000D02*
X157090000Y-110550000D01*
X159690000Y-110550000D02*
X159690000Y-115750000D01*
X157090000Y-110550000D02*
X159690000Y-110550000D01*
X154490000Y-111880000D02*
X154490000Y-110550000D01*
X154490000Y-110550000D02*
X155820000Y-110550000D01*
X154490000Y-113150000D02*
X154490000Y-115750000D01*
X154490000Y-113150000D02*
X157090000Y-113150000D01*
X154490000Y-115750000D02*
X159690000Y-115750000D01*
D14*
X145990000Y-108772000D02*
X145990000Y-103872000D01*
X149190000Y-103872000D02*
X149190000Y-108772000D01*
X149190000Y-108772000D02*
X145990000Y-108772000D01*
X144115000Y-103742000D02*
X145640000Y-103742000D01*
X145990000Y-103872000D02*
X149190000Y-103872000D01*
D10*
X135480000Y-90295835D02*
X135480000Y-90064165D01*
X136200000Y-90295835D02*
X136200000Y-90064165D01*
X141115835Y-96110000D02*
X140884165Y-96110000D01*
X141115835Y-95390000D02*
X140884165Y-95390000D01*
X140812379Y-95100000D02*
X141147621Y-95100000D01*
X140812379Y-94340000D02*
X141147621Y-94340000D01*
X126167621Y-80380000D02*
X125832379Y-80380000D01*
X126167621Y-79620000D02*
X125832379Y-79620000D01*
X110667621Y-97620000D02*
X110332379Y-97620000D01*
X110667621Y-98380000D02*
X110332379Y-98380000D01*
X110667621Y-97380000D02*
X110332379Y-97380000D01*
X110667621Y-96620000D02*
X110332379Y-96620000D01*
X139680000Y-113120000D02*
X139680000Y-115720000D01*
X139680000Y-110520000D02*
X141010000Y-110520000D01*
X139680000Y-111850000D02*
X139680000Y-110520000D01*
X142340000Y-113120000D02*
X142340000Y-115720000D01*
X139680000Y-115720000D02*
X142340000Y-115720000D01*
X139680000Y-113120000D02*
X142340000Y-113120000D01*
X163170000Y-78670000D02*
X175930000Y-78670000D01*
X160570000Y-81330000D02*
X160570000Y-80000000D01*
X161900000Y-81330000D02*
X160570000Y-81330000D01*
X163170000Y-81330000D02*
X163170000Y-78670000D01*
X163170000Y-81330000D02*
X175930000Y-81330000D01*
X175930000Y-81330000D02*
X175930000Y-78670000D01*
X116800000Y-94450000D02*
X117400000Y-94450000D01*
X116800000Y-93850000D02*
X117400000Y-93850000D01*
X119510000Y-98865835D02*
X119510000Y-98634165D01*
X118790000Y-98865835D02*
X118790000Y-98634165D01*
X143430000Y-85820000D02*
X147930000Y-85820000D01*
X147930000Y-79320000D02*
X143430000Y-79320000D01*
X142180000Y-81820000D02*
X142180000Y-83320000D01*
X149180000Y-83320000D02*
X149180000Y-81820000D01*
X152632379Y-107380000D02*
X152967621Y-107380000D01*
X152632379Y-106620000D02*
X152967621Y-106620000D01*
X152632379Y-106050000D02*
X152967621Y-106050000D01*
X152632379Y-105290000D02*
X152967621Y-105290000D01*
X142627621Y-104790000D02*
X142292379Y-104790000D01*
X142627621Y-104030000D02*
X142292379Y-104030000D01*
X142234879Y-107380000D02*
X142570121Y-107380000D01*
X142234879Y-106620000D02*
X142570121Y-106620000D01*
X137464879Y-106815000D02*
X137800121Y-106815000D01*
X137464879Y-107575000D02*
X137800121Y-107575000D01*
X138570000Y-91085835D02*
X138570000Y-90854165D01*
X137850000Y-91085835D02*
X137850000Y-90854165D01*
X126994165Y-100740000D02*
X127225835Y-100740000D01*
X126994165Y-100020000D02*
X127225835Y-100020000D01*
X152885835Y-104760000D02*
X152654165Y-104760000D01*
X152885835Y-104040000D02*
X152654165Y-104040000D01*
X136890000Y-102595835D02*
X136890000Y-102364165D01*
X137610000Y-102595835D02*
X137610000Y-102364165D01*
X124720000Y-111900000D02*
G75*
G03*
X124720000Y-111900000I-700000J0D01*
G01*
X119860000Y-110610000D02*
X119860000Y-115750000D01*
X117200000Y-108010000D02*
X118530000Y-108010000D01*
X117200000Y-110610000D02*
X119860000Y-110610000D01*
X117200000Y-110610000D02*
X117200000Y-115750000D01*
X117200000Y-115750000D02*
X119860000Y-115750000D01*
X117200000Y-109340000D02*
X117200000Y-108010000D01*
X144670000Y-91370000D02*
X144670000Y-90040000D01*
X144670000Y-90040000D02*
X146000000Y-90040000D01*
X144670000Y-92640000D02*
X144670000Y-100320000D01*
X144670000Y-100320000D02*
X149870000Y-100320000D01*
X149870000Y-90040000D02*
X149870000Y-100320000D01*
X147270000Y-92640000D02*
X147270000Y-90040000D01*
X147270000Y-90040000D02*
X149870000Y-90040000D01*
X144670000Y-92640000D02*
X147270000Y-92640000D01*
X116124000Y-108848000D02*
X116124000Y-109448000D01*
X115524000Y-108848000D02*
X115524000Y-109448000D01*
X114940000Y-109014165D02*
X114940000Y-109245835D01*
X114220000Y-109014165D02*
X114220000Y-109245835D01*
X121833621Y-101472000D02*
X121498379Y-101472000D01*
X121833621Y-100712000D02*
X121498379Y-100712000D01*
X101250000Y-103645000D02*
X100200000Y-103645000D01*
X104420000Y-101900000D02*
X104420000Y-93100000D01*
X104420000Y-101900000D02*
X105175000Y-101900000D01*
X101250000Y-91355000D02*
X100200000Y-91355000D01*
X127910000Y-90453733D02*
X127910000Y-90746267D01*
X126890000Y-90453733D02*
X126890000Y-90746267D01*
X122646267Y-92590000D02*
X122353733Y-92590000D01*
X122646267Y-93610000D02*
X122353733Y-93610000D01*
X126452000Y-92224000D02*
X126452000Y-88924000D01*
X126452000Y-88924000D02*
X122452000Y-88924000D01*
X170610000Y-92600200D02*
X170610000Y-92399800D01*
X169890000Y-92600200D02*
X169890000Y-92399800D01*
X179280000Y-95404800D02*
X179280000Y-95605200D01*
X178560000Y-95404800D02*
X178560000Y-95605200D01*
X169980000Y-98985835D02*
X169980000Y-98754165D01*
X169260000Y-98985835D02*
X169260000Y-98754165D01*
X200619800Y-97150000D02*
X200820200Y-97150000D01*
X200619800Y-96430000D02*
X200820200Y-96430000D01*
X179304165Y-92750000D02*
X179535835Y-92750000D01*
X179304165Y-92030000D02*
X179535835Y-92030000D01*
X184405835Y-95730000D02*
X184174165Y-95730000D01*
X184405835Y-96450000D02*
X184174165Y-96450000D01*
X186475800Y-95730000D02*
X186676200Y-95730000D01*
X186475800Y-96450000D02*
X186676200Y-96450000D01*
D15*
X190397000Y-96300000D02*
G75*
G03*
X190397000Y-96300000I-70000J0D01*
G01*
D11*
X176169999Y-99765000D02*
X176169999Y-100040000D01*
X172070000Y-99765000D02*
X172070000Y-100040000D01*
X172070000Y-100040000D02*
X172345000Y-100040000D01*
X175895000Y-95940001D02*
X176169999Y-95940001D01*
X172070000Y-95940001D02*
X172345000Y-95940001D01*
X172070000Y-95940001D02*
X172070000Y-96215000D01*
X175895000Y-100040000D02*
X176169999Y-100040000D01*
X176169999Y-95940001D02*
X176169999Y-96215000D01*
D16*
X175495000Y-95040001D02*
G75*
G03*
X175495000Y-95040001I-125000J0D01*
G01*
D14*
X166570000Y-93265000D02*
G75*
G03*
X166570000Y-93265000I-50000J0D01*
G01*
D10*
X174980000Y-86810000D02*
G75*
G03*
X174980000Y-86810000I-700000J0D01*
G01*
X180004165Y-98650000D02*
X180235835Y-98650000D01*
X180004165Y-97930000D02*
X180235835Y-97930000D01*
X177860000Y-97689800D02*
X177860000Y-97890200D01*
X178580000Y-97689800D02*
X178580000Y-97890200D01*
X170610000Y-95365835D02*
X170610000Y-95134165D01*
X169890000Y-95365835D02*
X169890000Y-95134165D01*
X191668000Y-93254165D02*
X191668000Y-93485835D01*
X192388000Y-93254165D02*
X192388000Y-93485835D01*
X203080000Y-97305835D02*
X203080000Y-97074165D01*
X202360000Y-97305835D02*
X202360000Y-97074165D01*
X180849835Y-94630000D02*
X180618165Y-94630000D01*
X180849835Y-95350000D02*
X180618165Y-95350000D01*
X191668000Y-99674165D02*
X191668000Y-99905835D01*
X192388000Y-99674165D02*
X192388000Y-99905835D01*
X193572165Y-96330000D02*
X193803835Y-96330000D01*
X193572165Y-97050000D02*
X193803835Y-97050000D01*
X180004165Y-96930000D02*
X180235835Y-96930000D01*
X180004165Y-97650000D02*
X180235835Y-97650000D01*
X180633800Y-96450000D02*
X180834200Y-96450000D01*
X180633800Y-95730000D02*
X180834200Y-95730000D01*
X188746165Y-96930000D02*
X188977835Y-96930000D01*
X188746165Y-97650000D02*
X188977835Y-97650000D01*
X178284165Y-90830000D02*
X178515835Y-90830000D01*
X178284165Y-91550000D02*
X178515835Y-91550000D01*
X167860000Y-99005835D02*
X167860000Y-98774165D01*
X168580000Y-99005835D02*
X168580000Y-98774165D01*
X181660000Y-97674165D02*
X181660000Y-97905835D01*
X182380000Y-97674165D02*
X182380000Y-97905835D01*
X179304165Y-93950000D02*
X179535835Y-93950000D01*
X179304165Y-93230000D02*
X179535835Y-93230000D01*
X182250000Y-95585835D02*
X182250000Y-95354165D01*
X182970000Y-95585835D02*
X182970000Y-95354165D01*
X196089835Y-96326000D02*
X195858165Y-96326000D01*
X196089835Y-97046000D02*
X195858165Y-97046000D01*
X188746165Y-96450000D02*
X188977835Y-96450000D01*
X188746165Y-95730000D02*
X188977835Y-95730000D01*
X198460000Y-97305835D02*
X198460000Y-97074165D01*
X199180000Y-97305835D02*
X199180000Y-97074165D01*
X190348000Y-99957621D02*
X190348000Y-99622379D01*
X191108000Y-99957621D02*
X191108000Y-99622379D01*
X190348000Y-93557621D02*
X190348000Y-93222379D01*
X191108000Y-93557621D02*
X191108000Y-93222379D01*
X113755621Y-87246000D02*
X113420379Y-87246000D01*
X113755621Y-88006000D02*
X113420379Y-88006000D01*
X113430379Y-85966000D02*
X113765621Y-85966000D01*
X113430379Y-85206000D02*
X113765621Y-85206000D01*
X115678000Y-81959267D02*
X115678000Y-81616733D01*
X116698000Y-81959267D02*
X116698000Y-81616733D01*
X118616000Y-81616733D02*
X118616000Y-81959267D01*
X119636000Y-81616733D02*
X119636000Y-81959267D01*
X117901767Y-90426000D02*
X117609233Y-90426000D01*
X117901767Y-89406000D02*
X117609233Y-89406000D01*
X113693835Y-86976000D02*
X113462165Y-86976000D01*
X113693835Y-86256000D02*
X113462165Y-86256000D01*
X110591733Y-86086000D02*
X110884267Y-86086000D01*
X110591733Y-87106000D02*
X110884267Y-87106000D01*
X138710000Y-102595835D02*
X138710000Y-102364165D01*
X137990000Y-102595835D02*
X137990000Y-102364165D01*
X117365835Y-96080000D02*
X117134165Y-96080000D01*
X117365835Y-95360000D02*
X117134165Y-95360000D01*
X126994165Y-101070000D02*
X127225835Y-101070000D01*
X126994165Y-101790000D02*
X127225835Y-101790000D01*
X129634165Y-82150000D02*
X129865835Y-82150000D01*
X129634165Y-82870000D02*
X129865835Y-82870000D01*
X131190000Y-88067621D02*
X131190000Y-87732379D01*
X131950000Y-88067621D02*
X131950000Y-87732379D01*
D14*
X131370000Y-83980000D02*
X131370000Y-83580000D01*
X131370000Y-83580000D02*
X134270000Y-83580000D01*
X131220000Y-85730000D02*
X131220000Y-84330000D01*
X134270000Y-83980000D02*
X131370000Y-83980000D01*
X134270000Y-83580000D02*
X134270000Y-83980000D01*
D10*
X133517621Y-86920000D02*
X133182379Y-86920000D01*
X133517621Y-87680000D02*
X133182379Y-87680000D01*
X119610000Y-95034165D02*
X119610000Y-95265835D01*
X118890000Y-95034165D02*
X118890000Y-95265835D01*
X117265835Y-97850000D02*
X117034165Y-97850000D01*
X117265835Y-98570000D02*
X117034165Y-98570000D01*
X116750000Y-99450000D02*
X117350000Y-99450000D01*
X116750000Y-100050000D02*
X117350000Y-100050000D01*
X130340000Y-93890000D02*
X129890000Y-93890000D01*
X136660000Y-93890000D02*
X137110000Y-93890000D01*
X130340000Y-101110000D02*
X129890000Y-101110000D01*
X137110000Y-93890000D02*
X137110000Y-94340000D01*
X129890000Y-93890000D02*
X129890000Y-94340000D01*
X129890000Y-94340000D02*
X128600000Y-94340000D01*
X129890000Y-101110000D02*
X129890000Y-100660000D01*
X137110000Y-101110000D02*
X137110000Y-100660000D01*
X136660000Y-101110000D02*
X137110000Y-101110000D01*
D16*
X115843000Y-88241000D02*
G75*
G03*
X115843000Y-88241000I-125000J0D01*
G01*
D10*
X152750000Y-101003835D02*
X152750000Y-100772165D01*
X152030000Y-101003835D02*
X152030000Y-100772165D01*
X153888000Y-101003835D02*
X153888000Y-100772165D01*
X153168000Y-101003835D02*
X153168000Y-100772165D01*
X159010000Y-100975835D02*
X159010000Y-100744165D01*
X158290000Y-100975835D02*
X158290000Y-100744165D01*
X159436000Y-94028165D02*
X159436000Y-94259835D01*
X160156000Y-94028165D02*
X160156000Y-94259835D01*
X158000000Y-85204165D02*
X158000000Y-85435835D01*
X158720000Y-85204165D02*
X158720000Y-85435835D01*
X154450000Y-85000000D02*
X154450000Y-85340000D01*
X157170000Y-85010000D02*
X157170000Y-85340000D01*
X155490000Y-86280000D02*
X156130000Y-86280000D01*
X157370000Y-84790000D02*
X157370000Y-84100000D01*
X155490000Y-84060000D02*
X156130000Y-84060000D01*
X157170000Y-85010001D02*
G75*
G03*
X157370000Y-84790000I-120002J310002D01*
G01*
D14*
X155270000Y-96036000D02*
X157324000Y-96036000D01*
X157324000Y-96036000D02*
X157324000Y-98944000D01*
X154816000Y-96490000D02*
X155270000Y-96036000D01*
X154816000Y-98944000D02*
X154816000Y-96490000D01*
X157324000Y-98944000D02*
X154816000Y-98944000D01*
X154916000Y-96036000D02*
G75*
G03*
X154916000Y-96036000I-100000J0D01*
G01*
D10*
X153158000Y-94058165D02*
X153158000Y-94289835D01*
X153878000Y-94058165D02*
X153878000Y-94289835D01*
X158968000Y-94028165D02*
X158968000Y-94259835D01*
X158248000Y-94028165D02*
X158248000Y-94259835D01*
X152070000Y-94033165D02*
X152070000Y-94264835D01*
X152790000Y-94033165D02*
X152790000Y-94264835D01*
X160022000Y-100975835D02*
X160022000Y-100744165D01*
X159302000Y-100975835D02*
X159302000Y-100744165D01*
X138750000Y-109030000D02*
G75*
G03*
X138750000Y-109030000I-700000J0D01*
G01*
X165800000Y-88085000D02*
X168260000Y-88085000D01*
X168260000Y-86615000D02*
X165800000Y-86615000D01*
X165800000Y-86615000D02*
X165800000Y-88085000D01*
X168260000Y-84915000D02*
X165800000Y-84915000D01*
X165800000Y-86385000D02*
X168260000Y-86385000D01*
X165800000Y-84915000D02*
X165800000Y-86385000D01*
X169167621Y-89380000D02*
X168832379Y-89380000D01*
X169167621Y-88620000D02*
X168832379Y-88620000D01*
X169167621Y-84380000D02*
X168832379Y-84380000D01*
X169167621Y-83620000D02*
X168832379Y-83620000D01*
X166880000Y-113110000D02*
X166880000Y-115710000D01*
X166880000Y-111840000D02*
X166880000Y-110510000D01*
X166880000Y-115710000D02*
X169540000Y-115710000D01*
X169540000Y-113110000D02*
X169540000Y-115710000D01*
X166880000Y-113110000D02*
X169540000Y-113110000D01*
X166880000Y-110510000D02*
X168210000Y-110510000D01*
X128080000Y-110520000D02*
X129410000Y-110520000D01*
X128080000Y-115720000D02*
X133280000Y-115720000D01*
X133280000Y-110520000D02*
X133280000Y-115720000D01*
X130680000Y-113120000D02*
X130680000Y-110520000D01*
X128080000Y-113120000D02*
X130680000Y-113120000D01*
X128080000Y-113120000D02*
X128080000Y-115720000D01*
X130680000Y-110520000D02*
X133280000Y-110520000D01*
X128080000Y-111850000D02*
X128080000Y-110520000D01*
X171480000Y-104390000D02*
G75*
G03*
X171480000Y-104390000I-700000J0D01*
G01*
X176900000Y-102900000D02*
G75*
G03*
X176900000Y-102900000I-700000J0D01*
G01*
X122900000Y-80900000D02*
G75*
G03*
X122900000Y-80900000I-700000J0D01*
G01*
X162650000Y-104390000D02*
G75*
G03*
X162650000Y-104390000I-700000J0D01*
G01*
X138850000Y-91085835D02*
X138850000Y-90854165D01*
X139570000Y-91085835D02*
X139570000Y-90854165D01*
X175650000Y-92400000D02*
X175650000Y-89600000D01*
X175650000Y-89600000D02*
X172350000Y-89600000D01*
X124684267Y-87156000D02*
X124391733Y-87156000D01*
X124684267Y-86136000D02*
X124391733Y-86136000D01*
X121584165Y-86240000D02*
X121815835Y-86240000D01*
X121584165Y-86960000D02*
X121815835Y-86960000D01*
X121532379Y-87980000D02*
X121867621Y-87980000D01*
X121532379Y-87220000D02*
X121867621Y-87220000D01*
X121835621Y-85980000D02*
X121500379Y-85980000D01*
X121835621Y-85220000D02*
X121500379Y-85220000D01*
X174550000Y-113430000D02*
G75*
G03*
X174550000Y-113430000I-700000J0D01*
G01*
X139567500Y-105125000D02*
X137107500Y-105125000D01*
X137107500Y-106595000D02*
X139567500Y-106595000D01*
X139567500Y-106595000D02*
X139567500Y-105125000D01*
X156215000Y-90990000D02*
X158815000Y-90990000D01*
X156215000Y-88330000D02*
X158815000Y-88330000D01*
X158815000Y-90990000D02*
X158815000Y-88330000D01*
X153615000Y-90990000D02*
X153615000Y-89660000D01*
X156215000Y-90990000D02*
X156215000Y-88330000D01*
X154945000Y-90990000D02*
X153615000Y-90990000D01*
G36*
X200536701Y-115859093D02*
G01*
X200279551Y-115868774D01*
X200140603Y-115870932D01*
X200055735Y-115863573D01*
X200013275Y-115845134D01*
X200004554Y-115831950D01*
X199996478Y-115775077D01*
X199994209Y-115676611D01*
X199996777Y-115590457D01*
X200006845Y-115395469D01*
X200536701Y-115395469D01*
X200536701Y-115859093D01*
G37*
G36*
X199535853Y-115382773D02*
G01*
X199605186Y-115392786D01*
X199624405Y-115403748D01*
X199607798Y-115438320D01*
X199562197Y-115521278D01*
X199492469Y-115644086D01*
X199403482Y-115798208D01*
X199300104Y-115975108D01*
X199251414Y-116057790D01*
X198880027Y-116686994D01*
X198731441Y-116696024D01*
X198582855Y-116705053D01*
X197777215Y-115378911D01*
X197997897Y-115380338D01*
X198218579Y-115381766D01*
X198740749Y-116277244D01*
X198812311Y-116150959D01*
X198858439Y-116068785D01*
X198926184Y-115947151D01*
X199005226Y-115804620D01*
X199062059Y-115701792D01*
X199240246Y-115378911D01*
X199433128Y-115378911D01*
X199535853Y-115382773D01*
G37*
G36*
X205961961Y-115457313D02*
G01*
X205977875Y-115318651D01*
X206002961Y-115221661D01*
X206038836Y-115158202D01*
X206087121Y-115120133D01*
X206106415Y-115111618D01*
X206162260Y-115102673D01*
X206273581Y-115094751D01*
X206429624Y-115088254D01*
X206619637Y-115083582D01*
X206832866Y-115081135D01*
X206931757Y-115080867D01*
X207676218Y-115080867D01*
X207757502Y-115162151D01*
X207785450Y-115191778D01*
X207806122Y-115223275D01*
X207820616Y-115266427D01*
X207830028Y-115331013D01*
X207835455Y-115426816D01*
X207837994Y-115563618D01*
X207838742Y-115751199D01*
X207838787Y-115887035D01*
X207840210Y-116126815D01*
X207839614Y-116313478D01*
X207829706Y-116453689D01*
X207803190Y-116554112D01*
X207752771Y-116621410D01*
X207671155Y-116662248D01*
X207551046Y-116683290D01*
X207385149Y-116691198D01*
X207166171Y-116692638D01*
X206955913Y-116693539D01*
X206711772Y-116694143D01*
X206497189Y-116691712D01*
X206320899Y-116686520D01*
X206191638Y-116678845D01*
X206118143Y-116668962D01*
X206111051Y-116666801D01*
X206056847Y-116636593D01*
X206016020Y-116586589D01*
X205986830Y-116508356D01*
X205967535Y-116393462D01*
X205956397Y-116233474D01*
X205951673Y-116019959D01*
X205951173Y-115892209D01*
X205951554Y-115853574D01*
X206348566Y-115853574D01*
X206349936Y-116030642D01*
X206353715Y-116183769D01*
X206359402Y-116300969D01*
X206366499Y-116370253D01*
X206370643Y-116383431D01*
X206409711Y-116390955D01*
X206503233Y-116397377D01*
X206639433Y-116402223D01*
X206806535Y-116405016D01*
X206917058Y-116405508D01*
X207441395Y-116405508D01*
X207441395Y-115345795D01*
X206348566Y-115345795D01*
X206348566Y-115853574D01*
X205951554Y-115853574D01*
X205953600Y-115645786D01*
X205961961Y-115457313D01*
G37*
G36*
X197506584Y-115610723D02*
G01*
X196413755Y-115610723D01*
X196413755Y-115908767D01*
X197042959Y-115908767D01*
X197042959Y-116140580D01*
X196413755Y-116140580D01*
X196413755Y-116471740D01*
X197506584Y-116471740D01*
X197506584Y-116703552D01*
X196016362Y-116703552D01*
X196016362Y-115378911D01*
X197506584Y-115378911D01*
X197506584Y-115610723D01*
G37*
G36*
X203550600Y-115102639D02*
G01*
X203577311Y-115147889D01*
X203592597Y-115226660D01*
X203599491Y-115346084D01*
X203601031Y-115513293D01*
X203600253Y-115735420D01*
X203599935Y-115892209D01*
X203599935Y-116703552D01*
X203202542Y-116703552D01*
X203202542Y-115415488D01*
X203028683Y-115405479D01*
X202927277Y-115397346D01*
X202874378Y-115380687D01*
X202852311Y-115344386D01*
X202844586Y-115289710D01*
X202839890Y-115245562D01*
X202842562Y-115214338D01*
X202862639Y-115191883D01*
X202910160Y-115174045D01*
X202995162Y-115156670D01*
X203127684Y-115135605D01*
X203268774Y-115114204D01*
X203371549Y-115096692D01*
X203450755Y-115084173D01*
X203509426Y-115083778D01*
X203550600Y-115102639D01*
G37*
G36*
X194634678Y-115378911D02*
G01*
X194893942Y-115378894D01*
X195094506Y-115381266D01*
X195243890Y-115389664D01*
X195349613Y-115407721D01*
X195419196Y-115439073D01*
X195460160Y-115487356D01*
X195480023Y-115556204D01*
X195486306Y-115649253D01*
X195486530Y-115770138D01*
X195486506Y-115790684D01*
X195483478Y-115956075D01*
X195468956Y-116067168D01*
X195434780Y-116135816D01*
X195372793Y-116173869D01*
X195274836Y-116193179D01*
X195204769Y-116199930D01*
X195026395Y-116214722D01*
X195327631Y-116450858D01*
X195628866Y-116686994D01*
X195372961Y-116696713D01*
X195117056Y-116706431D01*
X194837036Y-116456622D01*
X194710845Y-116346195D01*
X194619715Y-116273775D01*
X194550843Y-116231589D01*
X194491427Y-116211861D01*
X194428666Y-116206818D01*
X194425672Y-116206812D01*
X194294328Y-116206812D01*
X194294328Y-116703552D01*
X193930052Y-116703552D01*
X193930052Y-115770784D01*
X194294328Y-115770784D01*
X194298749Y-115869138D01*
X194309977Y-115937943D01*
X194317400Y-115953917D01*
X194357850Y-115962282D01*
X194450371Y-115967637D01*
X194580848Y-115969500D01*
X194722332Y-115967715D01*
X195104192Y-115958442D01*
X195135692Y-115868707D01*
X195146606Y-115749956D01*
X195128863Y-115694847D01*
X195110546Y-115659416D01*
X195085842Y-115635661D01*
X195042643Y-115621247D01*
X194968844Y-115613842D01*
X194852337Y-115611112D01*
X194692431Y-115610723D01*
X194294328Y-115610723D01*
X194294328Y-115770784D01*
X193930052Y-115770784D01*
X193930052Y-115378911D01*
X194634678Y-115378911D01*
G37*
G36*
X200536701Y-116686994D02*
G01*
X200279551Y-116696675D01*
X200140603Y-116698833D01*
X200055735Y-116691474D01*
X200013275Y-116673035D01*
X200004554Y-116659851D01*
X199996478Y-116602978D01*
X199994209Y-116504512D01*
X199996777Y-116418358D01*
X200006845Y-116223370D01*
X200536701Y-116223370D01*
X200536701Y-116686994D01*
G37*
G36*
X205371643Y-116686994D02*
G01*
X205114492Y-116696675D01*
X204975544Y-116698833D01*
X204890677Y-116691474D01*
X204848217Y-116673035D01*
X204839496Y-116659851D01*
X204831420Y-116602978D01*
X204829150Y-116504512D01*
X204831718Y-116418358D01*
X204841786Y-116223370D01*
X205371643Y-116223370D01*
X205371643Y-116686994D01*
G37*
G36*
X185996692Y-77463980D02*
G01*
X186362861Y-77467899D01*
X186650863Y-77473249D01*
X186870050Y-77485013D01*
X187029769Y-77508173D01*
X187139369Y-77547714D01*
X187208199Y-77608617D01*
X187245609Y-77695867D01*
X187260946Y-77814447D01*
X187263559Y-77969339D01*
X187262759Y-78138817D01*
X187256659Y-78391019D01*
X187231086Y-78569725D01*
X187175123Y-78688609D01*
X187077859Y-78761341D01*
X186928378Y-78801594D01*
X186716606Y-78822983D01*
X186542694Y-78834655D01*
X187012209Y-79201840D01*
X187183479Y-79336891D01*
X187326773Y-79451994D01*
X187429503Y-79536877D01*
X187479081Y-79581265D01*
X187481724Y-79585030D01*
X187441236Y-79592141D01*
X187332986Y-79597565D01*
X187176793Y-79600487D01*
X187098534Y-79600771D01*
X186715345Y-79600508D01*
X186283846Y-79206634D01*
X186106555Y-79046396D01*
X185978008Y-78936667D01*
X185883147Y-78867942D01*
X185806919Y-78830721D01*
X185734267Y-78815500D01*
X185659794Y-78812759D01*
X185467241Y-78812759D01*
X185467241Y-79601035D01*
X184897931Y-79601035D01*
X184897931Y-78418621D01*
X185467241Y-78418621D01*
X186025603Y-78417950D01*
X186241746Y-78414965D01*
X186428427Y-78407301D01*
X186566907Y-78396083D01*
X186638447Y-78382437D01*
X186641231Y-78380961D01*
X186678271Y-78310163D01*
X186687240Y-78160497D01*
X186685025Y-78107924D01*
X186671552Y-77871207D01*
X186069397Y-77859023D01*
X185467241Y-77846839D01*
X185467241Y-78418621D01*
X184897931Y-78418621D01*
X184897931Y-77450891D01*
X185996692Y-77463980D01*
G37*
G36*
X204035517Y-79294483D02*
G01*
X205393103Y-79294483D01*
X205393103Y-79601035D01*
X203510000Y-79601035D01*
X203510000Y-77849311D01*
X204035517Y-77849311D01*
X204035517Y-79294483D01*
G37*
G36*
X207845517Y-78155862D02*
G01*
X206400345Y-78155862D01*
X206400345Y-78550000D01*
X207232414Y-78550000D01*
X207232414Y-78856552D01*
X206400345Y-78856552D01*
X206400345Y-79294483D01*
X207845517Y-79294483D01*
X207845517Y-79601035D01*
X205874828Y-79601035D01*
X205874828Y-77849311D01*
X207845517Y-77849311D01*
X207845517Y-78155862D01*
G37*
G36*
X194446262Y-79073536D02*
G01*
X194444881Y-78853802D01*
X194444828Y-78751120D01*
X194448227Y-78452573D01*
X194460077Y-78230083D01*
X194482853Y-78072323D01*
X194519032Y-77967968D01*
X194571091Y-77905693D01*
X194636287Y-77875517D01*
X194706673Y-77868032D01*
X194850192Y-77861384D01*
X195052388Y-77855934D01*
X195298810Y-77852043D01*
X195575003Y-77850072D01*
X195662077Y-77849909D01*
X196008735Y-77849106D01*
X196277701Y-77852190D01*
X196478794Y-77866649D01*
X196621835Y-77899974D01*
X196716642Y-77959654D01*
X196773036Y-78053178D01*
X196800836Y-78188036D01*
X196809862Y-78371718D01*
X196809934Y-78611713D01*
X196809655Y-78725173D01*
X196809099Y-78979364D01*
X196806011Y-79161191D01*
X196798262Y-79285874D01*
X196783722Y-79368635D01*
X196760263Y-79424695D01*
X196725754Y-79469273D01*
X196702163Y-79493543D01*
X196594671Y-79601035D01*
X194659812Y-79601035D01*
X194552320Y-79493543D01*
X194510343Y-79447921D01*
X194481013Y-79398742D01*
X194462065Y-79330373D01*
X194458299Y-79294483D01*
X194970345Y-79294483D01*
X196284138Y-79294483D01*
X196284138Y-78155862D01*
X194970345Y-78155862D01*
X194970345Y-79294483D01*
X194458299Y-79294483D01*
X194451236Y-79227182D01*
X194446262Y-79073536D01*
G37*
G36*
X201538003Y-77849136D02*
G01*
X201670690Y-77849311D01*
X201977325Y-77849532D01*
X202208670Y-77851050D01*
X202377020Y-77855147D01*
X202494670Y-77863105D01*
X202573917Y-77876205D01*
X202627056Y-77895729D01*
X202666383Y-77922959D01*
X202701818Y-77956803D01*
X202776703Y-78064354D01*
X202807214Y-78176987D01*
X202789546Y-78267075D01*
X202749220Y-78300930D01*
X202671387Y-78321094D01*
X202545362Y-78344989D01*
X202486461Y-78354381D01*
X202363696Y-78369914D01*
X202304329Y-78361528D01*
X202285357Y-78319683D01*
X202283793Y-78270318D01*
X202283793Y-78155862D01*
X201057586Y-78155862D01*
X201057586Y-79294483D01*
X202283793Y-79294483D01*
X202283793Y-78900345D01*
X201626897Y-78900345D01*
X201626897Y-78593793D01*
X202809310Y-78593793D01*
X202809310Y-78983080D01*
X202809138Y-79164720D01*
X202801950Y-79305078D01*
X202777737Y-79409638D01*
X202726493Y-79483881D01*
X202638210Y-79533290D01*
X202502880Y-79563349D01*
X202310495Y-79579540D01*
X202051047Y-79587346D01*
X201714529Y-79592250D01*
X201696952Y-79592497D01*
X200751873Y-79605855D01*
X200641971Y-79495953D01*
X200599817Y-79450671D01*
X200570106Y-79402859D01*
X200550663Y-79337263D01*
X200539312Y-79238630D01*
X200533880Y-79091705D01*
X200532191Y-78881237D01*
X200532069Y-78725173D01*
X200531342Y-78459691D01*
X200535736Y-78253942D01*
X200555108Y-78100340D01*
X200599318Y-77991302D01*
X200678225Y-77919244D01*
X200801688Y-77876582D01*
X200979566Y-77855733D01*
X201221718Y-77849112D01*
X201538003Y-77849136D01*
G37*
G36*
X179467586Y-79206897D02*
G01*
X181087931Y-79206897D01*
X181087931Y-79601035D01*
X178898276Y-79601035D01*
X178898276Y-77455173D01*
X179467586Y-77455173D01*
X179467586Y-79206897D01*
G37*
G36*
X188507585Y-78540834D02*
G01*
X188628897Y-78337875D01*
X188723555Y-78180507D01*
X188751796Y-78133966D01*
X188911938Y-77871207D01*
X189171227Y-77858600D01*
X189430517Y-77845993D01*
X189934138Y-78686082D01*
X190080549Y-78930872D01*
X190211530Y-79150937D01*
X190320433Y-79335017D01*
X190400610Y-79471855D01*
X190445410Y-79550193D01*
X190452356Y-79563603D01*
X190420381Y-79582784D01*
X190322531Y-79596283D01*
X190189522Y-79601035D01*
X189912091Y-79601035D01*
X189701667Y-79204381D01*
X188599999Y-79228793D01*
X188394817Y-79601035D01*
X187879395Y-79601035D01*
X188235525Y-78998880D01*
X188293933Y-78900345D01*
X188793884Y-78900345D01*
X189145046Y-78900345D01*
X189307959Y-78897390D01*
X189430710Y-78889534D01*
X189492599Y-78878296D01*
X189496207Y-78874616D01*
X189475835Y-78820241D01*
X189423621Y-78718592D01*
X189352914Y-78592489D01*
X189277065Y-78464756D01*
X189209423Y-78358214D01*
X189163341Y-78295684D01*
X189153041Y-78287985D01*
X189120112Y-78324131D01*
X189058633Y-78419408D01*
X188980393Y-78555199D01*
X188958925Y-78594537D01*
X188793884Y-78900345D01*
X188293933Y-78900345D01*
X188372250Y-78768222D01*
X188507585Y-78540834D01*
G37*
G36*
X197822541Y-77852410D02*
G01*
X197890774Y-77866452D01*
X197967129Y-77898555D01*
X198063406Y-77955837D01*
X198191402Y-78045415D01*
X198362915Y-78174409D01*
X198589745Y-78349934D01*
X198621711Y-78374828D01*
X198830923Y-78536793D01*
X199016474Y-78678509D01*
X199167391Y-78791756D01*
X199272706Y-78868313D01*
X199321447Y-78899956D01*
X199322976Y-78900345D01*
X199333275Y-78859375D01*
X199341728Y-78747749D01*
X199347473Y-78582388D01*
X199349654Y-78380218D01*
X199349655Y-78374828D01*
X199349655Y-77849311D01*
X199831379Y-77849311D01*
X199831379Y-79601035D01*
X199638142Y-79601035D01*
X199568215Y-79597872D01*
X199501205Y-79583690D01*
X199425663Y-79551444D01*
X199330140Y-79494091D01*
X199203187Y-79404589D01*
X199033357Y-79275894D01*
X198809200Y-79100963D01*
X198751332Y-79055474D01*
X198057759Y-78509914D01*
X198045502Y-79055474D01*
X198033245Y-79601035D01*
X197554138Y-79601035D01*
X197554138Y-77849311D01*
X197750632Y-77849311D01*
X197822541Y-77852410D01*
G37*
G36*
X181614883Y-79073536D02*
G01*
X181613502Y-78853802D01*
X181613448Y-78751120D01*
X181616848Y-78452573D01*
X181628697Y-78230083D01*
X181651474Y-78072323D01*
X181687653Y-77967968D01*
X181739712Y-77905693D01*
X181804907Y-77875517D01*
X181875294Y-77868032D01*
X182018812Y-77861384D01*
X182221009Y-77855934D01*
X182467431Y-77852043D01*
X182743624Y-77850072D01*
X182830697Y-77849909D01*
X183177356Y-77849106D01*
X183446322Y-77852190D01*
X183647415Y-77866649D01*
X183790455Y-77899974D01*
X183885263Y-77959654D01*
X183941657Y-78053178D01*
X183969457Y-78188036D01*
X183978483Y-78371718D01*
X183978555Y-78611713D01*
X183978276Y-78725173D01*
X183977720Y-78979364D01*
X183974632Y-79161191D01*
X183966883Y-79285874D01*
X183952343Y-79368635D01*
X183928884Y-79424695D01*
X183894375Y-79469273D01*
X183870784Y-79493543D01*
X183763292Y-79601035D01*
X181828433Y-79601035D01*
X181720940Y-79493543D01*
X181678964Y-79447921D01*
X181649634Y-79398742D01*
X181630685Y-79330373D01*
X181626919Y-79294483D01*
X182138966Y-79294483D01*
X183452759Y-79294483D01*
X183452759Y-78155862D01*
X182138966Y-78155862D01*
X182138966Y-79294483D01*
X181626919Y-79294483D01*
X181619856Y-79227182D01*
X181614883Y-79073536D01*
G37*
G36*
X191940672Y-77455173D02*
G01*
X192311266Y-77457883D01*
X192606980Y-77467791D01*
X192840402Y-77487564D01*
X193024122Y-77519870D01*
X193170727Y-77567375D01*
X193292806Y-77632747D01*
X193402949Y-77718652D01*
X193465659Y-77778273D01*
X193621602Y-77978296D01*
X193710877Y-78207250D01*
X193738615Y-78481427D01*
X193732308Y-78624895D01*
X193670117Y-78927087D01*
X193538854Y-79180553D01*
X193344226Y-79378466D01*
X193091941Y-79513994D01*
X192955862Y-79554020D01*
X192849541Y-79568317D01*
X192673497Y-79580850D01*
X192445591Y-79590830D01*
X192183681Y-79597467D01*
X191915776Y-79599964D01*
X191072759Y-79601035D01*
X191072759Y-79218920D01*
X191642069Y-79218920D01*
X192156638Y-79197621D01*
X192403596Y-79184097D01*
X192583641Y-79165049D01*
X192717419Y-79137089D01*
X192825576Y-79096830D01*
X192853251Y-79083316D01*
X193015151Y-78956474D01*
X193118687Y-78784208D01*
X193164778Y-78585565D01*
X193154342Y-78379596D01*
X193088298Y-78185348D01*
X192967565Y-78021871D01*
X192796640Y-77909693D01*
X192659907Y-77876540D01*
X192442064Y-77856239D01*
X192148716Y-77849311D01*
X191642069Y-77849311D01*
X191642069Y-79218920D01*
X191072759Y-79218920D01*
X191072759Y-77455173D01*
X191940672Y-77455173D01*
G37*
X137370000Y-87230000D02*
G75*
G03*
X137370000Y-87230000I-700000J0D01*
G01*
X133410000Y-79460000D02*
G75*
G03*
X133410000Y-79460000I-700000J0D01*
G01*
X137270000Y-81380000D02*
G75*
G03*
X137270000Y-81380000I-700000J0D01*
G01*
M02*
