G04 #@! TF.GenerationSoftware,KiCad,Pcbnew,(6.0.1)*
G04 #@! TF.CreationDate,2022-02-07T11:20:35+02:00*
G04 #@! TF.ProjectId,LoRaDongle_iCE40,4c6f5261-446f-46e6-976c-655f69434534,1.0*
G04 #@! TF.SameCoordinates,Original*
G04 #@! TF.FileFunction,Soldermask,Top*
G04 #@! TF.FilePolarity,Negative*
%FSLAX46Y46*%
G04 Gerber Fmt 4.6, Leading zero omitted, Abs format (unit mm)*
G04 Created by KiCad (PCBNEW (6.0.1)) date 2022-02-07 11:20:35*
%MOMM*%
%LPD*%
G01*
G04 APERTURE LIST*
G04 Aperture macros list*
%AMRoundRect*
0 Rectangle with rounded corners*
0 $1 Rounding radius*
0 $2 $3 $4 $5 $6 $7 $8 $9 X,Y pos of 4 corners*
0 Add a 4 corners polygon primitive as box body*
4,1,4,$2,$3,$4,$5,$6,$7,$8,$9,$2,$3,0*
0 Add four circle primitives for the rounded corners*
1,1,$1+$1,$2,$3*
1,1,$1+$1,$4,$5*
1,1,$1+$1,$6,$7*
1,1,$1+$1,$8,$9*
0 Add four rect primitives between the rounded corners*
20,1,$1+$1,$2,$3,$4,$5,0*
20,1,$1+$1,$4,$5,$6,$7,0*
20,1,$1+$1,$6,$7,$8,$9,0*
20,1,$1+$1,$8,$9,$2,$3,0*%
G04 Aperture macros list end*
%ADD10C,0.001000*%
%ADD11RoundRect,0.160000X-0.160000X0.197500X-0.160000X-0.197500X0.160000X-0.197500X0.160000X0.197500X0*%
%ADD12C,1.000000*%
%ADD13RoundRect,0.250000X0.325000X0.450000X-0.325000X0.450000X-0.325000X-0.450000X0.325000X-0.450000X0*%
%ADD14RoundRect,0.155000X-0.212500X-0.155000X0.212500X-0.155000X0.212500X0.155000X-0.212500X0.155000X0*%
%ADD15R,1.700000X1.700000*%
%ADD16O,1.700000X1.700000*%
%ADD17R,1.525000X0.650000*%
%ADD18RoundRect,0.155000X0.155000X-0.212500X0.155000X0.212500X-0.155000X0.212500X-0.155000X-0.212500X0*%
%ADD19RoundRect,0.155000X0.212500X0.155000X-0.212500X0.155000X-0.212500X-0.155000X0.212500X-0.155000X0*%
%ADD20RoundRect,0.160000X-0.197500X-0.160000X0.197500X-0.160000X0.197500X0.160000X-0.197500X0.160000X0*%
%ADD21RoundRect,0.160000X0.197500X0.160000X-0.197500X0.160000X-0.197500X-0.160000X0.197500X-0.160000X0*%
%ADD22R,0.600000X0.800000*%
%ADD23C,2.000000*%
%ADD24R,0.800000X0.600000*%
%ADD25RoundRect,0.155000X-0.155000X0.212500X-0.155000X-0.212500X0.155000X-0.212500X0.155000X0.212500X0*%
%ADD26C,1.100000*%
%ADD27R,2.500000X1.100000*%
%ADD28O,3.500000X1.900000*%
%ADD29RoundRect,0.237500X-0.237500X0.300000X-0.237500X-0.300000X0.237500X-0.300000X0.237500X0.300000X0*%
%ADD30RoundRect,0.237500X0.300000X0.237500X-0.300000X0.237500X-0.300000X-0.237500X0.300000X-0.237500X0*%
%ADD31R,1.400000X1.200000*%
%ADD32RoundRect,0.160000X0.160000X-0.222500X0.160000X0.222500X-0.160000X0.222500X-0.160000X-0.222500X0*%
%ADD33RoundRect,0.160000X-0.160000X0.222500X-0.160000X-0.222500X0.160000X-0.222500X0.160000X0.222500X0*%
%ADD34RoundRect,0.160000X-0.222500X-0.160000X0.222500X-0.160000X0.222500X0.160000X-0.222500X0.160000X0*%
%ADD35R,0.330000X0.150000*%
%ADD36R,0.300000X0.800000*%
%ADD37R,0.800000X0.300000*%
%ADD38R,2.700000X2.700000*%
%ADD39R,1.600000X0.650000*%
%ADD40R,5.080000X2.286000*%
%ADD41R,5.080000X2.413000*%
%ADD42RoundRect,0.160000X0.160000X-0.197500X0.160000X0.197500X-0.160000X0.197500X-0.160000X-0.197500X0*%
%ADD43RoundRect,0.237500X0.237500X-0.287500X0.237500X0.287500X-0.237500X0.287500X-0.237500X-0.287500X0*%
%ADD44RoundRect,0.237500X-0.237500X0.287500X-0.237500X-0.287500X0.237500X-0.287500X0.237500X0.287500X0*%
%ADD45RoundRect,0.237500X-0.300000X-0.237500X0.300000X-0.237500X0.300000X0.237500X-0.300000X0.237500X0*%
%ADD46R,0.600000X1.400000*%
%ADD47RoundRect,0.075000X-0.662500X-0.075000X0.662500X-0.075000X0.662500X0.075000X-0.662500X0.075000X0*%
%ADD48RoundRect,0.075000X-0.075000X-0.662500X0.075000X-0.662500X0.075000X0.662500X-0.075000X0.662500X0*%
%ADD49R,0.300000X0.650000*%
%ADD50R,2.750000X1.750000*%
%ADD51RoundRect,0.200000X-0.250000X0.200000X-0.250000X-0.200000X0.250000X-0.200000X0.250000X0.200000X0*%
%ADD52C,0.208000*%
%ADD53RoundRect,0.237500X-0.287500X-0.237500X0.287500X-0.237500X0.287500X0.237500X-0.287500X0.237500X0*%
%ADD54R,1.150000X1.000000*%
%ADD55RoundRect,0.237500X0.287500X0.237500X-0.287500X0.237500X-0.287500X-0.237500X0.287500X-0.237500X0*%
G04 APERTURE END LIST*
D10*
X191302000Y-96015000D02*
X191502000Y-96015000D01*
X191502000Y-96015000D02*
X191502000Y-96315000D01*
X191502000Y-96315000D02*
X191552000Y-96515000D01*
X191552000Y-96515000D02*
X191552000Y-96865000D01*
X191552000Y-96865000D02*
X191502000Y-97065000D01*
X191502000Y-97065000D02*
X191502000Y-97365000D01*
X191502000Y-97365000D02*
X191302000Y-97365000D01*
X191302000Y-97365000D02*
X191302000Y-96940000D01*
X191302000Y-96940000D02*
X191152000Y-96790000D01*
X191152000Y-96790000D02*
X190727000Y-96790000D01*
X190727000Y-96790000D02*
X190727000Y-96590000D01*
X190727000Y-96590000D02*
X191127000Y-96590000D01*
X191127000Y-96590000D02*
X191152000Y-96590000D01*
X191152000Y-96590000D02*
X191302000Y-96440000D01*
X191302000Y-96440000D02*
X191302000Y-96015000D01*
G36*
X191502000Y-96315000D02*
G01*
X191552000Y-96515000D01*
X191552000Y-96865000D01*
X191502000Y-97065000D01*
X191502000Y-97365000D01*
X191302000Y-97365000D01*
X191302000Y-96940000D01*
X191152000Y-96790000D01*
X190727000Y-96790000D01*
X190727000Y-96590000D01*
X191152000Y-96590000D01*
X191302000Y-96440000D01*
X191302000Y-96015000D01*
X191502000Y-96015000D01*
X191502000Y-96315000D01*
G37*
X191502000Y-96315000D02*
X191552000Y-96515000D01*
X191552000Y-96865000D01*
X191502000Y-97065000D01*
X191502000Y-97365000D01*
X191302000Y-97365000D01*
X191302000Y-96940000D01*
X191152000Y-96790000D01*
X190727000Y-96790000D01*
X190727000Y-96590000D01*
X191152000Y-96590000D01*
X191302000Y-96440000D01*
X191302000Y-96015000D01*
X191502000Y-96015000D01*
X191502000Y-96315000D01*
D11*
X139250000Y-81652500D03*
X139250000Y-82847500D03*
D12*
X190700000Y-112800000D03*
X151000000Y-114500000D03*
X165990000Y-106420000D03*
X162000000Y-112000000D03*
X164440000Y-98440000D03*
X113000000Y-81000000D03*
X146000000Y-113000000D03*
X173620000Y-107520000D03*
X162380000Y-101310000D03*
X113000000Y-90000000D03*
X153100000Y-80300000D03*
D13*
X127475000Y-81550000D03*
X125425000Y-81550000D03*
D14*
X130382500Y-91750000D03*
X131517500Y-91750000D03*
D15*
X155820000Y-111880000D03*
D16*
X158360000Y-111880000D03*
X155820000Y-114420000D03*
X158360000Y-114420000D03*
D17*
X144878000Y-104417000D03*
X144878000Y-105687000D03*
X144878000Y-106957000D03*
X144878000Y-108227000D03*
X150302000Y-108227000D03*
X150302000Y-106957000D03*
X150302000Y-105687000D03*
X150302000Y-104417000D03*
D18*
X135840000Y-90747500D03*
X135840000Y-89612500D03*
D19*
X141567500Y-95750000D03*
X140432500Y-95750000D03*
D20*
X140382500Y-94720000D03*
X141577500Y-94720000D03*
D21*
X126597500Y-80000000D03*
X125402500Y-80000000D03*
X111097500Y-98000000D03*
X109902500Y-98000000D03*
X111097500Y-97000000D03*
X109902500Y-97000000D03*
D15*
X141010000Y-111850000D03*
D16*
X141010000Y-114390000D03*
D15*
X161900000Y-80000000D03*
D16*
X164440000Y-80000000D03*
X166980000Y-80000000D03*
X169520000Y-80000000D03*
X172060000Y-80000000D03*
X174600000Y-80000000D03*
D22*
X116400000Y-94150000D03*
X117800000Y-94150000D03*
D18*
X119150000Y-99317500D03*
X119150000Y-98182500D03*
D23*
X148930000Y-80320000D03*
X142430000Y-80320000D03*
X142430000Y-84820000D03*
X148930000Y-84820000D03*
D20*
X152202500Y-107000000D03*
X153397500Y-107000000D03*
X152202500Y-105670000D03*
X153397500Y-105670000D03*
D21*
X143057500Y-104410000D03*
X141862500Y-104410000D03*
D20*
X141805000Y-107000000D03*
X143000000Y-107000000D03*
X137035000Y-107195000D03*
X138230000Y-107195000D03*
D18*
X138210000Y-91537500D03*
X138210000Y-90402500D03*
D14*
X126542500Y-100380000D03*
X127677500Y-100380000D03*
D19*
X153337500Y-104400000D03*
X152202500Y-104400000D03*
D18*
X137250000Y-103047500D03*
X137250000Y-101912500D03*
D12*
X124020000Y-111900000D03*
D15*
X118530000Y-109340000D03*
D16*
X118530000Y-111880000D03*
X118530000Y-114420000D03*
D15*
X146000000Y-91370000D03*
D16*
X148540000Y-91370000D03*
X146000000Y-93910000D03*
X148540000Y-93910000D03*
X146000000Y-96450000D03*
X148540000Y-96450000D03*
X146000000Y-98990000D03*
X148540000Y-98990000D03*
D24*
X115824000Y-108448000D03*
X115824000Y-109848000D03*
D25*
X114580000Y-108562500D03*
X114580000Y-109697500D03*
D21*
X122263500Y-101092000D03*
X121068500Y-101092000D03*
D26*
X103300000Y-95200000D03*
X103300000Y-99800000D03*
D27*
X106050000Y-101000000D03*
X106050000Y-98500000D03*
X106050000Y-96500000D03*
X106050000Y-94000000D03*
D28*
X103300000Y-91800000D03*
X103300000Y-103200000D03*
D29*
X127400000Y-89737500D03*
X127400000Y-91462500D03*
D30*
X123362500Y-93100000D03*
X121637500Y-93100000D03*
D31*
X125552000Y-89724000D03*
X123352000Y-89724000D03*
X123352000Y-91424000D03*
X125552000Y-91424000D03*
D32*
X170250000Y-93072500D03*
X170250000Y-91927500D03*
D33*
X178920000Y-94932500D03*
X178920000Y-96077500D03*
D18*
X169620000Y-99437500D03*
X169620000Y-98302500D03*
D34*
X200147500Y-96790000D03*
X201292500Y-96790000D03*
D14*
X178852500Y-92390000D03*
X179987500Y-92390000D03*
D19*
X184857500Y-96090000D03*
X183722500Y-96090000D03*
D34*
X186003500Y-96090000D03*
X187148500Y-96090000D03*
D35*
X190917000Y-96340000D03*
X190917000Y-97040000D03*
X191887000Y-97040000D03*
X191887000Y-96690000D03*
X191887000Y-96340000D03*
D36*
X175370000Y-95990000D03*
X174870000Y-95990000D03*
X174370000Y-95990000D03*
X173870000Y-95990000D03*
X173370000Y-95990000D03*
X172870000Y-95990000D03*
D37*
X172120000Y-96740000D03*
X172120000Y-97240000D03*
X172120000Y-97740000D03*
X172120000Y-98240000D03*
X172120000Y-98740000D03*
X172120000Y-99240000D03*
D36*
X172870000Y-99990000D03*
X173370000Y-99990000D03*
X173870000Y-99990000D03*
X174370000Y-99990000D03*
X174870000Y-99990000D03*
X175370000Y-99990000D03*
D37*
X176120000Y-99240000D03*
X176120000Y-98740000D03*
X176120000Y-98240000D03*
X176120000Y-97740000D03*
X176120000Y-97240000D03*
X176120000Y-96740000D03*
D38*
X174120000Y-97990000D03*
D39*
X166520000Y-94115000D03*
X166520000Y-95465000D03*
D40*
X206820000Y-96690000D03*
D41*
X206820000Y-101071500D03*
X206820000Y-92308500D03*
D12*
X174280000Y-86810000D03*
D14*
X179552500Y-98290000D03*
X180687500Y-98290000D03*
D33*
X178220000Y-97217500D03*
X178220000Y-98362500D03*
D18*
X170250000Y-95817500D03*
X170250000Y-94682500D03*
D25*
X192028000Y-92802500D03*
X192028000Y-93937500D03*
D18*
X202720000Y-97757500D03*
X202720000Y-96622500D03*
D19*
X181301500Y-94990000D03*
X180166500Y-94990000D03*
D25*
X192028000Y-99222500D03*
X192028000Y-100357500D03*
D14*
X193120500Y-96690000D03*
X194255500Y-96690000D03*
X179552500Y-97290000D03*
X180687500Y-97290000D03*
D34*
X180161500Y-96090000D03*
X181306500Y-96090000D03*
D14*
X188294500Y-97290000D03*
X189429500Y-97290000D03*
X177832500Y-91190000D03*
X178967500Y-91190000D03*
D18*
X168220000Y-99457500D03*
X168220000Y-98322500D03*
D25*
X182020000Y-97222500D03*
X182020000Y-98357500D03*
D14*
X178852500Y-93590000D03*
X179987500Y-93590000D03*
D18*
X182610000Y-96037500D03*
X182610000Y-94902500D03*
D19*
X196541500Y-96686000D03*
X195406500Y-96686000D03*
D14*
X188294500Y-96090000D03*
X189429500Y-96090000D03*
D18*
X198820000Y-97757500D03*
X198820000Y-96622500D03*
D42*
X190728000Y-100387500D03*
X190728000Y-99192500D03*
X190728000Y-93987500D03*
X190728000Y-92792500D03*
D21*
X114185500Y-87626000D03*
X112990500Y-87626000D03*
D20*
X113000500Y-85586000D03*
X114195500Y-85586000D03*
D43*
X116188000Y-82663000D03*
X116188000Y-80913000D03*
D44*
X119126000Y-80913000D03*
X119126000Y-82663000D03*
D30*
X118618000Y-89916000D03*
X116893000Y-89916000D03*
D19*
X114145500Y-86616000D03*
X113010500Y-86616000D03*
D45*
X109875500Y-86596000D03*
X111600500Y-86596000D03*
D18*
X138350000Y-103047500D03*
X138350000Y-101912500D03*
D19*
X117817500Y-95720000D03*
X116682500Y-95720000D03*
D14*
X126542500Y-101430000D03*
X127677500Y-101430000D03*
X129182500Y-82510000D03*
X130317500Y-82510000D03*
D42*
X131570000Y-88497500D03*
X131570000Y-87302500D03*
D46*
X131870000Y-85030000D03*
X132820000Y-85030000D03*
X133770000Y-85030000D03*
X133770000Y-82530000D03*
X132820000Y-82530000D03*
X131870000Y-82530000D03*
D21*
X133947500Y-87300000D03*
X132752500Y-87300000D03*
D25*
X119250000Y-94582500D03*
X119250000Y-95717500D03*
D19*
X117717500Y-98210000D03*
X116582500Y-98210000D03*
D22*
X116350000Y-99750000D03*
X117750000Y-99750000D03*
D47*
X129337500Y-94750000D03*
X129337500Y-95250000D03*
X129337500Y-95750000D03*
X129337500Y-96250000D03*
X129337500Y-96750000D03*
X129337500Y-97250000D03*
X129337500Y-97750000D03*
X129337500Y-98250000D03*
X129337500Y-98750000D03*
X129337500Y-99250000D03*
X129337500Y-99750000D03*
X129337500Y-100250000D03*
D48*
X130750000Y-101662500D03*
X131250000Y-101662500D03*
X131750000Y-101662500D03*
X132250000Y-101662500D03*
X132750000Y-101662500D03*
X133250000Y-101662500D03*
X133750000Y-101662500D03*
X134250000Y-101662500D03*
X134750000Y-101662500D03*
X135250000Y-101662500D03*
X135750000Y-101662500D03*
X136250000Y-101662500D03*
D47*
X137662500Y-100250000D03*
X137662500Y-99750000D03*
X137662500Y-99250000D03*
X137662500Y-98750000D03*
X137662500Y-98250000D03*
X137662500Y-97750000D03*
X137662500Y-97250000D03*
X137662500Y-96750000D03*
X137662500Y-96250000D03*
X137662500Y-95750000D03*
X137662500Y-95250000D03*
X137662500Y-94750000D03*
D48*
X136250000Y-93337500D03*
X135750000Y-93337500D03*
X135250000Y-93337500D03*
X134750000Y-93337500D03*
X134250000Y-93337500D03*
X133750000Y-93337500D03*
X133250000Y-93337500D03*
X132750000Y-93337500D03*
X132250000Y-93337500D03*
X131750000Y-93337500D03*
X131250000Y-93337500D03*
X130750000Y-93337500D03*
D49*
X116368000Y-87916000D03*
X116868000Y-87916000D03*
X117368000Y-87916000D03*
X117868000Y-87916000D03*
X118368000Y-87916000D03*
X118868000Y-87916000D03*
X118868000Y-85116000D03*
X118368000Y-85116000D03*
X117868000Y-85116000D03*
X117368000Y-85116000D03*
X116868000Y-85116000D03*
X116368000Y-85116000D03*
D50*
X117618000Y-86516000D03*
D18*
X152390000Y-101455500D03*
X152390000Y-100320500D03*
X153528000Y-101455500D03*
X153528000Y-100320500D03*
X158650000Y-101427500D03*
X158650000Y-100292500D03*
D25*
X159796000Y-93576500D03*
X159796000Y-94711500D03*
X158360000Y-84752500D03*
X158360000Y-85887500D03*
D51*
X156735000Y-84445000D03*
X154885000Y-84445000D03*
X154885000Y-85895000D03*
X156735000Y-85895000D03*
D52*
X155270000Y-96490000D03*
X155670000Y-96490000D03*
X156070000Y-96490000D03*
X156470000Y-96490000D03*
X156870000Y-96490000D03*
X155270000Y-96890000D03*
X155670000Y-96890000D03*
X156070000Y-96890000D03*
X156470000Y-96890000D03*
X156870000Y-96890000D03*
X155270000Y-97290000D03*
X155670000Y-97290000D03*
X156070000Y-97290000D03*
X156470000Y-97290000D03*
X156870000Y-97290000D03*
X155270000Y-97690000D03*
X155670000Y-97690000D03*
X156070000Y-97690000D03*
X156470000Y-97690000D03*
X156870000Y-97690000D03*
X155270000Y-98090000D03*
X155670000Y-98090000D03*
X156070000Y-98090000D03*
X156470000Y-98090000D03*
X156870000Y-98090000D03*
X155270000Y-98490000D03*
X155670000Y-98490000D03*
X156070000Y-98490000D03*
X156470000Y-98490000D03*
X156870000Y-98490000D03*
D25*
X153518000Y-93606500D03*
X153518000Y-94741500D03*
X158608000Y-93576500D03*
X158608000Y-94711500D03*
X152430000Y-93581500D03*
X152430000Y-94716500D03*
D18*
X159662000Y-101427500D03*
X159662000Y-100292500D03*
D12*
X138050000Y-109030000D03*
D53*
X166585000Y-87350000D03*
X168335000Y-87350000D03*
X166585000Y-85650000D03*
X168335000Y-85650000D03*
D21*
X169597500Y-89000000D03*
X168402500Y-89000000D03*
X169597500Y-84000000D03*
X168402500Y-84000000D03*
D15*
X168210000Y-111840000D03*
D16*
X168210000Y-114380000D03*
D15*
X129410000Y-111850000D03*
D16*
X131950000Y-111850000D03*
X129410000Y-114390000D03*
X131950000Y-114390000D03*
D12*
X170780000Y-104390000D03*
X176200000Y-102900000D03*
X122200000Y-80900000D03*
X161950000Y-104390000D03*
D18*
X139210000Y-91537500D03*
X139210000Y-90402500D03*
D54*
X174875000Y-90300000D03*
X173125000Y-90300000D03*
X173125000Y-91700000D03*
X174875000Y-91700000D03*
D30*
X125400500Y-86646000D03*
X123675500Y-86646000D03*
D14*
X121132500Y-86600000D03*
X122267500Y-86600000D03*
D20*
X121102500Y-87600000D03*
X122297500Y-87600000D03*
D21*
X122265500Y-85600000D03*
X121070500Y-85600000D03*
D12*
X173850000Y-113430000D03*
D55*
X138782500Y-105860000D03*
X137032500Y-105860000D03*
D15*
X154945000Y-89660000D03*
D16*
X157485000Y-89660000D03*
D12*
X136670000Y-87230000D03*
X132710000Y-79460000D03*
X136570000Y-81380000D03*
M02*
