M48
INCH,TZ
T1C0.0118
T2C0.0157
T3C0.0197
T4C0.0354
T5C0.0394
T6C0.0433
%
G90
G05
T1
X53445Y-41673
X59563Y-40323
X60079Y-38031
X60787Y-37008
X60787Y-37402
X61142Y-40079
X62008Y-39803
X62035Y-39087
X62087Y-37402
X62087Y-39409
X66693Y-37720
X66831Y-33465
X66831Y-34646
X67311Y-39051
T2
X44716Y-42741
X45075Y-38831
X45402Y-37689
X45417Y-37059
X45421Y-39276
X47263Y-39101
X47559Y-31850
X47665Y-40153
X47889Y-37141
X48000Y-42000
X48041Y-35324
X48476Y-39228
X49441Y-39520
X49441Y-39933
X49634Y-38051
X49842Y-31099
X49957Y-39067
X50157Y-36457
X50267Y-40225
X50642Y-33441
X51075Y-40197
X51114Y-31961
X51122Y-35811
X51362Y-35386
X51512Y-40736
X51736Y-35823
X51862Y-41154
X52252Y-31815
X52291Y-34000
X52311Y-34886
X53248Y-40909
X53260Y-32492
X53949Y-35724
X54035Y-40886
X54786Y-40570
X54807Y-36933
X54813Y-42203
X54823Y-33055
X54823Y-37374
X54913Y-40114
X55744Y-36862
X55744Y-38130
X55829Y-42419
X55839Y-40748
X55934Y-41609
X58516Y-40472
X59598Y-39988
X59652Y-37290
X59662Y-39496
X59922Y-40709
X60008Y-36492
X60335Y-38850
X60382Y-40693
X60780Y-41602
X60819Y-42126
X62480Y-37756
X63197Y-33823
X63228Y-39485
X63263Y-37288
X63882Y-36720
X63902Y-40406
X64236Y-37146
X64331Y-40799
X65827Y-38710
X66748Y-41083
X67028Y-35827
X67650Y-39650
X68159Y-35089
X69370Y-39843
X70013Y-35564
X70937Y-35902
X71137Y-39101
X71193Y-36374
X71252Y-36846
X71661Y-39098
X71894Y-36957
X75090Y-41822
X75602Y-34460
X75602Y-41820
X78276Y-38945
X79815Y-38925
T3
X43012Y-35413
X43016Y-36445
X45394Y-33189
X45744Y-31138
X45965Y-36220
X47244Y-33150
X48110Y-33327
X48691Y-33577
X51839Y-45909
X53134Y-45630
X70441Y-33236
X70441Y-34236
X70457Y-39244
X70457Y-40157
X70457Y-41150
X70457Y-42161
X70476Y-35232
X70638Y-43291
X71039Y-32638
X71787Y-43492
X72102Y-32567
X72803Y-43492
X73268Y-32567
X73740Y-43492
X74311Y-32567
X74472Y-43492
X75319Y-32567
X75575Y-43492
X76445Y-32567
X76638Y-43492
X77543Y-32567
X77795Y-43492
X78827Y-32567
X78862Y-43492
X79894Y-43492
X79992Y-32567
X80398Y-35323
X80402Y-40815
X80846Y-43492
X81472Y-32567
X81837Y-43195
X82232Y-40650
X82232Y-41484
X82232Y-42311
X82311Y-33421
X82311Y-34469
X82311Y-35382
T5
X46665Y-43047
X46665Y-44047
X46665Y-45047
X50949Y-44035
X50949Y-45035
X51949Y-44035
X51949Y-45035
X55516Y-44035
X55516Y-45035
X57480Y-35972
X57480Y-36972
X57480Y-37972
X57480Y-38972
X58480Y-35972
X58480Y-36972
X58480Y-37972
X58480Y-38972
X61002Y-35299
X61346Y-44047
X61346Y-45047
X62002Y-35299
X62346Y-44047
X62346Y-45047
X63740Y-31496
X64740Y-31496
X65740Y-31496
X66224Y-44031
X66224Y-45031
X66740Y-31496
X67740Y-31496
X68740Y-31496
T6
X56075Y-31622
X56075Y-33394
X58634Y-31622
X58634Y-33394
T4
G00X40984Y-36142
M15
G01X40354Y-36142
M16
G05
G00X40984Y-40630
M15
G01X40354Y-40630
M16
G05
T0
M30
