G04 #@! TF.GenerationSoftware,KiCad,Pcbnew,(6.0.1)*
G04 #@! TF.CreationDate,2022-02-07T11:20:35+02:00*
G04 #@! TF.ProjectId,LoRaDongle_iCE40,4c6f5261-446f-46e6-976c-655f69434534,1.0*
G04 #@! TF.SameCoordinates,Original*
G04 #@! TF.FileFunction,Copper,L3,Inr*
G04 #@! TF.FilePolarity,Positive*
%FSLAX46Y46*%
G04 Gerber Fmt 4.6, Leading zero omitted, Abs format (unit mm)*
G04 Created by KiCad (PCBNEW (6.0.1)) date 2022-02-07 11:20:35*
%MOMM*%
%LPD*%
G01*
G04 APERTURE LIST*
G04 #@! TA.AperFunction,ComponentPad*
%ADD10R,1.700000X1.700000*%
G04 #@! TD*
G04 #@! TA.AperFunction,ComponentPad*
%ADD11O,1.700000X1.700000*%
G04 #@! TD*
G04 #@! TA.AperFunction,ComponentPad*
%ADD12C,2.000000*%
G04 #@! TD*
G04 #@! TA.AperFunction,ComponentPad*
%ADD13O,3.500000X1.900000*%
G04 #@! TD*
G04 #@! TA.AperFunction,ViaPad*
%ADD14C,0.800000*%
G04 #@! TD*
G04 #@! TA.AperFunction,ViaPad*
%ADD15C,1.000000*%
G04 #@! TD*
G04 #@! TA.AperFunction,ViaPad*
%ADD16C,0.600000*%
G04 #@! TD*
G04 #@! TA.AperFunction,ViaPad*
%ADD17C,0.300000*%
G04 #@! TD*
G04 #@! TA.AperFunction,Conductor*
%ADD18C,0.150000*%
G04 #@! TD*
G04 #@! TA.AperFunction,Conductor*
%ADD19C,0.400000*%
G04 #@! TD*
G04 #@! TA.AperFunction,Conductor*
%ADD20C,0.500000*%
G04 #@! TD*
G04 APERTURE END LIST*
D10*
X155820000Y-111880000D03*
D11*
X158360000Y-111880000D03*
X155820000Y-114420000D03*
X158360000Y-114420000D03*
D10*
X141010000Y-111850000D03*
D11*
X141010000Y-114390000D03*
D10*
X161900000Y-80000000D03*
D11*
X164440000Y-80000000D03*
X166980000Y-80000000D03*
X169520000Y-80000000D03*
X172060000Y-80000000D03*
X174600000Y-80000000D03*
D12*
X148930000Y-80320000D03*
X142430000Y-80320000D03*
X142430000Y-84820000D03*
X148930000Y-84820000D03*
D10*
X118530000Y-109340000D03*
D11*
X118530000Y-111880000D03*
X118530000Y-114420000D03*
D10*
X146000000Y-91370000D03*
D11*
X148540000Y-91370000D03*
X146000000Y-93910000D03*
X148540000Y-93910000D03*
X146000000Y-96450000D03*
X148540000Y-96450000D03*
X146000000Y-98990000D03*
X148540000Y-98990000D03*
D13*
X103300000Y-91800000D03*
X103300000Y-103200000D03*
D10*
X168210000Y-111840000D03*
D11*
X168210000Y-114380000D03*
D10*
X129410000Y-111850000D03*
D11*
X131950000Y-111850000D03*
X129410000Y-114390000D03*
X131950000Y-114390000D03*
D10*
X154945000Y-89660000D03*
D11*
X157485000Y-89660000D03*
D14*
X113577500Y-108562500D03*
D15*
X188750000Y-82720000D03*
X194660000Y-110470000D03*
X208870000Y-107470000D03*
D14*
X121637500Y-94337500D03*
D15*
X208870000Y-105370000D03*
X180440000Y-82900000D03*
X204220000Y-103670000D03*
D14*
X198820000Y-98920000D03*
D15*
X178960000Y-99680000D03*
X183140000Y-82720000D03*
X178920000Y-86960000D03*
X208870000Y-103250000D03*
D14*
X114490000Y-98630000D03*
X121068500Y-101988500D03*
D15*
X209070000Y-84890000D03*
D14*
X115320000Y-95730000D03*
X120047500Y-99317500D03*
D15*
X209070000Y-87550000D03*
D14*
X180830000Y-92390000D03*
X153370000Y-103360000D03*
X152420000Y-92690000D03*
D15*
X179010000Y-89490000D03*
D14*
X180180000Y-91190000D03*
D15*
X182340000Y-110470000D03*
D16*
X169400000Y-95810000D03*
D14*
X192028000Y-106222000D03*
D15*
X206940000Y-82720000D03*
X109250000Y-89950000D03*
D14*
X192028000Y-87528000D03*
D15*
X178960000Y-104520000D03*
X194170000Y-82720000D03*
X178960000Y-107090000D03*
D14*
X122024000Y-89724000D03*
X132820000Y-86360000D03*
D15*
X202930000Y-110470000D03*
X205350000Y-110470000D03*
D14*
X141590000Y-96850000D03*
D15*
X178960000Y-102000000D03*
D14*
X121920000Y-106680000D03*
D15*
X200220000Y-82720000D03*
X207865000Y-109715000D03*
D14*
X173125000Y-89125000D03*
D15*
X186100000Y-82720000D03*
D14*
X182610000Y-93870000D03*
X158700000Y-95900000D03*
D15*
X200310000Y-110470000D03*
X203180000Y-82720000D03*
X197600000Y-110470000D03*
D14*
X151380000Y-101570000D03*
X202730000Y-98870000D03*
D15*
X191310000Y-82720000D03*
X179420000Y-109960000D03*
D14*
X135250000Y-103910000D03*
D15*
X204210000Y-89720000D03*
D14*
X139250000Y-94930000D03*
D15*
X184920000Y-110470000D03*
D14*
X180980000Y-93590000D03*
D15*
X178920000Y-84420000D03*
D14*
X139210000Y-93810000D03*
X182020000Y-99310000D03*
X180687500Y-99317500D03*
X126890000Y-99230000D03*
D15*
X191960000Y-110470000D03*
X209070000Y-89870000D03*
D14*
X127400000Y-92600000D03*
D15*
X187300000Y-110470000D03*
D14*
X129850000Y-90960000D03*
D15*
X189160000Y-110470000D03*
D14*
X125580000Y-100380000D03*
D15*
X196960000Y-82720000D03*
X109260000Y-92570000D03*
D14*
X139157500Y-103047500D03*
X137250000Y-103850000D03*
X125580000Y-101430000D03*
X139225000Y-107195000D03*
X137030000Y-90740000D03*
X127677500Y-102172500D03*
X141590000Y-93630000D03*
X154480000Y-107000000D03*
X160520000Y-85910000D03*
X154380000Y-105670000D03*
X128630000Y-84940000D03*
X131410000Y-90990000D03*
X152202500Y-103400000D03*
D15*
X122200000Y-84650000D03*
D14*
X115360000Y-94130000D03*
X115370000Y-99760000D03*
X141805000Y-107745000D03*
X126597500Y-78992500D03*
X141830000Y-103500000D03*
X120800000Y-80900000D03*
X139250000Y-83960000D03*
X129830000Y-81180000D03*
X139480000Y-101890000D03*
D15*
X123675500Y-85284500D03*
X115300000Y-84300000D03*
X120000000Y-84200000D03*
X116750000Y-92000000D03*
X116190000Y-79090000D03*
D14*
X170250000Y-91000000D03*
X177832500Y-90332500D03*
D16*
X135750000Y-105850000D03*
D17*
X156070000Y-97690003D03*
D14*
X132870000Y-88610000D03*
X135280000Y-82530000D03*
X132720000Y-80810000D03*
X130460000Y-89880000D03*
D16*
X154400000Y-95000000D03*
X154400000Y-94000000D03*
D14*
X162310000Y-102630000D03*
X163160000Y-94350000D03*
X163400000Y-103630000D03*
D16*
X152600000Y-96600000D03*
X155300000Y-101800000D03*
D14*
X169540000Y-104350000D03*
X171830000Y-100710000D03*
D17*
X156070000Y-97290000D03*
X162510000Y-97380000D03*
D16*
X157700000Y-100100000D03*
D17*
X161480000Y-96770000D03*
X162670000Y-95560000D03*
D14*
X148630000Y-102800000D03*
X129730000Y-102100000D03*
X153250000Y-98680000D03*
X176200000Y-101200000D03*
D17*
X155180000Y-99880000D03*
X158410000Y-103824500D03*
D16*
X157570000Y-99280000D03*
X169750000Y-85000000D03*
D14*
X162260000Y-93270000D03*
D16*
X151290000Y-102420000D03*
X169750000Y-88000000D03*
X157500000Y-101100000D03*
X157700000Y-95000000D03*
D14*
X142073000Y-105687000D03*
X131730000Y-104530000D03*
X130840000Y-103470000D03*
X126070000Y-96650000D03*
X123130000Y-99640000D03*
X190728000Y-106228000D03*
D16*
X170970000Y-99190000D03*
D14*
X167200000Y-98322500D03*
X151540500Y-100320500D03*
D15*
X131670000Y-116610000D03*
D14*
X160600000Y-100292500D03*
D15*
X134960000Y-115900000D03*
D14*
X160688500Y-94711500D03*
X151516500Y-94716500D03*
D18*
X152839001Y-97690003D02*
X149058998Y-93910000D01*
X149058998Y-93910000D02*
X148540000Y-93910000D01*
X156070000Y-97690003D02*
X152839001Y-97690003D01*
X156070000Y-97290000D02*
X162420000Y-97290000D01*
X162420000Y-97290000D02*
X162510000Y-97380000D01*
X161480000Y-96770000D02*
X162670000Y-95580000D01*
X162670000Y-95580000D02*
X162670000Y-95560000D01*
X158404500Y-103824500D02*
X158410000Y-103824500D01*
X155180000Y-99880000D02*
X155180000Y-100600000D01*
X155180000Y-100600000D02*
X158404500Y-103824500D01*
D19*
X167200000Y-98322500D02*
X167200000Y-100920000D01*
X167200000Y-100920000D02*
X168580000Y-102300000D01*
X168620680Y-102300000D02*
X171310000Y-104989320D01*
X168580000Y-102300000D02*
X168620680Y-102300000D01*
X171310000Y-104989320D02*
X171310000Y-110200000D01*
X169670000Y-111840000D02*
X168210000Y-111840000D01*
X171310000Y-110200000D02*
X169670000Y-111840000D01*
D20*
X162252500Y-100292500D02*
X160600000Y-100292500D01*
X151059511Y-110580489D02*
X160059511Y-110580489D01*
X149660000Y-102201000D02*
X151540500Y-100320500D01*
X149660000Y-111980000D02*
X151059511Y-110580489D01*
X144500000Y-117140000D02*
X149660000Y-111980000D01*
X149660000Y-111980000D02*
X149660000Y-102201000D01*
X164490000Y-102530000D02*
X162252500Y-100292500D01*
X132200000Y-117140000D02*
X144500000Y-117140000D01*
X164490000Y-106150000D02*
X164490000Y-102530000D01*
X131670000Y-116610000D02*
X132200000Y-117140000D01*
X160059511Y-110580489D02*
X164490000Y-106150000D01*
X134400489Y-109309511D02*
X143140000Y-100570000D01*
X150840000Y-86490000D02*
X158090000Y-86490000D01*
X160990000Y-94410000D02*
X160688500Y-94711500D01*
X158090000Y-86490000D02*
X160990000Y-89390000D01*
X149610000Y-87720000D02*
X151516500Y-89626500D01*
X134960000Y-115900000D02*
X134400489Y-115340489D01*
X134400489Y-115340489D02*
X134400489Y-109309511D01*
X143140000Y-100570000D02*
X143140000Y-88830000D01*
X144250000Y-87720000D02*
X149610000Y-87720000D01*
X143140000Y-88830000D02*
X144250000Y-87720000D01*
X151516500Y-89626500D02*
X151516500Y-94716500D01*
X160990000Y-89390000D02*
X160990000Y-94410000D01*
X149610000Y-87720000D02*
X150840000Y-86490000D01*
G04 #@! TA.AperFunction,Conductor*
G36*
X119532206Y-75170002D02*
G01*
X119578699Y-75223658D01*
X119590084Y-75275417D01*
X119628518Y-83577016D01*
X119628637Y-83602813D01*
X119608950Y-83671025D01*
X119585469Y-83698343D01*
X119513034Y-83761533D01*
X119492672Y-83790505D01*
X119434752Y-83872917D01*
X119422501Y-83890348D01*
X119365309Y-84037039D01*
X119358508Y-84088700D01*
X119352144Y-84137039D01*
X119344758Y-84193138D01*
X119362035Y-84349633D01*
X119416143Y-84497490D01*
X119420380Y-84503796D01*
X119420382Y-84503799D01*
X119453067Y-84552438D01*
X119503958Y-84628172D01*
X119526270Y-84648474D01*
X119592988Y-84709183D01*
X119629910Y-84769824D01*
X119634187Y-84801794D01*
X119685530Y-95891812D01*
X119686031Y-96000000D01*
X125641618Y-96000000D01*
X125709739Y-96020002D01*
X125756232Y-96073658D01*
X125766336Y-96143932D01*
X125736842Y-96208512D01*
X125718322Y-96225962D01*
X125677379Y-96257379D01*
X125589139Y-96372375D01*
X125533670Y-96506291D01*
X125514750Y-96650000D01*
X125533670Y-96793709D01*
X125589139Y-96927625D01*
X125677379Y-97042621D01*
X125792375Y-97130861D01*
X125926291Y-97186330D01*
X126070000Y-97205250D01*
X126213709Y-97186330D01*
X126347625Y-97130861D01*
X126462621Y-97042621D01*
X126550861Y-96927625D01*
X126583014Y-96850000D01*
X141034750Y-96850000D01*
X141053670Y-96993709D01*
X141109139Y-97127625D01*
X141197379Y-97242621D01*
X141312375Y-97330861D01*
X141446291Y-97386330D01*
X141590000Y-97405250D01*
X141733709Y-97386330D01*
X141867625Y-97330861D01*
X141982621Y-97242621D01*
X142070861Y-97127625D01*
X142126330Y-96993709D01*
X142145250Y-96850000D01*
X142126330Y-96706291D01*
X142070861Y-96572375D01*
X141982621Y-96457379D01*
X141867625Y-96369139D01*
X141733709Y-96313670D01*
X141590000Y-96294750D01*
X141446291Y-96313670D01*
X141312375Y-96369139D01*
X141197379Y-96457379D01*
X141109139Y-96572375D01*
X141053670Y-96706291D01*
X141034750Y-96850000D01*
X126583014Y-96850000D01*
X126606330Y-96793709D01*
X126625250Y-96650000D01*
X126606330Y-96506291D01*
X126550861Y-96372375D01*
X126462621Y-96257379D01*
X126421678Y-96225962D01*
X126379811Y-96168624D01*
X126375589Y-96097753D01*
X126410354Y-96035850D01*
X126473066Y-96002569D01*
X126498382Y-96000000D01*
X131286031Y-96000000D01*
X131286031Y-93810000D01*
X138654750Y-93810000D01*
X138673670Y-93953709D01*
X138729139Y-94087625D01*
X138817379Y-94202621D01*
X138823929Y-94207647D01*
X138925238Y-94285385D01*
X138967105Y-94342723D01*
X138971327Y-94413594D01*
X138936562Y-94475497D01*
X138925251Y-94485299D01*
X138857379Y-94537379D01*
X138769139Y-94652375D01*
X138713670Y-94786291D01*
X138694750Y-94930000D01*
X138713670Y-95073709D01*
X138769139Y-95207625D01*
X138857379Y-95322621D01*
X138972375Y-95410861D01*
X139106291Y-95466330D01*
X139250000Y-95485250D01*
X139393709Y-95466330D01*
X139527625Y-95410861D01*
X139642621Y-95322621D01*
X139730861Y-95207625D01*
X139786330Y-95073709D01*
X139805250Y-94930000D01*
X139786330Y-94786291D01*
X139730861Y-94652375D01*
X139642621Y-94537379D01*
X139619039Y-94519284D01*
X139534762Y-94454615D01*
X139492895Y-94397277D01*
X139488673Y-94326406D01*
X139523438Y-94264503D01*
X139534749Y-94254701D01*
X139602621Y-94202621D01*
X139690861Y-94087625D01*
X139746330Y-93953709D01*
X139765250Y-93810000D01*
X139746330Y-93666291D01*
X139690861Y-93532375D01*
X139602621Y-93417379D01*
X139487625Y-93329139D01*
X139353709Y-93273670D01*
X139210000Y-93254750D01*
X139066291Y-93273670D01*
X138932375Y-93329139D01*
X138817379Y-93417379D01*
X138729139Y-93532375D01*
X138673670Y-93666291D01*
X138654750Y-93810000D01*
X131286031Y-93810000D01*
X131286031Y-93300000D01*
X129812031Y-93300000D01*
X129743910Y-93279998D01*
X129697417Y-93226342D01*
X129686031Y-93174000D01*
X129686031Y-91637339D01*
X129706033Y-91569218D01*
X129759689Y-91522725D01*
X129828475Y-91512417D01*
X129841808Y-91514172D01*
X129841812Y-91514172D01*
X129850000Y-91515250D01*
X129993709Y-91496330D01*
X130127625Y-91440861D01*
X130242621Y-91352621D01*
X130330861Y-91237625D01*
X130386330Y-91103709D01*
X130405250Y-90960000D01*
X130386330Y-90816291D01*
X130330861Y-90682375D01*
X130290593Y-90629897D01*
X130264993Y-90563680D01*
X130279257Y-90494131D01*
X130328858Y-90443334D01*
X130398047Y-90427418D01*
X130407002Y-90428273D01*
X130451811Y-90434172D01*
X130451812Y-90434172D01*
X130460000Y-90435250D01*
X130603709Y-90416330D01*
X130737625Y-90360861D01*
X130852621Y-90272621D01*
X130940861Y-90157625D01*
X130996330Y-90023709D01*
X131015250Y-89880000D01*
X130996330Y-89736291D01*
X130940861Y-89602375D01*
X130852621Y-89487379D01*
X130737625Y-89399139D01*
X130603709Y-89343670D01*
X130460000Y-89324750D01*
X130316291Y-89343670D01*
X130182375Y-89399139D01*
X130067379Y-89487379D01*
X129979139Y-89602375D01*
X129975979Y-89610004D01*
X129928440Y-89724775D01*
X129883892Y-89780056D01*
X129816529Y-89802477D01*
X129747738Y-89784919D01*
X129699359Y-89732957D01*
X129686031Y-89676557D01*
X129686031Y-88610000D01*
X132314750Y-88610000D01*
X132333670Y-88753709D01*
X132389139Y-88887625D01*
X132477379Y-89002621D01*
X132592375Y-89090861D01*
X132726291Y-89146330D01*
X132870000Y-89165250D01*
X133013709Y-89146330D01*
X133147625Y-89090861D01*
X133262621Y-89002621D01*
X133350861Y-88887625D01*
X133406330Y-88753709D01*
X133425250Y-88610000D01*
X133406330Y-88466291D01*
X133350861Y-88332375D01*
X133262621Y-88217379D01*
X133147625Y-88129139D01*
X133013709Y-88073670D01*
X132870000Y-88054750D01*
X132726291Y-88073670D01*
X132592375Y-88129139D01*
X132477379Y-88217379D01*
X132389139Y-88332375D01*
X132333670Y-88466291D01*
X132314750Y-88610000D01*
X129686031Y-88610000D01*
X129686031Y-88200000D01*
X121744431Y-88279416D01*
X119812422Y-88298736D01*
X119744105Y-88279416D01*
X119697077Y-88226228D01*
X119685165Y-88173605D01*
X119684979Y-88146450D01*
X119672743Y-86360000D01*
X132264750Y-86360000D01*
X132283670Y-86503709D01*
X132339139Y-86637625D01*
X132427379Y-86752621D01*
X132542375Y-86840861D01*
X132676291Y-86896330D01*
X132820000Y-86915250D01*
X132963709Y-86896330D01*
X133097625Y-86840861D01*
X133212621Y-86752621D01*
X133300861Y-86637625D01*
X133356330Y-86503709D01*
X133375250Y-86360000D01*
X133356330Y-86216291D01*
X133300861Y-86082375D01*
X133212621Y-85967379D01*
X133097625Y-85879139D01*
X132963709Y-85823670D01*
X132820000Y-85804750D01*
X132676291Y-85823670D01*
X132542375Y-85879139D01*
X132427379Y-85967379D01*
X132339139Y-86082375D01*
X132283670Y-86216291D01*
X132264750Y-86360000D01*
X119672743Y-86360000D01*
X119663074Y-84948336D01*
X119682609Y-84880081D01*
X119735945Y-84833222D01*
X119806148Y-84822637D01*
X119821044Y-84825598D01*
X119903719Y-84847287D01*
X119903721Y-84847287D01*
X119911069Y-84849215D01*
X119994380Y-84850524D01*
X120060898Y-84851569D01*
X120060901Y-84851569D01*
X120068495Y-84851688D01*
X120221968Y-84816538D01*
X120275222Y-84789754D01*
X141274967Y-84789754D01*
X141288796Y-85000749D01*
X141290217Y-85006345D01*
X141290218Y-85006350D01*
X141321778Y-85130614D01*
X141340845Y-85205690D01*
X141429369Y-85397714D01*
X141551405Y-85570391D01*
X141702865Y-85717937D01*
X141707661Y-85721142D01*
X141707664Y-85721144D01*
X141832790Y-85804750D01*
X141878677Y-85835411D01*
X141883985Y-85837692D01*
X141883986Y-85837692D01*
X142067650Y-85916600D01*
X142067653Y-85916601D01*
X142072953Y-85918878D01*
X142078582Y-85920152D01*
X142078583Y-85920152D01*
X142273550Y-85964269D01*
X142273553Y-85964269D01*
X142279186Y-85965544D01*
X142284957Y-85965771D01*
X142284959Y-85965771D01*
X142346989Y-85968208D01*
X142490470Y-85973846D01*
X142496179Y-85973018D01*
X142496183Y-85973018D01*
X142694015Y-85944333D01*
X142694019Y-85944332D01*
X142699730Y-85943504D01*
X142778987Y-85916600D01*
X142894483Y-85877395D01*
X142894488Y-85877393D01*
X142899955Y-85875537D01*
X142904998Y-85872713D01*
X143079395Y-85775046D01*
X143079399Y-85775043D01*
X143084442Y-85772219D01*
X143247012Y-85637012D01*
X143382219Y-85474442D01*
X143385043Y-85469399D01*
X143385046Y-85469395D01*
X143482713Y-85294998D01*
X143482714Y-85294996D01*
X143485537Y-85289955D01*
X143487393Y-85284488D01*
X143487395Y-85284483D01*
X143551647Y-85095200D01*
X143553504Y-85089730D01*
X143568608Y-84985567D01*
X143583314Y-84884140D01*
X143583314Y-84884138D01*
X143583846Y-84880470D01*
X143585429Y-84820000D01*
X143582650Y-84789754D01*
X147774967Y-84789754D01*
X147788796Y-85000749D01*
X147790217Y-85006345D01*
X147790218Y-85006350D01*
X147821778Y-85130614D01*
X147840845Y-85205690D01*
X147929369Y-85397714D01*
X148051405Y-85570391D01*
X148202865Y-85717937D01*
X148207661Y-85721142D01*
X148207664Y-85721144D01*
X148332790Y-85804750D01*
X148378677Y-85835411D01*
X148383985Y-85837692D01*
X148383986Y-85837692D01*
X148567650Y-85916600D01*
X148567653Y-85916601D01*
X148572953Y-85918878D01*
X148578582Y-85920152D01*
X148578583Y-85920152D01*
X148773550Y-85964269D01*
X148773553Y-85964269D01*
X148779186Y-85965544D01*
X148784957Y-85965771D01*
X148784959Y-85965771D01*
X148846989Y-85968208D01*
X148990470Y-85973846D01*
X148996179Y-85973018D01*
X148996183Y-85973018D01*
X149194015Y-85944333D01*
X149194019Y-85944332D01*
X149199730Y-85943504D01*
X149278987Y-85916600D01*
X149394483Y-85877395D01*
X149394488Y-85877393D01*
X149399955Y-85875537D01*
X149404998Y-85872713D01*
X149579395Y-85775046D01*
X149579399Y-85775043D01*
X149584442Y-85772219D01*
X149747012Y-85637012D01*
X149882219Y-85474442D01*
X149885043Y-85469399D01*
X149885046Y-85469395D01*
X149982713Y-85294998D01*
X149982714Y-85294996D01*
X149985537Y-85289955D01*
X149987393Y-85284488D01*
X149987395Y-85284483D01*
X150051647Y-85095200D01*
X150053504Y-85089730D01*
X150067321Y-84994440D01*
X169294901Y-84994440D01*
X169296065Y-85003342D01*
X169296065Y-85003345D01*
X169310468Y-85113489D01*
X169310469Y-85113493D01*
X169311633Y-85122394D01*
X169363605Y-85240510D01*
X169446639Y-85339291D01*
X169554060Y-85410796D01*
X169677233Y-85449278D01*
X169686203Y-85449442D01*
X169686207Y-85449443D01*
X169744942Y-85450519D01*
X169806255Y-85451643D01*
X169868505Y-85434671D01*
X169922092Y-85420062D01*
X169922093Y-85420062D01*
X169930755Y-85417700D01*
X169938405Y-85413003D01*
X169938407Y-85413002D01*
X170033072Y-85354878D01*
X170033075Y-85354875D01*
X170040724Y-85350179D01*
X170046750Y-85343522D01*
X170121300Y-85261161D01*
X170121303Y-85261157D01*
X170127322Y-85254507D01*
X170183588Y-85138375D01*
X170192734Y-85084015D01*
X170204190Y-85015917D01*
X170204997Y-85011120D01*
X170205133Y-85000000D01*
X170193180Y-84916538D01*
X170188112Y-84881145D01*
X170188111Y-84881142D01*
X170186839Y-84872259D01*
X170176416Y-84849334D01*
X170137145Y-84762962D01*
X170137143Y-84762959D01*
X170133428Y-84754788D01*
X170105061Y-84721866D01*
X170055051Y-84663826D01*
X170055049Y-84663824D01*
X170049193Y-84657028D01*
X169940906Y-84586841D01*
X169932311Y-84584271D01*
X169932310Y-84584270D01*
X169825874Y-84552438D01*
X169825872Y-84552438D01*
X169817273Y-84549866D01*
X169808298Y-84549811D01*
X169808297Y-84549811D01*
X169753641Y-84549477D01*
X169688231Y-84549078D01*
X169676475Y-84552438D01*
X169572786Y-84582072D01*
X169572784Y-84582073D01*
X169564155Y-84584539D01*
X169556565Y-84589328D01*
X169462825Y-84648474D01*
X169455019Y-84653399D01*
X169369596Y-84750122D01*
X169365782Y-84758245D01*
X169365781Y-84758247D01*
X169360346Y-84769824D01*
X169314754Y-84866932D01*
X169312541Y-84881145D01*
X169296282Y-84985567D01*
X169296282Y-84985571D01*
X169294901Y-84994440D01*
X150067321Y-84994440D01*
X150068608Y-84985567D01*
X150083314Y-84884140D01*
X150083314Y-84884138D01*
X150083846Y-84880470D01*
X150085429Y-84820000D01*
X150066081Y-84609440D01*
X150059708Y-84586841D01*
X150039639Y-84515683D01*
X150008686Y-84405931D01*
X149997553Y-84383354D01*
X149917719Y-84221469D01*
X149915165Y-84216290D01*
X149788651Y-84046867D01*
X149633381Y-83903337D01*
X149604696Y-83885238D01*
X149459434Y-83793584D01*
X149459433Y-83793584D01*
X149454554Y-83790505D01*
X149258160Y-83712152D01*
X149252503Y-83711027D01*
X149252497Y-83711025D01*
X149056442Y-83672028D01*
X149056440Y-83672028D01*
X149050775Y-83670901D01*
X149045000Y-83670825D01*
X149044996Y-83670825D01*
X148938976Y-83669437D01*
X148839346Y-83668133D01*
X148833649Y-83669112D01*
X148833648Y-83669112D01*
X148636650Y-83702962D01*
X148636649Y-83702962D01*
X148630953Y-83703941D01*
X148432575Y-83777127D01*
X148427614Y-83780079D01*
X148427613Y-83780079D01*
X148290585Y-83861602D01*
X148250856Y-83885238D01*
X148091881Y-84024655D01*
X147960976Y-84190708D01*
X147958287Y-84195819D01*
X147958285Y-84195822D01*
X147946718Y-84217807D01*
X147862523Y-84377836D01*
X147799820Y-84579773D01*
X147774967Y-84789754D01*
X143582650Y-84789754D01*
X143566081Y-84609440D01*
X143559708Y-84586841D01*
X143539639Y-84515683D01*
X143508686Y-84405931D01*
X143497553Y-84383354D01*
X143417719Y-84221469D01*
X143415165Y-84216290D01*
X143288651Y-84046867D01*
X143133381Y-83903337D01*
X143104696Y-83885238D01*
X142959434Y-83793584D01*
X142959433Y-83793584D01*
X142954554Y-83790505D01*
X142758160Y-83712152D01*
X142752503Y-83711027D01*
X142752497Y-83711025D01*
X142556442Y-83672028D01*
X142556440Y-83672028D01*
X142550775Y-83670901D01*
X142545000Y-83670825D01*
X142544996Y-83670825D01*
X142438976Y-83669437D01*
X142339346Y-83668133D01*
X142333649Y-83669112D01*
X142333648Y-83669112D01*
X142136650Y-83702962D01*
X142136649Y-83702962D01*
X142130953Y-83703941D01*
X141932575Y-83777127D01*
X141927614Y-83780079D01*
X141927613Y-83780079D01*
X141790585Y-83861602D01*
X141750856Y-83885238D01*
X141591881Y-84024655D01*
X141460976Y-84190708D01*
X141458287Y-84195819D01*
X141458285Y-84195822D01*
X141446718Y-84217807D01*
X141362523Y-84377836D01*
X141299820Y-84579773D01*
X141274967Y-84789754D01*
X120275222Y-84789754D01*
X120362625Y-84745795D01*
X120405492Y-84709183D01*
X120476574Y-84648474D01*
X120476576Y-84648471D01*
X120482348Y-84643542D01*
X120574224Y-84515683D01*
X120632950Y-84369598D01*
X120655134Y-84213723D01*
X120655278Y-84200000D01*
X120654773Y-84195822D01*
X120646803Y-84129963D01*
X120636363Y-84043694D01*
X120580710Y-83896412D01*
X120491531Y-83766657D01*
X120423386Y-83705942D01*
X120379648Y-83666972D01*
X120379645Y-83666970D01*
X120373976Y-83661919D01*
X120351256Y-83649889D01*
X120241543Y-83591799D01*
X120241544Y-83591799D01*
X120234831Y-83588245D01*
X120176005Y-83573469D01*
X120089498Y-83551740D01*
X120089496Y-83551740D01*
X120082128Y-83549889D01*
X120074530Y-83549849D01*
X120074528Y-83549849D01*
X120007319Y-83549497D01*
X119924684Y-83549065D01*
X119917305Y-83550837D01*
X119917301Y-83550837D01*
X119808259Y-83577016D01*
X119737351Y-83573469D01*
X119679617Y-83532149D01*
X119653387Y-83466175D01*
X119652848Y-83455360D01*
X119649826Y-83014021D01*
X119646511Y-82530000D01*
X134724750Y-82530000D01*
X134743670Y-82673709D01*
X134799139Y-82807625D01*
X134887379Y-82922621D01*
X135002375Y-83010861D01*
X135136291Y-83066330D01*
X135280000Y-83085250D01*
X135423709Y-83066330D01*
X135557625Y-83010861D01*
X135672621Y-82922621D01*
X135760861Y-82807625D01*
X135816330Y-82673709D01*
X135835250Y-82530000D01*
X135816330Y-82386291D01*
X135760861Y-82252375D01*
X135672621Y-82137379D01*
X135557625Y-82049139D01*
X135423709Y-81993670D01*
X135280000Y-81974750D01*
X135136291Y-81993670D01*
X135002375Y-82049139D01*
X134887379Y-82137379D01*
X134799139Y-82252375D01*
X134743670Y-82386291D01*
X134724750Y-82530000D01*
X119646511Y-82530000D01*
X119634730Y-80810000D01*
X132164750Y-80810000D01*
X132183670Y-80953709D01*
X132239139Y-81087625D01*
X132327379Y-81202621D01*
X132442375Y-81290861D01*
X132576291Y-81346330D01*
X132720000Y-81365250D01*
X132863709Y-81346330D01*
X132997625Y-81290861D01*
X133112621Y-81202621D01*
X133200861Y-81087625D01*
X133256330Y-80953709D01*
X133275250Y-80810000D01*
X133256330Y-80666291D01*
X133200861Y-80532375D01*
X133112621Y-80417379D01*
X132997625Y-80329139D01*
X132902540Y-80289754D01*
X141274967Y-80289754D01*
X141288796Y-80500749D01*
X141290217Y-80506345D01*
X141290218Y-80506350D01*
X141337759Y-80693539D01*
X141340845Y-80705690D01*
X141429369Y-80897714D01*
X141551405Y-81070391D01*
X141702865Y-81217937D01*
X141707661Y-81221142D01*
X141707664Y-81221144D01*
X141850936Y-81316875D01*
X141878677Y-81335411D01*
X141883985Y-81337692D01*
X141883986Y-81337692D01*
X142067650Y-81416600D01*
X142067653Y-81416601D01*
X142072953Y-81418878D01*
X142078582Y-81420152D01*
X142078583Y-81420152D01*
X142273550Y-81464269D01*
X142273553Y-81464269D01*
X142279186Y-81465544D01*
X142284957Y-81465771D01*
X142284959Y-81465771D01*
X142346989Y-81468208D01*
X142490470Y-81473846D01*
X142496179Y-81473018D01*
X142496183Y-81473018D01*
X142694015Y-81444333D01*
X142694019Y-81444332D01*
X142699730Y-81443504D01*
X142778987Y-81416600D01*
X142894483Y-81377395D01*
X142894488Y-81377393D01*
X142899955Y-81375537D01*
X142952108Y-81346330D01*
X143079395Y-81275046D01*
X143079399Y-81275043D01*
X143084442Y-81272219D01*
X143247012Y-81137012D01*
X143382219Y-80974442D01*
X143385043Y-80969399D01*
X143385046Y-80969395D01*
X143482713Y-80794998D01*
X143482714Y-80794996D01*
X143485537Y-80789955D01*
X143487393Y-80784488D01*
X143487395Y-80784483D01*
X143551647Y-80595200D01*
X143553504Y-80589730D01*
X143560844Y-80539113D01*
X143583314Y-80384140D01*
X143583314Y-80384138D01*
X143583846Y-80380470D01*
X143585429Y-80320000D01*
X143582650Y-80289754D01*
X147774967Y-80289754D01*
X147788796Y-80500749D01*
X147790217Y-80506345D01*
X147790218Y-80506350D01*
X147837759Y-80693539D01*
X147840845Y-80705690D01*
X147929369Y-80897714D01*
X148051405Y-81070391D01*
X148202865Y-81217937D01*
X148207661Y-81221142D01*
X148207664Y-81221144D01*
X148350936Y-81316875D01*
X148378677Y-81335411D01*
X148383985Y-81337692D01*
X148383986Y-81337692D01*
X148567650Y-81416600D01*
X148567653Y-81416601D01*
X148572953Y-81418878D01*
X148578582Y-81420152D01*
X148578583Y-81420152D01*
X148773550Y-81464269D01*
X148773553Y-81464269D01*
X148779186Y-81465544D01*
X148784957Y-81465771D01*
X148784959Y-81465771D01*
X148846989Y-81468208D01*
X148990470Y-81473846D01*
X148996179Y-81473018D01*
X148996183Y-81473018D01*
X149194015Y-81444333D01*
X149194019Y-81444332D01*
X149199730Y-81443504D01*
X149278987Y-81416600D01*
X149394483Y-81377395D01*
X149394488Y-81377393D01*
X149399955Y-81375537D01*
X149452108Y-81346330D01*
X149579395Y-81275046D01*
X149579399Y-81275043D01*
X149584442Y-81272219D01*
X149747012Y-81137012D01*
X149882219Y-80974442D01*
X149885043Y-80969399D01*
X149885046Y-80969395D01*
X149943611Y-80864820D01*
X160899500Y-80864820D01*
X160908233Y-80908722D01*
X160915127Y-80919040D01*
X160915128Y-80919042D01*
X160927330Y-80937303D01*
X160941496Y-80958504D01*
X160951815Y-80965399D01*
X160980958Y-80984872D01*
X160980960Y-80984873D01*
X160991278Y-80991767D01*
X161035180Y-81000500D01*
X162764820Y-81000500D01*
X162808722Y-80991767D01*
X162819040Y-80984873D01*
X162819042Y-80984872D01*
X162848185Y-80965399D01*
X162858504Y-80958504D01*
X162872670Y-80937303D01*
X162884872Y-80919042D01*
X162884873Y-80919040D01*
X162891767Y-80908722D01*
X162900500Y-80864820D01*
X162900500Y-79985963D01*
X163434757Y-79985963D01*
X163451175Y-80181483D01*
X163505258Y-80370091D01*
X163508076Y-80375574D01*
X163592123Y-80539113D01*
X163592126Y-80539117D01*
X163594944Y-80544601D01*
X163716818Y-80698369D01*
X163721511Y-80702363D01*
X163721512Y-80702364D01*
X163824432Y-80789955D01*
X163866238Y-80825535D01*
X163871616Y-80828541D01*
X163871618Y-80828542D01*
X163907932Y-80848837D01*
X164037513Y-80921257D01*
X164224118Y-80981889D01*
X164418946Y-81005121D01*
X164425081Y-81004649D01*
X164425083Y-81004649D01*
X164608434Y-80990541D01*
X164608438Y-80990540D01*
X164614576Y-80990068D01*
X164803556Y-80937303D01*
X164978689Y-80848837D01*
X165008515Y-80825535D01*
X165128453Y-80731829D01*
X165133303Y-80728040D01*
X165148070Y-80710933D01*
X165257485Y-80584173D01*
X165257485Y-80584172D01*
X165261509Y-80579511D01*
X165358425Y-80408909D01*
X165420358Y-80222732D01*
X165444949Y-80028071D01*
X165445341Y-80000000D01*
X165443965Y-79985963D01*
X165974757Y-79985963D01*
X165991175Y-80181483D01*
X166045258Y-80370091D01*
X166048076Y-80375574D01*
X166132123Y-80539113D01*
X166132126Y-80539117D01*
X166134944Y-80544601D01*
X166256818Y-80698369D01*
X166261511Y-80702363D01*
X166261512Y-80702364D01*
X166364432Y-80789955D01*
X166406238Y-80825535D01*
X166411616Y-80828541D01*
X166411618Y-80828542D01*
X166447932Y-80848837D01*
X166577513Y-80921257D01*
X166764118Y-80981889D01*
X166958946Y-81005121D01*
X166965081Y-81004649D01*
X166965083Y-81004649D01*
X167148434Y-80990541D01*
X167148438Y-80990540D01*
X167154576Y-80990068D01*
X167343556Y-80937303D01*
X167518689Y-80848837D01*
X167548515Y-80825535D01*
X167668453Y-80731829D01*
X167673303Y-80728040D01*
X167688070Y-80710933D01*
X167797485Y-80584173D01*
X167797485Y-80584172D01*
X167801509Y-80579511D01*
X167898425Y-80408909D01*
X167960358Y-80222732D01*
X167984949Y-80028071D01*
X167985341Y-80000000D01*
X167983965Y-79985963D01*
X168514757Y-79985963D01*
X168531175Y-80181483D01*
X168585258Y-80370091D01*
X168588076Y-80375574D01*
X168672123Y-80539113D01*
X168672126Y-80539117D01*
X168674944Y-80544601D01*
X168796818Y-80698369D01*
X168801511Y-80702363D01*
X168801512Y-80702364D01*
X168904432Y-80789955D01*
X168946238Y-80825535D01*
X168951616Y-80828541D01*
X168951618Y-80828542D01*
X168987932Y-80848837D01*
X169117513Y-80921257D01*
X169304118Y-80981889D01*
X169498946Y-81005121D01*
X169505081Y-81004649D01*
X169505083Y-81004649D01*
X169688434Y-80990541D01*
X169688438Y-80990540D01*
X169694576Y-80990068D01*
X169883556Y-80937303D01*
X170058689Y-80848837D01*
X170088515Y-80825535D01*
X170208453Y-80731829D01*
X170213303Y-80728040D01*
X170228070Y-80710933D01*
X170337485Y-80584173D01*
X170337485Y-80584172D01*
X170341509Y-80579511D01*
X170438425Y-80408909D01*
X170500358Y-80222732D01*
X170524949Y-80028071D01*
X170525341Y-80000000D01*
X170523965Y-79985963D01*
X171054757Y-79985963D01*
X171071175Y-80181483D01*
X171125258Y-80370091D01*
X171128076Y-80375574D01*
X171212123Y-80539113D01*
X171212126Y-80539117D01*
X171214944Y-80544601D01*
X171336818Y-80698369D01*
X171341511Y-80702363D01*
X171341512Y-80702364D01*
X171444432Y-80789955D01*
X171486238Y-80825535D01*
X171491616Y-80828541D01*
X171491618Y-80828542D01*
X171527932Y-80848837D01*
X171657513Y-80921257D01*
X171844118Y-80981889D01*
X172038946Y-81005121D01*
X172045081Y-81004649D01*
X172045083Y-81004649D01*
X172228434Y-80990541D01*
X172228438Y-80990540D01*
X172234576Y-80990068D01*
X172423556Y-80937303D01*
X172598689Y-80848837D01*
X172628515Y-80825535D01*
X172748453Y-80731829D01*
X172753303Y-80728040D01*
X172768070Y-80710933D01*
X172877485Y-80584173D01*
X172877485Y-80584172D01*
X172881509Y-80579511D01*
X172978425Y-80408909D01*
X173040358Y-80222732D01*
X173064949Y-80028071D01*
X173065341Y-80000000D01*
X173063965Y-79985963D01*
X173594757Y-79985963D01*
X173611175Y-80181483D01*
X173665258Y-80370091D01*
X173668076Y-80375574D01*
X173752123Y-80539113D01*
X173752126Y-80539117D01*
X173754944Y-80544601D01*
X173876818Y-80698369D01*
X173881511Y-80702363D01*
X173881512Y-80702364D01*
X173984432Y-80789955D01*
X174026238Y-80825535D01*
X174031616Y-80828541D01*
X174031618Y-80828542D01*
X174067932Y-80848837D01*
X174197513Y-80921257D01*
X174384118Y-80981889D01*
X174578946Y-81005121D01*
X174585081Y-81004649D01*
X174585083Y-81004649D01*
X174768434Y-80990541D01*
X174768438Y-80990540D01*
X174774576Y-80990068D01*
X174963556Y-80937303D01*
X175138689Y-80848837D01*
X175168515Y-80825535D01*
X175288453Y-80731829D01*
X175293303Y-80728040D01*
X175308070Y-80710933D01*
X175417485Y-80584173D01*
X175417485Y-80584172D01*
X175421509Y-80579511D01*
X175518425Y-80408909D01*
X175580358Y-80222732D01*
X175604949Y-80028071D01*
X175605341Y-80000000D01*
X175586194Y-79804728D01*
X175584413Y-79798829D01*
X175584412Y-79798824D01*
X175531265Y-79622793D01*
X175529484Y-79616894D01*
X175437370Y-79443653D01*
X175313361Y-79291602D01*
X175162180Y-79166535D01*
X174989585Y-79073213D01*
X174887124Y-79041496D01*
X174808039Y-79017015D01*
X174808036Y-79017014D01*
X174802152Y-79015193D01*
X174796027Y-79014549D01*
X174796026Y-79014549D01*
X174613147Y-78995327D01*
X174613146Y-78995327D01*
X174607019Y-78994683D01*
X174484733Y-79005812D01*
X174417759Y-79011907D01*
X174417758Y-79011907D01*
X174411618Y-79012466D01*
X174405704Y-79014207D01*
X174405702Y-79014207D01*
X174336410Y-79034601D01*
X174223393Y-79067864D01*
X174217928Y-79070721D01*
X174054972Y-79155912D01*
X174054968Y-79155915D01*
X174049512Y-79158767D01*
X174044712Y-79162627D01*
X174044711Y-79162627D01*
X174034515Y-79170825D01*
X173896600Y-79281711D01*
X173770480Y-79432016D01*
X173767516Y-79437408D01*
X173767513Y-79437412D01*
X173717061Y-79529185D01*
X173675956Y-79603954D01*
X173674095Y-79609821D01*
X173674094Y-79609823D01*
X173667421Y-79630860D01*
X173616628Y-79790978D01*
X173594757Y-79985963D01*
X173063965Y-79985963D01*
X173046194Y-79804728D01*
X173044413Y-79798829D01*
X173044412Y-79798824D01*
X172991265Y-79622793D01*
X172989484Y-79616894D01*
X172897370Y-79443653D01*
X172773361Y-79291602D01*
X172622180Y-79166535D01*
X172449585Y-79073213D01*
X172347124Y-79041496D01*
X172268039Y-79017015D01*
X172268036Y-79017014D01*
X172262152Y-79015193D01*
X172256027Y-79014549D01*
X172256026Y-79014549D01*
X172073147Y-78995327D01*
X172073146Y-78995327D01*
X172067019Y-78994683D01*
X171944733Y-79005812D01*
X171877759Y-79011907D01*
X171877758Y-79011907D01*
X171871618Y-79012466D01*
X171865704Y-79014207D01*
X171865702Y-79014207D01*
X171796410Y-79034601D01*
X171683393Y-79067864D01*
X171677928Y-79070721D01*
X171514972Y-79155912D01*
X171514968Y-79155915D01*
X171509512Y-79158767D01*
X171504712Y-79162627D01*
X171504711Y-79162627D01*
X171494515Y-79170825D01*
X171356600Y-79281711D01*
X171230480Y-79432016D01*
X171227516Y-79437408D01*
X171227513Y-79437412D01*
X171177061Y-79529185D01*
X171135956Y-79603954D01*
X171134095Y-79609821D01*
X171134094Y-79609823D01*
X171127421Y-79630860D01*
X171076628Y-79790978D01*
X171054757Y-79985963D01*
X170523965Y-79985963D01*
X170506194Y-79804728D01*
X170504413Y-79798829D01*
X170504412Y-79798824D01*
X170451265Y-79622793D01*
X170449484Y-79616894D01*
X170357370Y-79443653D01*
X170233361Y-79291602D01*
X170082180Y-79166535D01*
X169909585Y-79073213D01*
X169807124Y-79041496D01*
X169728039Y-79017015D01*
X169728036Y-79017014D01*
X169722152Y-79015193D01*
X169716027Y-79014549D01*
X169716026Y-79014549D01*
X169533147Y-78995327D01*
X169533146Y-78995327D01*
X169527019Y-78994683D01*
X169404733Y-79005812D01*
X169337759Y-79011907D01*
X169337758Y-79011907D01*
X169331618Y-79012466D01*
X169325704Y-79014207D01*
X169325702Y-79014207D01*
X169256410Y-79034601D01*
X169143393Y-79067864D01*
X169137928Y-79070721D01*
X168974972Y-79155912D01*
X168974968Y-79155915D01*
X168969512Y-79158767D01*
X168964712Y-79162627D01*
X168964711Y-79162627D01*
X168954515Y-79170825D01*
X168816600Y-79281711D01*
X168690480Y-79432016D01*
X168687516Y-79437408D01*
X168687513Y-79437412D01*
X168637061Y-79529185D01*
X168595956Y-79603954D01*
X168594095Y-79609821D01*
X168594094Y-79609823D01*
X168587421Y-79630860D01*
X168536628Y-79790978D01*
X168514757Y-79985963D01*
X167983965Y-79985963D01*
X167966194Y-79804728D01*
X167964413Y-79798829D01*
X167964412Y-79798824D01*
X167911265Y-79622793D01*
X167909484Y-79616894D01*
X167817370Y-79443653D01*
X167693361Y-79291602D01*
X167542180Y-79166535D01*
X167369585Y-79073213D01*
X167267124Y-79041496D01*
X167188039Y-79017015D01*
X167188036Y-79017014D01*
X167182152Y-79015193D01*
X167176027Y-79014549D01*
X167176026Y-79014549D01*
X166993147Y-78995327D01*
X166993146Y-78995327D01*
X166987019Y-78994683D01*
X166864733Y-79005812D01*
X166797759Y-79011907D01*
X166797758Y-79011907D01*
X166791618Y-79012466D01*
X166785704Y-79014207D01*
X166785702Y-79014207D01*
X166716410Y-79034601D01*
X166603393Y-79067864D01*
X166597928Y-79070721D01*
X166434972Y-79155912D01*
X166434968Y-79155915D01*
X166429512Y-79158767D01*
X166424712Y-79162627D01*
X166424711Y-79162627D01*
X166414515Y-79170825D01*
X166276600Y-79281711D01*
X166150480Y-79432016D01*
X166147516Y-79437408D01*
X166147513Y-79437412D01*
X166097061Y-79529185D01*
X166055956Y-79603954D01*
X166054095Y-79609821D01*
X166054094Y-79609823D01*
X166047421Y-79630860D01*
X165996628Y-79790978D01*
X165974757Y-79985963D01*
X165443965Y-79985963D01*
X165426194Y-79804728D01*
X165424413Y-79798829D01*
X165424412Y-79798824D01*
X165371265Y-79622793D01*
X165369484Y-79616894D01*
X165277370Y-79443653D01*
X165153361Y-79291602D01*
X165002180Y-79166535D01*
X164829585Y-79073213D01*
X164727124Y-79041496D01*
X164648039Y-79017015D01*
X164648036Y-79017014D01*
X164642152Y-79015193D01*
X164636027Y-79014549D01*
X164636026Y-79014549D01*
X164453147Y-78995327D01*
X164453146Y-78995327D01*
X164447019Y-78994683D01*
X164324733Y-79005812D01*
X164257759Y-79011907D01*
X164257758Y-79011907D01*
X164251618Y-79012466D01*
X164245704Y-79014207D01*
X164245702Y-79014207D01*
X164176410Y-79034601D01*
X164063393Y-79067864D01*
X164057928Y-79070721D01*
X163894972Y-79155912D01*
X163894968Y-79155915D01*
X163889512Y-79158767D01*
X163884712Y-79162627D01*
X163884711Y-79162627D01*
X163874515Y-79170825D01*
X163736600Y-79281711D01*
X163610480Y-79432016D01*
X163607516Y-79437408D01*
X163607513Y-79437412D01*
X163557061Y-79529185D01*
X163515956Y-79603954D01*
X163514095Y-79609821D01*
X163514094Y-79609823D01*
X163507421Y-79630860D01*
X163456628Y-79790978D01*
X163434757Y-79985963D01*
X162900500Y-79985963D01*
X162900500Y-79135180D01*
X162891767Y-79091278D01*
X162884873Y-79080960D01*
X162884872Y-79080958D01*
X162865399Y-79051815D01*
X162858504Y-79041496D01*
X162848185Y-79034601D01*
X162819042Y-79015128D01*
X162819040Y-79015127D01*
X162808722Y-79008233D01*
X162764820Y-78999500D01*
X161035180Y-78999500D01*
X160991278Y-79008233D01*
X160980960Y-79015127D01*
X160980958Y-79015128D01*
X160951815Y-79034601D01*
X160941496Y-79041496D01*
X160934601Y-79051815D01*
X160915128Y-79080958D01*
X160915127Y-79080960D01*
X160908233Y-79091278D01*
X160899500Y-79135180D01*
X160899500Y-80864820D01*
X149943611Y-80864820D01*
X149982713Y-80794998D01*
X149982714Y-80794996D01*
X149985537Y-80789955D01*
X149987393Y-80784488D01*
X149987395Y-80784483D01*
X150051647Y-80595200D01*
X150053504Y-80589730D01*
X150060844Y-80539113D01*
X150083314Y-80384140D01*
X150083314Y-80384138D01*
X150083846Y-80380470D01*
X150085429Y-80320000D01*
X150066081Y-80109440D01*
X150008686Y-79905931D01*
X149997553Y-79883354D01*
X149917719Y-79721469D01*
X149915165Y-79716290D01*
X149788651Y-79546867D01*
X149659302Y-79427298D01*
X149637622Y-79407257D01*
X149637620Y-79407255D01*
X149633381Y-79403337D01*
X149454554Y-79290505D01*
X149258160Y-79212152D01*
X149252503Y-79211027D01*
X149252497Y-79211025D01*
X149056442Y-79172028D01*
X149056440Y-79172028D01*
X149050775Y-79170901D01*
X149045000Y-79170825D01*
X149044996Y-79170825D01*
X148938976Y-79169437D01*
X148839346Y-79168133D01*
X148833649Y-79169112D01*
X148833648Y-79169112D01*
X148636650Y-79202962D01*
X148636649Y-79202962D01*
X148630953Y-79203941D01*
X148432575Y-79277127D01*
X148427614Y-79280079D01*
X148427613Y-79280079D01*
X148408245Y-79291602D01*
X148250856Y-79385238D01*
X148091881Y-79524655D01*
X147960976Y-79690708D01*
X147958287Y-79695819D01*
X147958285Y-79695822D01*
X147934154Y-79741688D01*
X147862523Y-79877836D01*
X147799820Y-80079773D01*
X147774967Y-80289754D01*
X143582650Y-80289754D01*
X143566081Y-80109440D01*
X143508686Y-79905931D01*
X143497553Y-79883354D01*
X143417719Y-79721469D01*
X143415165Y-79716290D01*
X143288651Y-79546867D01*
X143159302Y-79427298D01*
X143137622Y-79407257D01*
X143137620Y-79407255D01*
X143133381Y-79403337D01*
X142954554Y-79290505D01*
X142758160Y-79212152D01*
X142752503Y-79211027D01*
X142752497Y-79211025D01*
X142556442Y-79172028D01*
X142556440Y-79172028D01*
X142550775Y-79170901D01*
X142545000Y-79170825D01*
X142544996Y-79170825D01*
X142438976Y-79169437D01*
X142339346Y-79168133D01*
X142333649Y-79169112D01*
X142333648Y-79169112D01*
X142136650Y-79202962D01*
X142136649Y-79202962D01*
X142130953Y-79203941D01*
X141932575Y-79277127D01*
X141927614Y-79280079D01*
X141927613Y-79280079D01*
X141908245Y-79291602D01*
X141750856Y-79385238D01*
X141591881Y-79524655D01*
X141460976Y-79690708D01*
X141458287Y-79695819D01*
X141458285Y-79695822D01*
X141434154Y-79741688D01*
X141362523Y-79877836D01*
X141299820Y-80079773D01*
X141274967Y-80289754D01*
X132902540Y-80289754D01*
X132863709Y-80273670D01*
X132720000Y-80254750D01*
X132576291Y-80273670D01*
X132442375Y-80329139D01*
X132327379Y-80417379D01*
X132239139Y-80532375D01*
X132183670Y-80666291D01*
X132164750Y-80810000D01*
X119634730Y-80810000D01*
X119596831Y-75276862D01*
X119616366Y-75208607D01*
X119669702Y-75161748D01*
X119722828Y-75150000D01*
X176760031Y-75150000D01*
X176828152Y-75170002D01*
X176874645Y-75223658D01*
X176886031Y-75276000D01*
X176886031Y-89474000D01*
X176866029Y-89542121D01*
X176812373Y-89588614D01*
X176760031Y-89600000D01*
X173708900Y-89600000D01*
X173640779Y-89579998D01*
X173594286Y-89526342D01*
X173584182Y-89456068D01*
X173599781Y-89410999D01*
X173600831Y-89409180D01*
X173605861Y-89402625D01*
X173661330Y-89268709D01*
X173680250Y-89125000D01*
X173661330Y-88981291D01*
X173605861Y-88847375D01*
X173517621Y-88732379D01*
X173402625Y-88644139D01*
X173268709Y-88588670D01*
X173125000Y-88569750D01*
X172981291Y-88588670D01*
X172847375Y-88644139D01*
X172732379Y-88732379D01*
X172644139Y-88847375D01*
X172588670Y-88981291D01*
X172569750Y-89125000D01*
X172588670Y-89268709D01*
X172644139Y-89402625D01*
X172649169Y-89409180D01*
X172650219Y-89410999D01*
X172666957Y-89479994D01*
X172643737Y-89547086D01*
X172587931Y-89590974D01*
X172541100Y-89600000D01*
X171200000Y-89600000D01*
X171200000Y-93400000D01*
X171792855Y-93745832D01*
X173537488Y-94763535D01*
X173586251Y-94815136D01*
X173600000Y-94872371D01*
X173600000Y-96600000D01*
X174700000Y-96600000D01*
X174700000Y-94769836D01*
X174720002Y-94701715D01*
X174759220Y-94662988D01*
X176543800Y-93547625D01*
X176693251Y-93454218D01*
X176761618Y-93435076D01*
X176829482Y-93455935D01*
X176875295Y-93510172D01*
X176886031Y-93561066D01*
X176886031Y-96774000D01*
X176866029Y-96842121D01*
X176812373Y-96888614D01*
X176760031Y-96900000D01*
X175586031Y-96900000D01*
X175586031Y-98400000D01*
X176508962Y-98382420D01*
X176577451Y-98401121D01*
X176624957Y-98453881D01*
X176637354Y-98507085D01*
X176641071Y-98864270D01*
X176659195Y-100605668D01*
X176639903Y-100673993D01*
X176586734Y-100721042D01*
X176516569Y-100731876D01*
X176477812Y-100718687D01*
X176477625Y-100719139D01*
X176343709Y-100663670D01*
X176200000Y-100644750D01*
X176056291Y-100663670D01*
X175994346Y-100689328D01*
X175932595Y-100714906D01*
X175922375Y-100719139D01*
X175807379Y-100807379D01*
X175719139Y-100922375D01*
X175663670Y-101056291D01*
X175644750Y-101200000D01*
X175663670Y-101343709D01*
X175719139Y-101477625D01*
X175807379Y-101592621D01*
X175922375Y-101680861D01*
X176056291Y-101736330D01*
X176200000Y-101755250D01*
X176343709Y-101736330D01*
X176477625Y-101680861D01*
X176483090Y-101676668D01*
X176551469Y-101660079D01*
X176618561Y-101683299D01*
X176662448Y-101739106D01*
X176671466Y-101784622D01*
X176835195Y-117515658D01*
X176858166Y-119722689D01*
X176838874Y-119791014D01*
X176785705Y-119838063D01*
X176732173Y-119850000D01*
X115114322Y-119850000D01*
X115046201Y-119829998D01*
X115025227Y-119813095D01*
X111815270Y-116603138D01*
X131014758Y-116603138D01*
X131032035Y-116759633D01*
X131086143Y-116907490D01*
X131173958Y-117038172D01*
X131290410Y-117144135D01*
X131297085Y-117147759D01*
X131422099Y-117215637D01*
X131422101Y-117215638D01*
X131428776Y-117219262D01*
X131436125Y-117221190D01*
X131573719Y-117257287D01*
X131573721Y-117257287D01*
X131581069Y-117259215D01*
X131643787Y-117260200D01*
X131704537Y-117261155D01*
X131772335Y-117282224D01*
X131791652Y-117298044D01*
X131961658Y-117468050D01*
X131970492Y-117472551D01*
X131970493Y-117472552D01*
X131981259Y-117478038D01*
X131998116Y-117488368D01*
X132015910Y-117501296D01*
X132036830Y-117508093D01*
X132055093Y-117515658D01*
X132065861Y-117521145D01*
X132065865Y-117521146D01*
X132074696Y-117525646D01*
X132084485Y-117527197D01*
X132084493Y-117527199D01*
X132096427Y-117529089D01*
X132115647Y-117533703D01*
X132127133Y-117537435D01*
X132127140Y-117537436D01*
X132136567Y-117540499D01*
X132168477Y-117540499D01*
X132168481Y-117540500D01*
X144563433Y-117540500D01*
X144572864Y-117537436D01*
X144572868Y-117537435D01*
X144584353Y-117533703D01*
X144603578Y-117529087D01*
X144615512Y-117527197D01*
X144615513Y-117527197D01*
X144625304Y-117525646D01*
X144634137Y-117521145D01*
X144634141Y-117521144D01*
X144644906Y-117515659D01*
X144663166Y-117508095D01*
X144684090Y-117501296D01*
X144701893Y-117488361D01*
X144718745Y-117478035D01*
X144729502Y-117472554D01*
X144738342Y-117468050D01*
X144760905Y-117445487D01*
X144760909Y-117445484D01*
X147800430Y-114405963D01*
X154814757Y-114405963D01*
X154831175Y-114601483D01*
X154885258Y-114790091D01*
X154888076Y-114795574D01*
X154972123Y-114959113D01*
X154972126Y-114959117D01*
X154974944Y-114964601D01*
X155096818Y-115118369D01*
X155246238Y-115245535D01*
X155251616Y-115248541D01*
X155251618Y-115248542D01*
X155284309Y-115266812D01*
X155417513Y-115341257D01*
X155604118Y-115401889D01*
X155798946Y-115425121D01*
X155805081Y-115424649D01*
X155805083Y-115424649D01*
X155988434Y-115410541D01*
X155988438Y-115410540D01*
X155994576Y-115410068D01*
X156183556Y-115357303D01*
X156358689Y-115268837D01*
X156382942Y-115249889D01*
X156435996Y-115208438D01*
X156513303Y-115148040D01*
X156543084Y-115113539D01*
X156637485Y-115004173D01*
X156637485Y-115004172D01*
X156641509Y-114999511D01*
X156658552Y-114969511D01*
X156705841Y-114886267D01*
X156738425Y-114828909D01*
X156800358Y-114642732D01*
X156824949Y-114448071D01*
X156825341Y-114420000D01*
X156823965Y-114405963D01*
X157354757Y-114405963D01*
X157371175Y-114601483D01*
X157425258Y-114790091D01*
X157428076Y-114795574D01*
X157512123Y-114959113D01*
X157512126Y-114959117D01*
X157514944Y-114964601D01*
X157636818Y-115118369D01*
X157786238Y-115245535D01*
X157791616Y-115248541D01*
X157791618Y-115248542D01*
X157824309Y-115266812D01*
X157957513Y-115341257D01*
X158144118Y-115401889D01*
X158338946Y-115425121D01*
X158345081Y-115424649D01*
X158345083Y-115424649D01*
X158528434Y-115410541D01*
X158528438Y-115410540D01*
X158534576Y-115410068D01*
X158723556Y-115357303D01*
X158898689Y-115268837D01*
X158922942Y-115249889D01*
X158975996Y-115208438D01*
X159053303Y-115148040D01*
X159083084Y-115113539D01*
X159177485Y-115004173D01*
X159177485Y-115004172D01*
X159181509Y-114999511D01*
X159198552Y-114969511D01*
X159245841Y-114886267D01*
X159278425Y-114828909D01*
X159338617Y-114647966D01*
X166878257Y-114647966D01*
X166908565Y-114782446D01*
X166911645Y-114792275D01*
X166991770Y-114989603D01*
X166996413Y-114998794D01*
X167107694Y-115180388D01*
X167113777Y-115188699D01*
X167253213Y-115349667D01*
X167260580Y-115356883D01*
X167424434Y-115492916D01*
X167432881Y-115498831D01*
X167616756Y-115606279D01*
X167626042Y-115610729D01*
X167825001Y-115686703D01*
X167834899Y-115689579D01*
X167938250Y-115710606D01*
X167952299Y-115709410D01*
X167956000Y-115699065D01*
X167956000Y-115698517D01*
X168464000Y-115698517D01*
X168468064Y-115712359D01*
X168481478Y-115714393D01*
X168488184Y-115713534D01*
X168498262Y-115711392D01*
X168702255Y-115650191D01*
X168711842Y-115646433D01*
X168903095Y-115552739D01*
X168911945Y-115547464D01*
X169085328Y-115423792D01*
X169093200Y-115417139D01*
X169244052Y-115266812D01*
X169250730Y-115258965D01*
X169375003Y-115086020D01*
X169380313Y-115077183D01*
X169474670Y-114886267D01*
X169478469Y-114876672D01*
X169540377Y-114672910D01*
X169542555Y-114662837D01*
X169543986Y-114651962D01*
X169541775Y-114637778D01*
X169528617Y-114634000D01*
X168482115Y-114634000D01*
X168466876Y-114638475D01*
X168465671Y-114639865D01*
X168464000Y-114647548D01*
X168464000Y-115698517D01*
X167956000Y-115698517D01*
X167956000Y-114652115D01*
X167951525Y-114636876D01*
X167950135Y-114635671D01*
X167942452Y-114634000D01*
X166893225Y-114634000D01*
X166879694Y-114637973D01*
X166878257Y-114647966D01*
X159338617Y-114647966D01*
X159340358Y-114642732D01*
X159364949Y-114448071D01*
X159365341Y-114420000D01*
X159346194Y-114224728D01*
X159344413Y-114218829D01*
X159344412Y-114218824D01*
X159291265Y-114042793D01*
X159289484Y-114036894D01*
X159197370Y-113863653D01*
X159073361Y-113711602D01*
X158922180Y-113586535D01*
X158749585Y-113493213D01*
X158644620Y-113460721D01*
X158568039Y-113437015D01*
X158568036Y-113437014D01*
X158562152Y-113435193D01*
X158556027Y-113434549D01*
X158556026Y-113434549D01*
X158373147Y-113415327D01*
X158373146Y-113415327D01*
X158367019Y-113414683D01*
X158244383Y-113425844D01*
X158177759Y-113431907D01*
X158177758Y-113431907D01*
X158171618Y-113432466D01*
X158165704Y-113434207D01*
X158165702Y-113434207D01*
X158067149Y-113463213D01*
X157983393Y-113487864D01*
X157977928Y-113490721D01*
X157814972Y-113575912D01*
X157814968Y-113575915D01*
X157809512Y-113578767D01*
X157804712Y-113582627D01*
X157804711Y-113582627D01*
X157770326Y-113610273D01*
X157656600Y-113701711D01*
X157530480Y-113852016D01*
X157527516Y-113857408D01*
X157527513Y-113857412D01*
X157484241Y-113936124D01*
X157435956Y-114023954D01*
X157376628Y-114210978D01*
X157354757Y-114405963D01*
X156823965Y-114405963D01*
X156806194Y-114224728D01*
X156804413Y-114218829D01*
X156804412Y-114218824D01*
X156751265Y-114042793D01*
X156749484Y-114036894D01*
X156657370Y-113863653D01*
X156533361Y-113711602D01*
X156382180Y-113586535D01*
X156209585Y-113493213D01*
X156104620Y-113460721D01*
X156028039Y-113437015D01*
X156028036Y-113437014D01*
X156022152Y-113435193D01*
X156016027Y-113434549D01*
X156016026Y-113434549D01*
X155833147Y-113415327D01*
X155833146Y-113415327D01*
X155827019Y-113414683D01*
X155704383Y-113425844D01*
X155637759Y-113431907D01*
X155637758Y-113431907D01*
X155631618Y-113432466D01*
X155625704Y-113434207D01*
X155625702Y-113434207D01*
X155527149Y-113463213D01*
X155443393Y-113487864D01*
X155437928Y-113490721D01*
X155274972Y-113575912D01*
X155274968Y-113575915D01*
X155269512Y-113578767D01*
X155264712Y-113582627D01*
X155264711Y-113582627D01*
X155230326Y-113610273D01*
X155116600Y-113701711D01*
X154990480Y-113852016D01*
X154987516Y-113857408D01*
X154987513Y-113857412D01*
X154944241Y-113936124D01*
X154895956Y-114023954D01*
X154836628Y-114210978D01*
X154814757Y-114405963D01*
X147800430Y-114405963D01*
X149965484Y-112240909D01*
X151188498Y-111017894D01*
X151250810Y-110983868D01*
X151277593Y-110980989D01*
X154693500Y-110980989D01*
X154761621Y-111000991D01*
X154808114Y-111054647D01*
X154819500Y-111106989D01*
X154819500Y-112744820D01*
X154828233Y-112788722D01*
X154835127Y-112799040D01*
X154835128Y-112799042D01*
X154848437Y-112818960D01*
X154861496Y-112838504D01*
X154871815Y-112845399D01*
X154900958Y-112864872D01*
X154900960Y-112864873D01*
X154911278Y-112871767D01*
X154955180Y-112880500D01*
X156684820Y-112880500D01*
X156728722Y-112871767D01*
X156739040Y-112864873D01*
X156739042Y-112864872D01*
X156768185Y-112845399D01*
X156778504Y-112838504D01*
X156791563Y-112818960D01*
X156804872Y-112799042D01*
X156804873Y-112799040D01*
X156811767Y-112788722D01*
X156820500Y-112744820D01*
X156820500Y-111106989D01*
X156840502Y-111038868D01*
X156894158Y-110992375D01*
X156946500Y-110980989D01*
X157538036Y-110980989D01*
X157606157Y-111000991D01*
X157652650Y-111054647D01*
X157662754Y-111124921D01*
X157634558Y-111187980D01*
X157530480Y-111312016D01*
X157527516Y-111317408D01*
X157527513Y-111317412D01*
X157502176Y-111363500D01*
X157435956Y-111483954D01*
X157434095Y-111489821D01*
X157434094Y-111489823D01*
X157409713Y-111566683D01*
X157376628Y-111670978D01*
X157354757Y-111865963D01*
X157371175Y-112061483D01*
X157425258Y-112250091D01*
X157428076Y-112255574D01*
X157512123Y-112419113D01*
X157512126Y-112419117D01*
X157514944Y-112424601D01*
X157636818Y-112578369D01*
X157786238Y-112705535D01*
X157791616Y-112708541D01*
X157791618Y-112708542D01*
X157827932Y-112728837D01*
X157957513Y-112801257D01*
X158144118Y-112861889D01*
X158338946Y-112885121D01*
X158345081Y-112884649D01*
X158345083Y-112884649D01*
X158528434Y-112870541D01*
X158528438Y-112870540D01*
X158534576Y-112870068D01*
X158723556Y-112817303D01*
X158898689Y-112728837D01*
X158928515Y-112705535D01*
X159048453Y-112611829D01*
X159053303Y-112608040D01*
X159083084Y-112573539D01*
X159177485Y-112464173D01*
X159177485Y-112464172D01*
X159181509Y-112459511D01*
X159198552Y-112429511D01*
X159275378Y-112294272D01*
X159278425Y-112288909D01*
X159340358Y-112102732D01*
X159364949Y-111908071D01*
X159365341Y-111880000D01*
X159346194Y-111684728D01*
X159344413Y-111678829D01*
X159344412Y-111678824D01*
X159291265Y-111502793D01*
X159289484Y-111496894D01*
X159197370Y-111323653D01*
X159150222Y-111265843D01*
X159085613Y-111186624D01*
X159058059Y-111121192D01*
X159070255Y-111051251D01*
X159118327Y-110999006D01*
X159183256Y-110980989D01*
X160122944Y-110980989D01*
X160132375Y-110977925D01*
X160132379Y-110977924D01*
X160143864Y-110974192D01*
X160163089Y-110969576D01*
X160175023Y-110967686D01*
X160175024Y-110967686D01*
X160184815Y-110966135D01*
X160193648Y-110961634D01*
X160193652Y-110961633D01*
X160204417Y-110956148D01*
X160222677Y-110948584D01*
X160243601Y-110941785D01*
X160261404Y-110928850D01*
X160278256Y-110918524D01*
X160289013Y-110913043D01*
X160297853Y-110908539D01*
X160320416Y-110885976D01*
X160320420Y-110885973D01*
X164795484Y-106410909D01*
X164795487Y-106410905D01*
X164818050Y-106388342D01*
X164822555Y-106379501D01*
X164828037Y-106368742D01*
X164838365Y-106351887D01*
X164845467Y-106342112D01*
X164851296Y-106334089D01*
X164858094Y-106313168D01*
X164865658Y-106294908D01*
X164871144Y-106284141D01*
X164871145Y-106284137D01*
X164875646Y-106275304D01*
X164877595Y-106263002D01*
X164879087Y-106253578D01*
X164883703Y-106234353D01*
X164887435Y-106222868D01*
X164887436Y-106222864D01*
X164890500Y-106213433D01*
X164890500Y-102466567D01*
X164887436Y-102457136D01*
X164887435Y-102457132D01*
X164883703Y-102445647D01*
X164879087Y-102426422D01*
X164877197Y-102414488D01*
X164877197Y-102414487D01*
X164875646Y-102404696D01*
X164871145Y-102395863D01*
X164871144Y-102395859D01*
X164865658Y-102385092D01*
X164858092Y-102366828D01*
X164854360Y-102355342D01*
X164851296Y-102345911D01*
X164838365Y-102328113D01*
X164828037Y-102311258D01*
X164822555Y-102300499D01*
X164822554Y-102300497D01*
X164818050Y-102291658D01*
X164795487Y-102269095D01*
X164795484Y-102269091D01*
X162513409Y-99987016D01*
X162513405Y-99987013D01*
X162490842Y-99964450D01*
X162471246Y-99954465D01*
X162454393Y-99944139D01*
X162436590Y-99931204D01*
X162415666Y-99924405D01*
X162397406Y-99916841D01*
X162386641Y-99911356D01*
X162386637Y-99911355D01*
X162377804Y-99906854D01*
X162368013Y-99905303D01*
X162368012Y-99905303D01*
X162356078Y-99903413D01*
X162336853Y-99898797D01*
X162325368Y-99895065D01*
X162325364Y-99895064D01*
X162315933Y-99892000D01*
X161025124Y-99892000D01*
X160957003Y-99871998D01*
X160948420Y-99865962D01*
X160919368Y-99843670D01*
X160877625Y-99811639D01*
X160743709Y-99756170D01*
X160600000Y-99737250D01*
X160456291Y-99756170D01*
X160322375Y-99811639D01*
X160207379Y-99899879D01*
X160119139Y-100014875D01*
X160063670Y-100148791D01*
X160044750Y-100292500D01*
X160063670Y-100436209D01*
X160119139Y-100570125D01*
X160207379Y-100685121D01*
X160322375Y-100773361D01*
X160456291Y-100828830D01*
X160600000Y-100847750D01*
X160743709Y-100828830D01*
X160877625Y-100773361D01*
X160948420Y-100719038D01*
X161014640Y-100693437D01*
X161025124Y-100693000D01*
X162034417Y-100693000D01*
X162102538Y-100713002D01*
X162123512Y-100729905D01*
X164052595Y-102658988D01*
X164086621Y-102721300D01*
X164089500Y-102748083D01*
X164089500Y-103253095D01*
X164069498Y-103321216D01*
X164015842Y-103367709D01*
X163945568Y-103377813D01*
X163880988Y-103348319D01*
X163863538Y-103329799D01*
X163797647Y-103243929D01*
X163792621Y-103237379D01*
X163677625Y-103149139D01*
X163543709Y-103093670D01*
X163400000Y-103074750D01*
X163256291Y-103093670D01*
X163122375Y-103149139D01*
X163007379Y-103237379D01*
X162919139Y-103352375D01*
X162863670Y-103486291D01*
X162844750Y-103630000D01*
X162863670Y-103773709D01*
X162919139Y-103907625D01*
X163007379Y-104022621D01*
X163122375Y-104110861D01*
X163256291Y-104166330D01*
X163400000Y-104185250D01*
X163543709Y-104166330D01*
X163677625Y-104110861D01*
X163792621Y-104022621D01*
X163809537Y-104000576D01*
X163863538Y-103930201D01*
X163920876Y-103888334D01*
X163991747Y-103884112D01*
X164053650Y-103918876D01*
X164086931Y-103981589D01*
X164089500Y-104006905D01*
X164089500Y-105931917D01*
X164069498Y-106000038D01*
X164052595Y-106021012D01*
X159930523Y-110143084D01*
X159868211Y-110177110D01*
X159841428Y-110179989D01*
X151027992Y-110179989D01*
X151027988Y-110179990D01*
X150996078Y-110179990D01*
X150986651Y-110183053D01*
X150986644Y-110183054D01*
X150975158Y-110186786D01*
X150955938Y-110191400D01*
X150944004Y-110193290D01*
X150943996Y-110193292D01*
X150934207Y-110194843D01*
X150925376Y-110199343D01*
X150925372Y-110199344D01*
X150914604Y-110204831D01*
X150896343Y-110212395D01*
X150875421Y-110219193D01*
X150860429Y-110230086D01*
X150857627Y-110232121D01*
X150840770Y-110242451D01*
X150830004Y-110247937D01*
X150830003Y-110247938D01*
X150821169Y-110252439D01*
X150798602Y-110275006D01*
X150275595Y-110798012D01*
X150213283Y-110832038D01*
X150142468Y-110826973D01*
X150085632Y-110784426D01*
X150060821Y-110717906D01*
X150060500Y-110708917D01*
X150060500Y-103360000D01*
X152814750Y-103360000D01*
X152833670Y-103503709D01*
X152889139Y-103637625D01*
X152977379Y-103752621D01*
X153092375Y-103840861D01*
X153226291Y-103896330D01*
X153370000Y-103915250D01*
X153513709Y-103896330D01*
X153647625Y-103840861D01*
X153762621Y-103752621D01*
X153850861Y-103637625D01*
X153906330Y-103503709D01*
X153925250Y-103360000D01*
X153906330Y-103216291D01*
X153850861Y-103082375D01*
X153762621Y-102967379D01*
X153647625Y-102879139D01*
X153513709Y-102823670D01*
X153370000Y-102804750D01*
X153226291Y-102823670D01*
X153092375Y-102879139D01*
X152977379Y-102967379D01*
X152889139Y-103082375D01*
X152833670Y-103216291D01*
X152814750Y-103360000D01*
X150060500Y-103360000D01*
X150060500Y-102419083D01*
X150080502Y-102350962D01*
X150097405Y-102329988D01*
X150672257Y-101755136D01*
X150734569Y-101721110D01*
X150805384Y-101726175D01*
X150862220Y-101768722D01*
X150877761Y-101796014D01*
X150895977Y-101839993D01*
X150895979Y-101839996D01*
X150899139Y-101847625D01*
X150970091Y-101940091D01*
X150973242Y-101944197D01*
X150998842Y-102010418D01*
X150984577Y-102079966D01*
X150967720Y-102104309D01*
X150930918Y-102145979D01*
X150909596Y-102170122D01*
X150905782Y-102178245D01*
X150905781Y-102178247D01*
X150892835Y-102205821D01*
X150854754Y-102286932D01*
X150848342Y-102328113D01*
X150836282Y-102405567D01*
X150836282Y-102405571D01*
X150834901Y-102414440D01*
X150836065Y-102423342D01*
X150836065Y-102423345D01*
X150850468Y-102533489D01*
X150850469Y-102533493D01*
X150851633Y-102542394D01*
X150860911Y-102563479D01*
X150896355Y-102644032D01*
X150903605Y-102660510D01*
X150909382Y-102667383D01*
X150909383Y-102667384D01*
X150970254Y-102739799D01*
X150986639Y-102759291D01*
X151094060Y-102830796D01*
X151217233Y-102869278D01*
X151226203Y-102869442D01*
X151226207Y-102869443D01*
X151284942Y-102870519D01*
X151346255Y-102871643D01*
X151440623Y-102845915D01*
X151462092Y-102840062D01*
X151462093Y-102840062D01*
X151470755Y-102837700D01*
X151478405Y-102833003D01*
X151478407Y-102833002D01*
X151573072Y-102774878D01*
X151573075Y-102774875D01*
X151580724Y-102770179D01*
X151586931Y-102763322D01*
X151661300Y-102681161D01*
X151661303Y-102681157D01*
X151667322Y-102674507D01*
X151723588Y-102558375D01*
X151726049Y-102543750D01*
X151744190Y-102435917D01*
X151744997Y-102431120D01*
X151745133Y-102420000D01*
X151726839Y-102292259D01*
X151720724Y-102278809D01*
X151677146Y-102182964D01*
X151677144Y-102182961D01*
X151673428Y-102174788D01*
X151674232Y-102174422D01*
X151656510Y-102113580D01*
X151676659Y-102045502D01*
X151705806Y-102013890D01*
X151740342Y-101987390D01*
X151772621Y-101962621D01*
X151860861Y-101847625D01*
X151882891Y-101794440D01*
X154844901Y-101794440D01*
X154846065Y-101803342D01*
X154846065Y-101803345D01*
X154860468Y-101913489D01*
X154860469Y-101913493D01*
X154861633Y-101922394D01*
X154879574Y-101963169D01*
X154907246Y-102026057D01*
X154913605Y-102040510D01*
X154919382Y-102047383D01*
X154919383Y-102047384D01*
X154975749Y-102114439D01*
X154996639Y-102139291D01*
X155104060Y-102210796D01*
X155189147Y-102237379D01*
X155212740Y-102244750D01*
X155227233Y-102249278D01*
X155236203Y-102249442D01*
X155236207Y-102249443D01*
X155294942Y-102250519D01*
X155356255Y-102251643D01*
X155465838Y-102221767D01*
X155472092Y-102220062D01*
X155472093Y-102220062D01*
X155480755Y-102217700D01*
X155488405Y-102213003D01*
X155488407Y-102213002D01*
X155583072Y-102154878D01*
X155583075Y-102154875D01*
X155590724Y-102150179D01*
X155597891Y-102142261D01*
X155671300Y-102061161D01*
X155671303Y-102061157D01*
X155677322Y-102054507D01*
X155733588Y-101938375D01*
X155750140Y-101839993D01*
X155754190Y-101815917D01*
X155754997Y-101811120D01*
X155755133Y-101800000D01*
X155756537Y-101800017D01*
X155770699Y-101736888D01*
X155821225Y-101687012D01*
X155890695Y-101672370D01*
X155957054Y-101697611D01*
X155969983Y-101708888D01*
X158080896Y-103819801D01*
X158115887Y-103887016D01*
X158117720Y-103897408D01*
X158123266Y-103928863D01*
X158176252Y-104020638D01*
X158184697Y-104027724D01*
X158248989Y-104081672D01*
X158248991Y-104081673D01*
X158257432Y-104088756D01*
X158304349Y-104105832D01*
X158346658Y-104121231D01*
X158346659Y-104121231D01*
X158357014Y-104125000D01*
X158462986Y-104125000D01*
X158473341Y-104121231D01*
X158473342Y-104121231D01*
X158515651Y-104105832D01*
X158562568Y-104088756D01*
X158571009Y-104081673D01*
X158571011Y-104081672D01*
X158635303Y-104027724D01*
X158643748Y-104020638D01*
X158696734Y-103928863D01*
X158715136Y-103824500D01*
X158696734Y-103720137D01*
X158643748Y-103628362D01*
X158601697Y-103593077D01*
X158571011Y-103567328D01*
X158571009Y-103567327D01*
X158562568Y-103560244D01*
X158512777Y-103542122D01*
X158473342Y-103527769D01*
X158473341Y-103527769D01*
X158462986Y-103524000D01*
X158454507Y-103524000D01*
X158388592Y-103489687D01*
X157528905Y-102630000D01*
X161754750Y-102630000D01*
X161773670Y-102773709D01*
X161829139Y-102907625D01*
X161917379Y-103022621D01*
X162032375Y-103110861D01*
X162166291Y-103166330D01*
X162310000Y-103185250D01*
X162453709Y-103166330D01*
X162587625Y-103110861D01*
X162702621Y-103022621D01*
X162790861Y-102907625D01*
X162846330Y-102773709D01*
X162865250Y-102630000D01*
X162846330Y-102486291D01*
X162790861Y-102352375D01*
X162702621Y-102237379D01*
X162587625Y-102149139D01*
X162453709Y-102093670D01*
X162310000Y-102074750D01*
X162166291Y-102093670D01*
X162032375Y-102149139D01*
X161917379Y-102237379D01*
X161829139Y-102352375D01*
X161773670Y-102486291D01*
X161754750Y-102630000D01*
X157528905Y-102630000D01*
X155993345Y-101094440D01*
X157044901Y-101094440D01*
X157046065Y-101103342D01*
X157046065Y-101103345D01*
X157060468Y-101213489D01*
X157060469Y-101213493D01*
X157061633Y-101222394D01*
X157113605Y-101340510D01*
X157119382Y-101347383D01*
X157119383Y-101347384D01*
X157122881Y-101351545D01*
X157196639Y-101439291D01*
X157304060Y-101510796D01*
X157392938Y-101538564D01*
X157412740Y-101544750D01*
X157427233Y-101549278D01*
X157436203Y-101549442D01*
X157436207Y-101549443D01*
X157494942Y-101550519D01*
X157556255Y-101551643D01*
X157618505Y-101534672D01*
X157672092Y-101520062D01*
X157672093Y-101520062D01*
X157680755Y-101517700D01*
X157688405Y-101513003D01*
X157688407Y-101513002D01*
X157783072Y-101454878D01*
X157783075Y-101454875D01*
X157790724Y-101450179D01*
X157796750Y-101443522D01*
X157871300Y-101361161D01*
X157871303Y-101361157D01*
X157877322Y-101354507D01*
X157933588Y-101238375D01*
X157944847Y-101171455D01*
X157954190Y-101115917D01*
X157954997Y-101111120D01*
X157955133Y-101100000D01*
X157945446Y-101032356D01*
X157938112Y-100981145D01*
X157938111Y-100981142D01*
X157936839Y-100972259D01*
X157930724Y-100958809D01*
X157887145Y-100862962D01*
X157887143Y-100862959D01*
X157883428Y-100854788D01*
X157840561Y-100805038D01*
X157805051Y-100763826D01*
X157805049Y-100763824D01*
X157799193Y-100757028D01*
X157791664Y-100752148D01*
X157785381Y-100746667D01*
X157747197Y-100686814D01*
X157747434Y-100615817D01*
X157786017Y-100556220D01*
X157835068Y-100530156D01*
X157847523Y-100526760D01*
X157880755Y-100517700D01*
X157888405Y-100513003D01*
X157888407Y-100513002D01*
X157983072Y-100454878D01*
X157983075Y-100454875D01*
X157990724Y-100450179D01*
X157999934Y-100440004D01*
X158071300Y-100361161D01*
X158071303Y-100361157D01*
X158077322Y-100354507D01*
X158133588Y-100238375D01*
X158135223Y-100228660D01*
X158154190Y-100115917D01*
X158154997Y-100111120D01*
X158155133Y-100100000D01*
X158140009Y-99994392D01*
X158138112Y-99981145D01*
X158138111Y-99981142D01*
X158136839Y-99972259D01*
X158126702Y-99949963D01*
X158087145Y-99862962D01*
X158087143Y-99862959D01*
X158083428Y-99854788D01*
X158043526Y-99808479D01*
X158005051Y-99763826D01*
X158005049Y-99763824D01*
X157999193Y-99757028D01*
X157963796Y-99734085D01*
X157917512Y-99680249D01*
X157907681Y-99609936D01*
X157936556Y-99548788D01*
X157936280Y-99548602D01*
X157937492Y-99546805D01*
X157938912Y-99543798D01*
X157947322Y-99534507D01*
X158003588Y-99418375D01*
X158006009Y-99403989D01*
X158024190Y-99295917D01*
X158024997Y-99291120D01*
X158025133Y-99280000D01*
X158015562Y-99213169D01*
X158008112Y-99161145D01*
X158008111Y-99161142D01*
X158006839Y-99152259D01*
X157990993Y-99117408D01*
X157957145Y-99042962D01*
X157957143Y-99042959D01*
X157953428Y-99034788D01*
X157911816Y-98986495D01*
X157875051Y-98943826D01*
X157875049Y-98943824D01*
X157869193Y-98937028D01*
X157760906Y-98866841D01*
X157752311Y-98864271D01*
X157752310Y-98864270D01*
X157645874Y-98832438D01*
X157645872Y-98832438D01*
X157637273Y-98829866D01*
X157628298Y-98829811D01*
X157628297Y-98829811D01*
X157573641Y-98829477D01*
X157508231Y-98829078D01*
X157462500Y-98842148D01*
X157392786Y-98862072D01*
X157392784Y-98862073D01*
X157384155Y-98864539D01*
X157275019Y-98933399D01*
X157269076Y-98940128D01*
X157269075Y-98940129D01*
X157253623Y-98957625D01*
X157189596Y-99030122D01*
X157185782Y-99038245D01*
X157185781Y-99038247D01*
X157163948Y-99084750D01*
X157134754Y-99146932D01*
X157127292Y-99194859D01*
X157116282Y-99265567D01*
X157116282Y-99265571D01*
X157114901Y-99274440D01*
X157116065Y-99283342D01*
X157116065Y-99283345D01*
X157130468Y-99393489D01*
X157130469Y-99393493D01*
X157131633Y-99402394D01*
X157183605Y-99520510D01*
X157189382Y-99527383D01*
X157189383Y-99527384D01*
X157256896Y-99607700D01*
X157266639Y-99619291D01*
X157308143Y-99646918D01*
X157353764Y-99701313D01*
X157362736Y-99771740D01*
X157332764Y-99835211D01*
X157325541Y-99843390D01*
X157325540Y-99843392D01*
X157319596Y-99850122D01*
X157315782Y-99858245D01*
X157315781Y-99858247D01*
X157293689Y-99905303D01*
X157264754Y-99966932D01*
X157260365Y-99995121D01*
X157246282Y-100085567D01*
X157246282Y-100085571D01*
X157244901Y-100094440D01*
X157246065Y-100103342D01*
X157246065Y-100103345D01*
X157260468Y-100213489D01*
X157260469Y-100213493D01*
X157261633Y-100222394D01*
X157265250Y-100230614D01*
X157309065Y-100330191D01*
X157313605Y-100340510D01*
X157319382Y-100347383D01*
X157319383Y-100347384D01*
X157390859Y-100432415D01*
X157396639Y-100439291D01*
X157404115Y-100444268D01*
X157410804Y-100450248D01*
X157409601Y-100451594D01*
X157448247Y-100497669D01*
X157457220Y-100568097D01*
X157426693Y-100632195D01*
X157367432Y-100669312D01*
X157327182Y-100680816D01*
X157314155Y-100684539D01*
X157306565Y-100689328D01*
X157215689Y-100746667D01*
X157205019Y-100753399D01*
X157199076Y-100760128D01*
X157199075Y-100760129D01*
X157159413Y-100805038D01*
X157119596Y-100850122D01*
X157115782Y-100858245D01*
X157115781Y-100858247D01*
X157094647Y-100903261D01*
X157064754Y-100966932D01*
X157058833Y-101004962D01*
X157046282Y-101085567D01*
X157046282Y-101085571D01*
X157044901Y-101094440D01*
X155993345Y-101094440D01*
X155442405Y-100543500D01*
X155408379Y-100481188D01*
X155405500Y-100454405D01*
X155405500Y-100124185D01*
X155422381Y-100061185D01*
X155466734Y-99984363D01*
X155485136Y-99880000D01*
X155466734Y-99775637D01*
X155413748Y-99683862D01*
X155387946Y-99662212D01*
X155341011Y-99622828D01*
X155341009Y-99622827D01*
X155332568Y-99615744D01*
X155275916Y-99595125D01*
X155243342Y-99583269D01*
X155243341Y-99583269D01*
X155232986Y-99579500D01*
X155127014Y-99579500D01*
X155116659Y-99583269D01*
X155116658Y-99583269D01*
X155084084Y-99595125D01*
X155027432Y-99615744D01*
X155018991Y-99622827D01*
X155018989Y-99622828D01*
X154972054Y-99662212D01*
X154946252Y-99683862D01*
X154893266Y-99775637D01*
X154874864Y-99880000D01*
X154893266Y-99984363D01*
X154937619Y-100061185D01*
X154954500Y-100124185D01*
X154954500Y-100590789D01*
X154954327Y-100597383D01*
X154952300Y-100636064D01*
X154957047Y-100648430D01*
X154959563Y-100654985D01*
X154965179Y-100673941D01*
X154969393Y-100693768D01*
X154977176Y-100704481D01*
X154979201Y-100709029D01*
X154981908Y-100713198D01*
X154986654Y-100725560D01*
X155000986Y-100739892D01*
X155013827Y-100754927D01*
X155017955Y-100760609D01*
X155017957Y-100760611D01*
X155025740Y-100771323D01*
X155037207Y-100777944D01*
X155047050Y-100786806D01*
X155046732Y-100787159D01*
X155053269Y-100792175D01*
X155395491Y-101134397D01*
X155429517Y-101196709D01*
X155424452Y-101267524D01*
X155381905Y-101324360D01*
X155315385Y-101349171D01*
X155305638Y-101349490D01*
X155238231Y-101349078D01*
X155176193Y-101366809D01*
X155122786Y-101382072D01*
X155122784Y-101382073D01*
X155114155Y-101384539D01*
X155106565Y-101389328D01*
X155019491Y-101444268D01*
X155005019Y-101453399D01*
X154999076Y-101460128D01*
X154999075Y-101460129D01*
X154958721Y-101505821D01*
X154919596Y-101550122D01*
X154915782Y-101558245D01*
X154915781Y-101558247D01*
X154911751Y-101566831D01*
X154864754Y-101666932D01*
X154856283Y-101721340D01*
X154846282Y-101785567D01*
X154846282Y-101785571D01*
X154844901Y-101794440D01*
X151882891Y-101794440D01*
X151916330Y-101713709D01*
X151935250Y-101570000D01*
X151916330Y-101426291D01*
X151860861Y-101292375D01*
X151772621Y-101177379D01*
X151713890Y-101132313D01*
X151664178Y-101094167D01*
X151664176Y-101094166D01*
X151657625Y-101089139D01*
X151651388Y-101086556D01*
X151602878Y-101035677D01*
X151589443Y-100965964D01*
X151615831Y-100900053D01*
X151673664Y-100858872D01*
X151677402Y-100857726D01*
X151684209Y-100856830D01*
X151818125Y-100801361D01*
X151933121Y-100713121D01*
X152021361Y-100598125D01*
X152076830Y-100464209D01*
X152095750Y-100320500D01*
X152076830Y-100176791D01*
X152021361Y-100042875D01*
X151933121Y-99927879D01*
X151818125Y-99839639D01*
X151684209Y-99784170D01*
X151540500Y-99765250D01*
X151396791Y-99784170D01*
X151262875Y-99839639D01*
X151147879Y-99927879D01*
X151059639Y-100042875D01*
X151004170Y-100176791D01*
X150996337Y-100236291D01*
X150992522Y-100265264D01*
X150963799Y-100330191D01*
X150956695Y-100337912D01*
X149354516Y-101940091D01*
X149354513Y-101940095D01*
X149331950Y-101962658D01*
X149327446Y-101971498D01*
X149321965Y-101982255D01*
X149311639Y-101999107D01*
X149298704Y-102016910D01*
X149293707Y-102032290D01*
X149291907Y-102037830D01*
X149284341Y-102056094D01*
X149278856Y-102066859D01*
X149278855Y-102066863D01*
X149274354Y-102075696D01*
X149272803Y-102085487D01*
X149272803Y-102085488D01*
X149270913Y-102097422D01*
X149266297Y-102116647D01*
X149262565Y-102128132D01*
X149262564Y-102128136D01*
X149259500Y-102137567D01*
X149259500Y-102344902D01*
X149239498Y-102413023D01*
X149185842Y-102459516D01*
X149115568Y-102469620D01*
X149050988Y-102440126D01*
X149033541Y-102421610D01*
X149022621Y-102407379D01*
X148907625Y-102319139D01*
X148773709Y-102263670D01*
X148630000Y-102244750D01*
X148486291Y-102263670D01*
X148352375Y-102319139D01*
X148237379Y-102407379D01*
X148149139Y-102522375D01*
X148093670Y-102656291D01*
X148074750Y-102800000D01*
X148093670Y-102943709D01*
X148149139Y-103077625D01*
X148237379Y-103192621D01*
X148352375Y-103280861D01*
X148486291Y-103336330D01*
X148630000Y-103355250D01*
X148773709Y-103336330D01*
X148907625Y-103280861D01*
X149022621Y-103192621D01*
X149033539Y-103178392D01*
X149090877Y-103136526D01*
X149161748Y-103132305D01*
X149223650Y-103167070D01*
X149256931Y-103229783D01*
X149259500Y-103255098D01*
X149259500Y-111761917D01*
X149239498Y-111830038D01*
X149222595Y-111851012D01*
X144371012Y-116702595D01*
X144308700Y-116736621D01*
X144281917Y-116739500D01*
X135269605Y-116739500D01*
X135201484Y-116719498D01*
X135154991Y-116665842D01*
X135144887Y-116595568D01*
X135174381Y-116530988D01*
X135212991Y-116500935D01*
X135322625Y-116445795D01*
X135348869Y-116423381D01*
X135436574Y-116348474D01*
X135436576Y-116348471D01*
X135442348Y-116343542D01*
X135534224Y-116215683D01*
X135592950Y-116069598D01*
X135608564Y-115959889D01*
X135614553Y-115917807D01*
X135614553Y-115917804D01*
X135615134Y-115913723D01*
X135615278Y-115900000D01*
X135596363Y-115743694D01*
X135574828Y-115686703D01*
X135543394Y-115603514D01*
X135543393Y-115603511D01*
X135540710Y-115596412D01*
X135451531Y-115466657D01*
X135381119Y-115403922D01*
X135339648Y-115366972D01*
X135339645Y-115366970D01*
X135333976Y-115361919D01*
X135194831Y-115288245D01*
X135109502Y-115266812D01*
X135049498Y-115251740D01*
X135049496Y-115251740D01*
X135042128Y-115249889D01*
X135034530Y-115249849D01*
X135034528Y-115249849D01*
X134996828Y-115249652D01*
X134927213Y-115249288D01*
X134859199Y-115228930D01*
X134838778Y-115212385D01*
X134837894Y-115211501D01*
X134803868Y-115149189D01*
X134800989Y-115122406D01*
X134800989Y-114375963D01*
X140004757Y-114375963D01*
X140021175Y-114571483D01*
X140075258Y-114760091D01*
X140078076Y-114765574D01*
X140162123Y-114929113D01*
X140162126Y-114929117D01*
X140164944Y-114934601D01*
X140286818Y-115088369D01*
X140291511Y-115092363D01*
X140291512Y-115092364D01*
X140388135Y-115174596D01*
X140436238Y-115215535D01*
X140441616Y-115218541D01*
X140441618Y-115218542D01*
X140477932Y-115238837D01*
X140607513Y-115311257D01*
X140794118Y-115371889D01*
X140988946Y-115395121D01*
X140995081Y-115394649D01*
X140995083Y-115394649D01*
X141178434Y-115380541D01*
X141178438Y-115380540D01*
X141184576Y-115380068D01*
X141373556Y-115327303D01*
X141548689Y-115238837D01*
X141561370Y-115228930D01*
X141663434Y-115149189D01*
X141703303Y-115118040D01*
X141733084Y-115083539D01*
X141827485Y-114974173D01*
X141827485Y-114974172D01*
X141831509Y-114969511D01*
X141928425Y-114798909D01*
X141990358Y-114612732D01*
X142014949Y-114418071D01*
X142015341Y-114390000D01*
X141996194Y-114194728D01*
X141994413Y-114188829D01*
X141994412Y-114188824D01*
X141941265Y-114012793D01*
X141939484Y-114006894D01*
X141847370Y-113833653D01*
X141723361Y-113681602D01*
X141572180Y-113556535D01*
X141399585Y-113463213D01*
X141298451Y-113431907D01*
X141218039Y-113407015D01*
X141218036Y-113407014D01*
X141212152Y-113405193D01*
X141206027Y-113404549D01*
X141206026Y-113404549D01*
X141023147Y-113385327D01*
X141023146Y-113385327D01*
X141017019Y-113384683D01*
X140894383Y-113395844D01*
X140827759Y-113401907D01*
X140827758Y-113401907D01*
X140821618Y-113402466D01*
X140815704Y-113404207D01*
X140815702Y-113404207D01*
X140778209Y-113415242D01*
X140633393Y-113457864D01*
X140627928Y-113460721D01*
X140464972Y-113545912D01*
X140464968Y-113545915D01*
X140459512Y-113548767D01*
X140454712Y-113552627D01*
X140454711Y-113552627D01*
X140425750Y-113575912D01*
X140306600Y-113671711D01*
X140180480Y-113822016D01*
X140177516Y-113827408D01*
X140177513Y-113827412D01*
X140154593Y-113869104D01*
X140085956Y-113993954D01*
X140084095Y-113999821D01*
X140084094Y-113999823D01*
X140070463Y-114042793D01*
X140026628Y-114180978D01*
X140004757Y-114375963D01*
X134800989Y-114375963D01*
X134800989Y-112714820D01*
X140009500Y-112714820D01*
X140018233Y-112758722D01*
X140025127Y-112769040D01*
X140025128Y-112769042D01*
X140037330Y-112787303D01*
X140051496Y-112808504D01*
X140061815Y-112815399D01*
X140090958Y-112834872D01*
X140090960Y-112834873D01*
X140101278Y-112841767D01*
X140145180Y-112850500D01*
X141874820Y-112850500D01*
X141918722Y-112841767D01*
X141929040Y-112834873D01*
X141929042Y-112834872D01*
X141958185Y-112815399D01*
X141968504Y-112808504D01*
X141982670Y-112787303D01*
X141994872Y-112769042D01*
X141994873Y-112769040D01*
X142001767Y-112758722D01*
X142010500Y-112714820D01*
X142010500Y-110985180D01*
X142001767Y-110941278D01*
X141994873Y-110930960D01*
X141994872Y-110930958D01*
X141975399Y-110901815D01*
X141968504Y-110891496D01*
X141953538Y-110881496D01*
X141929042Y-110865128D01*
X141929040Y-110865127D01*
X141918722Y-110858233D01*
X141874820Y-110849500D01*
X140145180Y-110849500D01*
X140101278Y-110858233D01*
X140090960Y-110865127D01*
X140090958Y-110865128D01*
X140066462Y-110881496D01*
X140051496Y-110891496D01*
X140044601Y-110901815D01*
X140025128Y-110930958D01*
X140025127Y-110930960D01*
X140018233Y-110941278D01*
X140009500Y-110985180D01*
X140009500Y-112714820D01*
X134800989Y-112714820D01*
X134800989Y-109527594D01*
X134820991Y-109459473D01*
X134837894Y-109438499D01*
X138589393Y-105687000D01*
X141517750Y-105687000D01*
X141536670Y-105830709D01*
X141592139Y-105964625D01*
X141680379Y-106079621D01*
X141795375Y-106167861D01*
X141929291Y-106223330D01*
X142073000Y-106242250D01*
X142216709Y-106223330D01*
X142350625Y-106167861D01*
X142465621Y-106079621D01*
X142553861Y-105964625D01*
X142609330Y-105830709D01*
X142628250Y-105687000D01*
X142609330Y-105543291D01*
X142553861Y-105409375D01*
X142465621Y-105294379D01*
X142350625Y-105206139D01*
X142216709Y-105150670D01*
X142073000Y-105131750D01*
X141929291Y-105150670D01*
X141795375Y-105206139D01*
X141680379Y-105294379D01*
X141592139Y-105409375D01*
X141536670Y-105543291D01*
X141517750Y-105687000D01*
X138589393Y-105687000D01*
X143445484Y-100830909D01*
X143445487Y-100830905D01*
X143468050Y-100808342D01*
X143478035Y-100788745D01*
X143488361Y-100771893D01*
X143501296Y-100754090D01*
X143508095Y-100733166D01*
X143515659Y-100714906D01*
X143521144Y-100704141D01*
X143521145Y-100704137D01*
X143525646Y-100695304D01*
X143529087Y-100673578D01*
X143533703Y-100654353D01*
X143537435Y-100642868D01*
X143537436Y-100642864D01*
X143540500Y-100633433D01*
X143540500Y-98975963D01*
X144994757Y-98975963D01*
X145011175Y-99171483D01*
X145065258Y-99360091D01*
X145068076Y-99365574D01*
X145152123Y-99529113D01*
X145152126Y-99529117D01*
X145154944Y-99534601D01*
X145276818Y-99688369D01*
X145281511Y-99692363D01*
X145281512Y-99692364D01*
X145409772Y-99801521D01*
X145426238Y-99815535D01*
X145431616Y-99818541D01*
X145431618Y-99818542D01*
X145482236Y-99846831D01*
X145597513Y-99911257D01*
X145784118Y-99971889D01*
X145978946Y-99995121D01*
X145985081Y-99994649D01*
X145985083Y-99994649D01*
X146168434Y-99980541D01*
X146168438Y-99980540D01*
X146174576Y-99980068D01*
X146363556Y-99927303D01*
X146538689Y-99838837D01*
X146568515Y-99815535D01*
X146643400Y-99757028D01*
X146693303Y-99718040D01*
X146698898Y-99711559D01*
X146817485Y-99574173D01*
X146817485Y-99574172D01*
X146821509Y-99569511D01*
X146830303Y-99554032D01*
X146887685Y-99453020D01*
X146918425Y-99398909D01*
X146980358Y-99212732D01*
X147004949Y-99018071D01*
X147005341Y-98990000D01*
X147003965Y-98975963D01*
X147534757Y-98975963D01*
X147551175Y-99171483D01*
X147605258Y-99360091D01*
X147608076Y-99365574D01*
X147692123Y-99529113D01*
X147692126Y-99529117D01*
X147694944Y-99534601D01*
X147816818Y-99688369D01*
X147821511Y-99692363D01*
X147821512Y-99692364D01*
X147949772Y-99801521D01*
X147966238Y-99815535D01*
X147971616Y-99818541D01*
X147971618Y-99818542D01*
X148022236Y-99846831D01*
X148137513Y-99911257D01*
X148324118Y-99971889D01*
X148518946Y-99995121D01*
X148525081Y-99994649D01*
X148525083Y-99994649D01*
X148708434Y-99980541D01*
X148708438Y-99980540D01*
X148714576Y-99980068D01*
X148903556Y-99927303D01*
X149078689Y-99838837D01*
X149108515Y-99815535D01*
X149183400Y-99757028D01*
X149233303Y-99718040D01*
X149238898Y-99711559D01*
X149357485Y-99574173D01*
X149357485Y-99574172D01*
X149361509Y-99569511D01*
X149370303Y-99554032D01*
X149427685Y-99453020D01*
X149458425Y-99398909D01*
X149520358Y-99212732D01*
X149544949Y-99018071D01*
X149545341Y-98990000D01*
X149526194Y-98794728D01*
X149524413Y-98788829D01*
X149524412Y-98788824D01*
X149471265Y-98612793D01*
X149469484Y-98606894D01*
X149377370Y-98433653D01*
X149253361Y-98281602D01*
X149102180Y-98156535D01*
X148929585Y-98063213D01*
X148835869Y-98034203D01*
X148748039Y-98007015D01*
X148748036Y-98007014D01*
X148742152Y-98005193D01*
X148736027Y-98004549D01*
X148736026Y-98004549D01*
X148553147Y-97985327D01*
X148553146Y-97985327D01*
X148547019Y-97984683D01*
X148424383Y-97995844D01*
X148357759Y-98001907D01*
X148357758Y-98001907D01*
X148351618Y-98002466D01*
X148345704Y-98004207D01*
X148345702Y-98004207D01*
X148229791Y-98038322D01*
X148163393Y-98057864D01*
X148157928Y-98060721D01*
X147994972Y-98145912D01*
X147994968Y-98145915D01*
X147989512Y-98148767D01*
X147984712Y-98152627D01*
X147984711Y-98152627D01*
X147961661Y-98171160D01*
X147836600Y-98271711D01*
X147710480Y-98422016D01*
X147707516Y-98427408D01*
X147707513Y-98427412D01*
X147643155Y-98544480D01*
X147615956Y-98593954D01*
X147614095Y-98599821D01*
X147614094Y-98599823D01*
X147611851Y-98606894D01*
X147556628Y-98780978D01*
X147534757Y-98975963D01*
X147003965Y-98975963D01*
X146986194Y-98794728D01*
X146984413Y-98788829D01*
X146984412Y-98788824D01*
X146931265Y-98612793D01*
X146929484Y-98606894D01*
X146837370Y-98433653D01*
X146713361Y-98281602D01*
X146562180Y-98156535D01*
X146389585Y-98063213D01*
X146295869Y-98034203D01*
X146208039Y-98007015D01*
X146208036Y-98007014D01*
X146202152Y-98005193D01*
X146196027Y-98004549D01*
X146196026Y-98004549D01*
X146013147Y-97985327D01*
X146013146Y-97985327D01*
X146007019Y-97984683D01*
X145884383Y-97995844D01*
X145817759Y-98001907D01*
X145817758Y-98001907D01*
X145811618Y-98002466D01*
X145805704Y-98004207D01*
X145805702Y-98004207D01*
X145689791Y-98038322D01*
X145623393Y-98057864D01*
X145617928Y-98060721D01*
X145454972Y-98145912D01*
X145454968Y-98145915D01*
X145449512Y-98148767D01*
X145444712Y-98152627D01*
X145444711Y-98152627D01*
X145421661Y-98171160D01*
X145296600Y-98271711D01*
X145170480Y-98422016D01*
X145167516Y-98427408D01*
X145167513Y-98427412D01*
X145103155Y-98544480D01*
X145075956Y-98593954D01*
X145074095Y-98599821D01*
X145074094Y-98599823D01*
X145071851Y-98606894D01*
X145016628Y-98780978D01*
X144994757Y-98975963D01*
X143540500Y-98975963D01*
X143540500Y-96435963D01*
X144994757Y-96435963D01*
X145011175Y-96631483D01*
X145065258Y-96820091D01*
X145068076Y-96825574D01*
X145152123Y-96989113D01*
X145152126Y-96989117D01*
X145154944Y-96994601D01*
X145276818Y-97148369D01*
X145281511Y-97152363D01*
X145281512Y-97152364D01*
X145393470Y-97247647D01*
X145426238Y-97275535D01*
X145431616Y-97278541D01*
X145431618Y-97278542D01*
X145467932Y-97298837D01*
X145597513Y-97371257D01*
X145784118Y-97431889D01*
X145978946Y-97455121D01*
X145985081Y-97454649D01*
X145985083Y-97454649D01*
X146168434Y-97440541D01*
X146168438Y-97440540D01*
X146174576Y-97440068D01*
X146363556Y-97387303D01*
X146538689Y-97298837D01*
X146568515Y-97275535D01*
X146621073Y-97234472D01*
X146693303Y-97178040D01*
X146698379Y-97172160D01*
X146817485Y-97034173D01*
X146817485Y-97034172D01*
X146821509Y-97029511D01*
X146830888Y-97013002D01*
X146879389Y-96927625D01*
X146918425Y-96858909D01*
X146980358Y-96672732D01*
X147004949Y-96478071D01*
X147005341Y-96450000D01*
X147003965Y-96435963D01*
X147534757Y-96435963D01*
X147551175Y-96631483D01*
X147605258Y-96820091D01*
X147608076Y-96825574D01*
X147692123Y-96989113D01*
X147692126Y-96989117D01*
X147694944Y-96994601D01*
X147816818Y-97148369D01*
X147821511Y-97152363D01*
X147821512Y-97152364D01*
X147933470Y-97247647D01*
X147966238Y-97275535D01*
X147971616Y-97278541D01*
X147971618Y-97278542D01*
X148007932Y-97298837D01*
X148137513Y-97371257D01*
X148324118Y-97431889D01*
X148518946Y-97455121D01*
X148525081Y-97454649D01*
X148525083Y-97454649D01*
X148708434Y-97440541D01*
X148708438Y-97440540D01*
X148714576Y-97440068D01*
X148903556Y-97387303D01*
X149078689Y-97298837D01*
X149108515Y-97275535D01*
X149161073Y-97234472D01*
X149233303Y-97178040D01*
X149238379Y-97172160D01*
X149357485Y-97034173D01*
X149357485Y-97034172D01*
X149361509Y-97029511D01*
X149370888Y-97013002D01*
X149419389Y-96927625D01*
X149458425Y-96858909D01*
X149520358Y-96672732D01*
X149544949Y-96478071D01*
X149545341Y-96450000D01*
X149526194Y-96254728D01*
X149524413Y-96248829D01*
X149524412Y-96248824D01*
X149471265Y-96072793D01*
X149469484Y-96066894D01*
X149377370Y-95893653D01*
X149253361Y-95741602D01*
X149102180Y-95616535D01*
X148929585Y-95523213D01*
X148806946Y-95485250D01*
X148748039Y-95467015D01*
X148748036Y-95467014D01*
X148742152Y-95465193D01*
X148736027Y-95464549D01*
X148736026Y-95464549D01*
X148553147Y-95445327D01*
X148553146Y-95445327D01*
X148547019Y-95444683D01*
X148462499Y-95452375D01*
X148357759Y-95461907D01*
X148357758Y-95461907D01*
X148351618Y-95462466D01*
X148345704Y-95464207D01*
X148345702Y-95464207D01*
X148313020Y-95473826D01*
X148163393Y-95517864D01*
X148157928Y-95520721D01*
X147994972Y-95605912D01*
X147994968Y-95605915D01*
X147989512Y-95608767D01*
X147984712Y-95612627D01*
X147984711Y-95612627D01*
X147972587Y-95622375D01*
X147836600Y-95731711D01*
X147710480Y-95882016D01*
X147707516Y-95887408D01*
X147707513Y-95887412D01*
X147644205Y-96002569D01*
X147615956Y-96053954D01*
X147614095Y-96059821D01*
X147614094Y-96059823D01*
X147609980Y-96072793D01*
X147556628Y-96240978D01*
X147534757Y-96435963D01*
X147003965Y-96435963D01*
X146986194Y-96254728D01*
X146984413Y-96248829D01*
X146984412Y-96248824D01*
X146931265Y-96072793D01*
X146929484Y-96066894D01*
X146837370Y-95893653D01*
X146713361Y-95741602D01*
X146562180Y-95616535D01*
X146389585Y-95523213D01*
X146266946Y-95485250D01*
X146208039Y-95467015D01*
X146208036Y-95467014D01*
X146202152Y-95465193D01*
X146196027Y-95464549D01*
X146196026Y-95464549D01*
X146013147Y-95445327D01*
X146013146Y-95445327D01*
X146007019Y-95444683D01*
X145922499Y-95452375D01*
X145817759Y-95461907D01*
X145817758Y-95461907D01*
X145811618Y-95462466D01*
X145805704Y-95464207D01*
X145805702Y-95464207D01*
X145773020Y-95473826D01*
X145623393Y-95517864D01*
X145617928Y-95520721D01*
X145454972Y-95605912D01*
X145454968Y-95605915D01*
X145449512Y-95608767D01*
X145444712Y-95612627D01*
X145444711Y-95612627D01*
X145432587Y-95622375D01*
X145296600Y-95731711D01*
X145170480Y-95882016D01*
X145167516Y-95887408D01*
X145167513Y-95887412D01*
X145104205Y-96002569D01*
X145075956Y-96053954D01*
X145074095Y-96059821D01*
X145074094Y-96059823D01*
X145069980Y-96072793D01*
X145016628Y-96240978D01*
X144994757Y-96435963D01*
X143540500Y-96435963D01*
X143540500Y-93895963D01*
X144994757Y-93895963D01*
X145011175Y-94091483D01*
X145065258Y-94280091D01*
X145068076Y-94285574D01*
X145152123Y-94449113D01*
X145152126Y-94449117D01*
X145154944Y-94454601D01*
X145276818Y-94608369D01*
X145281511Y-94612363D01*
X145281512Y-94612364D01*
X145419877Y-94730121D01*
X145426238Y-94735535D01*
X145431616Y-94738541D01*
X145431618Y-94738542D01*
X145466876Y-94758247D01*
X145597513Y-94831257D01*
X145784118Y-94891889D01*
X145978946Y-94915121D01*
X145985081Y-94914649D01*
X145985083Y-94914649D01*
X146168434Y-94900541D01*
X146168438Y-94900540D01*
X146174576Y-94900068D01*
X146363556Y-94847303D01*
X146538689Y-94758837D01*
X146567829Y-94736071D01*
X146645223Y-94675604D01*
X146693303Y-94638040D01*
X146697332Y-94633373D01*
X146817485Y-94494173D01*
X146817485Y-94494172D01*
X146821509Y-94489511D01*
X146825284Y-94482867D01*
X146866226Y-94410796D01*
X146918425Y-94318909D01*
X146980358Y-94132732D01*
X147004949Y-93938071D01*
X147005341Y-93910000D01*
X147003965Y-93895963D01*
X147534757Y-93895963D01*
X147551175Y-94091483D01*
X147605258Y-94280091D01*
X147608076Y-94285574D01*
X147692123Y-94449113D01*
X147692126Y-94449117D01*
X147694944Y-94454601D01*
X147816818Y-94608369D01*
X147821511Y-94612363D01*
X147821512Y-94612364D01*
X147959877Y-94730121D01*
X147966238Y-94735535D01*
X147971616Y-94738541D01*
X147971618Y-94738542D01*
X148006876Y-94758247D01*
X148137513Y-94831257D01*
X148324118Y-94891889D01*
X148518946Y-94915121D01*
X148525081Y-94914649D01*
X148525083Y-94914649D01*
X148708434Y-94900541D01*
X148708438Y-94900540D01*
X148714576Y-94900068D01*
X148903556Y-94847303D01*
X149078689Y-94758837D01*
X149098456Y-94743394D01*
X149228447Y-94641834D01*
X149228448Y-94641833D01*
X149233303Y-94638040D01*
X149253497Y-94614645D01*
X149313150Y-94576148D01*
X149384146Y-94576012D01*
X149437973Y-94607881D01*
X152673024Y-97842931D01*
X152677565Y-97847715D01*
X152703494Y-97876512D01*
X152721137Y-97884367D01*
X152722012Y-97884757D01*
X152739385Y-97894190D01*
X152745276Y-97898016D01*
X152745278Y-97898017D01*
X152756384Y-97905229D01*
X152769466Y-97907301D01*
X152774103Y-97909081D01*
X152778967Y-97910115D01*
X152791069Y-97915503D01*
X152811336Y-97915503D01*
X152831045Y-97917054D01*
X152851067Y-97920225D01*
X152863856Y-97916798D01*
X152877084Y-97916105D01*
X152877109Y-97916579D01*
X152885279Y-97915503D01*
X153023689Y-97915503D01*
X153091810Y-97935505D01*
X153138303Y-97989161D01*
X153148407Y-98059435D01*
X153118913Y-98124015D01*
X153071907Y-98157912D01*
X152972375Y-98199139D01*
X152857379Y-98287379D01*
X152769139Y-98402375D01*
X152713670Y-98536291D01*
X152694750Y-98680000D01*
X152713670Y-98823709D01*
X152769139Y-98957625D01*
X152857379Y-99072621D01*
X152972375Y-99160861D01*
X153106291Y-99216330D01*
X153250000Y-99235250D01*
X153393709Y-99216330D01*
X153527625Y-99160861D01*
X153642621Y-99072621D01*
X153730861Y-98957625D01*
X153786330Y-98823709D01*
X153805250Y-98680000D01*
X153786330Y-98536291D01*
X153730861Y-98402375D01*
X153669570Y-98322500D01*
X166644750Y-98322500D01*
X166663670Y-98466209D01*
X166719139Y-98600125D01*
X166807379Y-98715121D01*
X166812889Y-98719349D01*
X166846621Y-98781130D01*
X166849500Y-98807909D01*
X166849500Y-100869176D01*
X166847467Y-100888275D01*
X166847240Y-100893083D01*
X166845049Y-100903261D01*
X166846273Y-100913600D01*
X166848627Y-100933491D01*
X166848937Y-100938746D01*
X166849072Y-100938735D01*
X166849500Y-100943914D01*
X166849500Y-100949115D01*
X166850354Y-100954243D01*
X166850354Y-100954249D01*
X166852389Y-100966473D01*
X166853226Y-100972349D01*
X166858764Y-101019138D01*
X166862423Y-101026758D01*
X166863812Y-101035103D01*
X166879663Y-101064480D01*
X166886192Y-101076580D01*
X166888884Y-101081865D01*
X166909274Y-101124326D01*
X166912592Y-101128274D01*
X166914525Y-101130207D01*
X166915990Y-101131804D01*
X166916254Y-101132294D01*
X166916234Y-101132313D01*
X166916313Y-101132402D01*
X166919222Y-101137794D01*
X166926870Y-101144864D01*
X166926871Y-101144865D01*
X166955636Y-101171455D01*
X166959202Y-101174884D01*
X168296217Y-102511899D01*
X168308295Y-102526853D01*
X168311527Y-102530405D01*
X168317175Y-102539152D01*
X168335373Y-102553498D01*
X168341086Y-102558002D01*
X168345021Y-102561499D01*
X168345109Y-102561395D01*
X168349066Y-102564748D01*
X168352747Y-102568429D01*
X168363106Y-102575832D01*
X168367072Y-102578666D01*
X168371818Y-102582229D01*
X168408811Y-102611392D01*
X168416787Y-102614193D01*
X168423669Y-102619111D01*
X168433650Y-102622096D01*
X168441174Y-102625782D01*
X168474834Y-102649836D01*
X169434338Y-103609340D01*
X169468362Y-103671650D01*
X169463298Y-103742465D01*
X169420751Y-103799301D01*
X169393460Y-103814842D01*
X169330645Y-103840861D01*
X169262375Y-103869139D01*
X169147379Y-103957379D01*
X169059139Y-104072375D01*
X169003670Y-104206291D01*
X168984750Y-104350000D01*
X169003670Y-104493709D01*
X169059139Y-104627625D01*
X169147379Y-104742621D01*
X169262375Y-104830861D01*
X169396291Y-104886330D01*
X169540000Y-104905250D01*
X169683709Y-104886330D01*
X169817625Y-104830861D01*
X169932621Y-104742621D01*
X170020861Y-104627625D01*
X170044129Y-104571449D01*
X170075158Y-104496540D01*
X170119706Y-104441259D01*
X170187070Y-104418838D01*
X170255861Y-104436396D01*
X170280662Y-104455663D01*
X170922595Y-105097596D01*
X170956621Y-105159908D01*
X170959500Y-105186691D01*
X170959500Y-110002628D01*
X170939498Y-110070749D01*
X170922595Y-110091723D01*
X169561723Y-111452595D01*
X169499411Y-111486621D01*
X169472628Y-111489500D01*
X169336500Y-111489500D01*
X169268379Y-111469498D01*
X169221886Y-111415842D01*
X169210500Y-111363500D01*
X169210500Y-110975180D01*
X169201767Y-110931278D01*
X169194873Y-110920960D01*
X169194872Y-110920958D01*
X169175399Y-110891815D01*
X169168504Y-110881496D01*
X169158185Y-110874601D01*
X169129042Y-110855128D01*
X169129040Y-110855127D01*
X169118722Y-110848233D01*
X169074820Y-110839500D01*
X167345180Y-110839500D01*
X167301278Y-110848233D01*
X167290960Y-110855127D01*
X167290958Y-110855128D01*
X167261815Y-110874601D01*
X167251496Y-110881496D01*
X167244601Y-110891815D01*
X167225128Y-110920958D01*
X167225127Y-110920960D01*
X167218233Y-110931278D01*
X167209500Y-110975180D01*
X167209500Y-112704820D01*
X167218233Y-112748722D01*
X167225127Y-112759040D01*
X167225128Y-112759042D01*
X167242156Y-112784526D01*
X167251496Y-112798504D01*
X167261815Y-112805399D01*
X167290958Y-112824872D01*
X167290960Y-112824873D01*
X167301278Y-112831767D01*
X167345180Y-112840500D01*
X167757703Y-112840500D01*
X167825824Y-112860502D01*
X167872317Y-112914158D01*
X167882421Y-112984432D01*
X167852927Y-113049012D01*
X167796848Y-113086265D01*
X167686868Y-113122212D01*
X167677359Y-113126209D01*
X167488463Y-113224542D01*
X167479738Y-113230036D01*
X167309433Y-113357905D01*
X167301726Y-113364748D01*
X167154590Y-113518717D01*
X167148104Y-113526727D01*
X167028098Y-113702649D01*
X167023000Y-113711623D01*
X166933338Y-113904783D01*
X166929775Y-113914470D01*
X166874389Y-114114183D01*
X166875912Y-114122607D01*
X166888292Y-114126000D01*
X169528344Y-114126000D01*
X169541875Y-114122027D01*
X169543180Y-114112947D01*
X169501214Y-113945875D01*
X169497894Y-113936124D01*
X169412972Y-113740814D01*
X169408105Y-113731739D01*
X169292426Y-113552926D01*
X169286136Y-113544757D01*
X169142806Y-113387240D01*
X169135273Y-113380215D01*
X168968139Y-113248222D01*
X168959552Y-113242517D01*
X168773117Y-113139599D01*
X168763705Y-113135369D01*
X168622240Y-113085273D01*
X168564704Y-113043679D01*
X168538788Y-112977581D01*
X168552722Y-112907965D01*
X168602081Y-112856934D01*
X168664300Y-112840500D01*
X169074820Y-112840500D01*
X169118722Y-112831767D01*
X169129040Y-112824873D01*
X169129042Y-112824872D01*
X169158185Y-112805399D01*
X169168504Y-112798504D01*
X169177844Y-112784526D01*
X169194872Y-112759042D01*
X169194873Y-112759040D01*
X169201767Y-112748722D01*
X169210500Y-112704820D01*
X169210500Y-112316500D01*
X169230502Y-112248379D01*
X169284158Y-112201886D01*
X169336500Y-112190500D01*
X169619176Y-112190500D01*
X169638275Y-112192533D01*
X169643083Y-112192760D01*
X169653261Y-112194951D01*
X169683491Y-112191373D01*
X169688746Y-112191063D01*
X169688735Y-112190928D01*
X169693914Y-112190500D01*
X169699115Y-112190500D01*
X169704243Y-112189646D01*
X169704249Y-112189646D01*
X169716473Y-112187611D01*
X169722349Y-112186774D01*
X169758799Y-112182460D01*
X169758801Y-112182460D01*
X169769138Y-112181236D01*
X169776758Y-112177577D01*
X169785103Y-112176188D01*
X169826584Y-112153806D01*
X169831870Y-112151113D01*
X169874326Y-112130726D01*
X169878274Y-112127408D01*
X169880207Y-112125475D01*
X169881804Y-112124010D01*
X169882294Y-112123746D01*
X169882313Y-112123766D01*
X169882402Y-112123687D01*
X169887794Y-112120778D01*
X169921455Y-112084364D01*
X169924884Y-112080798D01*
X171521899Y-110483783D01*
X171536853Y-110471705D01*
X171540405Y-110468473D01*
X171549152Y-110462825D01*
X171568002Y-110438914D01*
X171571499Y-110434979D01*
X171571395Y-110434891D01*
X171574750Y-110430932D01*
X171578428Y-110427254D01*
X171581447Y-110423029D01*
X171581454Y-110423021D01*
X171588672Y-110412920D01*
X171592236Y-110408173D01*
X171614946Y-110379365D01*
X171621392Y-110371189D01*
X171624193Y-110363213D01*
X171629111Y-110356331D01*
X171642605Y-110311209D01*
X171644439Y-110305563D01*
X171657429Y-110268573D01*
X171657430Y-110268570D01*
X171660055Y-110261094D01*
X171660500Y-110255956D01*
X171660500Y-110253251D01*
X171660595Y-110251052D01*
X171660754Y-110250520D01*
X171660781Y-110250521D01*
X171660788Y-110250405D01*
X171662543Y-110244537D01*
X171660597Y-110194996D01*
X171660500Y-110190050D01*
X171660500Y-105040144D01*
X171662533Y-105021045D01*
X171662760Y-105016237D01*
X171664951Y-105006059D01*
X171661373Y-104975829D01*
X171661063Y-104970574D01*
X171660928Y-104970585D01*
X171660500Y-104965406D01*
X171660500Y-104960205D01*
X171657611Y-104942847D01*
X171656774Y-104936971D01*
X171652460Y-104900521D01*
X171652460Y-104900519D01*
X171651236Y-104890182D01*
X171647577Y-104882562D01*
X171646188Y-104874217D01*
X171623806Y-104832736D01*
X171621113Y-104827450D01*
X171611593Y-104807625D01*
X171600726Y-104784994D01*
X171597408Y-104781046D01*
X171595475Y-104779113D01*
X171594010Y-104777516D01*
X171593746Y-104777026D01*
X171593766Y-104777007D01*
X171593687Y-104776918D01*
X171590778Y-104771526D01*
X171554364Y-104737865D01*
X171550798Y-104734436D01*
X168904463Y-102088101D01*
X168892385Y-102073147D01*
X168889153Y-102069595D01*
X168883505Y-102060848D01*
X168859594Y-102041998D01*
X168855659Y-102038501D01*
X168855571Y-102038605D01*
X168851612Y-102035250D01*
X168847934Y-102031572D01*
X168843709Y-102028553D01*
X168843701Y-102028546D01*
X168833600Y-102021328D01*
X168828853Y-102017764D01*
X168817597Y-102008891D01*
X168791869Y-101988608D01*
X168783893Y-101985807D01*
X168777011Y-101980889D01*
X168767030Y-101977904D01*
X168759506Y-101974218D01*
X168725843Y-101950161D01*
X167587405Y-100811723D01*
X167553379Y-100749411D01*
X167550500Y-100722628D01*
X167550500Y-100710000D01*
X171274750Y-100710000D01*
X171293670Y-100853709D01*
X171349139Y-100987625D01*
X171437379Y-101102621D01*
X171552375Y-101190861D01*
X171686291Y-101246330D01*
X171830000Y-101265250D01*
X171973709Y-101246330D01*
X172107625Y-101190861D01*
X172222621Y-101102621D01*
X172310861Y-100987625D01*
X172366330Y-100853709D01*
X172385250Y-100710000D01*
X172366330Y-100566291D01*
X172310861Y-100432375D01*
X172222621Y-100317379D01*
X172107625Y-100229139D01*
X171973709Y-100173670D01*
X171830000Y-100154750D01*
X171686291Y-100173670D01*
X171552375Y-100229139D01*
X171437379Y-100317379D01*
X171349139Y-100432375D01*
X171293670Y-100566291D01*
X171274750Y-100710000D01*
X167550500Y-100710000D01*
X167550500Y-99184440D01*
X170514901Y-99184440D01*
X170516065Y-99193342D01*
X170516065Y-99193345D01*
X170530468Y-99303489D01*
X170530469Y-99303493D01*
X170531633Y-99312394D01*
X170538665Y-99328375D01*
X170578266Y-99418375D01*
X170583605Y-99430510D01*
X170589382Y-99437383D01*
X170589383Y-99437384D01*
X170642014Y-99499996D01*
X170666639Y-99529291D01*
X170684464Y-99541156D01*
X170765541Y-99595125D01*
X170774060Y-99600796D01*
X170897233Y-99639278D01*
X170906203Y-99639442D01*
X170906207Y-99639443D01*
X170964942Y-99640519D01*
X171026255Y-99641643D01*
X171120051Y-99616071D01*
X171142092Y-99610062D01*
X171142093Y-99610062D01*
X171150755Y-99607700D01*
X171158405Y-99603003D01*
X171158407Y-99603002D01*
X171253072Y-99544878D01*
X171253075Y-99544875D01*
X171260724Y-99540179D01*
X171266750Y-99533522D01*
X171341300Y-99451161D01*
X171341303Y-99451157D01*
X171347322Y-99444507D01*
X171403588Y-99328375D01*
X171411727Y-99280000D01*
X171424190Y-99205917D01*
X171424997Y-99201120D01*
X171425133Y-99190000D01*
X171414737Y-99117408D01*
X171408112Y-99071145D01*
X171408111Y-99071142D01*
X171406839Y-99062259D01*
X171400724Y-99048809D01*
X171357145Y-98952962D01*
X171357143Y-98952959D01*
X171353428Y-98944788D01*
X171327053Y-98914178D01*
X171275051Y-98853826D01*
X171275049Y-98853824D01*
X171269193Y-98847028D01*
X171160906Y-98776841D01*
X171152311Y-98774271D01*
X171152310Y-98774270D01*
X171045874Y-98742438D01*
X171045872Y-98742438D01*
X171037273Y-98739866D01*
X171028298Y-98739811D01*
X171028297Y-98739811D01*
X170973641Y-98739477D01*
X170908231Y-98739078D01*
X170855432Y-98754168D01*
X170792786Y-98772072D01*
X170792784Y-98772073D01*
X170784155Y-98774539D01*
X170776565Y-98779328D01*
X170696555Y-98829811D01*
X170675019Y-98843399D01*
X170669076Y-98850128D01*
X170669075Y-98850129D01*
X170652119Y-98869328D01*
X170589596Y-98940122D01*
X170585782Y-98948245D01*
X170585781Y-98948247D01*
X170581378Y-98957625D01*
X170534754Y-99056932D01*
X170527645Y-99102592D01*
X170516282Y-99175567D01*
X170516282Y-99175571D01*
X170514901Y-99184440D01*
X167550500Y-99184440D01*
X167550500Y-98807909D01*
X167570502Y-98739788D01*
X167586748Y-98719628D01*
X167592621Y-98715121D01*
X167680861Y-98600125D01*
X167736330Y-98466209D01*
X167755250Y-98322500D01*
X167736330Y-98178791D01*
X167680861Y-98044875D01*
X167592621Y-97929879D01*
X167477625Y-97841639D01*
X167343709Y-97786170D01*
X167200000Y-97767250D01*
X167056291Y-97786170D01*
X166922375Y-97841639D01*
X166807379Y-97929879D01*
X166719139Y-98044875D01*
X166663670Y-98178791D01*
X166644750Y-98322500D01*
X153669570Y-98322500D01*
X153642621Y-98287379D01*
X153527625Y-98199139D01*
X153428093Y-98157912D01*
X153372812Y-98113364D01*
X153350391Y-98046001D01*
X153367949Y-97977209D01*
X153419911Y-97928831D01*
X153476311Y-97915503D01*
X155825384Y-97915503D01*
X155893505Y-97935505D01*
X155906376Y-97944982D01*
X155908989Y-97947175D01*
X155908991Y-97947176D01*
X155917432Y-97954259D01*
X155967223Y-97972381D01*
X156006658Y-97986734D01*
X156006659Y-97986734D01*
X156017014Y-97990503D01*
X156122986Y-97990503D01*
X156133341Y-97986734D01*
X156133342Y-97986734D01*
X156172777Y-97972381D01*
X156222568Y-97954259D01*
X156231009Y-97947176D01*
X156231011Y-97947175D01*
X156289596Y-97898016D01*
X156303748Y-97886141D01*
X156356734Y-97794366D01*
X156375136Y-97690003D01*
X156373222Y-97679148D01*
X156373222Y-97679145D01*
X156370442Y-97663378D01*
X156378312Y-97592819D01*
X156423080Y-97537716D01*
X156494528Y-97515500D01*
X162169115Y-97515500D01*
X162237236Y-97535502D01*
X162265637Y-97560509D01*
X162270739Y-97566590D01*
X162276252Y-97576138D01*
X162284697Y-97583224D01*
X162348989Y-97637172D01*
X162348991Y-97637173D01*
X162357432Y-97644256D01*
X162407223Y-97662378D01*
X162446658Y-97676731D01*
X162446659Y-97676731D01*
X162457014Y-97680500D01*
X162562986Y-97680500D01*
X162573341Y-97676731D01*
X162573342Y-97676731D01*
X162612777Y-97662378D01*
X162662568Y-97644256D01*
X162671009Y-97637173D01*
X162671011Y-97637172D01*
X162735303Y-97583224D01*
X162743748Y-97576138D01*
X162796734Y-97484363D01*
X162815136Y-97380000D01*
X162796734Y-97275637D01*
X162743748Y-97183862D01*
X162680584Y-97130861D01*
X162671011Y-97122828D01*
X162671009Y-97122827D01*
X162662568Y-97115744D01*
X162602446Y-97093862D01*
X162573342Y-97083269D01*
X162573341Y-97083269D01*
X162562986Y-97079500D01*
X162530598Y-97079500D01*
X162502696Y-97074329D01*
X162502625Y-97074775D01*
X162500989Y-97074516D01*
X162496447Y-97073170D01*
X162493007Y-97072533D01*
X162492984Y-97072640D01*
X162488894Y-97071771D01*
X162485443Y-97071131D01*
X162484895Y-97070920D01*
X162480027Y-97069885D01*
X162467932Y-97064500D01*
X162447666Y-97064500D01*
X162427957Y-97062949D01*
X162407935Y-97059778D01*
X162395146Y-97063205D01*
X162381918Y-97063898D01*
X162381893Y-97063424D01*
X162373723Y-97064500D01*
X161875197Y-97064500D01*
X161807076Y-97044498D01*
X161760583Y-96990842D01*
X161750479Y-96920568D01*
X161759340Y-96894955D01*
X161757452Y-96894268D01*
X161761222Y-96883910D01*
X161766734Y-96874363D01*
X161775289Y-96825842D01*
X161810279Y-96758627D01*
X162680308Y-95888597D01*
X162726311Y-95859290D01*
X162812211Y-95828026D01*
X162812213Y-95828025D01*
X162822568Y-95824256D01*
X162831009Y-95817173D01*
X162831011Y-95817172D01*
X162846184Y-95804440D01*
X168944901Y-95804440D01*
X168946065Y-95813342D01*
X168946065Y-95813345D01*
X168960468Y-95923489D01*
X168960469Y-95923493D01*
X168961633Y-95932394D01*
X169013605Y-96050510D01*
X169019382Y-96057383D01*
X169019383Y-96057384D01*
X169078445Y-96127647D01*
X169096639Y-96149291D01*
X169204060Y-96220796D01*
X169288244Y-96247097D01*
X169308416Y-96253399D01*
X169327233Y-96259278D01*
X169336203Y-96259442D01*
X169336207Y-96259443D01*
X169394942Y-96260519D01*
X169456255Y-96261643D01*
X169518505Y-96244672D01*
X169572092Y-96230062D01*
X169572093Y-96230062D01*
X169580755Y-96227700D01*
X169588405Y-96223003D01*
X169588407Y-96223002D01*
X169683072Y-96164878D01*
X169683075Y-96164875D01*
X169690724Y-96160179D01*
X169697731Y-96152438D01*
X169771300Y-96071161D01*
X169771303Y-96071157D01*
X169777322Y-96064507D01*
X169833588Y-95948375D01*
X169841643Y-95900500D01*
X169854190Y-95825917D01*
X169854997Y-95821120D01*
X169855133Y-95810000D01*
X169843499Y-95728763D01*
X169838112Y-95691145D01*
X169838111Y-95691142D01*
X169836839Y-95682259D01*
X169833125Y-95674090D01*
X169787145Y-95572962D01*
X169787143Y-95572959D01*
X169783428Y-95564788D01*
X169752108Y-95528439D01*
X169705051Y-95473826D01*
X169705049Y-95473824D01*
X169699193Y-95467028D01*
X169590906Y-95396841D01*
X169582311Y-95394271D01*
X169582310Y-95394270D01*
X169475874Y-95362438D01*
X169475872Y-95362438D01*
X169467273Y-95359866D01*
X169458298Y-95359811D01*
X169458297Y-95359811D01*
X169403641Y-95359477D01*
X169338231Y-95359078D01*
X169311104Y-95366831D01*
X169222786Y-95392072D01*
X169222784Y-95392073D01*
X169214155Y-95394539D01*
X169206565Y-95399328D01*
X169123913Y-95451478D01*
X169105019Y-95463399D01*
X169099076Y-95470128D01*
X169099075Y-95470129D01*
X169031351Y-95546812D01*
X169019596Y-95560122D01*
X169015782Y-95568245D01*
X169015781Y-95568247D01*
X169005623Y-95589883D01*
X168964754Y-95676932D01*
X168957364Y-95724396D01*
X168946282Y-95795567D01*
X168946282Y-95795571D01*
X168944901Y-95804440D01*
X162846184Y-95804440D01*
X162895303Y-95763224D01*
X162903748Y-95756138D01*
X162956734Y-95664363D01*
X162975136Y-95560000D01*
X162956734Y-95455637D01*
X162903748Y-95363862D01*
X162846793Y-95316071D01*
X162831011Y-95302828D01*
X162831009Y-95302827D01*
X162822568Y-95295744D01*
X162772777Y-95277622D01*
X162733342Y-95263269D01*
X162733341Y-95263269D01*
X162722986Y-95259500D01*
X162617014Y-95259500D01*
X162606659Y-95263269D01*
X162606658Y-95263269D01*
X162567223Y-95277622D01*
X162517432Y-95295744D01*
X162508991Y-95302827D01*
X162508989Y-95302828D01*
X162493207Y-95316071D01*
X162436252Y-95363862D01*
X162383266Y-95455637D01*
X162381352Y-95466491D01*
X162381351Y-95466494D01*
X162370429Y-95528439D01*
X162335438Y-95595655D01*
X161494729Y-96436364D01*
X161431078Y-96469500D01*
X161427014Y-96469500D01*
X161327432Y-96505744D01*
X161318991Y-96512827D01*
X161318989Y-96512828D01*
X161294469Y-96533403D01*
X161246252Y-96573862D01*
X161193266Y-96665637D01*
X161174864Y-96770000D01*
X161193266Y-96874363D01*
X161198779Y-96883912D01*
X161202548Y-96894267D01*
X161198810Y-96895628D01*
X161210659Y-96944532D01*
X161187418Y-97011617D01*
X161131598Y-97055488D01*
X161084803Y-97064500D01*
X156314616Y-97064500D01*
X156246495Y-97044498D01*
X156233624Y-97035021D01*
X156231011Y-97032828D01*
X156231009Y-97032827D01*
X156222568Y-97025744D01*
X156150280Y-96999434D01*
X156133342Y-96993269D01*
X156133341Y-96993269D01*
X156122986Y-96989500D01*
X156017014Y-96989500D01*
X156006659Y-96993269D01*
X156006658Y-96993269D01*
X155989720Y-96999434D01*
X155917432Y-97025744D01*
X155908991Y-97032827D01*
X155908989Y-97032828D01*
X155881984Y-97055488D01*
X155836252Y-97093862D01*
X155783266Y-97185637D01*
X155764864Y-97290000D01*
X155766778Y-97300855D01*
X155766778Y-97300858D01*
X155769558Y-97316625D01*
X155761688Y-97387184D01*
X155716920Y-97442287D01*
X155645472Y-97464503D01*
X152984596Y-97464503D01*
X152916475Y-97444501D01*
X152895501Y-97427598D01*
X152702375Y-97234472D01*
X152668349Y-97172160D01*
X152673414Y-97101345D01*
X152715961Y-97044509D01*
X152758326Y-97023815D01*
X152780755Y-97017700D01*
X152788405Y-97013003D01*
X152788407Y-97013002D01*
X152883072Y-96954878D01*
X152883075Y-96954875D01*
X152890724Y-96950179D01*
X152896750Y-96943522D01*
X152971300Y-96861161D01*
X152971303Y-96861157D01*
X152977322Y-96854507D01*
X153033588Y-96738375D01*
X153041825Y-96689418D01*
X153054190Y-96615917D01*
X153054997Y-96611120D01*
X153055133Y-96600000D01*
X153041713Y-96506291D01*
X153038112Y-96481145D01*
X153038111Y-96481142D01*
X153036839Y-96472259D01*
X153031701Y-96460959D01*
X152987145Y-96362962D01*
X152987143Y-96362959D01*
X152983428Y-96354788D01*
X152947070Y-96312592D01*
X152905051Y-96263826D01*
X152905049Y-96263824D01*
X152899193Y-96257028D01*
X152790906Y-96186841D01*
X152782311Y-96184271D01*
X152782310Y-96184270D01*
X152675874Y-96152438D01*
X152675872Y-96152438D01*
X152667273Y-96149866D01*
X152658298Y-96149811D01*
X152658297Y-96149811D01*
X152603641Y-96149477D01*
X152538231Y-96149078D01*
X152482948Y-96164878D01*
X152422786Y-96182072D01*
X152422784Y-96182073D01*
X152414155Y-96184539D01*
X152305019Y-96253399D01*
X152299076Y-96260128D01*
X152299075Y-96260129D01*
X152277841Y-96284172D01*
X152219596Y-96350122D01*
X152215782Y-96358245D01*
X152215781Y-96358247D01*
X152167558Y-96460959D01*
X152120501Y-96514121D01*
X152052173Y-96533403D01*
X151984268Y-96512683D01*
X151964408Y-96496505D01*
X151367903Y-95900000D01*
X158144750Y-95900000D01*
X158163670Y-96043709D01*
X158219139Y-96177625D01*
X158307379Y-96292621D01*
X158422375Y-96380861D01*
X158556291Y-96436330D01*
X158700000Y-96455250D01*
X158843709Y-96436330D01*
X158977625Y-96380861D01*
X159092621Y-96292621D01*
X159180861Y-96177625D01*
X159236330Y-96043709D01*
X159255250Y-95900000D01*
X159236330Y-95756291D01*
X159180861Y-95622375D01*
X159092621Y-95507379D01*
X158977625Y-95419139D01*
X158843709Y-95363670D01*
X158700000Y-95344750D01*
X158556291Y-95363670D01*
X158422375Y-95419139D01*
X158307379Y-95507379D01*
X158219139Y-95622375D01*
X158163670Y-95756291D01*
X158144750Y-95900000D01*
X151367903Y-95900000D01*
X149573010Y-94105107D01*
X149538984Y-94042795D01*
X149537098Y-94000221D01*
X149541682Y-93963929D01*
X149544949Y-93938071D01*
X149545341Y-93910000D01*
X149526194Y-93714728D01*
X149524413Y-93708829D01*
X149524412Y-93708824D01*
X149471265Y-93532793D01*
X149469484Y-93526894D01*
X149377370Y-93353653D01*
X149253361Y-93201602D01*
X149102180Y-93076535D01*
X148929585Y-92983213D01*
X148835869Y-92954203D01*
X148748039Y-92927015D01*
X148748036Y-92927014D01*
X148742152Y-92925193D01*
X148736027Y-92924549D01*
X148736026Y-92924549D01*
X148553147Y-92905327D01*
X148553146Y-92905327D01*
X148547019Y-92904683D01*
X148424383Y-92915844D01*
X148357759Y-92921907D01*
X148357758Y-92921907D01*
X148351618Y-92922466D01*
X148345704Y-92924207D01*
X148345702Y-92924207D01*
X148224103Y-92959996D01*
X148163393Y-92977864D01*
X148157928Y-92980721D01*
X147994972Y-93065912D01*
X147994968Y-93065915D01*
X147989512Y-93068767D01*
X147984712Y-93072627D01*
X147984711Y-93072627D01*
X147974470Y-93080861D01*
X147836600Y-93191711D01*
X147710480Y-93342016D01*
X147707516Y-93347408D01*
X147707513Y-93347412D01*
X147648796Y-93454218D01*
X147615956Y-93513954D01*
X147614095Y-93519821D01*
X147614094Y-93519823D01*
X147593650Y-93584270D01*
X147556628Y-93700978D01*
X147534757Y-93895963D01*
X147003965Y-93895963D01*
X146986194Y-93714728D01*
X146984413Y-93708829D01*
X146984412Y-93708824D01*
X146931265Y-93532793D01*
X146929484Y-93526894D01*
X146837370Y-93353653D01*
X146713361Y-93201602D01*
X146562180Y-93076535D01*
X146389585Y-92983213D01*
X146295869Y-92954203D01*
X146208039Y-92927015D01*
X146208036Y-92927014D01*
X146202152Y-92925193D01*
X146196027Y-92924549D01*
X146196026Y-92924549D01*
X146013147Y-92905327D01*
X146013146Y-92905327D01*
X146007019Y-92904683D01*
X145884383Y-92915844D01*
X145817759Y-92921907D01*
X145817758Y-92921907D01*
X145811618Y-92922466D01*
X145805704Y-92924207D01*
X145805702Y-92924207D01*
X145684103Y-92959996D01*
X145623393Y-92977864D01*
X145617928Y-92980721D01*
X145454972Y-93065912D01*
X145454968Y-93065915D01*
X145449512Y-93068767D01*
X145444712Y-93072627D01*
X145444711Y-93072627D01*
X145434470Y-93080861D01*
X145296600Y-93191711D01*
X145170480Y-93342016D01*
X145167516Y-93347408D01*
X145167513Y-93347412D01*
X145108796Y-93454218D01*
X145075956Y-93513954D01*
X145074095Y-93519821D01*
X145074094Y-93519823D01*
X145053650Y-93584270D01*
X145016628Y-93700978D01*
X144994757Y-93895963D01*
X143540500Y-93895963D01*
X143540500Y-92234820D01*
X144999500Y-92234820D01*
X145008233Y-92278722D01*
X145015127Y-92289040D01*
X145015128Y-92289042D01*
X145028437Y-92308960D01*
X145041496Y-92328504D01*
X145051815Y-92335399D01*
X145080958Y-92354872D01*
X145080960Y-92354873D01*
X145091278Y-92361767D01*
X145135180Y-92370500D01*
X146864820Y-92370500D01*
X146908722Y-92361767D01*
X146919040Y-92354873D01*
X146919042Y-92354872D01*
X146948185Y-92335399D01*
X146958504Y-92328504D01*
X146971563Y-92308960D01*
X146984872Y-92289042D01*
X146984873Y-92289040D01*
X146991767Y-92278722D01*
X147000500Y-92234820D01*
X147000500Y-91355963D01*
X147534757Y-91355963D01*
X147551175Y-91551483D01*
X147605258Y-91740091D01*
X147608076Y-91745574D01*
X147692123Y-91909113D01*
X147692126Y-91909117D01*
X147694944Y-91914601D01*
X147816818Y-92068369D01*
X147821511Y-92072363D01*
X147821512Y-92072364D01*
X147957702Y-92188270D01*
X147966238Y-92195535D01*
X147971616Y-92198541D01*
X147971618Y-92198542D01*
X148007932Y-92218837D01*
X148137513Y-92291257D01*
X148324118Y-92351889D01*
X148518946Y-92375121D01*
X148525081Y-92374649D01*
X148525083Y-92374649D01*
X148708434Y-92360541D01*
X148708438Y-92360540D01*
X148714576Y-92360068D01*
X148903556Y-92307303D01*
X149078689Y-92218837D01*
X149108515Y-92195535D01*
X149228453Y-92101829D01*
X149233303Y-92098040D01*
X149262971Y-92063670D01*
X149357485Y-91954173D01*
X149357485Y-91954172D01*
X149361509Y-91949511D01*
X149378360Y-91919849D01*
X149455378Y-91784272D01*
X149458425Y-91778909D01*
X149520358Y-91592732D01*
X149544949Y-91398071D01*
X149545341Y-91370000D01*
X149526194Y-91174728D01*
X149524413Y-91168829D01*
X149524412Y-91168824D01*
X149471265Y-90992793D01*
X149469484Y-90986894D01*
X149377370Y-90813653D01*
X149253361Y-90661602D01*
X149102180Y-90536535D01*
X148929585Y-90443213D01*
X148805331Y-90404750D01*
X148748039Y-90387015D01*
X148748036Y-90387014D01*
X148742152Y-90385193D01*
X148736027Y-90384549D01*
X148736026Y-90384549D01*
X148553147Y-90365327D01*
X148553146Y-90365327D01*
X148547019Y-90364683D01*
X148424733Y-90375812D01*
X148357759Y-90381907D01*
X148357758Y-90381907D01*
X148351618Y-90382466D01*
X148345704Y-90384207D01*
X148345702Y-90384207D01*
X148276410Y-90404601D01*
X148163393Y-90437864D01*
X148157928Y-90440721D01*
X147994972Y-90525912D01*
X147994968Y-90525915D01*
X147989512Y-90528767D01*
X147984712Y-90532627D01*
X147984711Y-90532627D01*
X147956092Y-90555637D01*
X147836600Y-90651711D01*
X147710480Y-90802016D01*
X147707516Y-90807408D01*
X147707513Y-90807412D01*
X147671231Y-90873409D01*
X147615956Y-90973954D01*
X147614095Y-90979821D01*
X147614094Y-90979823D01*
X147606439Y-91003955D01*
X147556628Y-91160978D01*
X147534757Y-91355963D01*
X147000500Y-91355963D01*
X147000500Y-90505180D01*
X146991767Y-90461278D01*
X146984873Y-90450960D01*
X146984872Y-90450958D01*
X146965399Y-90421815D01*
X146958504Y-90411496D01*
X146939015Y-90398474D01*
X146919042Y-90385128D01*
X146919040Y-90385127D01*
X146908722Y-90378233D01*
X146864820Y-90369500D01*
X145135180Y-90369500D01*
X145091278Y-90378233D01*
X145080960Y-90385127D01*
X145080958Y-90385128D01*
X145060985Y-90398474D01*
X145041496Y-90411496D01*
X145034601Y-90421815D01*
X145015128Y-90450958D01*
X145015127Y-90450960D01*
X145008233Y-90461278D01*
X144999500Y-90505180D01*
X144999500Y-92234820D01*
X143540500Y-92234820D01*
X143540500Y-89048083D01*
X143560502Y-88979962D01*
X143577405Y-88958988D01*
X144378988Y-88157405D01*
X144441300Y-88123379D01*
X144468083Y-88120500D01*
X149391917Y-88120500D01*
X149460038Y-88140502D01*
X149481012Y-88157405D01*
X151079095Y-89755487D01*
X151113120Y-89817799D01*
X151116000Y-89844582D01*
X151116000Y-94291376D01*
X151095998Y-94359497D01*
X151089962Y-94368080D01*
X151035639Y-94438875D01*
X150980170Y-94572791D01*
X150961250Y-94716500D01*
X150980170Y-94860209D01*
X151035639Y-94994125D01*
X151123879Y-95109121D01*
X151238875Y-95197361D01*
X151372791Y-95252830D01*
X151516500Y-95271750D01*
X151660209Y-95252830D01*
X151794125Y-95197361D01*
X151909121Y-95109121D01*
X151997119Y-94994440D01*
X153944901Y-94994440D01*
X153946065Y-95003342D01*
X153946065Y-95003345D01*
X153960468Y-95113489D01*
X153960469Y-95113493D01*
X153961633Y-95122394D01*
X153965250Y-95130614D01*
X153996010Y-95200521D01*
X154013605Y-95240510D01*
X154019382Y-95247383D01*
X154019383Y-95247384D01*
X154082626Y-95322621D01*
X154096639Y-95339291D01*
X154204060Y-95410796D01*
X154292938Y-95438564D01*
X154317026Y-95446089D01*
X154327233Y-95449278D01*
X154336203Y-95449442D01*
X154336207Y-95449443D01*
X154394942Y-95450519D01*
X154456255Y-95451643D01*
X154557031Y-95424168D01*
X154572092Y-95420062D01*
X154572093Y-95420062D01*
X154580755Y-95417700D01*
X154588405Y-95413003D01*
X154588407Y-95413002D01*
X154683072Y-95354878D01*
X154683075Y-95354875D01*
X154690724Y-95350179D01*
X154696750Y-95343522D01*
X154771300Y-95261161D01*
X154771303Y-95261157D01*
X154777322Y-95254507D01*
X154833588Y-95138375D01*
X154836866Y-95118895D01*
X154854190Y-95015917D01*
X154854997Y-95011120D01*
X154855133Y-95000000D01*
X154854337Y-94994440D01*
X157244901Y-94994440D01*
X157246065Y-95003342D01*
X157246065Y-95003345D01*
X157260468Y-95113489D01*
X157260469Y-95113493D01*
X157261633Y-95122394D01*
X157265250Y-95130614D01*
X157296010Y-95200521D01*
X157313605Y-95240510D01*
X157319382Y-95247383D01*
X157319383Y-95247384D01*
X157382626Y-95322621D01*
X157396639Y-95339291D01*
X157504060Y-95410796D01*
X157592938Y-95438564D01*
X157617026Y-95446089D01*
X157627233Y-95449278D01*
X157636203Y-95449442D01*
X157636207Y-95449443D01*
X157694942Y-95450519D01*
X157756255Y-95451643D01*
X157857031Y-95424168D01*
X157872092Y-95420062D01*
X157872093Y-95420062D01*
X157880755Y-95417700D01*
X157888405Y-95413003D01*
X157888407Y-95413002D01*
X157983072Y-95354878D01*
X157983075Y-95354875D01*
X157990724Y-95350179D01*
X157996750Y-95343522D01*
X158071300Y-95261161D01*
X158071303Y-95261157D01*
X158077322Y-95254507D01*
X158133588Y-95138375D01*
X158136866Y-95118895D01*
X158154190Y-95015917D01*
X158154997Y-95011120D01*
X158155133Y-95000000D01*
X158143936Y-94921812D01*
X158138112Y-94881145D01*
X158138111Y-94881142D01*
X158136839Y-94872259D01*
X158133125Y-94864090D01*
X158087145Y-94762962D01*
X158087143Y-94762959D01*
X158083428Y-94754788D01*
X158015199Y-94675604D01*
X158005051Y-94663826D01*
X158005049Y-94663824D01*
X157999193Y-94657028D01*
X157890906Y-94586841D01*
X157882311Y-94584271D01*
X157882310Y-94584270D01*
X157775874Y-94552438D01*
X157775872Y-94552438D01*
X157767273Y-94549866D01*
X157758298Y-94549811D01*
X157758297Y-94549811D01*
X157703641Y-94549477D01*
X157638231Y-94549078D01*
X157626475Y-94552438D01*
X157522786Y-94582072D01*
X157522784Y-94582073D01*
X157514155Y-94584539D01*
X157405019Y-94653399D01*
X157399076Y-94660128D01*
X157399075Y-94660129D01*
X157360937Y-94703312D01*
X157319596Y-94750122D01*
X157315782Y-94758245D01*
X157315781Y-94758247D01*
X157311796Y-94766735D01*
X157264754Y-94866932D01*
X157257251Y-94915121D01*
X157246282Y-94985567D01*
X157246282Y-94985571D01*
X157244901Y-94994440D01*
X154854337Y-94994440D01*
X154843936Y-94921812D01*
X154838112Y-94881145D01*
X154838111Y-94881142D01*
X154836839Y-94872259D01*
X154833125Y-94864090D01*
X154787145Y-94762962D01*
X154787143Y-94762959D01*
X154783428Y-94754788D01*
X154715199Y-94675604D01*
X154705051Y-94663826D01*
X154705049Y-94663824D01*
X154699193Y-94657028D01*
X154675751Y-94641834D01*
X154619537Y-94605398D01*
X154573252Y-94551562D01*
X154563421Y-94481250D01*
X154593164Y-94416784D01*
X154622139Y-94392290D01*
X154690724Y-94350179D01*
X154697473Y-94342723D01*
X154771300Y-94261161D01*
X154771303Y-94261157D01*
X154777322Y-94254507D01*
X154833588Y-94138375D01*
X154854997Y-94011120D01*
X154855133Y-94000000D01*
X154845759Y-93934546D01*
X154838112Y-93881145D01*
X154838111Y-93881142D01*
X154836839Y-93872259D01*
X154829737Y-93856639D01*
X154787145Y-93762962D01*
X154787143Y-93762959D01*
X154783428Y-93754788D01*
X154708343Y-93667647D01*
X154705051Y-93663826D01*
X154705049Y-93663824D01*
X154699193Y-93657028D01*
X154590906Y-93586841D01*
X154582311Y-93584271D01*
X154582310Y-93584270D01*
X154475874Y-93552438D01*
X154475872Y-93552438D01*
X154467273Y-93549866D01*
X154458298Y-93549811D01*
X154458297Y-93549811D01*
X154403641Y-93549477D01*
X154338231Y-93549078D01*
X154296286Y-93561066D01*
X154222786Y-93582072D01*
X154222784Y-93582073D01*
X154214155Y-93584539D01*
X154105019Y-93653399D01*
X154099076Y-93660128D01*
X154099075Y-93660129D01*
X154057594Y-93707097D01*
X154019596Y-93750122D01*
X154015782Y-93758245D01*
X154015781Y-93758247D01*
X154004512Y-93782250D01*
X153964754Y-93866932D01*
X153963374Y-93875798D01*
X153946282Y-93985567D01*
X153946282Y-93985571D01*
X153944901Y-93994440D01*
X153946065Y-94003342D01*
X153946065Y-94003345D01*
X153960468Y-94113489D01*
X153960469Y-94113493D01*
X153961633Y-94122394D01*
X153972218Y-94146450D01*
X153996934Y-94202621D01*
X154013605Y-94240510D01*
X154019382Y-94247383D01*
X154019383Y-94247384D01*
X154030964Y-94261161D01*
X154096639Y-94339291D01*
X154181149Y-94395545D01*
X154226771Y-94449942D01*
X154235743Y-94520369D01*
X154205214Y-94584467D01*
X154178566Y-94606994D01*
X154105019Y-94653399D01*
X154099076Y-94660128D01*
X154099075Y-94660129D01*
X154060937Y-94703312D01*
X154019596Y-94750122D01*
X154015782Y-94758245D01*
X154015781Y-94758247D01*
X154011796Y-94766735D01*
X153964754Y-94866932D01*
X153957251Y-94915121D01*
X153946282Y-94985567D01*
X153946282Y-94985571D01*
X153944901Y-94994440D01*
X151997119Y-94994440D01*
X151997361Y-94994125D01*
X152052830Y-94860209D01*
X152071750Y-94716500D01*
X152052830Y-94572791D01*
X151997361Y-94438875D01*
X151943038Y-94368080D01*
X151917437Y-94301860D01*
X151917000Y-94291376D01*
X151917000Y-93253427D01*
X151937002Y-93185306D01*
X151990658Y-93138813D01*
X152060932Y-93128709D01*
X152119702Y-93153463D01*
X152142375Y-93170861D01*
X152276291Y-93226330D01*
X152420000Y-93245250D01*
X152563709Y-93226330D01*
X152697625Y-93170861D01*
X152812621Y-93082621D01*
X152900861Y-92967625D01*
X152956330Y-92833709D01*
X152975250Y-92690000D01*
X152956330Y-92546291D01*
X152900861Y-92412375D01*
X152812621Y-92297379D01*
X152697625Y-92209139D01*
X152563709Y-92153670D01*
X152420000Y-92134750D01*
X152276291Y-92153670D01*
X152142375Y-92209139D01*
X152119702Y-92226537D01*
X152053483Y-92252136D01*
X151983935Y-92237871D01*
X151933139Y-92188270D01*
X151917000Y-92126573D01*
X151917000Y-90524820D01*
X153944500Y-90524820D01*
X153953233Y-90568722D01*
X153960127Y-90579040D01*
X153960128Y-90579042D01*
X153979601Y-90608185D01*
X153986496Y-90618504D01*
X153996815Y-90625399D01*
X154025958Y-90644872D01*
X154025960Y-90644873D01*
X154036278Y-90651767D01*
X154080180Y-90660500D01*
X155809820Y-90660500D01*
X155853722Y-90651767D01*
X155864040Y-90644873D01*
X155864042Y-90644872D01*
X155893185Y-90625399D01*
X155903504Y-90618504D01*
X155910399Y-90608185D01*
X155929872Y-90579042D01*
X155929873Y-90579040D01*
X155936767Y-90568722D01*
X155945500Y-90524820D01*
X155945500Y-89645963D01*
X156479757Y-89645963D01*
X156496175Y-89841483D01*
X156550258Y-90030091D01*
X156553076Y-90035574D01*
X156637123Y-90199113D01*
X156637126Y-90199117D01*
X156639944Y-90204601D01*
X156761818Y-90358369D01*
X156766511Y-90362363D01*
X156766512Y-90362364D01*
X156903723Y-90479139D01*
X156911238Y-90485535D01*
X156916616Y-90488541D01*
X156916618Y-90488542D01*
X156980364Y-90524168D01*
X157082513Y-90581257D01*
X157269118Y-90641889D01*
X157463946Y-90665121D01*
X157470081Y-90664649D01*
X157470083Y-90664649D01*
X157653434Y-90650541D01*
X157653438Y-90650540D01*
X157659576Y-90650068D01*
X157848556Y-90597303D01*
X158023689Y-90508837D01*
X158053515Y-90485535D01*
X158147985Y-90411727D01*
X158178303Y-90388040D01*
X158183115Y-90382466D01*
X158302485Y-90244173D01*
X158302485Y-90244172D01*
X158306509Y-90239511D01*
X158403425Y-90068909D01*
X158465358Y-89882732D01*
X158489949Y-89688071D01*
X158490341Y-89660000D01*
X158471194Y-89464728D01*
X158469413Y-89458829D01*
X158469412Y-89458824D01*
X158416265Y-89282793D01*
X158414484Y-89276894D01*
X158322370Y-89103653D01*
X158198361Y-88951602D01*
X158047180Y-88826535D01*
X157874585Y-88733213D01*
X157772124Y-88701496D01*
X157693039Y-88677015D01*
X157693036Y-88677014D01*
X157687152Y-88675193D01*
X157681027Y-88674549D01*
X157681026Y-88674549D01*
X157498147Y-88655327D01*
X157498146Y-88655327D01*
X157492019Y-88654683D01*
X157369733Y-88665812D01*
X157302759Y-88671907D01*
X157302758Y-88671907D01*
X157296618Y-88672466D01*
X157290704Y-88674207D01*
X157290702Y-88674207D01*
X157162922Y-88711815D01*
X157108393Y-88727864D01*
X157102928Y-88730721D01*
X156939972Y-88815912D01*
X156939968Y-88815915D01*
X156934512Y-88818767D01*
X156929712Y-88822627D01*
X156929711Y-88822627D01*
X156907081Y-88840822D01*
X156781600Y-88941711D01*
X156655480Y-89092016D01*
X156652516Y-89097408D01*
X156652513Y-89097412D01*
X156602648Y-89188116D01*
X156560956Y-89263954D01*
X156559095Y-89269821D01*
X156559094Y-89269823D01*
X156550013Y-89298450D01*
X156501628Y-89450978D01*
X156479757Y-89645963D01*
X155945500Y-89645963D01*
X155945500Y-88795180D01*
X155936767Y-88751278D01*
X155929873Y-88740960D01*
X155929872Y-88740958D01*
X155910399Y-88711815D01*
X155903504Y-88701496D01*
X155893185Y-88694601D01*
X155864042Y-88675128D01*
X155864040Y-88675127D01*
X155853722Y-88668233D01*
X155809820Y-88659500D01*
X154080180Y-88659500D01*
X154036278Y-88668233D01*
X154025960Y-88675127D01*
X154025958Y-88675128D01*
X153996815Y-88694601D01*
X153986496Y-88701496D01*
X153979601Y-88711815D01*
X153960128Y-88740958D01*
X153960127Y-88740960D01*
X153953233Y-88751278D01*
X153944500Y-88795180D01*
X153944500Y-90524820D01*
X151917000Y-90524820D01*
X151917000Y-89563067D01*
X151913936Y-89553636D01*
X151913935Y-89553632D01*
X151910203Y-89542147D01*
X151905587Y-89522922D01*
X151903697Y-89510988D01*
X151903697Y-89510987D01*
X151902146Y-89501196D01*
X151897645Y-89492363D01*
X151897644Y-89492359D01*
X151892159Y-89481594D01*
X151884593Y-89463330D01*
X151882234Y-89456068D01*
X151877796Y-89442410D01*
X151871967Y-89434388D01*
X151871966Y-89434385D01*
X151864868Y-89424616D01*
X151854538Y-89407759D01*
X151849052Y-89396993D01*
X151849051Y-89396992D01*
X151844550Y-89388158D01*
X151754842Y-89298450D01*
X150265488Y-87809095D01*
X150231462Y-87746783D01*
X150236527Y-87675968D01*
X150265488Y-87630905D01*
X150968988Y-86927405D01*
X151031300Y-86893379D01*
X151058083Y-86890500D01*
X157871917Y-86890500D01*
X157940038Y-86910502D01*
X157961012Y-86927405D01*
X160552595Y-89518987D01*
X160586620Y-89581299D01*
X160589500Y-89608082D01*
X160589500Y-94072460D01*
X160569498Y-94140581D01*
X160511718Y-94188869D01*
X160410875Y-94230639D01*
X160295879Y-94318879D01*
X160207639Y-94433875D01*
X160152170Y-94567791D01*
X160133250Y-94711500D01*
X160152170Y-94855209D01*
X160207639Y-94989125D01*
X160295879Y-95104121D01*
X160410875Y-95192361D01*
X160544791Y-95247830D01*
X160688500Y-95266750D01*
X160832209Y-95247830D01*
X160966125Y-95192361D01*
X161081121Y-95104121D01*
X161169361Y-94989125D01*
X161224830Y-94855209D01*
X161236478Y-94766734D01*
X161265201Y-94701808D01*
X161272305Y-94694087D01*
X161318050Y-94648342D01*
X161322552Y-94639507D01*
X161328038Y-94628741D01*
X161338368Y-94611884D01*
X161341276Y-94607881D01*
X161351296Y-94594090D01*
X161358094Y-94573168D01*
X161365658Y-94554907D01*
X161371145Y-94544139D01*
X161371146Y-94544135D01*
X161375646Y-94535304D01*
X161377197Y-94525515D01*
X161377199Y-94525507D01*
X161379089Y-94513573D01*
X161383703Y-94494353D01*
X161387435Y-94482867D01*
X161387436Y-94482860D01*
X161390499Y-94473433D01*
X161390499Y-94441525D01*
X161390500Y-94441519D01*
X161390500Y-94350000D01*
X162604750Y-94350000D01*
X162623670Y-94493709D01*
X162679139Y-94627625D01*
X162767379Y-94742621D01*
X162882375Y-94830861D01*
X163016291Y-94886330D01*
X163160000Y-94905250D01*
X163303709Y-94886330D01*
X163437625Y-94830861D01*
X163552621Y-94742621D01*
X163640861Y-94627625D01*
X163696330Y-94493709D01*
X163715250Y-94350000D01*
X163696330Y-94206291D01*
X163640861Y-94072375D01*
X163552621Y-93957379D01*
X163437625Y-93869139D01*
X163303709Y-93813670D01*
X163160000Y-93794750D01*
X163016291Y-93813670D01*
X162882375Y-93869139D01*
X162767379Y-93957379D01*
X162679139Y-94072375D01*
X162623670Y-94206291D01*
X162604750Y-94350000D01*
X161390500Y-94350000D01*
X161390500Y-93270000D01*
X161704750Y-93270000D01*
X161723670Y-93413709D01*
X161779139Y-93547625D01*
X161867379Y-93662621D01*
X161982375Y-93750861D01*
X162116291Y-93806330D01*
X162260000Y-93825250D01*
X162403709Y-93806330D01*
X162537625Y-93750861D01*
X162652621Y-93662621D01*
X162740861Y-93547625D01*
X162796330Y-93413709D01*
X162815250Y-93270000D01*
X162796330Y-93126291D01*
X162740861Y-92992375D01*
X162652621Y-92877379D01*
X162537625Y-92789139D01*
X162403709Y-92733670D01*
X162260000Y-92714750D01*
X162116291Y-92733670D01*
X161982375Y-92789139D01*
X161867379Y-92877379D01*
X161779139Y-92992375D01*
X161723670Y-93126291D01*
X161704750Y-93270000D01*
X161390500Y-93270000D01*
X161390500Y-91000000D01*
X169694750Y-91000000D01*
X169713670Y-91143709D01*
X169769139Y-91277625D01*
X169857379Y-91392621D01*
X169972375Y-91480861D01*
X170106291Y-91536330D01*
X170250000Y-91555250D01*
X170393709Y-91536330D01*
X170527625Y-91480861D01*
X170642621Y-91392621D01*
X170730861Y-91277625D01*
X170786330Y-91143709D01*
X170805250Y-91000000D01*
X170786330Y-90856291D01*
X170730861Y-90722375D01*
X170642621Y-90607379D01*
X170527625Y-90519139D01*
X170393709Y-90463670D01*
X170250000Y-90444750D01*
X170106291Y-90463670D01*
X169972375Y-90519139D01*
X169857379Y-90607379D01*
X169769139Y-90722375D01*
X169713670Y-90856291D01*
X169694750Y-91000000D01*
X161390500Y-91000000D01*
X161390500Y-89358481D01*
X161390499Y-89358475D01*
X161390499Y-89326567D01*
X161387436Y-89317140D01*
X161387435Y-89317133D01*
X161383703Y-89305647D01*
X161379089Y-89286427D01*
X161377199Y-89274493D01*
X161377197Y-89274485D01*
X161375646Y-89264696D01*
X161371146Y-89255865D01*
X161371145Y-89255861D01*
X161365658Y-89245093D01*
X161358094Y-89226832D01*
X161351296Y-89205910D01*
X161338368Y-89188116D01*
X161328038Y-89171259D01*
X161322552Y-89160493D01*
X161322551Y-89160492D01*
X161318050Y-89151658D01*
X161228342Y-89061950D01*
X160160832Y-87994440D01*
X169294901Y-87994440D01*
X169296065Y-88003342D01*
X169296065Y-88003345D01*
X169310468Y-88113489D01*
X169310469Y-88113493D01*
X169311633Y-88122394D01*
X169363605Y-88240510D01*
X169369382Y-88247383D01*
X169369383Y-88247384D01*
X169440859Y-88332415D01*
X169446639Y-88339291D01*
X169554060Y-88410796D01*
X169677233Y-88449278D01*
X169686203Y-88449442D01*
X169686207Y-88449443D01*
X169744942Y-88450519D01*
X169806255Y-88451643D01*
X169868505Y-88434671D01*
X169922092Y-88420062D01*
X169922093Y-88420062D01*
X169930755Y-88417700D01*
X169938405Y-88413003D01*
X169938407Y-88413002D01*
X170033072Y-88354878D01*
X170033075Y-88354875D01*
X170040724Y-88350179D01*
X170049934Y-88340004D01*
X170121300Y-88261161D01*
X170121303Y-88261157D01*
X170127322Y-88254507D01*
X170183588Y-88138375D01*
X170185674Y-88125979D01*
X170204190Y-88015917D01*
X170204997Y-88011120D01*
X170205133Y-88000000D01*
X170186839Y-87872259D01*
X170133428Y-87754788D01*
X170049193Y-87657028D01*
X169940906Y-87586841D01*
X169932311Y-87584271D01*
X169932310Y-87584270D01*
X169825874Y-87552438D01*
X169825872Y-87552438D01*
X169817273Y-87549866D01*
X169808298Y-87549811D01*
X169808297Y-87549811D01*
X169753641Y-87549477D01*
X169688231Y-87549078D01*
X169676475Y-87552438D01*
X169572786Y-87582072D01*
X169572784Y-87582073D01*
X169564155Y-87584539D01*
X169455019Y-87653399D01*
X169449076Y-87660128D01*
X169449075Y-87660129D01*
X169396199Y-87720000D01*
X169369596Y-87750122D01*
X169365782Y-87758245D01*
X169365781Y-87758247D01*
X169341908Y-87809095D01*
X169314754Y-87866932D01*
X169313374Y-87875798D01*
X169296282Y-87985567D01*
X169296282Y-87985571D01*
X169294901Y-87994440D01*
X160160832Y-87994440D01*
X158350909Y-86184516D01*
X158350905Y-86184513D01*
X158328342Y-86161950D01*
X158308746Y-86151965D01*
X158291893Y-86141639D01*
X158274090Y-86128704D01*
X158253166Y-86121905D01*
X158234906Y-86114341D01*
X158224141Y-86108856D01*
X158224137Y-86108855D01*
X158215304Y-86104354D01*
X158205513Y-86102803D01*
X158205512Y-86102803D01*
X158193578Y-86100913D01*
X158174353Y-86096297D01*
X158162868Y-86092565D01*
X158162864Y-86092564D01*
X158153433Y-86089500D01*
X150776567Y-86089500D01*
X150767136Y-86092564D01*
X150767132Y-86092565D01*
X150755647Y-86096297D01*
X150736422Y-86100913D01*
X150724488Y-86102803D01*
X150724487Y-86102803D01*
X150714696Y-86104354D01*
X150705863Y-86108855D01*
X150705859Y-86108856D01*
X150695092Y-86114342D01*
X150676832Y-86121906D01*
X150655911Y-86128704D01*
X150647888Y-86134533D01*
X150638113Y-86141635D01*
X150621258Y-86151963D01*
X150610499Y-86157445D01*
X150610497Y-86157446D01*
X150601658Y-86161950D01*
X150579095Y-86184513D01*
X150579091Y-86184516D01*
X149481012Y-87282595D01*
X149418700Y-87316621D01*
X149391917Y-87319500D01*
X144186567Y-87319500D01*
X144177136Y-87322564D01*
X144177132Y-87322565D01*
X144165647Y-87326297D01*
X144146422Y-87330913D01*
X144134488Y-87332803D01*
X144134487Y-87332803D01*
X144124696Y-87334354D01*
X144115863Y-87338855D01*
X144115859Y-87338856D01*
X144105094Y-87344341D01*
X144086834Y-87351905D01*
X144065910Y-87358704D01*
X144048107Y-87371639D01*
X144031254Y-87381965D01*
X144011658Y-87391950D01*
X143989095Y-87414513D01*
X143989091Y-87414516D01*
X142834516Y-88569091D01*
X142834513Y-88569095D01*
X142811950Y-88591658D01*
X142807446Y-88600498D01*
X142801965Y-88611255D01*
X142791639Y-88628107D01*
X142778704Y-88645910D01*
X142771907Y-88666830D01*
X142764341Y-88685094D01*
X142758856Y-88695859D01*
X142758855Y-88695863D01*
X142754354Y-88704696D01*
X142752803Y-88714487D01*
X142752803Y-88714488D01*
X142750913Y-88726422D01*
X142746297Y-88745647D01*
X142742565Y-88757132D01*
X142742564Y-88757136D01*
X142739500Y-88766567D01*
X142739500Y-100351917D01*
X142719498Y-100420038D01*
X142702595Y-100441012D01*
X139917094Y-103226513D01*
X139854782Y-103260539D01*
X139783967Y-103255474D01*
X139727131Y-103212927D01*
X139702320Y-103146407D01*
X139703077Y-103120971D01*
X139708159Y-103082375D01*
X139712750Y-103047500D01*
X139693830Y-102903791D01*
X139638361Y-102769875D01*
X139550121Y-102654879D01*
X139435125Y-102566639D01*
X139301209Y-102511170D01*
X139157500Y-102492250D01*
X139013791Y-102511170D01*
X138879875Y-102566639D01*
X138764879Y-102654879D01*
X138676639Y-102769875D01*
X138621170Y-102903791D01*
X138602250Y-103047500D01*
X138621170Y-103191209D01*
X138676639Y-103325125D01*
X138764879Y-103440121D01*
X138879875Y-103528361D01*
X139013791Y-103583830D01*
X139157500Y-103602750D01*
X139230972Y-103593077D01*
X139301120Y-103604016D01*
X139354219Y-103651144D01*
X139373409Y-103719498D01*
X139352598Y-103787376D01*
X139336513Y-103807094D01*
X134095005Y-109048602D01*
X134095002Y-109048606D01*
X134072439Y-109071169D01*
X134067935Y-109080009D01*
X134062454Y-109090766D01*
X134052128Y-109107618D01*
X134039193Y-109125421D01*
X134032396Y-109146341D01*
X134024830Y-109164605D01*
X134019345Y-109175370D01*
X134019344Y-109175374D01*
X134014843Y-109184207D01*
X134013292Y-109193998D01*
X134013292Y-109193999D01*
X134011402Y-109205933D01*
X134006786Y-109225158D01*
X134003054Y-109236643D01*
X134003053Y-109236647D01*
X133999989Y-109246078D01*
X133999989Y-115403922D01*
X134003053Y-115413353D01*
X134003054Y-115413357D01*
X134006786Y-115424842D01*
X134011402Y-115444067D01*
X134014843Y-115465793D01*
X134019344Y-115474626D01*
X134019345Y-115474630D01*
X134024830Y-115485395D01*
X134032394Y-115503655D01*
X134039193Y-115524579D01*
X134052128Y-115542382D01*
X134062454Y-115559234D01*
X134072439Y-115578831D01*
X134095002Y-115601394D01*
X134095005Y-115601398D01*
X134270359Y-115776752D01*
X134304385Y-115839064D01*
X134306186Y-115882292D01*
X134304758Y-115893138D01*
X134322035Y-116049633D01*
X134376143Y-116197490D01*
X134380380Y-116203796D01*
X134380382Y-116203799D01*
X134420709Y-116263811D01*
X134463958Y-116328172D01*
X134580410Y-116434135D01*
X134587081Y-116437757D01*
X134587085Y-116437760D01*
X134706817Y-116502769D01*
X134757139Y-116552852D01*
X134772395Y-116622190D01*
X134747742Y-116688769D01*
X134691008Y-116731451D01*
X134646695Y-116739500D01*
X132451248Y-116739500D01*
X132383127Y-116719498D01*
X132336634Y-116665842D01*
X132326531Y-116618188D01*
X132325461Y-116618247D01*
X132325235Y-116614134D01*
X132325278Y-116610000D01*
X132306363Y-116453694D01*
X132262411Y-116337377D01*
X132253394Y-116313514D01*
X132253393Y-116313511D01*
X132250710Y-116306412D01*
X132161531Y-116176657D01*
X132114971Y-116135174D01*
X132049648Y-116076972D01*
X132049645Y-116076970D01*
X132043976Y-116071919D01*
X132025379Y-116062072D01*
X131911543Y-116001799D01*
X131911544Y-116001799D01*
X131904831Y-115998245D01*
X131888122Y-115994048D01*
X131759498Y-115961740D01*
X131759496Y-115961740D01*
X131752128Y-115959889D01*
X131744530Y-115959849D01*
X131744528Y-115959849D01*
X131677319Y-115959497D01*
X131594684Y-115959065D01*
X131587305Y-115960837D01*
X131587301Y-115960837D01*
X131448967Y-115994048D01*
X131448963Y-115994049D01*
X131441588Y-115995820D01*
X131434843Y-115999301D01*
X131434844Y-115999301D01*
X131323509Y-116056765D01*
X131301679Y-116068032D01*
X131295957Y-116073024D01*
X131295955Y-116073025D01*
X131188759Y-116166538D01*
X131188756Y-116166541D01*
X131183034Y-116171533D01*
X131092501Y-116300348D01*
X131035309Y-116447039D01*
X131034318Y-116454568D01*
X131015755Y-116595568D01*
X131014758Y-116603138D01*
X111815270Y-116603138D01*
X109618095Y-114405963D01*
X117524757Y-114405963D01*
X117541175Y-114601483D01*
X117595258Y-114790091D01*
X117598076Y-114795574D01*
X117682123Y-114959113D01*
X117682126Y-114959117D01*
X117684944Y-114964601D01*
X117806818Y-115118369D01*
X117956238Y-115245535D01*
X117961616Y-115248541D01*
X117961618Y-115248542D01*
X117994309Y-115266812D01*
X118127513Y-115341257D01*
X118314118Y-115401889D01*
X118508946Y-115425121D01*
X118515081Y-115424649D01*
X118515083Y-115424649D01*
X118698434Y-115410541D01*
X118698438Y-115410540D01*
X118704576Y-115410068D01*
X118893556Y-115357303D01*
X119068689Y-115268837D01*
X119092942Y-115249889D01*
X119145996Y-115208439D01*
X119223303Y-115148040D01*
X119253084Y-115113539D01*
X119347485Y-115004173D01*
X119347485Y-115004172D01*
X119351509Y-114999511D01*
X119368552Y-114969511D01*
X119415841Y-114886267D01*
X119448425Y-114828909D01*
X119510358Y-114642732D01*
X119534949Y-114448071D01*
X119535341Y-114420000D01*
X119516194Y-114224728D01*
X119514413Y-114218829D01*
X119514412Y-114218824D01*
X119461265Y-114042793D01*
X119459484Y-114036894D01*
X119367370Y-113863653D01*
X119243361Y-113711602D01*
X119092180Y-113586535D01*
X118919585Y-113493213D01*
X118814620Y-113460721D01*
X118738039Y-113437015D01*
X118738036Y-113437014D01*
X118732152Y-113435193D01*
X118726027Y-113434549D01*
X118726026Y-113434549D01*
X118543147Y-113415327D01*
X118543146Y-113415327D01*
X118537019Y-113414683D01*
X118414383Y-113425844D01*
X118347759Y-113431907D01*
X118347758Y-113431907D01*
X118341618Y-113432466D01*
X118335704Y-113434207D01*
X118335702Y-113434207D01*
X118237149Y-113463213D01*
X118153393Y-113487864D01*
X118147928Y-113490721D01*
X117984972Y-113575912D01*
X117984968Y-113575915D01*
X117979512Y-113578767D01*
X117974712Y-113582627D01*
X117974711Y-113582627D01*
X117940326Y-113610273D01*
X117826600Y-113701711D01*
X117700480Y-113852016D01*
X117697516Y-113857408D01*
X117697513Y-113857412D01*
X117654241Y-113936124D01*
X117605956Y-114023954D01*
X117546628Y-114210978D01*
X117524757Y-114405963D01*
X109618095Y-114405963D01*
X107078095Y-111865963D01*
X117524757Y-111865963D01*
X117541175Y-112061483D01*
X117595258Y-112250091D01*
X117598076Y-112255574D01*
X117682123Y-112419113D01*
X117682126Y-112419117D01*
X117684944Y-112424601D01*
X117806818Y-112578369D01*
X117956238Y-112705535D01*
X117961616Y-112708541D01*
X117961618Y-112708542D01*
X117997932Y-112728837D01*
X118127513Y-112801257D01*
X118314118Y-112861889D01*
X118508946Y-112885121D01*
X118515081Y-112884649D01*
X118515083Y-112884649D01*
X118698434Y-112870541D01*
X118698438Y-112870540D01*
X118704576Y-112870068D01*
X118893556Y-112817303D01*
X119037347Y-112744669D01*
X128052001Y-112744669D01*
X128052371Y-112751490D01*
X128057895Y-112802352D01*
X128061521Y-112817604D01*
X128106676Y-112938054D01*
X128115214Y-112953649D01*
X128191715Y-113055724D01*
X128204276Y-113068285D01*
X128306351Y-113144786D01*
X128321946Y-113153324D01*
X128442394Y-113198478D01*
X128457649Y-113202105D01*
X128508514Y-113207631D01*
X128515328Y-113208000D01*
X129007981Y-113208000D01*
X129076102Y-113228002D01*
X129122595Y-113281658D01*
X129132699Y-113351932D01*
X129103205Y-113416512D01*
X129043557Y-113454872D01*
X129033393Y-113457864D01*
X129027928Y-113460721D01*
X128864972Y-113545912D01*
X128864968Y-113545915D01*
X128859512Y-113548767D01*
X128854712Y-113552627D01*
X128854711Y-113552627D01*
X128825750Y-113575912D01*
X128706600Y-113671711D01*
X128580480Y-113822016D01*
X128577516Y-113827408D01*
X128577513Y-113827412D01*
X128554593Y-113869104D01*
X128485956Y-113993954D01*
X128484095Y-113999821D01*
X128484094Y-113999823D01*
X128470463Y-114042793D01*
X128426628Y-114180978D01*
X128404757Y-114375963D01*
X128421175Y-114571483D01*
X128475258Y-114760091D01*
X128478076Y-114765574D01*
X128562123Y-114929113D01*
X128562126Y-114929117D01*
X128564944Y-114934601D01*
X128686818Y-115088369D01*
X128691511Y-115092363D01*
X128691512Y-115092364D01*
X128788135Y-115174596D01*
X128836238Y-115215535D01*
X128841616Y-115218541D01*
X128841618Y-115218542D01*
X128877932Y-115238837D01*
X129007513Y-115311257D01*
X129194118Y-115371889D01*
X129388946Y-115395121D01*
X129395081Y-115394649D01*
X129395083Y-115394649D01*
X129578434Y-115380541D01*
X129578438Y-115380540D01*
X129584576Y-115380068D01*
X129773556Y-115327303D01*
X129948689Y-115238837D01*
X129961370Y-115228930D01*
X130063434Y-115149189D01*
X130103303Y-115118040D01*
X130133084Y-115083539D01*
X130227485Y-114974173D01*
X130227485Y-114974172D01*
X130231509Y-114969511D01*
X130328425Y-114798909D01*
X130390358Y-114612732D01*
X130414949Y-114418071D01*
X130415341Y-114390000D01*
X130413965Y-114375963D01*
X130944757Y-114375963D01*
X130961175Y-114571483D01*
X131015258Y-114760091D01*
X131018076Y-114765574D01*
X131102123Y-114929113D01*
X131102126Y-114929117D01*
X131104944Y-114934601D01*
X131226818Y-115088369D01*
X131231511Y-115092363D01*
X131231512Y-115092364D01*
X131328135Y-115174596D01*
X131376238Y-115215535D01*
X131381616Y-115218541D01*
X131381618Y-115218542D01*
X131417932Y-115238837D01*
X131547513Y-115311257D01*
X131734118Y-115371889D01*
X131928946Y-115395121D01*
X131935081Y-115394649D01*
X131935083Y-115394649D01*
X132118434Y-115380541D01*
X132118438Y-115380540D01*
X132124576Y-115380068D01*
X132313556Y-115327303D01*
X132488689Y-115238837D01*
X132501370Y-115228930D01*
X132603434Y-115149189D01*
X132643303Y-115118040D01*
X132673084Y-115083539D01*
X132767485Y-114974173D01*
X132767485Y-114974172D01*
X132771509Y-114969511D01*
X132868425Y-114798909D01*
X132930358Y-114612732D01*
X132954949Y-114418071D01*
X132955341Y-114390000D01*
X132936194Y-114194728D01*
X132934413Y-114188829D01*
X132934412Y-114188824D01*
X132881265Y-114012793D01*
X132879484Y-114006894D01*
X132787370Y-113833653D01*
X132663361Y-113681602D01*
X132512180Y-113556535D01*
X132339585Y-113463213D01*
X132238451Y-113431907D01*
X132158039Y-113407015D01*
X132158036Y-113407014D01*
X132152152Y-113405193D01*
X132146027Y-113404549D01*
X132146026Y-113404549D01*
X131963147Y-113385327D01*
X131963146Y-113385327D01*
X131957019Y-113384683D01*
X131834383Y-113395844D01*
X131767759Y-113401907D01*
X131767758Y-113401907D01*
X131761618Y-113402466D01*
X131755704Y-113404207D01*
X131755702Y-113404207D01*
X131718209Y-113415242D01*
X131573393Y-113457864D01*
X131567928Y-113460721D01*
X131404972Y-113545912D01*
X131404968Y-113545915D01*
X131399512Y-113548767D01*
X131394712Y-113552627D01*
X131394711Y-113552627D01*
X131365750Y-113575912D01*
X131246600Y-113671711D01*
X131120480Y-113822016D01*
X131117516Y-113827408D01*
X131117513Y-113827412D01*
X131094593Y-113869104D01*
X131025956Y-113993954D01*
X131024095Y-113999821D01*
X131024094Y-113999823D01*
X131010463Y-114042793D01*
X130966628Y-114180978D01*
X130944757Y-114375963D01*
X130413965Y-114375963D01*
X130396194Y-114194728D01*
X130394413Y-114188829D01*
X130394412Y-114188824D01*
X130341265Y-114012793D01*
X130339484Y-114006894D01*
X130247370Y-113833653D01*
X130123361Y-113681602D01*
X129972180Y-113556535D01*
X129799585Y-113463213D01*
X129770998Y-113454364D01*
X129711839Y-113415112D01*
X129683292Y-113350108D01*
X129694421Y-113279989D01*
X129741692Y-113227018D01*
X129808258Y-113207999D01*
X130304669Y-113207999D01*
X130311490Y-113207629D01*
X130362352Y-113202105D01*
X130377604Y-113198479D01*
X130498054Y-113153324D01*
X130513649Y-113144786D01*
X130615724Y-113068285D01*
X130628285Y-113055724D01*
X130704786Y-112953649D01*
X130713324Y-112938054D01*
X130758478Y-112817606D01*
X130762105Y-112802351D01*
X130767631Y-112751486D01*
X130768000Y-112744672D01*
X130768000Y-112254336D01*
X130788002Y-112186215D01*
X130841658Y-112139722D01*
X130911932Y-112129618D01*
X130976512Y-112159112D01*
X131008636Y-112209485D01*
X131011289Y-112208434D01*
X131013560Y-112214169D01*
X131015258Y-112220091D01*
X131018076Y-112225574D01*
X131102123Y-112389113D01*
X131102126Y-112389117D01*
X131104944Y-112394601D01*
X131226818Y-112548369D01*
X131376238Y-112675535D01*
X131381616Y-112678541D01*
X131381618Y-112678542D01*
X131429917Y-112705535D01*
X131547513Y-112771257D01*
X131734118Y-112831889D01*
X131928946Y-112855121D01*
X131935081Y-112854649D01*
X131935083Y-112854649D01*
X132118434Y-112840541D01*
X132118438Y-112840540D01*
X132124576Y-112840068D01*
X132313556Y-112787303D01*
X132488689Y-112698837D01*
X132518515Y-112675535D01*
X132600055Y-112611829D01*
X132643303Y-112578040D01*
X132673084Y-112543539D01*
X132767485Y-112434173D01*
X132767485Y-112434172D01*
X132771509Y-112429511D01*
X132868425Y-112258909D01*
X132930358Y-112072732D01*
X132954949Y-111878071D01*
X132955341Y-111850000D01*
X132936194Y-111654728D01*
X132934413Y-111648829D01*
X132934412Y-111648824D01*
X132881265Y-111472793D01*
X132879484Y-111466894D01*
X132787370Y-111293653D01*
X132663361Y-111141602D01*
X132512180Y-111016535D01*
X132339585Y-110923213D01*
X132237124Y-110891496D01*
X132158039Y-110867015D01*
X132158036Y-110867014D01*
X132152152Y-110865193D01*
X132146027Y-110864549D01*
X132146026Y-110864549D01*
X131963147Y-110845327D01*
X131963146Y-110845327D01*
X131957019Y-110844683D01*
X131842249Y-110855128D01*
X131767759Y-110861907D01*
X131767758Y-110861907D01*
X131761618Y-110862466D01*
X131755704Y-110864207D01*
X131755702Y-110864207D01*
X131681738Y-110885976D01*
X131573393Y-110917864D01*
X131567928Y-110920721D01*
X131404972Y-111005912D01*
X131404968Y-111005915D01*
X131399512Y-111008767D01*
X131394712Y-111012627D01*
X131394711Y-111012627D01*
X131365750Y-111035912D01*
X131246600Y-111131711D01*
X131120480Y-111282016D01*
X131117516Y-111287408D01*
X131117513Y-111287412D01*
X131046908Y-111415842D01*
X131025956Y-111453954D01*
X131024095Y-111459821D01*
X131024094Y-111459823D01*
X131014101Y-111491325D01*
X130974437Y-111550209D01*
X130909235Y-111578301D01*
X130839195Y-111566683D01*
X130786556Y-111519043D01*
X130767999Y-111453226D01*
X130767999Y-110955331D01*
X130767629Y-110948510D01*
X130762105Y-110897648D01*
X130758479Y-110882396D01*
X130713324Y-110761946D01*
X130704786Y-110746351D01*
X130628285Y-110644276D01*
X130615724Y-110631715D01*
X130513649Y-110555214D01*
X130498054Y-110546676D01*
X130377606Y-110501522D01*
X130362351Y-110497895D01*
X130311486Y-110492369D01*
X130304672Y-110492000D01*
X129682115Y-110492000D01*
X129666876Y-110496475D01*
X129665671Y-110497865D01*
X129664000Y-110505548D01*
X129664000Y-111978000D01*
X129643998Y-112046121D01*
X129590342Y-112092614D01*
X129538000Y-112104000D01*
X128070116Y-112104000D01*
X128054877Y-112108475D01*
X128053672Y-112109865D01*
X128052001Y-112117548D01*
X128052001Y-112744669D01*
X119037347Y-112744669D01*
X119068689Y-112728837D01*
X119098515Y-112705535D01*
X119218453Y-112611829D01*
X119223303Y-112608040D01*
X119253084Y-112573539D01*
X119347485Y-112464173D01*
X119347485Y-112464172D01*
X119351509Y-112459511D01*
X119368552Y-112429511D01*
X119445378Y-112294272D01*
X119448425Y-112288909D01*
X119510358Y-112102732D01*
X119534949Y-111908071D01*
X119535341Y-111880000D01*
X119516194Y-111684728D01*
X119514413Y-111678829D01*
X119514412Y-111678824D01*
X119483937Y-111577885D01*
X128052000Y-111577885D01*
X128056475Y-111593124D01*
X128057865Y-111594329D01*
X128065548Y-111596000D01*
X129137885Y-111596000D01*
X129153124Y-111591525D01*
X129154329Y-111590135D01*
X129156000Y-111582452D01*
X129156000Y-110510116D01*
X129151525Y-110494877D01*
X129150135Y-110493672D01*
X129142452Y-110492001D01*
X128515331Y-110492001D01*
X128508510Y-110492371D01*
X128457648Y-110497895D01*
X128442396Y-110501521D01*
X128321946Y-110546676D01*
X128306351Y-110555214D01*
X128204276Y-110631715D01*
X128191715Y-110644276D01*
X128115214Y-110746351D01*
X128106676Y-110761946D01*
X128061522Y-110882394D01*
X128057895Y-110897649D01*
X128052369Y-110948514D01*
X128052000Y-110955328D01*
X128052000Y-111577885D01*
X119483937Y-111577885D01*
X119461265Y-111502793D01*
X119459484Y-111496894D01*
X119367370Y-111323653D01*
X119243361Y-111171602D01*
X119092180Y-111046535D01*
X118919585Y-110953213D01*
X118807523Y-110918524D01*
X118738039Y-110897015D01*
X118738036Y-110897014D01*
X118732152Y-110895193D01*
X118726027Y-110894549D01*
X118726026Y-110894549D01*
X118543147Y-110875327D01*
X118543146Y-110875327D01*
X118537019Y-110874683D01*
X118414383Y-110885844D01*
X118347759Y-110891907D01*
X118347758Y-110891907D01*
X118341618Y-110892466D01*
X118335704Y-110894207D01*
X118335702Y-110894207D01*
X118253081Y-110918524D01*
X118153393Y-110947864D01*
X118147928Y-110950721D01*
X117984972Y-111035912D01*
X117984968Y-111035915D01*
X117979512Y-111038767D01*
X117974712Y-111042627D01*
X117974711Y-111042627D01*
X117963985Y-111051251D01*
X117826600Y-111161711D01*
X117700480Y-111312016D01*
X117697516Y-111317408D01*
X117697513Y-111317412D01*
X117672176Y-111363500D01*
X117605956Y-111483954D01*
X117604095Y-111489821D01*
X117604094Y-111489823D01*
X117579713Y-111566683D01*
X117546628Y-111670978D01*
X117524757Y-111865963D01*
X107078095Y-111865963D01*
X105416952Y-110204820D01*
X117529500Y-110204820D01*
X117538233Y-110248722D01*
X117545127Y-110259040D01*
X117545128Y-110259042D01*
X117555795Y-110275006D01*
X117571496Y-110298504D01*
X117581815Y-110305399D01*
X117610958Y-110324872D01*
X117610960Y-110324873D01*
X117621278Y-110331767D01*
X117665180Y-110340500D01*
X119394820Y-110340500D01*
X119438722Y-110331767D01*
X119449040Y-110324873D01*
X119449042Y-110324872D01*
X119478185Y-110305399D01*
X119488504Y-110298504D01*
X119504205Y-110275006D01*
X119514872Y-110259042D01*
X119514873Y-110259040D01*
X119521767Y-110248722D01*
X119530500Y-110204820D01*
X119530500Y-108475180D01*
X119521767Y-108431278D01*
X119514873Y-108420960D01*
X119514872Y-108420958D01*
X119495399Y-108391815D01*
X119488504Y-108381496D01*
X119478185Y-108374601D01*
X119449042Y-108355128D01*
X119449040Y-108355127D01*
X119438722Y-108348233D01*
X119394820Y-108339500D01*
X117665180Y-108339500D01*
X117621278Y-108348233D01*
X117610960Y-108355127D01*
X117610958Y-108355128D01*
X117581815Y-108374601D01*
X117571496Y-108381496D01*
X117564601Y-108391815D01*
X117545128Y-108420958D01*
X117545127Y-108420960D01*
X117538233Y-108431278D01*
X117529500Y-108475180D01*
X117529500Y-110204820D01*
X105416952Y-110204820D01*
X103774632Y-108562500D01*
X113022250Y-108562500D01*
X113041170Y-108706209D01*
X113096639Y-108840125D01*
X113184879Y-108955121D01*
X113299875Y-109043361D01*
X113433791Y-109098830D01*
X113577500Y-109117750D01*
X113721209Y-109098830D01*
X113855125Y-109043361D01*
X113970121Y-108955121D01*
X114058361Y-108840125D01*
X114113830Y-108706209D01*
X114132750Y-108562500D01*
X114113830Y-108418791D01*
X114058361Y-108284875D01*
X113970121Y-108169879D01*
X113855125Y-108081639D01*
X113721209Y-108026170D01*
X113577500Y-108007250D01*
X113433791Y-108026170D01*
X113299875Y-108081639D01*
X113184879Y-108169879D01*
X113096639Y-108284875D01*
X113041170Y-108418791D01*
X113022250Y-108562500D01*
X103774632Y-108562500D01*
X101892132Y-106680000D01*
X121364750Y-106680000D01*
X121383670Y-106823709D01*
X121439139Y-106957625D01*
X121527379Y-107072621D01*
X121642375Y-107160861D01*
X121776291Y-107216330D01*
X121920000Y-107235250D01*
X122063709Y-107216330D01*
X122197625Y-107160861D01*
X122312621Y-107072621D01*
X122400861Y-106957625D01*
X122456330Y-106823709D01*
X122475250Y-106680000D01*
X122456330Y-106536291D01*
X122400861Y-106402375D01*
X122312621Y-106287379D01*
X122197625Y-106199139D01*
X122063709Y-106143670D01*
X121920000Y-106124750D01*
X121776291Y-106143670D01*
X121642375Y-106199139D01*
X121527379Y-106287379D01*
X121439139Y-106402375D01*
X121383670Y-106536291D01*
X121364750Y-106680000D01*
X101892132Y-106680000D01*
X101056572Y-105844440D01*
X135294901Y-105844440D01*
X135296065Y-105853342D01*
X135296065Y-105853345D01*
X135310468Y-105963489D01*
X135310469Y-105963493D01*
X135311633Y-105972394D01*
X135363605Y-106090510D01*
X135369382Y-106097383D01*
X135369383Y-106097384D01*
X135410948Y-106146831D01*
X135446639Y-106189291D01*
X135554060Y-106260796D01*
X135623060Y-106282353D01*
X135663246Y-106294908D01*
X135677233Y-106299278D01*
X135686203Y-106299442D01*
X135686207Y-106299443D01*
X135744942Y-106300519D01*
X135806255Y-106301643D01*
X135877009Y-106282353D01*
X135922092Y-106270062D01*
X135922093Y-106270062D01*
X135930755Y-106267700D01*
X135938405Y-106263003D01*
X135938407Y-106263002D01*
X136033072Y-106204878D01*
X136033075Y-106204875D01*
X136040724Y-106200179D01*
X136046750Y-106193522D01*
X136121300Y-106111161D01*
X136121303Y-106111157D01*
X136127322Y-106104507D01*
X136183588Y-105988375D01*
X136204997Y-105861120D01*
X136205133Y-105850000D01*
X136186839Y-105722259D01*
X136133428Y-105604788D01*
X136049193Y-105507028D01*
X135940906Y-105436841D01*
X135932311Y-105434271D01*
X135932310Y-105434270D01*
X135825874Y-105402438D01*
X135825872Y-105402438D01*
X135817273Y-105399866D01*
X135808298Y-105399811D01*
X135808297Y-105399811D01*
X135753641Y-105399477D01*
X135688231Y-105399078D01*
X135626193Y-105416809D01*
X135572786Y-105432072D01*
X135572784Y-105432073D01*
X135564155Y-105434539D01*
X135455019Y-105503399D01*
X135449076Y-105510128D01*
X135449075Y-105510129D01*
X135412555Y-105551480D01*
X135369596Y-105600122D01*
X135365782Y-105608245D01*
X135365781Y-105608247D01*
X135339794Y-105663598D01*
X135314754Y-105716932D01*
X135313374Y-105725798D01*
X135296282Y-105835567D01*
X135296282Y-105835571D01*
X135294901Y-105844440D01*
X101056572Y-105844440D01*
X100186905Y-104974773D01*
X100152879Y-104912461D01*
X100150000Y-104885678D01*
X100150000Y-104530000D01*
X131174750Y-104530000D01*
X131193670Y-104673709D01*
X131249139Y-104807625D01*
X131337379Y-104922621D01*
X131452375Y-105010861D01*
X131586291Y-105066330D01*
X131730000Y-105085250D01*
X131873709Y-105066330D01*
X132007625Y-105010861D01*
X132122621Y-104922621D01*
X132210861Y-104807625D01*
X132266330Y-104673709D01*
X132285250Y-104530000D01*
X132266330Y-104386291D01*
X132210861Y-104252375D01*
X132122621Y-104137379D01*
X132007625Y-104049139D01*
X131873709Y-103993670D01*
X131730000Y-103974750D01*
X131586291Y-103993670D01*
X131452375Y-104049139D01*
X131337379Y-104137379D01*
X131249139Y-104252375D01*
X131193670Y-104386291D01*
X131174750Y-104530000D01*
X100150000Y-104530000D01*
X100150000Y-103145996D01*
X101395814Y-103145996D01*
X101405523Y-103355767D01*
X101406927Y-103361592D01*
X101406927Y-103361593D01*
X101447119Y-103528361D01*
X101454724Y-103559918D01*
X101457206Y-103565376D01*
X101457207Y-103565380D01*
X101500320Y-103660201D01*
X101541640Y-103751081D01*
X101611808Y-103850000D01*
X101658094Y-103915250D01*
X101663137Y-103922360D01*
X101814831Y-104067575D01*
X101819866Y-104070826D01*
X101986209Y-104178233D01*
X101986212Y-104178234D01*
X101991246Y-104181485D01*
X101996809Y-104183727D01*
X102180455Y-104257739D01*
X102180458Y-104257740D01*
X102186019Y-104259981D01*
X102191900Y-104261129D01*
X102191905Y-104261131D01*
X102387676Y-104299362D01*
X102387679Y-104299362D01*
X102392122Y-104300230D01*
X102397643Y-104300500D01*
X104152469Y-104300500D01*
X104309046Y-104285561D01*
X104314802Y-104283872D01*
X104314804Y-104283872D01*
X104477743Y-104236071D01*
X104510549Y-104226447D01*
X104627273Y-104166330D01*
X104691908Y-104133041D01*
X104691911Y-104133039D01*
X104697239Y-104130295D01*
X104759139Y-104081672D01*
X104857662Y-104004282D01*
X104857667Y-104004278D01*
X104862379Y-104000576D01*
X104878855Y-103981589D01*
X104996079Y-103846502D01*
X104996083Y-103846497D01*
X105000010Y-103841971D01*
X105105166Y-103660201D01*
X105164378Y-103489687D01*
X105171215Y-103470000D01*
X130284750Y-103470000D01*
X130303670Y-103613709D01*
X130359139Y-103747625D01*
X130447379Y-103862621D01*
X130562375Y-103950861D01*
X130696291Y-104006330D01*
X130840000Y-104025250D01*
X130983709Y-104006330D01*
X131117625Y-103950861D01*
X131170876Y-103910000D01*
X134694750Y-103910000D01*
X134713670Y-104053709D01*
X134769139Y-104187625D01*
X134857379Y-104302621D01*
X134972375Y-104390861D01*
X135106291Y-104446330D01*
X135250000Y-104465250D01*
X135393709Y-104446330D01*
X135527625Y-104390861D01*
X135642621Y-104302621D01*
X135730861Y-104187625D01*
X135786330Y-104053709D01*
X135805250Y-103910000D01*
X135797351Y-103850000D01*
X136694750Y-103850000D01*
X136713670Y-103993709D01*
X136769139Y-104127625D01*
X136857379Y-104242621D01*
X136972375Y-104330861D01*
X137106291Y-104386330D01*
X137250000Y-104405250D01*
X137393709Y-104386330D01*
X137527625Y-104330861D01*
X137642621Y-104242621D01*
X137730861Y-104127625D01*
X137786330Y-103993709D01*
X137805250Y-103850000D01*
X137786330Y-103706291D01*
X137730861Y-103572375D01*
X137642621Y-103457379D01*
X137527625Y-103369139D01*
X137393709Y-103313670D01*
X137250000Y-103294750D01*
X137106291Y-103313670D01*
X136972375Y-103369139D01*
X136857379Y-103457379D01*
X136769139Y-103572375D01*
X136713670Y-103706291D01*
X136694750Y-103850000D01*
X135797351Y-103850000D01*
X135786330Y-103766291D01*
X135730861Y-103632375D01*
X135642621Y-103517379D01*
X135527625Y-103429139D01*
X135393709Y-103373670D01*
X135250000Y-103354750D01*
X135106291Y-103373670D01*
X134972375Y-103429139D01*
X134857379Y-103517379D01*
X134769139Y-103632375D01*
X134713670Y-103766291D01*
X134694750Y-103910000D01*
X131170876Y-103910000D01*
X131232621Y-103862621D01*
X131320861Y-103747625D01*
X131376330Y-103613709D01*
X131395250Y-103470000D01*
X131376330Y-103326291D01*
X131320861Y-103192375D01*
X131232621Y-103077379D01*
X131117625Y-102989139D01*
X130983709Y-102933670D01*
X130840000Y-102914750D01*
X130696291Y-102933670D01*
X130562375Y-102989139D01*
X130447379Y-103077379D01*
X130359139Y-103192375D01*
X130303670Y-103326291D01*
X130284750Y-103470000D01*
X105171215Y-103470000D01*
X105172086Y-103467491D01*
X105172086Y-103467489D01*
X105174053Y-103461826D01*
X105175427Y-103452353D01*
X105203325Y-103259944D01*
X105203325Y-103259941D01*
X105204186Y-103254004D01*
X105194477Y-103044233D01*
X105145276Y-102840082D01*
X105139252Y-102826831D01*
X105066755Y-102667384D01*
X105058360Y-102648919D01*
X104951055Y-102497647D01*
X104940329Y-102482526D01*
X104940328Y-102482525D01*
X104936863Y-102477640D01*
X104821107Y-102366828D01*
X104789499Y-102336570D01*
X104785169Y-102332425D01*
X104736725Y-102301145D01*
X104613791Y-102221767D01*
X104613788Y-102221766D01*
X104608754Y-102218515D01*
X104517514Y-102181744D01*
X104419545Y-102142261D01*
X104419542Y-102142260D01*
X104413981Y-102140019D01*
X104408100Y-102138871D01*
X104408095Y-102138869D01*
X104212324Y-102100638D01*
X104212321Y-102100638D01*
X104207878Y-102099770D01*
X104202357Y-102099500D01*
X102447531Y-102099500D01*
X102290954Y-102114439D01*
X102285198Y-102116128D01*
X102285196Y-102116128D01*
X102258295Y-102124020D01*
X102089451Y-102173553D01*
X102012856Y-102213002D01*
X101908092Y-102266959D01*
X101908089Y-102266961D01*
X101902761Y-102269705D01*
X101862736Y-102301145D01*
X101742338Y-102395718D01*
X101742333Y-102395722D01*
X101737621Y-102399424D01*
X101733690Y-102403954D01*
X101733689Y-102403955D01*
X101603921Y-102553498D01*
X101603917Y-102553503D01*
X101599990Y-102558029D01*
X101494834Y-102739799D01*
X101466084Y-102822592D01*
X101439205Y-102899996D01*
X101425947Y-102938174D01*
X101425086Y-102944109D01*
X101425086Y-102944111D01*
X101401638Y-103105832D01*
X101395814Y-103145996D01*
X100150000Y-103145996D01*
X100150000Y-101988500D01*
X120513250Y-101988500D01*
X120532170Y-102132209D01*
X120587639Y-102266125D01*
X120675879Y-102381121D01*
X120790875Y-102469361D01*
X120924791Y-102524830D01*
X121068500Y-102543750D01*
X121212209Y-102524830D01*
X121346125Y-102469361D01*
X121461121Y-102381121D01*
X121549361Y-102266125D01*
X121604830Y-102132209D01*
X121609070Y-102100000D01*
X129174750Y-102100000D01*
X129193670Y-102243709D01*
X129249139Y-102377625D01*
X129337379Y-102492621D01*
X129452375Y-102580861D01*
X129586291Y-102636330D01*
X129730000Y-102655250D01*
X129873709Y-102636330D01*
X130007625Y-102580861D01*
X130122621Y-102492621D01*
X130210861Y-102377625D01*
X130266330Y-102243709D01*
X130285250Y-102100000D01*
X130266330Y-101956291D01*
X130210861Y-101822375D01*
X130122621Y-101707379D01*
X130007625Y-101619139D01*
X129873709Y-101563670D01*
X129730000Y-101544750D01*
X129586291Y-101563670D01*
X129452375Y-101619139D01*
X129337379Y-101707379D01*
X129249139Y-101822375D01*
X129193670Y-101956291D01*
X129174750Y-102100000D01*
X121609070Y-102100000D01*
X121623750Y-101988500D01*
X121604830Y-101844791D01*
X121588870Y-101806258D01*
X121552521Y-101718504D01*
X121549361Y-101710875D01*
X121461121Y-101595879D01*
X121346125Y-101507639D01*
X121212209Y-101452170D01*
X121068500Y-101433250D01*
X120924791Y-101452170D01*
X120790875Y-101507639D01*
X120675879Y-101595879D01*
X120587639Y-101710875D01*
X120584479Y-101718504D01*
X120548131Y-101806258D01*
X120532170Y-101844791D01*
X120513250Y-101988500D01*
X100150000Y-101988500D01*
X100150000Y-101430000D01*
X125024750Y-101430000D01*
X125043670Y-101573709D01*
X125099139Y-101707625D01*
X125187379Y-101822621D01*
X125302375Y-101910861D01*
X125436291Y-101966330D01*
X125580000Y-101985250D01*
X125723709Y-101966330D01*
X125857625Y-101910861D01*
X125972621Y-101822621D01*
X126060861Y-101707625D01*
X126116330Y-101573709D01*
X126135250Y-101430000D01*
X126116330Y-101286291D01*
X126060861Y-101152375D01*
X125972621Y-101037379D01*
X125930373Y-101004961D01*
X125888507Y-100947624D01*
X125884286Y-100876753D01*
X125919051Y-100814850D01*
X125930370Y-100805042D01*
X125972621Y-100772621D01*
X126060861Y-100657625D01*
X126116330Y-100523709D01*
X126135250Y-100380000D01*
X126116330Y-100236291D01*
X126060861Y-100102375D01*
X125972621Y-99987379D01*
X125857625Y-99899139D01*
X125723709Y-99843670D01*
X125580000Y-99824750D01*
X125436291Y-99843670D01*
X125302375Y-99899139D01*
X125187379Y-99987379D01*
X125099139Y-100102375D01*
X125043670Y-100236291D01*
X125024750Y-100380000D01*
X125043670Y-100523709D01*
X125099139Y-100657625D01*
X125187379Y-100772621D01*
X125229627Y-100805039D01*
X125271493Y-100862376D01*
X125275714Y-100933247D01*
X125240949Y-100995150D01*
X125229630Y-101004958D01*
X125187379Y-101037379D01*
X125099139Y-101152375D01*
X125043670Y-101286291D01*
X125024750Y-101430000D01*
X100150000Y-101430000D01*
X100150000Y-99881105D01*
X102599031Y-99881105D01*
X102600805Y-99888492D01*
X102600805Y-99888496D01*
X102624460Y-99987024D01*
X102638612Y-100045968D01*
X102642093Y-100052712D01*
X102642094Y-100052715D01*
X102704265Y-100173169D01*
X102716375Y-100196631D01*
X102721367Y-100202353D01*
X102721368Y-100202355D01*
X102744733Y-100229139D01*
X102827831Y-100324396D01*
X102850759Y-100340510D01*
X102960330Y-100417518D01*
X102960332Y-100417519D01*
X102966547Y-100421887D01*
X103124513Y-100483476D01*
X103132046Y-100484468D01*
X103132047Y-100484468D01*
X103249739Y-100499962D01*
X103253826Y-100500500D01*
X103342516Y-100500500D01*
X103468320Y-100485276D01*
X103626923Y-100425345D01*
X103657824Y-100404107D01*
X103760392Y-100333614D01*
X103760393Y-100333613D01*
X103766651Y-100329312D01*
X103771704Y-100323641D01*
X103874388Y-100208392D01*
X103874390Y-100208388D01*
X103879440Y-100202721D01*
X103883967Y-100194172D01*
X103921109Y-100124021D01*
X103958776Y-100052881D01*
X104000081Y-99888441D01*
X104000215Y-99862962D01*
X104000627Y-99784170D01*
X104000969Y-99718895D01*
X103999041Y-99710861D01*
X103963161Y-99561417D01*
X103961388Y-99554032D01*
X103956664Y-99544878D01*
X103887108Y-99410117D01*
X103887108Y-99410116D01*
X103883625Y-99403369D01*
X103878313Y-99397279D01*
X103808717Y-99317500D01*
X119492250Y-99317500D01*
X119511170Y-99461209D01*
X119566639Y-99595125D01*
X119654879Y-99710121D01*
X119769875Y-99798361D01*
X119903791Y-99853830D01*
X120047500Y-99872750D01*
X120191209Y-99853830D01*
X120325125Y-99798361D01*
X120440121Y-99710121D01*
X120493927Y-99640000D01*
X122574750Y-99640000D01*
X122593670Y-99783709D01*
X122649139Y-99917625D01*
X122737379Y-100032621D01*
X122852375Y-100120861D01*
X122986291Y-100176330D01*
X123130000Y-100195250D01*
X123273709Y-100176330D01*
X123407625Y-100120861D01*
X123522621Y-100032621D01*
X123610861Y-99917625D01*
X123666330Y-99783709D01*
X123685250Y-99640000D01*
X123666330Y-99496291D01*
X123610861Y-99362375D01*
X123522621Y-99247379D01*
X123499972Y-99230000D01*
X126334750Y-99230000D01*
X126353670Y-99373709D01*
X126409139Y-99507625D01*
X126497379Y-99622621D01*
X126612375Y-99710861D01*
X126746291Y-99766330D01*
X126890000Y-99785250D01*
X127033709Y-99766330D01*
X127167625Y-99710861D01*
X127282621Y-99622621D01*
X127370861Y-99507625D01*
X127426330Y-99373709D01*
X127445250Y-99230000D01*
X127426330Y-99086291D01*
X127370861Y-98952375D01*
X127282621Y-98837379D01*
X127167625Y-98749139D01*
X127033709Y-98693670D01*
X126890000Y-98674750D01*
X126746291Y-98693670D01*
X126612375Y-98749139D01*
X126497379Y-98837379D01*
X126409139Y-98952375D01*
X126353670Y-99086291D01*
X126334750Y-99230000D01*
X123499972Y-99230000D01*
X123407625Y-99159139D01*
X123273709Y-99103670D01*
X123130000Y-99084750D01*
X122986291Y-99103670D01*
X122852375Y-99159139D01*
X122737379Y-99247379D01*
X122649139Y-99362375D01*
X122593670Y-99496291D01*
X122574750Y-99640000D01*
X120493927Y-99640000D01*
X120528361Y-99595125D01*
X120583830Y-99461209D01*
X120602750Y-99317500D01*
X120583830Y-99173791D01*
X120528361Y-99039875D01*
X120440121Y-98924879D01*
X120325125Y-98836639D01*
X120191209Y-98781170D01*
X120047500Y-98762250D01*
X119903791Y-98781170D01*
X119769875Y-98836639D01*
X119654879Y-98924879D01*
X119566639Y-99039875D01*
X119511170Y-99173791D01*
X119492250Y-99317500D01*
X103808717Y-99317500D01*
X103801574Y-99309312D01*
X103772169Y-99275604D01*
X103689364Y-99217408D01*
X103639670Y-99182482D01*
X103639668Y-99182481D01*
X103633453Y-99178113D01*
X103475487Y-99116524D01*
X103467954Y-99115532D01*
X103467953Y-99115532D01*
X103350261Y-99100038D01*
X103350260Y-99100038D01*
X103346174Y-99099500D01*
X103257484Y-99099500D01*
X103131680Y-99114724D01*
X103124577Y-99117408D01*
X102995109Y-99166330D01*
X102973077Y-99174655D01*
X102966819Y-99178956D01*
X102867264Y-99247379D01*
X102833349Y-99270688D01*
X102828297Y-99276358D01*
X102828296Y-99276359D01*
X102725612Y-99391608D01*
X102725610Y-99391612D01*
X102720560Y-99397279D01*
X102717008Y-99403988D01*
X102717007Y-99403989D01*
X102695554Y-99444507D01*
X102641224Y-99547119D01*
X102599919Y-99711559D01*
X102599031Y-99881105D01*
X100150000Y-99881105D01*
X100150000Y-98630000D01*
X113934750Y-98630000D01*
X113953670Y-98773709D01*
X114009139Y-98907625D01*
X114097379Y-99022621D01*
X114212375Y-99110861D01*
X114346291Y-99166330D01*
X114490000Y-99185250D01*
X114633709Y-99166330D01*
X114767625Y-99110861D01*
X114882621Y-99022621D01*
X114970861Y-98907625D01*
X115026330Y-98773709D01*
X115045250Y-98630000D01*
X115026330Y-98486291D01*
X114970861Y-98352375D01*
X114882621Y-98237379D01*
X114767625Y-98149139D01*
X114633709Y-98093670D01*
X114490000Y-98074750D01*
X114346291Y-98093670D01*
X114212375Y-98149139D01*
X114097379Y-98237379D01*
X114009139Y-98352375D01*
X113953670Y-98486291D01*
X113934750Y-98630000D01*
X100150000Y-98630000D01*
X100150000Y-95281105D01*
X102599031Y-95281105D01*
X102600805Y-95288492D01*
X102600805Y-95288496D01*
X102619612Y-95366831D01*
X102638612Y-95445968D01*
X102642093Y-95452712D01*
X102642094Y-95452715D01*
X102707099Y-95578660D01*
X102716375Y-95596631D01*
X102721367Y-95602353D01*
X102721368Y-95602355D01*
X102738833Y-95622375D01*
X102827831Y-95724396D01*
X102873213Y-95756291D01*
X102960330Y-95817518D01*
X102960332Y-95817519D01*
X102966547Y-95821887D01*
X103124513Y-95883476D01*
X103132046Y-95884468D01*
X103132047Y-95884468D01*
X103243222Y-95899104D01*
X103253826Y-95900500D01*
X103342516Y-95900500D01*
X103468320Y-95885276D01*
X103626923Y-95825345D01*
X103748769Y-95741602D01*
X103760392Y-95733614D01*
X103760393Y-95733613D01*
X103765650Y-95730000D01*
X114764750Y-95730000D01*
X114783670Y-95873709D01*
X114839139Y-96007625D01*
X114927379Y-96122621D01*
X115042375Y-96210861D01*
X115176291Y-96266330D01*
X115320000Y-96285250D01*
X115463709Y-96266330D01*
X115597625Y-96210861D01*
X115712621Y-96122621D01*
X115800861Y-96007625D01*
X115856330Y-95873709D01*
X115875250Y-95730000D01*
X115856330Y-95586291D01*
X115800861Y-95452375D01*
X115712621Y-95337379D01*
X115597625Y-95249139D01*
X115463709Y-95193670D01*
X115320000Y-95174750D01*
X115176291Y-95193670D01*
X115042375Y-95249139D01*
X114927379Y-95337379D01*
X114839139Y-95452375D01*
X114783670Y-95586291D01*
X114764750Y-95730000D01*
X103765650Y-95730000D01*
X103766651Y-95729312D01*
X103771704Y-95723641D01*
X103874388Y-95608392D01*
X103874390Y-95608388D01*
X103879440Y-95602721D01*
X103883804Y-95594480D01*
X103932582Y-95502353D01*
X103958776Y-95452881D01*
X104000081Y-95288441D01*
X104000169Y-95271750D01*
X104000867Y-95138375D01*
X104000969Y-95118895D01*
X103998623Y-95109121D01*
X103963161Y-94961417D01*
X103961388Y-94954032D01*
X103953211Y-94938188D01*
X103887108Y-94810117D01*
X103887108Y-94810116D01*
X103883625Y-94803369D01*
X103878313Y-94797279D01*
X103816192Y-94726069D01*
X103772169Y-94675604D01*
X103693047Y-94619996D01*
X103639670Y-94582482D01*
X103639668Y-94582481D01*
X103633453Y-94578113D01*
X103475487Y-94516524D01*
X103467954Y-94515532D01*
X103467953Y-94515532D01*
X103350261Y-94500038D01*
X103350260Y-94500038D01*
X103346174Y-94499500D01*
X103257484Y-94499500D01*
X103131680Y-94514724D01*
X102973077Y-94574655D01*
X102966819Y-94578956D01*
X102860325Y-94652148D01*
X102833349Y-94670688D01*
X102828297Y-94676358D01*
X102828296Y-94676359D01*
X102725612Y-94791608D01*
X102725610Y-94791612D01*
X102720560Y-94797279D01*
X102717008Y-94803988D01*
X102717007Y-94803989D01*
X102694074Y-94847303D01*
X102641224Y-94947119D01*
X102599919Y-95111559D01*
X102599879Y-95119157D01*
X102599879Y-95119159D01*
X102599736Y-95146450D01*
X102599031Y-95281105D01*
X100150000Y-95281105D01*
X100150000Y-91745996D01*
X101395814Y-91745996D01*
X101405523Y-91955767D01*
X101406927Y-91961592D01*
X101406927Y-91961593D01*
X101450627Y-92142917D01*
X101454724Y-92159918D01*
X101457206Y-92165376D01*
X101457207Y-92165380D01*
X101500300Y-92260157D01*
X101541640Y-92351081D01*
X101663137Y-92522360D01*
X101708611Y-92565892D01*
X101796464Y-92649992D01*
X101814831Y-92667575D01*
X101819866Y-92670826D01*
X101986209Y-92778233D01*
X101986212Y-92778234D01*
X101991246Y-92781485D01*
X101996809Y-92783727D01*
X102180455Y-92857739D01*
X102180458Y-92857740D01*
X102186019Y-92859981D01*
X102191900Y-92861129D01*
X102191905Y-92861131D01*
X102387676Y-92899362D01*
X102387679Y-92899362D01*
X102392122Y-92900230D01*
X102397643Y-92900500D01*
X104152469Y-92900500D01*
X104309046Y-92885561D01*
X104314802Y-92883872D01*
X104314804Y-92883872D01*
X104403883Y-92857739D01*
X104510549Y-92826447D01*
X104665480Y-92746652D01*
X104691908Y-92733041D01*
X104691911Y-92733039D01*
X104697239Y-92730295D01*
X104772947Y-92670826D01*
X104857662Y-92604282D01*
X104857667Y-92604278D01*
X104862379Y-92600576D01*
X104866311Y-92596045D01*
X104894867Y-92563138D01*
X108604758Y-92563138D01*
X108622035Y-92719633D01*
X108676143Y-92867490D01*
X108680380Y-92873796D01*
X108680382Y-92873799D01*
X108707515Y-92914176D01*
X108763958Y-92998172D01*
X108880410Y-93104135D01*
X108936298Y-93134480D01*
X109012099Y-93175637D01*
X109012101Y-93175638D01*
X109018776Y-93179262D01*
X109026125Y-93181190D01*
X109163719Y-93217287D01*
X109163721Y-93217287D01*
X109171069Y-93219215D01*
X109254380Y-93220524D01*
X109320898Y-93221569D01*
X109320901Y-93221569D01*
X109328495Y-93221688D01*
X109481968Y-93186538D01*
X109622625Y-93115795D01*
X109661467Y-93082621D01*
X109736574Y-93018474D01*
X109736576Y-93018471D01*
X109742348Y-93013542D01*
X109834224Y-92885683D01*
X109845458Y-92857739D01*
X109871013Y-92794168D01*
X109892950Y-92739598D01*
X109912208Y-92604282D01*
X109914553Y-92587807D01*
X109914553Y-92587804D01*
X109915134Y-92583723D01*
X109915278Y-92570000D01*
X109896363Y-92413694D01*
X109881512Y-92374392D01*
X109843394Y-92273514D01*
X109843393Y-92273511D01*
X109840710Y-92266412D01*
X109751531Y-92136657D01*
X109702960Y-92093382D01*
X109639648Y-92036972D01*
X109639645Y-92036970D01*
X109633976Y-92031919D01*
X109560732Y-91993138D01*
X116094758Y-91993138D01*
X116112035Y-92149633D01*
X116166143Y-92297490D01*
X116170380Y-92303796D01*
X116170382Y-92303799D01*
X116191617Y-92335399D01*
X116253958Y-92428172D01*
X116370410Y-92534135D01*
X116398171Y-92549208D01*
X116502099Y-92605637D01*
X116502101Y-92605638D01*
X116508776Y-92609262D01*
X116516125Y-92611190D01*
X116653719Y-92647287D01*
X116653721Y-92647287D01*
X116661069Y-92649215D01*
X116744380Y-92650524D01*
X116810898Y-92651569D01*
X116810901Y-92651569D01*
X116818495Y-92651688D01*
X116971968Y-92616538D01*
X117112625Y-92545795D01*
X117145785Y-92517474D01*
X117226574Y-92448474D01*
X117226576Y-92448471D01*
X117232348Y-92443542D01*
X117324224Y-92315683D01*
X117382950Y-92169598D01*
X117402387Y-92033025D01*
X117404553Y-92017807D01*
X117404553Y-92017804D01*
X117405134Y-92013723D01*
X117405278Y-92000000D01*
X117386363Y-91843694D01*
X117381175Y-91829963D01*
X117333394Y-91703514D01*
X117333393Y-91703511D01*
X117330710Y-91696412D01*
X117241531Y-91566657D01*
X117139592Y-91475832D01*
X117129648Y-91466972D01*
X117129645Y-91466970D01*
X117123976Y-91461919D01*
X116984831Y-91388245D01*
X116898240Y-91366495D01*
X116839498Y-91351740D01*
X116839496Y-91351740D01*
X116832128Y-91349889D01*
X116824530Y-91349849D01*
X116824528Y-91349849D01*
X116757319Y-91349497D01*
X116674684Y-91349065D01*
X116667305Y-91350837D01*
X116667301Y-91350837D01*
X116528967Y-91384048D01*
X116528963Y-91384049D01*
X116521588Y-91385820D01*
X116381679Y-91458032D01*
X116375957Y-91463024D01*
X116375955Y-91463025D01*
X116268759Y-91556538D01*
X116268756Y-91556541D01*
X116263034Y-91561533D01*
X116172501Y-91690348D01*
X116115309Y-91837039D01*
X116108508Y-91888700D01*
X116099213Y-91959301D01*
X116094758Y-91993138D01*
X109560732Y-91993138D01*
X109494831Y-91958245D01*
X109478122Y-91954048D01*
X109349498Y-91921740D01*
X109349496Y-91921740D01*
X109342128Y-91919889D01*
X109334530Y-91919849D01*
X109334528Y-91919849D01*
X109267319Y-91919497D01*
X109184684Y-91919065D01*
X109177305Y-91920837D01*
X109177301Y-91920837D01*
X109038967Y-91954048D01*
X109038963Y-91954049D01*
X109031588Y-91955820D01*
X108891679Y-92028032D01*
X108885957Y-92033024D01*
X108885955Y-92033025D01*
X108778759Y-92126538D01*
X108778756Y-92126541D01*
X108773034Y-92131533D01*
X108757476Y-92153670D01*
X108688273Y-92252136D01*
X108682501Y-92260348D01*
X108625309Y-92407039D01*
X108624318Y-92414568D01*
X108605898Y-92554480D01*
X108604758Y-92563138D01*
X104894867Y-92563138D01*
X104996079Y-92446502D01*
X104996083Y-92446497D01*
X105000010Y-92441971D01*
X105105166Y-92260201D01*
X105160162Y-92101829D01*
X105172086Y-92067491D01*
X105172086Y-92067489D01*
X105174053Y-92061826D01*
X105178229Y-92033025D01*
X105203325Y-91859944D01*
X105203325Y-91859941D01*
X105204186Y-91854004D01*
X105194477Y-91644233D01*
X105158070Y-91493169D01*
X105146682Y-91445915D01*
X105146681Y-91445913D01*
X105145276Y-91440082D01*
X105122188Y-91389301D01*
X105060840Y-91254374D01*
X105058360Y-91248919D01*
X104936863Y-91077640D01*
X104785169Y-90932425D01*
X104688033Y-90869705D01*
X104613791Y-90821767D01*
X104613788Y-90821766D01*
X104608754Y-90818515D01*
X104556108Y-90797298D01*
X104419545Y-90742261D01*
X104419542Y-90742260D01*
X104413981Y-90740019D01*
X104408100Y-90738871D01*
X104408095Y-90738869D01*
X104212324Y-90700638D01*
X104212321Y-90700638D01*
X104207878Y-90699770D01*
X104202357Y-90699500D01*
X102447531Y-90699500D01*
X102290954Y-90714439D01*
X102285198Y-90716128D01*
X102285196Y-90716128D01*
X102263902Y-90722375D01*
X102089451Y-90773553D01*
X102034187Y-90802016D01*
X101908092Y-90866959D01*
X101908089Y-90866961D01*
X101902761Y-90869705D01*
X101898046Y-90873409D01*
X101742338Y-90995718D01*
X101742333Y-90995722D01*
X101737621Y-90999424D01*
X101733690Y-91003954D01*
X101733689Y-91003955D01*
X101603921Y-91153498D01*
X101603917Y-91153503D01*
X101599990Y-91158029D01*
X101494834Y-91339799D01*
X101485564Y-91366495D01*
X101433908Y-91515250D01*
X101425947Y-91538174D01*
X101425086Y-91544109D01*
X101425086Y-91544111D01*
X101401974Y-91703514D01*
X101395814Y-91745996D01*
X100150000Y-91745996D01*
X100150000Y-90114322D01*
X100170002Y-90046201D01*
X100186905Y-90025227D01*
X100268994Y-89943138D01*
X108594758Y-89943138D01*
X108612035Y-90099633D01*
X108666143Y-90247490D01*
X108670380Y-90253796D01*
X108670382Y-90253799D01*
X108687485Y-90279250D01*
X108753958Y-90378172D01*
X108774283Y-90396666D01*
X108846735Y-90462592D01*
X108870410Y-90484135D01*
X108891885Y-90495795D01*
X109002099Y-90555637D01*
X109002101Y-90555638D01*
X109008776Y-90559262D01*
X109016125Y-90561190D01*
X109153719Y-90597287D01*
X109153721Y-90597287D01*
X109161069Y-90599215D01*
X109244380Y-90600524D01*
X109310898Y-90601569D01*
X109310901Y-90601569D01*
X109318495Y-90601688D01*
X109471968Y-90566538D01*
X109612625Y-90495795D01*
X109653039Y-90461278D01*
X109726574Y-90398474D01*
X109726576Y-90398471D01*
X109732348Y-90393542D01*
X109824224Y-90265683D01*
X109882950Y-90119598D01*
X109897762Y-90015520D01*
X109904553Y-89967807D01*
X109904553Y-89967804D01*
X109905134Y-89963723D01*
X109905278Y-89950000D01*
X109886363Y-89793694D01*
X109864672Y-89736291D01*
X109833394Y-89653514D01*
X109833393Y-89653511D01*
X109830710Y-89646412D01*
X109741531Y-89516657D01*
X109693654Y-89474000D01*
X109629648Y-89416972D01*
X109629645Y-89416970D01*
X109623976Y-89411919D01*
X109484831Y-89338245D01*
X109438339Y-89326567D01*
X109339498Y-89301740D01*
X109339496Y-89301740D01*
X109332128Y-89299889D01*
X109324530Y-89299849D01*
X109324528Y-89299849D01*
X109257319Y-89299497D01*
X109174684Y-89299065D01*
X109167305Y-89300837D01*
X109167301Y-89300837D01*
X109028967Y-89334048D01*
X109028963Y-89334049D01*
X109021588Y-89335820D01*
X108881679Y-89408032D01*
X108875957Y-89413024D01*
X108875955Y-89413025D01*
X108768759Y-89506538D01*
X108768756Y-89506541D01*
X108763034Y-89511533D01*
X108755033Y-89522917D01*
X108703795Y-89595822D01*
X108672501Y-89640348D01*
X108615309Y-89787039D01*
X108614318Y-89794568D01*
X108599398Y-89907897D01*
X108594758Y-89943138D01*
X100268994Y-89943138D01*
X105918994Y-84293138D01*
X114644758Y-84293138D01*
X114662035Y-84449633D01*
X114716143Y-84597490D01*
X114720380Y-84603796D01*
X114720382Y-84603799D01*
X114740194Y-84633282D01*
X114803958Y-84728172D01*
X114920410Y-84834135D01*
X114965854Y-84858809D01*
X115052099Y-84905637D01*
X115052101Y-84905638D01*
X115058776Y-84909262D01*
X115066125Y-84911190D01*
X115203719Y-84947287D01*
X115203721Y-84947287D01*
X115211069Y-84949215D01*
X115294380Y-84950524D01*
X115360898Y-84951569D01*
X115360901Y-84951569D01*
X115368495Y-84951688D01*
X115521968Y-84916538D01*
X115662625Y-84845795D01*
X115728241Y-84789754D01*
X115776574Y-84748474D01*
X115776576Y-84748471D01*
X115782348Y-84743542D01*
X115874224Y-84615683D01*
X115932950Y-84469598D01*
X115945224Y-84383354D01*
X115954553Y-84317807D01*
X115954553Y-84317804D01*
X115955134Y-84313723D01*
X115955278Y-84300000D01*
X115936363Y-84143694D01*
X115901523Y-84051491D01*
X115883394Y-84003514D01*
X115883393Y-84003511D01*
X115880710Y-83996412D01*
X115791531Y-83866657D01*
X115709516Y-83793584D01*
X115679648Y-83766972D01*
X115679645Y-83766970D01*
X115673976Y-83761919D01*
X115534831Y-83688245D01*
X115466275Y-83671025D01*
X115389498Y-83651740D01*
X115389496Y-83651740D01*
X115382128Y-83649889D01*
X115374530Y-83649849D01*
X115374528Y-83649849D01*
X115307319Y-83649497D01*
X115224684Y-83649065D01*
X115217305Y-83650837D01*
X115217301Y-83650837D01*
X115078967Y-83684048D01*
X115078963Y-83684049D01*
X115071588Y-83685820D01*
X114931679Y-83758032D01*
X114925957Y-83763024D01*
X114925955Y-83763025D01*
X114818759Y-83856538D01*
X114818756Y-83856541D01*
X114813034Y-83861533D01*
X114722501Y-83990348D01*
X114665309Y-84137039D01*
X114664318Y-84144568D01*
X114654676Y-84217807D01*
X114644758Y-84293138D01*
X105918994Y-84293138D01*
X111128994Y-79083138D01*
X115534758Y-79083138D01*
X115552035Y-79239633D01*
X115606143Y-79387490D01*
X115610380Y-79393796D01*
X115610382Y-79393799D01*
X115632893Y-79427298D01*
X115693958Y-79518172D01*
X115730575Y-79551491D01*
X115796472Y-79611452D01*
X115810410Y-79624135D01*
X115817085Y-79627759D01*
X115942099Y-79695637D01*
X115942101Y-79695638D01*
X115948776Y-79699262D01*
X115956125Y-79701190D01*
X116093719Y-79737287D01*
X116093721Y-79737287D01*
X116101069Y-79739215D01*
X116184380Y-79740524D01*
X116250898Y-79741569D01*
X116250901Y-79741569D01*
X116258495Y-79741688D01*
X116411968Y-79706538D01*
X116552625Y-79635795D01*
X116596223Y-79598559D01*
X116666574Y-79538474D01*
X116666576Y-79538471D01*
X116672348Y-79533542D01*
X116764224Y-79405683D01*
X116822950Y-79259598D01*
X116835828Y-79169112D01*
X116844553Y-79107807D01*
X116844553Y-79107804D01*
X116845134Y-79103723D01*
X116845278Y-79090000D01*
X116842389Y-79066122D01*
X116836225Y-79015193D01*
X116826363Y-78933694D01*
X116770710Y-78786412D01*
X116681531Y-78656657D01*
X116634971Y-78615174D01*
X116569648Y-78556972D01*
X116569645Y-78556970D01*
X116563976Y-78551919D01*
X116424831Y-78478245D01*
X116408122Y-78474048D01*
X116279498Y-78441740D01*
X116279496Y-78441740D01*
X116272128Y-78439889D01*
X116264530Y-78439849D01*
X116264528Y-78439849D01*
X116197319Y-78439497D01*
X116114684Y-78439065D01*
X116107305Y-78440837D01*
X116107301Y-78440837D01*
X115968967Y-78474048D01*
X115968963Y-78474049D01*
X115961588Y-78475820D01*
X115821679Y-78548032D01*
X115815957Y-78553024D01*
X115815955Y-78553025D01*
X115708759Y-78646538D01*
X115708756Y-78646541D01*
X115703034Y-78651533D01*
X115612501Y-78780348D01*
X115555309Y-78927039D01*
X115554318Y-78934568D01*
X115536065Y-79073213D01*
X115534758Y-79083138D01*
X111128994Y-79083138D01*
X115025227Y-75186905D01*
X115087539Y-75152879D01*
X115114322Y-75150000D01*
X119464085Y-75150000D01*
X119532206Y-75170002D01*
G37*
G04 #@! TD.AperFunction*
M02*
