G04 #@! TF.GenerationSoftware,KiCad,Pcbnew,(6.0.1)*
G04 #@! TF.CreationDate,2022-02-07T11:20:35+02:00*
G04 #@! TF.ProjectId,LoRaDongle_iCE40,4c6f5261-446f-46e6-976c-655f69434534,1.0*
G04 #@! TF.SameCoordinates,Original*
G04 #@! TF.FileFunction,Copper,L4,Bot*
G04 #@! TF.FilePolarity,Positive*
%FSLAX46Y46*%
G04 Gerber Fmt 4.6, Leading zero omitted, Abs format (unit mm)*
G04 Created by KiCad (PCBNEW (6.0.1)) date 2022-02-07 11:20:35*
%MOMM*%
%LPD*%
G01*
G04 APERTURE LIST*
G04 #@! TA.AperFunction,ComponentPad*
%ADD10R,1.700000X1.700000*%
G04 #@! TD*
G04 #@! TA.AperFunction,ComponentPad*
%ADD11O,1.700000X1.700000*%
G04 #@! TD*
G04 #@! TA.AperFunction,ComponentPad*
%ADD12C,2.000000*%
G04 #@! TD*
G04 #@! TA.AperFunction,ComponentPad*
%ADD13O,3.500000X1.900000*%
G04 #@! TD*
G04 #@! TA.AperFunction,SMDPad,CuDef*
%ADD14R,5.080000X2.413000*%
G04 #@! TD*
G04 #@! TA.AperFunction,ViaPad*
%ADD15C,0.800000*%
G04 #@! TD*
G04 #@! TA.AperFunction,ViaPad*
%ADD16C,1.000000*%
G04 #@! TD*
G04 #@! TA.AperFunction,ViaPad*
%ADD17C,0.600000*%
G04 #@! TD*
G04 #@! TA.AperFunction,ViaPad*
%ADD18C,0.300000*%
G04 #@! TD*
G04 #@! TA.AperFunction,Conductor*
%ADD19C,1.000000*%
G04 #@! TD*
G04 #@! TA.AperFunction,Conductor*
%ADD20C,0.500000*%
G04 #@! TD*
G04 #@! TA.AperFunction,Conductor*
%ADD21C,0.300000*%
G04 #@! TD*
G04 #@! TA.AperFunction,Conductor*
%ADD22C,0.150000*%
G04 #@! TD*
G04 #@! TA.AperFunction,Conductor*
%ADD23C,0.200000*%
G04 #@! TD*
G04 APERTURE END LIST*
D10*
X155820000Y-111880000D03*
D11*
X158360000Y-111880000D03*
X155820000Y-114420000D03*
X158360000Y-114420000D03*
D10*
X141010000Y-111850000D03*
D11*
X141010000Y-114390000D03*
D10*
X161900000Y-80000000D03*
D11*
X164440000Y-80000000D03*
X166980000Y-80000000D03*
X169520000Y-80000000D03*
X172060000Y-80000000D03*
X174600000Y-80000000D03*
D12*
X148930000Y-80320000D03*
X142430000Y-80320000D03*
X142430000Y-84820000D03*
X148930000Y-84820000D03*
D10*
X118530000Y-109340000D03*
D11*
X118530000Y-111880000D03*
X118530000Y-114420000D03*
D10*
X146000000Y-91370000D03*
D11*
X148540000Y-91370000D03*
X146000000Y-93910000D03*
X148540000Y-93910000D03*
X146000000Y-96450000D03*
X148540000Y-96450000D03*
X146000000Y-98990000D03*
X148540000Y-98990000D03*
D13*
X103300000Y-91800000D03*
X103300000Y-103200000D03*
D14*
X206820000Y-92308500D03*
X206820000Y-101071500D03*
D10*
X168210000Y-111840000D03*
D11*
X168210000Y-114380000D03*
D10*
X129410000Y-111850000D03*
D11*
X131950000Y-111850000D03*
X129410000Y-114390000D03*
X131950000Y-114390000D03*
D10*
X154945000Y-89660000D03*
D11*
X157485000Y-89660000D03*
D15*
X113577500Y-108562500D03*
D16*
X188750000Y-82720000D03*
X194660000Y-110470000D03*
X208870000Y-107470000D03*
D15*
X121637500Y-94337500D03*
D16*
X208870000Y-105370000D03*
X180440000Y-82900000D03*
X204220000Y-103670000D03*
D15*
X198820000Y-98920000D03*
D16*
X178960000Y-99680000D03*
X183140000Y-82720000D03*
X178920000Y-86960000D03*
X208870000Y-103250000D03*
D15*
X114490000Y-98630000D03*
X121068500Y-101988500D03*
D16*
X209070000Y-84890000D03*
D15*
X115320000Y-95730000D03*
X120047500Y-99317500D03*
D16*
X209070000Y-87550000D03*
D15*
X180830000Y-92390000D03*
X153370000Y-103360000D03*
X152420000Y-92690000D03*
D16*
X179010000Y-89490000D03*
D15*
X180180000Y-91190000D03*
D16*
X182340000Y-110470000D03*
D17*
X169400000Y-95810000D03*
D15*
X192028000Y-106222000D03*
D16*
X206940000Y-82720000D03*
X109250000Y-89950000D03*
D15*
X192028000Y-87528000D03*
D16*
X178960000Y-104520000D03*
X194170000Y-82720000D03*
X178960000Y-107090000D03*
D15*
X122024000Y-89724000D03*
X132820000Y-86360000D03*
D16*
X202930000Y-110470000D03*
X205350000Y-110470000D03*
D15*
X141590000Y-96850000D03*
D16*
X178960000Y-102000000D03*
D15*
X121920000Y-106680000D03*
D16*
X200220000Y-82720000D03*
X207865000Y-109715000D03*
D15*
X173125000Y-89125000D03*
D16*
X186100000Y-82720000D03*
D15*
X182610000Y-93870000D03*
X158700000Y-95900000D03*
D16*
X200310000Y-110470000D03*
X203180000Y-82720000D03*
X197600000Y-110470000D03*
D15*
X151380000Y-101570000D03*
X202730000Y-98870000D03*
D16*
X191310000Y-82720000D03*
X179420000Y-109960000D03*
D15*
X135250000Y-103910000D03*
D16*
X204210000Y-89720000D03*
D15*
X139250000Y-94930000D03*
D16*
X184920000Y-110470000D03*
D15*
X180980000Y-93590000D03*
D16*
X178920000Y-84420000D03*
D15*
X139210000Y-93810000D03*
X182020000Y-99310000D03*
X180687500Y-99317500D03*
X126890000Y-99230000D03*
D16*
X191960000Y-110470000D03*
X209070000Y-89870000D03*
D15*
X127400000Y-92600000D03*
D16*
X187300000Y-110470000D03*
D15*
X129850000Y-90960000D03*
D16*
X189160000Y-110470000D03*
D15*
X125580000Y-100380000D03*
D16*
X196960000Y-82720000D03*
X109260000Y-92570000D03*
D15*
X139157500Y-103047500D03*
X137250000Y-103850000D03*
X125580000Y-101430000D03*
X139225000Y-107195000D03*
X137030000Y-90740000D03*
X127677500Y-102172500D03*
X141590000Y-93630000D03*
X154480000Y-107000000D03*
X160520000Y-85910000D03*
X154380000Y-105670000D03*
X128630000Y-84940000D03*
X131410000Y-90990000D03*
X152202500Y-103400000D03*
D16*
X122200000Y-84650000D03*
D15*
X115360000Y-94130000D03*
X115370000Y-99760000D03*
X141805000Y-107745000D03*
X126597500Y-78992500D03*
X141830000Y-103500000D03*
X120800000Y-80900000D03*
X139250000Y-83960000D03*
X129830000Y-81180000D03*
X139480000Y-101890000D03*
D16*
X123675500Y-85284500D03*
X115300000Y-84300000D03*
X120000000Y-84200000D03*
X116750000Y-92000000D03*
X116190000Y-79090000D03*
D15*
X170250000Y-91000000D03*
X177832500Y-90332500D03*
D17*
X135750000Y-105850000D03*
D15*
X132870000Y-88610000D03*
X135280000Y-82530000D03*
X132720000Y-80810000D03*
X130460000Y-89880000D03*
D17*
X154400000Y-95000000D03*
X154400000Y-94000000D03*
D15*
X162310000Y-102630000D03*
X163160000Y-94350000D03*
X163400000Y-103630000D03*
D17*
X152600000Y-96600000D03*
X155300000Y-101800000D03*
D15*
X169540000Y-104350000D03*
X171830000Y-100710000D03*
D18*
X162510000Y-97380000D03*
D17*
X157700000Y-100100000D03*
D18*
X161480000Y-96770000D03*
X162670000Y-95560000D03*
D15*
X148630000Y-102800000D03*
X129730000Y-102100000D03*
X153250000Y-98680000D03*
X176200000Y-101200000D03*
D18*
X158410000Y-103824500D03*
D17*
X157570000Y-99280000D03*
X169750000Y-85000000D03*
D15*
X162260000Y-93270000D03*
D17*
X151290000Y-102420000D03*
X169750000Y-88000000D03*
X157500000Y-101100000D03*
X157700000Y-95000000D03*
D15*
X142073000Y-105687000D03*
X131730000Y-104530000D03*
X130840000Y-103470000D03*
X126070000Y-96650000D03*
X123130000Y-99640000D03*
X190728000Y-106228000D03*
D17*
X170970000Y-99190000D03*
D15*
X167200000Y-98322500D03*
X151540500Y-100320500D03*
D16*
X131670000Y-116610000D03*
D15*
X160600000Y-100292500D03*
D16*
X134960000Y-115900000D03*
D15*
X160688500Y-94711500D03*
X151516500Y-94716500D03*
D19*
X206798500Y-92308500D02*
X204210000Y-89720000D01*
X206820000Y-101071500D02*
X206818500Y-101071500D01*
X206818500Y-101071500D02*
X204220000Y-103670000D01*
X206820000Y-92308500D02*
X206798500Y-92308500D01*
D20*
X116750000Y-92000000D02*
X116750000Y-92000000D01*
X116750000Y-92000000D02*
X116750000Y-92000000D01*
X118530000Y-111880000D02*
X113880000Y-111880000D01*
X113750000Y-92000000D02*
X116750000Y-92000000D01*
X116750000Y-92000000D02*
X118500000Y-92000000D01*
X115400000Y-84200000D02*
X115300000Y-84300000D01*
X120000000Y-84200000D02*
X115400000Y-84200000D01*
X109250000Y-107250000D02*
X109250000Y-96500000D01*
X109250000Y-96500000D02*
X113750000Y-92000000D01*
X118500000Y-92000000D02*
X120000000Y-90500000D01*
X120000000Y-90500000D02*
X120000000Y-84200000D01*
X113880000Y-111880000D02*
X109250000Y-107250000D01*
X132000000Y-96400000D02*
X128427011Y-99972989D01*
X128427011Y-108327011D02*
X131950000Y-111850000D01*
X128427011Y-99972989D02*
X128427011Y-108327011D01*
X132000000Y-93500000D02*
X132000000Y-96400000D01*
X129100000Y-87800000D02*
X129100000Y-91900000D01*
X116190000Y-79090000D02*
X116210000Y-79110000D01*
X129100000Y-91900000D02*
X129900000Y-92700000D01*
X131200000Y-92700000D02*
X132000000Y-93500000D01*
X120410000Y-79110000D02*
X129100000Y-87800000D01*
X116210000Y-79110000D02*
X120410000Y-79110000D01*
X129900000Y-92700000D02*
X131200000Y-92700000D01*
D21*
X172250000Y-88250000D02*
X175750000Y-88250000D01*
X170250000Y-91000000D02*
X170250000Y-90250000D01*
X170250000Y-90250000D02*
X172250000Y-88250000D01*
X175750000Y-88250000D02*
X177832500Y-90332500D01*
X132870000Y-88610000D02*
X134090000Y-88610000D01*
X134090000Y-88610000D02*
X135280000Y-87420000D01*
X135280000Y-87420000D02*
X135280000Y-82530000D01*
X130460000Y-82040000D02*
X131690000Y-80810000D01*
X130460000Y-89880000D02*
X130460000Y-82040000D01*
X131690000Y-80810000D02*
X132720000Y-80810000D01*
D22*
X154630000Y-93420000D02*
X154500000Y-93290000D01*
X154500000Y-93290000D02*
X153830000Y-93290000D01*
X154974511Y-94425489D02*
X154974511Y-93762029D01*
X154400000Y-95000000D02*
X154974511Y-94425489D01*
X161490000Y-80000000D02*
X161900000Y-80000000D01*
X153300000Y-88190000D02*
X161490000Y-80000000D01*
X153300000Y-92760000D02*
X153300000Y-88190000D01*
X153830000Y-93290000D02*
X153300000Y-92760000D01*
X154632482Y-93420000D02*
X154630000Y-93420000D01*
X154974511Y-93762029D02*
X154632482Y-93420000D01*
X161510000Y-102910000D02*
X161790000Y-102630000D01*
X153400000Y-95000000D02*
X153400000Y-96905012D01*
X161790000Y-102630000D02*
X162310000Y-102630000D01*
X154400000Y-94000000D02*
X153400000Y-95000000D01*
X154650010Y-102055022D02*
X155504988Y-102910000D01*
X153400000Y-96905012D02*
X154650010Y-98155022D01*
X155504988Y-102910000D02*
X161510000Y-102910000D01*
X154650010Y-98155022D02*
X154650010Y-102055022D01*
X169520000Y-81900000D02*
X169520000Y-80000000D01*
X163160000Y-94350000D02*
X165765704Y-94350000D01*
X165765704Y-94350000D02*
X166841920Y-93273784D01*
X166841920Y-84578080D02*
X169520000Y-81900000D01*
X166841920Y-93273784D02*
X166841920Y-84578080D01*
X155500000Y-103400000D02*
X162380000Y-103400000D01*
X154300000Y-102200000D02*
X155500000Y-103400000D01*
X162380000Y-103400000D02*
X162620000Y-103640000D01*
X163390000Y-103640000D02*
X163400000Y-103630000D01*
X162620000Y-103640000D02*
X163390000Y-103640000D01*
X152600000Y-96600000D02*
X154300000Y-98300000D01*
X154300000Y-98300000D02*
X154300000Y-102200000D01*
X162579650Y-95050000D02*
X165560000Y-95050000D01*
X169535704Y-82980000D02*
X170780000Y-82980000D01*
X165560000Y-95050000D02*
X167191440Y-93418560D01*
X161893811Y-95735839D02*
X162579650Y-95050000D01*
X156995489Y-100104511D02*
X156995489Y-99042029D01*
X155300000Y-101800000D02*
X156995489Y-100104511D01*
X160301679Y-95735839D02*
X161893811Y-95735839D01*
X167191440Y-93418560D02*
X167191441Y-85324263D01*
X170780000Y-82980000D02*
X172060000Y-81700000D01*
X172060000Y-81700000D02*
X172060000Y-80000000D01*
X167191441Y-85324263D02*
X169535704Y-82980000D01*
X156995489Y-99042029D02*
X160301679Y-95735839D01*
D21*
X146000000Y-98990000D02*
X144980000Y-100010000D01*
X144980000Y-100010000D02*
X144980000Y-110420000D01*
X144980000Y-110420000D02*
X141010000Y-114390000D01*
D22*
X169540000Y-104350000D02*
X169540000Y-101140000D01*
X167290001Y-101109999D02*
X166239999Y-101109999D01*
X169509999Y-101109999D02*
X167290001Y-101109999D01*
X171430001Y-101109999D02*
X169509999Y-101109999D01*
X169540000Y-101140000D02*
X169509999Y-101109999D01*
X166239999Y-101109999D02*
X162510000Y-97380000D01*
X171830000Y-100710000D02*
X171430001Y-101109999D01*
X167540960Y-93819040D02*
X167540960Y-85469040D01*
X174600000Y-82010000D02*
X174600000Y-80000000D01*
X167540960Y-85469040D02*
X169560000Y-83450000D01*
X165800000Y-95560000D02*
X167540960Y-93819040D01*
X157700000Y-100100000D02*
X158150000Y-100100000D01*
X158150000Y-100100000D02*
X161360000Y-96890000D01*
X162670000Y-95560000D02*
X165800000Y-95560000D01*
X161360000Y-96890000D02*
X161480000Y-96770000D01*
X173160000Y-83450000D02*
X174600000Y-82010000D01*
X169560000Y-83450000D02*
X173160000Y-83450000D01*
D21*
X141760000Y-91370000D02*
X146000000Y-91370000D01*
X137660000Y-92760000D02*
X140370000Y-92760000D01*
X129730000Y-102100000D02*
X129730000Y-100690000D01*
X146000000Y-91370000D02*
X146000000Y-91380000D01*
X146000000Y-91380000D02*
X147200001Y-92580001D01*
X140370000Y-92760000D02*
X141760000Y-91370000D01*
X147200001Y-92580001D02*
X147200001Y-101370001D01*
X129730000Y-100690000D02*
X137660000Y-92760000D01*
X147200001Y-101370001D02*
X148630000Y-102800000D01*
D22*
X153250000Y-101644988D02*
X158360000Y-106754988D01*
X153250000Y-98680000D02*
X153250000Y-101644988D01*
X158360000Y-107350000D02*
X158360000Y-111880000D01*
X158360000Y-106754988D02*
X158360000Y-107350000D01*
X158410000Y-103830000D02*
X160090000Y-105510000D01*
X160090000Y-105510000D02*
X171890000Y-105510000D01*
X171890000Y-105510000D02*
X176200000Y-101200000D01*
X158410000Y-103824500D02*
X158410000Y-103830000D01*
X157570000Y-99280000D02*
X158050000Y-99280000D01*
X158050000Y-99280000D02*
X161029519Y-96300481D01*
X161029519Y-96300481D02*
X165870000Y-96300480D01*
X167890481Y-86859519D02*
X169750000Y-85000000D01*
X165870000Y-96300480D02*
X167890480Y-94280000D01*
X167890480Y-94280000D02*
X167890481Y-86859519D01*
X164410000Y-91120000D02*
X164410000Y-82570000D01*
X162260000Y-93270000D02*
X164410000Y-91120000D01*
X164410000Y-82570000D02*
X166980000Y-80000000D01*
D23*
X151290000Y-102420000D02*
X150220000Y-101350000D01*
D21*
X151420000Y-82810000D02*
X151420000Y-88490000D01*
D23*
X150220000Y-101350000D02*
X150220000Y-93050000D01*
D21*
X151420000Y-82810000D02*
X148930000Y-80320000D01*
D23*
X150220000Y-93050000D02*
X148540000Y-91370000D01*
D21*
X151420000Y-88490000D02*
X148540000Y-91370000D01*
D22*
X157940000Y-101100000D02*
X162390000Y-96650000D01*
X157500000Y-101100000D02*
X157940000Y-101100000D01*
X166280000Y-96650000D02*
X168240000Y-94690000D01*
X162390000Y-96650000D02*
X166280000Y-96650000D01*
X168240000Y-94690000D02*
X168240000Y-89510000D01*
X168240000Y-89510000D02*
X169750000Y-88000000D01*
X158260000Y-95000000D02*
X161780000Y-91480000D01*
X161780000Y-91480000D02*
X161780000Y-82660000D01*
X157700000Y-95000000D02*
X158260000Y-95000000D01*
X161780000Y-82660000D02*
X164440000Y-80000000D01*
D21*
X131730000Y-104530000D02*
X131759511Y-104559511D01*
X140945511Y-104559511D02*
X142073000Y-105687000D01*
X131759511Y-104559511D02*
X140945511Y-104559511D01*
X143530000Y-95040000D02*
X144660000Y-93910000D01*
X130840000Y-102400000D02*
X135430000Y-97810000D01*
X141740002Y-97810000D02*
X143530000Y-96020002D01*
X130840000Y-103470000D02*
X130840000Y-102400000D01*
X143530000Y-96020002D02*
X143530000Y-95040000D01*
X144660000Y-93910000D02*
X146000000Y-93910000D01*
X135430000Y-97810000D02*
X141740002Y-97810000D01*
D20*
X150140000Y-102490000D02*
X150140000Y-114250000D01*
X122180000Y-118070000D02*
X118530000Y-114420000D01*
X150140000Y-114250000D02*
X146320000Y-118070000D01*
X148540000Y-98990000D02*
X148540000Y-100890000D01*
X148540000Y-100890000D02*
X150140000Y-102490000D01*
X146320000Y-118070000D02*
X122180000Y-118070000D01*
D21*
X124390000Y-96650000D02*
X126070000Y-96650000D01*
X123130000Y-97910000D02*
X124390000Y-96650000D01*
X123130000Y-99640000D02*
X123130000Y-97910000D01*
D22*
X178038000Y-106228000D02*
X190728000Y-106228000D01*
X171440000Y-99970000D02*
X175923904Y-99970000D01*
X170970000Y-99190000D02*
X170970000Y-99500000D01*
X175923904Y-99970000D02*
X177500000Y-101546096D01*
X177500000Y-105690000D02*
X178038000Y-106228000D01*
X177500000Y-101546096D02*
X177500000Y-105690000D01*
X170970000Y-99500000D02*
X171440000Y-99970000D01*
D20*
X131630000Y-116610000D02*
X131670000Y-116610000D01*
X129410000Y-114390000D02*
X131630000Y-116610000D01*
X133450000Y-114390000D02*
X134960000Y-115900000D01*
X131950000Y-114390000D02*
X133450000Y-114390000D01*
G04 #@! TA.AperFunction,Conductor*
G36*
X119530817Y-75170002D02*
G01*
X119577310Y-75223658D01*
X119588695Y-75275417D01*
X119603888Y-78556972D01*
X119604008Y-78582917D01*
X119584321Y-78651129D01*
X119530881Y-78697870D01*
X119478009Y-78709500D01*
X116783793Y-78709500D01*
X116715672Y-78689498D01*
X116689280Y-78666826D01*
X116685832Y-78662915D01*
X116681531Y-78656657D01*
X116658169Y-78635842D01*
X116569648Y-78556972D01*
X116569645Y-78556970D01*
X116563976Y-78551919D01*
X116424831Y-78478245D01*
X116349531Y-78459331D01*
X116279498Y-78441740D01*
X116279496Y-78441740D01*
X116272128Y-78439889D01*
X116264530Y-78439849D01*
X116264528Y-78439849D01*
X116197319Y-78439497D01*
X116114684Y-78439065D01*
X116107305Y-78440837D01*
X116107301Y-78440837D01*
X115968967Y-78474048D01*
X115968963Y-78474049D01*
X115961588Y-78475820D01*
X115821679Y-78548032D01*
X115815957Y-78553024D01*
X115815955Y-78553025D01*
X115708759Y-78646538D01*
X115708756Y-78646541D01*
X115703034Y-78651533D01*
X115698667Y-78657747D01*
X115618393Y-78771965D01*
X115612501Y-78780348D01*
X115555309Y-78927039D01*
X115554318Y-78934568D01*
X115536065Y-79073213D01*
X115534758Y-79083138D01*
X115552035Y-79239633D01*
X115606143Y-79387490D01*
X115610380Y-79393796D01*
X115610382Y-79393799D01*
X115619426Y-79407257D01*
X115693958Y-79518172D01*
X115726085Y-79547405D01*
X115796472Y-79611452D01*
X115810410Y-79624135D01*
X115817085Y-79627759D01*
X115942099Y-79695637D01*
X115942101Y-79695638D01*
X115948776Y-79699262D01*
X115956125Y-79701190D01*
X116093719Y-79737287D01*
X116093721Y-79737287D01*
X116101069Y-79739215D01*
X116184380Y-79740524D01*
X116250898Y-79741569D01*
X116250901Y-79741569D01*
X116258495Y-79741688D01*
X116411968Y-79706538D01*
X116552625Y-79635795D01*
X116655713Y-79547750D01*
X116663980Y-79540689D01*
X116728769Y-79511658D01*
X116745810Y-79510500D01*
X119482884Y-79510500D01*
X119551005Y-79530502D01*
X119597498Y-79584158D01*
X119608883Y-79635915D01*
X119617818Y-81566071D01*
X119627253Y-83604020D01*
X119607566Y-83672232D01*
X119584083Y-83699552D01*
X119518761Y-83756536D01*
X119518757Y-83756541D01*
X119516552Y-83758464D01*
X119516549Y-83758466D01*
X119513033Y-83761533D01*
X119512522Y-83760947D01*
X119457169Y-83795050D01*
X119423977Y-83799500D01*
X115764144Y-83799500D01*
X115696023Y-83779498D01*
X115680331Y-83767581D01*
X115673976Y-83761919D01*
X115663810Y-83756536D01*
X115541543Y-83691799D01*
X115541544Y-83691799D01*
X115534831Y-83688245D01*
X115518122Y-83684048D01*
X115389498Y-83651740D01*
X115389496Y-83651740D01*
X115382128Y-83649889D01*
X115374530Y-83649849D01*
X115374528Y-83649849D01*
X115307319Y-83649497D01*
X115224684Y-83649065D01*
X115217305Y-83650837D01*
X115217301Y-83650837D01*
X115078967Y-83684048D01*
X115078963Y-83684049D01*
X115071588Y-83685820D01*
X114931679Y-83758032D01*
X114925957Y-83763024D01*
X114925955Y-83763025D01*
X114818759Y-83856538D01*
X114818756Y-83856541D01*
X114813034Y-83861533D01*
X114808667Y-83867747D01*
X114749585Y-83951812D01*
X114722501Y-83990348D01*
X114665309Y-84137039D01*
X114664318Y-84144568D01*
X114651204Y-84244178D01*
X114644758Y-84293138D01*
X114662035Y-84449633D01*
X114716143Y-84597490D01*
X114720380Y-84603796D01*
X114720382Y-84603799D01*
X114750493Y-84648608D01*
X114803958Y-84728172D01*
X114833209Y-84754788D01*
X114894348Y-84810420D01*
X114920410Y-84834135D01*
X114953768Y-84852247D01*
X115052099Y-84905637D01*
X115052101Y-84905638D01*
X115058776Y-84909262D01*
X115066125Y-84911190D01*
X115203719Y-84947287D01*
X115203721Y-84947287D01*
X115211069Y-84949215D01*
X115294380Y-84950524D01*
X115360898Y-84951569D01*
X115360901Y-84951569D01*
X115368495Y-84951688D01*
X115521968Y-84916538D01*
X115662625Y-84845795D01*
X115693298Y-84819598D01*
X115776574Y-84748474D01*
X115776576Y-84748471D01*
X115782348Y-84743542D01*
X115789721Y-84733282D01*
X115847429Y-84652974D01*
X115903423Y-84609326D01*
X115949751Y-84600500D01*
X119424801Y-84600500D01*
X119492922Y-84620502D01*
X119509600Y-84633306D01*
X119526417Y-84648608D01*
X119552944Y-84672745D01*
X119558299Y-84677618D01*
X119595222Y-84738258D01*
X119599500Y-84770812D01*
X119599500Y-90281918D01*
X119579498Y-90350039D01*
X119562595Y-90371013D01*
X118371012Y-91562595D01*
X118308700Y-91596621D01*
X118281917Y-91599500D01*
X117326160Y-91599500D01*
X117258039Y-91579498D01*
X117242208Y-91565897D01*
X117241531Y-91566657D01*
X117129648Y-91466972D01*
X117129645Y-91466970D01*
X117123976Y-91461919D01*
X117102053Y-91450311D01*
X116996731Y-91394546D01*
X116984831Y-91388245D01*
X116898240Y-91366495D01*
X116839498Y-91351740D01*
X116839496Y-91351740D01*
X116832128Y-91349889D01*
X116824530Y-91349849D01*
X116824528Y-91349849D01*
X116757319Y-91349497D01*
X116674684Y-91349065D01*
X116667305Y-91350837D01*
X116667301Y-91350837D01*
X116528967Y-91384048D01*
X116528963Y-91384049D01*
X116521588Y-91385820D01*
X116381679Y-91458032D01*
X116375957Y-91463024D01*
X116375955Y-91463025D01*
X116281699Y-91545250D01*
X116263034Y-91561533D01*
X116262523Y-91560947D01*
X116207170Y-91595050D01*
X116173978Y-91599500D01*
X113686567Y-91599500D01*
X113677136Y-91602564D01*
X113677132Y-91602565D01*
X113665647Y-91606297D01*
X113646422Y-91610913D01*
X113634488Y-91612803D01*
X113634487Y-91612803D01*
X113624696Y-91614354D01*
X113615863Y-91618855D01*
X113615859Y-91618856D01*
X113605094Y-91624341D01*
X113586834Y-91631905D01*
X113565910Y-91638704D01*
X113548107Y-91651639D01*
X113531254Y-91661965D01*
X113511658Y-91671950D01*
X113489095Y-91694513D01*
X113489091Y-91694516D01*
X108944516Y-96239091D01*
X108944513Y-96239095D01*
X108921950Y-96261658D01*
X108917446Y-96270498D01*
X108911965Y-96281255D01*
X108901639Y-96298107D01*
X108888704Y-96315910D01*
X108883320Y-96332481D01*
X108881907Y-96336830D01*
X108874341Y-96355094D01*
X108868856Y-96365859D01*
X108868855Y-96365863D01*
X108864354Y-96374696D01*
X108862803Y-96384487D01*
X108862803Y-96384488D01*
X108860913Y-96396422D01*
X108856297Y-96415647D01*
X108852565Y-96427132D01*
X108852564Y-96427136D01*
X108849500Y-96436567D01*
X108849500Y-107313433D01*
X108852564Y-107322864D01*
X108852565Y-107322868D01*
X108856297Y-107334353D01*
X108860913Y-107353578D01*
X108861761Y-107358929D01*
X108864354Y-107375304D01*
X108868855Y-107384137D01*
X108868856Y-107384141D01*
X108874341Y-107394906D01*
X108881905Y-107413166D01*
X108888704Y-107434090D01*
X108901639Y-107451893D01*
X108911965Y-107468745D01*
X108921950Y-107488342D01*
X108944513Y-107510905D01*
X108944516Y-107510909D01*
X113619091Y-112185484D01*
X113619095Y-112185487D01*
X113641658Y-112208050D01*
X113650497Y-112212554D01*
X113650499Y-112212555D01*
X113661258Y-112218037D01*
X113678114Y-112228365D01*
X113695911Y-112241296D01*
X113716832Y-112248094D01*
X113735092Y-112255658D01*
X113745859Y-112261144D01*
X113745863Y-112261145D01*
X113754696Y-112265646D01*
X113764487Y-112267197D01*
X113764488Y-112267197D01*
X113776422Y-112269087D01*
X113795647Y-112273703D01*
X113807132Y-112277435D01*
X113807136Y-112277436D01*
X113816567Y-112280500D01*
X117533976Y-112280500D01*
X117602097Y-112300502D01*
X117646042Y-112348906D01*
X117682123Y-112419113D01*
X117682126Y-112419117D01*
X117684944Y-112424601D01*
X117806818Y-112578369D01*
X117956238Y-112705535D01*
X117961616Y-112708541D01*
X117961618Y-112708542D01*
X117997932Y-112728837D01*
X118127513Y-112801257D01*
X118314118Y-112861889D01*
X118508946Y-112885121D01*
X118515081Y-112884649D01*
X118515083Y-112884649D01*
X118698434Y-112870541D01*
X118698438Y-112870540D01*
X118704576Y-112870068D01*
X118893556Y-112817303D01*
X119068689Y-112728837D01*
X119098515Y-112705535D01*
X119218453Y-112611829D01*
X119223303Y-112608040D01*
X119253084Y-112573539D01*
X119347485Y-112464173D01*
X119347485Y-112464172D01*
X119351509Y-112459511D01*
X119368552Y-112429511D01*
X119445378Y-112294272D01*
X119448425Y-112288909D01*
X119510358Y-112102732D01*
X119534949Y-111908071D01*
X119535341Y-111880000D01*
X119516194Y-111684728D01*
X119514413Y-111678829D01*
X119514412Y-111678824D01*
X119461265Y-111502793D01*
X119459484Y-111496894D01*
X119367370Y-111323653D01*
X119243361Y-111171602D01*
X119092180Y-111046535D01*
X118919585Y-110953213D01*
X118797411Y-110915394D01*
X118738039Y-110897015D01*
X118738036Y-110897014D01*
X118732152Y-110895193D01*
X118726027Y-110894549D01*
X118726026Y-110894549D01*
X118543147Y-110875327D01*
X118543146Y-110875327D01*
X118537019Y-110874683D01*
X118414733Y-110885812D01*
X118347759Y-110891907D01*
X118347758Y-110891907D01*
X118341618Y-110892466D01*
X118335704Y-110894207D01*
X118335702Y-110894207D01*
X118266410Y-110914601D01*
X118153393Y-110947864D01*
X118147930Y-110950720D01*
X118147928Y-110950721D01*
X117984972Y-111035912D01*
X117984968Y-111035915D01*
X117979512Y-111038767D01*
X117974712Y-111042627D01*
X117974711Y-111042627D01*
X117957624Y-111056365D01*
X117826600Y-111161711D01*
X117700480Y-111312016D01*
X117697514Y-111317412D01*
X117697508Y-111317420D01*
X117644302Y-111414201D01*
X117593957Y-111464260D01*
X117533888Y-111479500D01*
X114098083Y-111479500D01*
X114029962Y-111459498D01*
X114008988Y-111442595D01*
X112771213Y-110204820D01*
X117529500Y-110204820D01*
X117538233Y-110248722D01*
X117545127Y-110259040D01*
X117545128Y-110259042D01*
X117564601Y-110288185D01*
X117571496Y-110298504D01*
X117581815Y-110305399D01*
X117610958Y-110324872D01*
X117610960Y-110324873D01*
X117621278Y-110331767D01*
X117665180Y-110340500D01*
X119394820Y-110340500D01*
X119438722Y-110331767D01*
X119449040Y-110324873D01*
X119449042Y-110324872D01*
X119478185Y-110305399D01*
X119488504Y-110298504D01*
X119495399Y-110288185D01*
X119514872Y-110259042D01*
X119514873Y-110259040D01*
X119521767Y-110248722D01*
X119530500Y-110204820D01*
X119530500Y-108475180D01*
X119521767Y-108431278D01*
X119514873Y-108420960D01*
X119514872Y-108420958D01*
X119495399Y-108391815D01*
X119488504Y-108381496D01*
X119478185Y-108374601D01*
X119449042Y-108355128D01*
X119449040Y-108355127D01*
X119438722Y-108348233D01*
X119394820Y-108339500D01*
X117665180Y-108339500D01*
X117621278Y-108348233D01*
X117610960Y-108355127D01*
X117610958Y-108355128D01*
X117581815Y-108374601D01*
X117571496Y-108381496D01*
X117564601Y-108391815D01*
X117545128Y-108420958D01*
X117545127Y-108420960D01*
X117538233Y-108431278D01*
X117529500Y-108475180D01*
X117529500Y-110204820D01*
X112771213Y-110204820D01*
X109687405Y-107121012D01*
X109653379Y-107058700D01*
X109650500Y-107031917D01*
X109650500Y-99760000D01*
X114814750Y-99760000D01*
X114833670Y-99903709D01*
X114889139Y-100037625D01*
X114977379Y-100152621D01*
X115092375Y-100240861D01*
X115226291Y-100296330D01*
X115370000Y-100315250D01*
X115513709Y-100296330D01*
X115647625Y-100240861D01*
X115762621Y-100152621D01*
X115850861Y-100037625D01*
X115906330Y-99903709D01*
X115925250Y-99760000D01*
X115906330Y-99616291D01*
X115850861Y-99482375D01*
X115762621Y-99367379D01*
X115647625Y-99279139D01*
X115513709Y-99223670D01*
X115370000Y-99204750D01*
X115226291Y-99223670D01*
X115092375Y-99279139D01*
X114977379Y-99367379D01*
X114889139Y-99482375D01*
X114833670Y-99616291D01*
X114814750Y-99760000D01*
X109650500Y-99760000D01*
X109650500Y-96718083D01*
X109670502Y-96649962D01*
X109687405Y-96628988D01*
X112186393Y-94130000D01*
X114804750Y-94130000D01*
X114823670Y-94273709D01*
X114879139Y-94407625D01*
X114967379Y-94522621D01*
X115082375Y-94610861D01*
X115216291Y-94666330D01*
X115360000Y-94685250D01*
X115503709Y-94666330D01*
X115637625Y-94610861D01*
X115752621Y-94522621D01*
X115840861Y-94407625D01*
X115896330Y-94273709D01*
X115915250Y-94130000D01*
X115896330Y-93986291D01*
X115840861Y-93852375D01*
X115752621Y-93737379D01*
X115637625Y-93649139D01*
X115503709Y-93593670D01*
X115360000Y-93574750D01*
X115216291Y-93593670D01*
X115082375Y-93649139D01*
X114967379Y-93737379D01*
X114879139Y-93852375D01*
X114823670Y-93986291D01*
X114804750Y-94130000D01*
X112186393Y-94130000D01*
X113878988Y-92437405D01*
X113941300Y-92403379D01*
X113968083Y-92400500D01*
X116174800Y-92400500D01*
X116242921Y-92420502D01*
X116259599Y-92433306D01*
X116364789Y-92529021D01*
X116364793Y-92529024D01*
X116370410Y-92534135D01*
X116421911Y-92562098D01*
X116502099Y-92605637D01*
X116502101Y-92605638D01*
X116508776Y-92609262D01*
X116516125Y-92611190D01*
X116653719Y-92647287D01*
X116653721Y-92647287D01*
X116661069Y-92649215D01*
X116744380Y-92650524D01*
X116810898Y-92651569D01*
X116810901Y-92651569D01*
X116818495Y-92651688D01*
X116971968Y-92616538D01*
X117112625Y-92545795D01*
X117170655Y-92496233D01*
X117226568Y-92448479D01*
X117226570Y-92448477D01*
X117232348Y-92443542D01*
X117234610Y-92440394D01*
X117294082Y-92404609D01*
X117325997Y-92400500D01*
X118563433Y-92400500D01*
X118572864Y-92397436D01*
X118572868Y-92397435D01*
X118584353Y-92393703D01*
X118603578Y-92389087D01*
X118615512Y-92387197D01*
X118615513Y-92387197D01*
X118625304Y-92385646D01*
X118634137Y-92381145D01*
X118634141Y-92381144D01*
X118644906Y-92375659D01*
X118663166Y-92368095D01*
X118684090Y-92361296D01*
X118701893Y-92348361D01*
X118718745Y-92338035D01*
X118729502Y-92332554D01*
X118738342Y-92328050D01*
X118760905Y-92305487D01*
X118760909Y-92305484D01*
X119449665Y-91616728D01*
X119511977Y-91582702D01*
X119582792Y-91587767D01*
X119639628Y-91630314D01*
X119664439Y-91696834D01*
X119664759Y-91705240D01*
X119685864Y-96263829D01*
X119686031Y-96300000D01*
X124010839Y-96300000D01*
X124078960Y-96320002D01*
X124125453Y-96373658D01*
X124135557Y-96443932D01*
X124106063Y-96508512D01*
X124099934Y-96515095D01*
X122954548Y-97660481D01*
X122952514Y-97662237D01*
X122947731Y-97664575D01*
X122939819Y-97673104D01*
X122939818Y-97673105D01*
X122914427Y-97700477D01*
X122911147Y-97703882D01*
X122897752Y-97717277D01*
X122895028Y-97721247D01*
X122892703Y-97723895D01*
X122879508Y-97738119D01*
X122879506Y-97738122D01*
X122871599Y-97746646D01*
X122867289Y-97757450D01*
X122864767Y-97761439D01*
X122859006Y-97772227D01*
X122857089Y-97776552D01*
X122850508Y-97786146D01*
X122847822Y-97797465D01*
X122847821Y-97797467D01*
X122844817Y-97810127D01*
X122839252Y-97827724D01*
X122833412Y-97842362D01*
X122830117Y-97850622D01*
X122829500Y-97856915D01*
X122829500Y-97859994D01*
X122829350Y-97863067D01*
X122829134Y-97863056D01*
X122827802Y-97874431D01*
X122827346Y-97883746D01*
X122824660Y-97895066D01*
X122826229Y-97906595D01*
X122826229Y-97906596D01*
X122828349Y-97922173D01*
X122829500Y-97939164D01*
X122829500Y-99114556D01*
X122809498Y-99182677D01*
X122780204Y-99214518D01*
X122737379Y-99247379D01*
X122649139Y-99362375D01*
X122593670Y-99496291D01*
X122574750Y-99640000D01*
X122593670Y-99783709D01*
X122649139Y-99917625D01*
X122737379Y-100032621D01*
X122852375Y-100120861D01*
X122986291Y-100176330D01*
X123130000Y-100195250D01*
X123273709Y-100176330D01*
X123407625Y-100120861D01*
X123522621Y-100032621D01*
X123610861Y-99917625D01*
X123666330Y-99783709D01*
X123685250Y-99640000D01*
X123666330Y-99496291D01*
X123610861Y-99362375D01*
X123522621Y-99247379D01*
X123479796Y-99214518D01*
X123437929Y-99157180D01*
X123430500Y-99114556D01*
X123430500Y-98086661D01*
X123450502Y-98018540D01*
X123467405Y-97997566D01*
X124477566Y-96987405D01*
X124539878Y-96953379D01*
X124566661Y-96950500D01*
X125544556Y-96950500D01*
X125612677Y-96970502D01*
X125644518Y-96999796D01*
X125677379Y-97042621D01*
X125792375Y-97130861D01*
X125926291Y-97186330D01*
X126070000Y-97205250D01*
X126213709Y-97186330D01*
X126347625Y-97130861D01*
X126462621Y-97042621D01*
X126550861Y-96927625D01*
X126606330Y-96793709D01*
X126625250Y-96650000D01*
X126606330Y-96506291D01*
X126593045Y-96474218D01*
X126585456Y-96403628D01*
X126617235Y-96340141D01*
X126678294Y-96303914D01*
X126709454Y-96300000D01*
X131229417Y-96300000D01*
X131297538Y-96320002D01*
X131344031Y-96373658D01*
X131354135Y-96443932D01*
X131324641Y-96508512D01*
X131318512Y-96515095D01*
X128121527Y-99712080D01*
X128121524Y-99712084D01*
X128098961Y-99734647D01*
X128093941Y-99744500D01*
X128088976Y-99754244D01*
X128078650Y-99771096D01*
X128065715Y-99788899D01*
X128061392Y-99802204D01*
X128058918Y-99809819D01*
X128051352Y-99828083D01*
X128045867Y-99838848D01*
X128045866Y-99838852D01*
X128041365Y-99847685D01*
X128039814Y-99857476D01*
X128039814Y-99857477D01*
X128037924Y-99869411D01*
X128033308Y-99888636D01*
X128029576Y-99900121D01*
X128029575Y-99900125D01*
X128026511Y-99909556D01*
X128026511Y-101532636D01*
X128006509Y-101600757D01*
X127952853Y-101647250D01*
X127882579Y-101657354D01*
X127852294Y-101649045D01*
X127828843Y-101639332D01*
X127821209Y-101636170D01*
X127677500Y-101617250D01*
X127533791Y-101636170D01*
X127399875Y-101691639D01*
X127284879Y-101779879D01*
X127196639Y-101894875D01*
X127141170Y-102028791D01*
X127122250Y-102172500D01*
X127141170Y-102316209D01*
X127196639Y-102450125D01*
X127284879Y-102565121D01*
X127399875Y-102653361D01*
X127533791Y-102708830D01*
X127677500Y-102727750D01*
X127821209Y-102708830D01*
X127834676Y-102703252D01*
X127852294Y-102695955D01*
X127922884Y-102688366D01*
X127986371Y-102720146D01*
X128022597Y-102781205D01*
X128026511Y-102812364D01*
X128026511Y-108390444D01*
X128029575Y-108399875D01*
X128029576Y-108399879D01*
X128033308Y-108411364D01*
X128037924Y-108430589D01*
X128041365Y-108452315D01*
X128045866Y-108461148D01*
X128045867Y-108461152D01*
X128051352Y-108471917D01*
X128058916Y-108490177D01*
X128065715Y-108511101D01*
X128078650Y-108528904D01*
X128088976Y-108545756D01*
X128098961Y-108565353D01*
X128121524Y-108587916D01*
X128121527Y-108587920D01*
X130168012Y-110634405D01*
X130202038Y-110696717D01*
X130196973Y-110767532D01*
X130154426Y-110824368D01*
X130087906Y-110849179D01*
X130078917Y-110849500D01*
X128545180Y-110849500D01*
X128501278Y-110858233D01*
X128490960Y-110865127D01*
X128490958Y-110865128D01*
X128469449Y-110879500D01*
X128451496Y-110891496D01*
X128444601Y-110901815D01*
X128425128Y-110930958D01*
X128425127Y-110930960D01*
X128418233Y-110941278D01*
X128409500Y-110985180D01*
X128409500Y-112714820D01*
X128418233Y-112758722D01*
X128425127Y-112769040D01*
X128425128Y-112769042D01*
X128437330Y-112787303D01*
X128451496Y-112808504D01*
X128461815Y-112815399D01*
X128490958Y-112834872D01*
X128490960Y-112834873D01*
X128501278Y-112841767D01*
X128545180Y-112850500D01*
X130274820Y-112850500D01*
X130318722Y-112841767D01*
X130329040Y-112834873D01*
X130329042Y-112834872D01*
X130358185Y-112815399D01*
X130368504Y-112808504D01*
X130382670Y-112787303D01*
X130394872Y-112769042D01*
X130394873Y-112769040D01*
X130401767Y-112758722D01*
X130410500Y-112714820D01*
X130410500Y-111181083D01*
X130430502Y-111112962D01*
X130484158Y-111066469D01*
X130554432Y-111056365D01*
X130619012Y-111085859D01*
X130625595Y-111091988D01*
X130962538Y-111428931D01*
X130996564Y-111491243D01*
X130993545Y-111556124D01*
X130966628Y-111640978D01*
X130965942Y-111647095D01*
X130965941Y-111647099D01*
X130945444Y-111829838D01*
X130944757Y-111835963D01*
X130961175Y-112031483D01*
X131015258Y-112220091D01*
X131018076Y-112225574D01*
X131102123Y-112389113D01*
X131102126Y-112389117D01*
X131104944Y-112394601D01*
X131226818Y-112548369D01*
X131231511Y-112552363D01*
X131231512Y-112552364D01*
X131358383Y-112660339D01*
X131376238Y-112675535D01*
X131381616Y-112678541D01*
X131381618Y-112678542D01*
X131429917Y-112705535D01*
X131547513Y-112771257D01*
X131734118Y-112831889D01*
X131928946Y-112855121D01*
X131935081Y-112854649D01*
X131935083Y-112854649D01*
X132118434Y-112840541D01*
X132118438Y-112840540D01*
X132124576Y-112840068D01*
X132313556Y-112787303D01*
X132488689Y-112698837D01*
X132518515Y-112675535D01*
X132600055Y-112611829D01*
X132643303Y-112578040D01*
X132673084Y-112543539D01*
X132767485Y-112434173D01*
X132767485Y-112434172D01*
X132771509Y-112429511D01*
X132868425Y-112258909D01*
X132930358Y-112072732D01*
X132954949Y-111878071D01*
X132955341Y-111850000D01*
X132936194Y-111654728D01*
X132934413Y-111648829D01*
X132934412Y-111648824D01*
X132881265Y-111472793D01*
X132879484Y-111466894D01*
X132787370Y-111293653D01*
X132663361Y-111141602D01*
X132512180Y-111016535D01*
X132339585Y-110923213D01*
X132234355Y-110890639D01*
X132158039Y-110867015D01*
X132158036Y-110867014D01*
X132152152Y-110865193D01*
X132146027Y-110864549D01*
X132146026Y-110864549D01*
X131963147Y-110845327D01*
X131963146Y-110845327D01*
X131957019Y-110844683D01*
X131890827Y-110850707D01*
X131767757Y-110861907D01*
X131767754Y-110861908D01*
X131761618Y-110862466D01*
X131755708Y-110864205D01*
X131755705Y-110864206D01*
X131717921Y-110875327D01*
X131653556Y-110894271D01*
X131582560Y-110894317D01*
X131528886Y-110862493D01*
X128864416Y-108198023D01*
X128830390Y-108135711D01*
X128827511Y-108108928D01*
X128827511Y-107195000D01*
X138669750Y-107195000D01*
X138688670Y-107338709D01*
X138744139Y-107472625D01*
X138832379Y-107587621D01*
X138947375Y-107675861D01*
X139081291Y-107731330D01*
X139225000Y-107750250D01*
X139264877Y-107745000D01*
X141249750Y-107745000D01*
X141268670Y-107888709D01*
X141324139Y-108022625D01*
X141412379Y-108137621D01*
X141527375Y-108225861D01*
X141661291Y-108281330D01*
X141805000Y-108300250D01*
X141948709Y-108281330D01*
X142082625Y-108225861D01*
X142197621Y-108137621D01*
X142285861Y-108022625D01*
X142341330Y-107888709D01*
X142360250Y-107745000D01*
X142341330Y-107601291D01*
X142285861Y-107467375D01*
X142197621Y-107352379D01*
X142082625Y-107264139D01*
X141948709Y-107208670D01*
X141805000Y-107189750D01*
X141661291Y-107208670D01*
X141527375Y-107264139D01*
X141412379Y-107352379D01*
X141324139Y-107467375D01*
X141268670Y-107601291D01*
X141249750Y-107745000D01*
X139264877Y-107745000D01*
X139368709Y-107731330D01*
X139502625Y-107675861D01*
X139617621Y-107587621D01*
X139705861Y-107472625D01*
X139761330Y-107338709D01*
X139780250Y-107195000D01*
X139761330Y-107051291D01*
X139705861Y-106917375D01*
X139617621Y-106802379D01*
X139502625Y-106714139D01*
X139368709Y-106658670D01*
X139225000Y-106639750D01*
X139081291Y-106658670D01*
X138947375Y-106714139D01*
X138832379Y-106802379D01*
X138744139Y-106917375D01*
X138688670Y-107051291D01*
X138669750Y-107195000D01*
X128827511Y-107195000D01*
X128827511Y-105844440D01*
X135294901Y-105844440D01*
X135296065Y-105853342D01*
X135296065Y-105853345D01*
X135310468Y-105963489D01*
X135310469Y-105963493D01*
X135311633Y-105972394D01*
X135315250Y-105980614D01*
X135348452Y-106056071D01*
X135363605Y-106090510D01*
X135369382Y-106097383D01*
X135369383Y-106097384D01*
X135424398Y-106162832D01*
X135446639Y-106189291D01*
X135554060Y-106260796D01*
X135677233Y-106299278D01*
X135686203Y-106299442D01*
X135686207Y-106299443D01*
X135744942Y-106300519D01*
X135806255Y-106301643D01*
X135868505Y-106284672D01*
X135922092Y-106270062D01*
X135922093Y-106270062D01*
X135930755Y-106267700D01*
X135938405Y-106263003D01*
X135938407Y-106263002D01*
X136033072Y-106204878D01*
X136033075Y-106204875D01*
X136040724Y-106200179D01*
X136046750Y-106193522D01*
X136121300Y-106111161D01*
X136121303Y-106111157D01*
X136127322Y-106104507D01*
X136183588Y-105988375D01*
X136204997Y-105861120D01*
X136205133Y-105850000D01*
X136189115Y-105738151D01*
X136188112Y-105731145D01*
X136188111Y-105731142D01*
X136186839Y-105722259D01*
X136183125Y-105714090D01*
X136137145Y-105612962D01*
X136137143Y-105612959D01*
X136133428Y-105604788D01*
X136049193Y-105507028D01*
X135940906Y-105436841D01*
X135932311Y-105434271D01*
X135932310Y-105434270D01*
X135825874Y-105402438D01*
X135825872Y-105402438D01*
X135817273Y-105399866D01*
X135808298Y-105399811D01*
X135808297Y-105399811D01*
X135753641Y-105399477D01*
X135688231Y-105399078D01*
X135626193Y-105416809D01*
X135572786Y-105432072D01*
X135572784Y-105432073D01*
X135564155Y-105434539D01*
X135455019Y-105503399D01*
X135449076Y-105510128D01*
X135449075Y-105510129D01*
X135412555Y-105551480D01*
X135369596Y-105600122D01*
X135365782Y-105608245D01*
X135365781Y-105608247D01*
X135352408Y-105636731D01*
X135314754Y-105716932D01*
X135311128Y-105740222D01*
X135296282Y-105835567D01*
X135296282Y-105835571D01*
X135294901Y-105844440D01*
X128827511Y-105844440D01*
X128827511Y-104530000D01*
X131174750Y-104530000D01*
X131193670Y-104673709D01*
X131249139Y-104807625D01*
X131337379Y-104922621D01*
X131452375Y-105010861D01*
X131586291Y-105066330D01*
X131730000Y-105085250D01*
X131873709Y-105066330D01*
X132007625Y-105010861D01*
X132102751Y-104937868D01*
X132116068Y-104927650D01*
X132116071Y-104927647D01*
X132122621Y-104922621D01*
X132127647Y-104916071D01*
X132127651Y-104916067D01*
X132132838Y-104909307D01*
X132190176Y-104867440D01*
X132232800Y-104860011D01*
X140768849Y-104860011D01*
X140836970Y-104880013D01*
X140857945Y-104896916D01*
X141488970Y-105527942D01*
X141522995Y-105590254D01*
X141524796Y-105633481D01*
X141517750Y-105687000D01*
X141536670Y-105830709D01*
X141592139Y-105964625D01*
X141680379Y-106079621D01*
X141795375Y-106167861D01*
X141929291Y-106223330D01*
X142073000Y-106242250D01*
X142216709Y-106223330D01*
X142350625Y-106167861D01*
X142465621Y-106079621D01*
X142553861Y-105964625D01*
X142609330Y-105830709D01*
X142628250Y-105687000D01*
X142609330Y-105543291D01*
X142553861Y-105409375D01*
X142465621Y-105294379D01*
X142350625Y-105206139D01*
X142216709Y-105150670D01*
X142073000Y-105131750D01*
X142019481Y-105138796D01*
X141949333Y-105127857D01*
X141913940Y-105102969D01*
X141195030Y-104384059D01*
X141193274Y-104382025D01*
X141190936Y-104377242D01*
X141155034Y-104343938D01*
X141151629Y-104340658D01*
X141138234Y-104327263D01*
X141134264Y-104324539D01*
X141131616Y-104322214D01*
X141117392Y-104309019D01*
X141117389Y-104309017D01*
X141108865Y-104301110D01*
X141098061Y-104296800D01*
X141094072Y-104294278D01*
X141083284Y-104288517D01*
X141078959Y-104286600D01*
X141069365Y-104280019D01*
X141058046Y-104277333D01*
X141058044Y-104277332D01*
X141045384Y-104274328D01*
X141027787Y-104268763D01*
X141013149Y-104262923D01*
X141013146Y-104262922D01*
X141004889Y-104259628D01*
X140998596Y-104259011D01*
X140995517Y-104259011D01*
X140992444Y-104258861D01*
X140992455Y-104258645D01*
X140981080Y-104257313D01*
X140971765Y-104256857D01*
X140960445Y-104254171D01*
X140948916Y-104255740D01*
X140948915Y-104255740D01*
X140933338Y-104257860D01*
X140916347Y-104259011D01*
X132278089Y-104259011D01*
X132209968Y-104239009D01*
X132178127Y-104209715D01*
X132127647Y-104143929D01*
X132122621Y-104137379D01*
X132007625Y-104049139D01*
X131873709Y-103993670D01*
X131730000Y-103974750D01*
X131586291Y-103993670D01*
X131452375Y-104049139D01*
X131337379Y-104137379D01*
X131249139Y-104252375D01*
X131193670Y-104386291D01*
X131174750Y-104530000D01*
X128827511Y-104530000D01*
X128827511Y-100191072D01*
X128847513Y-100122951D01*
X128864416Y-100101977D01*
X132305484Y-96660909D01*
X132305487Y-96660905D01*
X132328050Y-96638342D01*
X132334673Y-96625344D01*
X132338037Y-96618743D01*
X132348366Y-96601887D01*
X132350951Y-96598329D01*
X132361297Y-96584089D01*
X132368096Y-96563164D01*
X132375660Y-96544903D01*
X132381144Y-96534140D01*
X132381144Y-96534139D01*
X132385646Y-96525304D01*
X132389087Y-96503578D01*
X132393703Y-96484352D01*
X132397435Y-96472867D01*
X132397435Y-96472865D01*
X132400500Y-96463433D01*
X132400500Y-93436567D01*
X132397436Y-93427136D01*
X132397435Y-93427132D01*
X132393703Y-93415647D01*
X132389087Y-93396422D01*
X132387197Y-93384488D01*
X132387197Y-93384487D01*
X132385646Y-93374696D01*
X132381145Y-93365863D01*
X132381144Y-93365859D01*
X132375658Y-93355092D01*
X132368092Y-93336828D01*
X132364360Y-93325342D01*
X132361296Y-93315911D01*
X132348365Y-93298113D01*
X132338037Y-93281258D01*
X132332555Y-93270499D01*
X132332554Y-93270497D01*
X132328050Y-93261658D01*
X132305487Y-93239095D01*
X132305484Y-93239091D01*
X131460909Y-92394516D01*
X131460905Y-92394513D01*
X131438342Y-92371950D01*
X131418746Y-92361965D01*
X131401893Y-92351639D01*
X131384090Y-92338704D01*
X131363166Y-92331905D01*
X131344906Y-92324341D01*
X131334141Y-92318856D01*
X131334137Y-92318855D01*
X131325304Y-92314354D01*
X131315513Y-92312803D01*
X131315512Y-92312803D01*
X131303578Y-92310913D01*
X131284353Y-92306297D01*
X131272868Y-92302565D01*
X131272864Y-92302564D01*
X131263433Y-92299500D01*
X130118083Y-92299500D01*
X130049962Y-92279498D01*
X130028988Y-92262595D01*
X129722936Y-91956543D01*
X129688910Y-91894231D01*
X129686031Y-91867448D01*
X129686031Y-90990000D01*
X130854750Y-90990000D01*
X130873670Y-91133709D01*
X130929139Y-91267625D01*
X131017379Y-91382621D01*
X131132375Y-91470861D01*
X131266291Y-91526330D01*
X131410000Y-91545250D01*
X131553709Y-91526330D01*
X131687625Y-91470861D01*
X131802621Y-91382621D01*
X131890861Y-91267625D01*
X131946330Y-91133709D01*
X131965250Y-90990000D01*
X131946330Y-90846291D01*
X131902303Y-90740000D01*
X136474750Y-90740000D01*
X136493670Y-90883709D01*
X136549139Y-91017625D01*
X136637379Y-91132621D01*
X136752375Y-91220861D01*
X136886291Y-91276330D01*
X137030000Y-91295250D01*
X137173709Y-91276330D01*
X137307625Y-91220861D01*
X137422621Y-91132621D01*
X137510861Y-91017625D01*
X137566330Y-90883709D01*
X137585250Y-90740000D01*
X137566330Y-90596291D01*
X137510861Y-90462375D01*
X137422621Y-90347379D01*
X137307625Y-90259139D01*
X137173709Y-90203670D01*
X137030000Y-90184750D01*
X136886291Y-90203670D01*
X136752375Y-90259139D01*
X136637379Y-90347379D01*
X136549139Y-90462375D01*
X136493670Y-90596291D01*
X136474750Y-90740000D01*
X131902303Y-90740000D01*
X131890861Y-90712375D01*
X131802621Y-90597379D01*
X131687625Y-90509139D01*
X131553709Y-90453670D01*
X131410000Y-90434750D01*
X131266291Y-90453670D01*
X131132375Y-90509139D01*
X131017379Y-90597379D01*
X130929139Y-90712375D01*
X130873670Y-90846291D01*
X130854750Y-90990000D01*
X129686031Y-90990000D01*
X129686031Y-90083443D01*
X129706033Y-90015322D01*
X129759689Y-89968829D01*
X129829963Y-89958725D01*
X129894543Y-89988219D01*
X129928440Y-90035225D01*
X129979139Y-90157625D01*
X130067379Y-90272621D01*
X130182375Y-90360861D01*
X130316291Y-90416330D01*
X130460000Y-90435250D01*
X130603709Y-90416330D01*
X130737625Y-90360861D01*
X130852621Y-90272621D01*
X130940861Y-90157625D01*
X130996330Y-90023709D01*
X131015250Y-89880000D01*
X130996330Y-89736291D01*
X130940861Y-89602375D01*
X130852621Y-89487379D01*
X130823102Y-89464728D01*
X130809796Y-89454518D01*
X130767929Y-89397180D01*
X130760500Y-89354556D01*
X130760500Y-88610000D01*
X132314750Y-88610000D01*
X132333670Y-88753709D01*
X132389139Y-88887625D01*
X132477379Y-89002621D01*
X132592375Y-89090861D01*
X132726291Y-89146330D01*
X132870000Y-89165250D01*
X133013709Y-89146330D01*
X133147625Y-89090861D01*
X133262621Y-89002621D01*
X133295482Y-88959796D01*
X133352820Y-88917929D01*
X133395444Y-88910500D01*
X134037634Y-88910500D01*
X134040307Y-88910696D01*
X134045342Y-88912425D01*
X134056964Y-88911989D01*
X134056966Y-88911989D01*
X134094255Y-88910589D01*
X134098981Y-88910500D01*
X134117948Y-88910500D01*
X134122683Y-88909618D01*
X134126209Y-88909390D01*
X134129949Y-88909249D01*
X134157208Y-88908226D01*
X134167893Y-88903636D01*
X134172493Y-88902599D01*
X134184214Y-88899038D01*
X134188617Y-88897339D01*
X134200053Y-88895209D01*
X134221041Y-88882272D01*
X134237411Y-88873769D01*
X134251888Y-88867549D01*
X134251892Y-88867547D01*
X134260063Y-88864036D01*
X134264949Y-88860022D01*
X134267134Y-88857837D01*
X134269397Y-88855785D01*
X134269542Y-88855945D01*
X134278549Y-88848825D01*
X134285444Y-88842573D01*
X134295348Y-88836468D01*
X134311916Y-88814680D01*
X134323110Y-88801861D01*
X135455452Y-87669519D01*
X135457486Y-87667763D01*
X135462269Y-87665425D01*
X135471855Y-87655092D01*
X135495573Y-87629523D01*
X135498853Y-87626118D01*
X135512248Y-87612723D01*
X135514972Y-87608753D01*
X135517297Y-87606105D01*
X135530492Y-87591881D01*
X135530494Y-87591878D01*
X135538401Y-87583354D01*
X135542711Y-87572550D01*
X135545233Y-87568561D01*
X135550994Y-87557773D01*
X135552911Y-87553448D01*
X135559492Y-87543854D01*
X135565183Y-87519873D01*
X135570748Y-87502276D01*
X135576588Y-87487638D01*
X135576589Y-87487635D01*
X135579883Y-87479378D01*
X135580500Y-87473085D01*
X135580500Y-87470006D01*
X135580650Y-87466933D01*
X135580866Y-87466944D01*
X135582198Y-87455569D01*
X135582654Y-87446254D01*
X135585340Y-87434934D01*
X135581651Y-87407827D01*
X135580500Y-87390836D01*
X135580500Y-86052670D01*
X141562160Y-86052670D01*
X141567887Y-86060320D01*
X141739042Y-86165205D01*
X141747837Y-86169687D01*
X141957988Y-86256734D01*
X141967373Y-86259783D01*
X142188554Y-86312885D01*
X142198301Y-86314428D01*
X142425070Y-86332275D01*
X142434930Y-86332275D01*
X142661699Y-86314428D01*
X142671446Y-86312885D01*
X142892627Y-86259783D01*
X142902012Y-86256734D01*
X143112163Y-86169687D01*
X143120958Y-86165205D01*
X143288445Y-86062568D01*
X143297400Y-86052670D01*
X148062160Y-86052670D01*
X148067887Y-86060320D01*
X148239042Y-86165205D01*
X148247837Y-86169687D01*
X148457988Y-86256734D01*
X148467373Y-86259783D01*
X148688554Y-86312885D01*
X148698301Y-86314428D01*
X148925070Y-86332275D01*
X148934930Y-86332275D01*
X149161699Y-86314428D01*
X149171446Y-86312885D01*
X149392627Y-86259783D01*
X149402012Y-86256734D01*
X149612163Y-86169687D01*
X149620958Y-86165205D01*
X149788445Y-86062568D01*
X149797907Y-86052110D01*
X149794124Y-86043334D01*
X148942812Y-85192022D01*
X148928868Y-85184408D01*
X148927035Y-85184539D01*
X148920420Y-85188790D01*
X148068920Y-86040290D01*
X148062160Y-86052670D01*
X143297400Y-86052670D01*
X143297907Y-86052110D01*
X143294124Y-86043334D01*
X142442812Y-85192022D01*
X142428868Y-85184408D01*
X142427035Y-85184539D01*
X142420420Y-85188790D01*
X141568920Y-86040290D01*
X141562160Y-86052670D01*
X135580500Y-86052670D01*
X135580500Y-84824930D01*
X140917725Y-84824930D01*
X140935572Y-85051699D01*
X140937115Y-85061446D01*
X140990217Y-85282627D01*
X140993266Y-85292012D01*
X141080313Y-85502163D01*
X141084795Y-85510958D01*
X141187432Y-85678445D01*
X141197890Y-85687907D01*
X141206666Y-85684124D01*
X142057978Y-84832812D01*
X142064356Y-84821132D01*
X142794408Y-84821132D01*
X142794539Y-84822965D01*
X142798790Y-84829580D01*
X143650290Y-85681080D01*
X143662670Y-85687840D01*
X143670320Y-85682113D01*
X143775205Y-85510958D01*
X143779687Y-85502163D01*
X143866734Y-85292012D01*
X143869783Y-85282627D01*
X143922885Y-85061446D01*
X143924428Y-85051699D01*
X143942275Y-84824930D01*
X147417725Y-84824930D01*
X147435572Y-85051699D01*
X147437115Y-85061446D01*
X147490217Y-85282627D01*
X147493266Y-85292012D01*
X147580313Y-85502163D01*
X147584795Y-85510958D01*
X147687432Y-85678445D01*
X147697890Y-85687907D01*
X147706666Y-85684124D01*
X148557978Y-84832812D01*
X148564356Y-84821132D01*
X149294408Y-84821132D01*
X149294539Y-84822965D01*
X149298790Y-84829580D01*
X150150290Y-85681080D01*
X150162670Y-85687840D01*
X150170320Y-85682113D01*
X150275205Y-85510958D01*
X150279687Y-85502163D01*
X150366734Y-85292012D01*
X150369783Y-85282627D01*
X150422885Y-85061446D01*
X150424428Y-85051699D01*
X150442275Y-84824930D01*
X150442275Y-84815070D01*
X150424428Y-84588301D01*
X150422885Y-84578554D01*
X150369783Y-84357373D01*
X150366734Y-84347988D01*
X150279687Y-84137837D01*
X150275205Y-84129042D01*
X150172568Y-83961555D01*
X150162110Y-83952093D01*
X150153334Y-83955876D01*
X149302022Y-84807188D01*
X149294408Y-84821132D01*
X148564356Y-84821132D01*
X148565592Y-84818868D01*
X148565461Y-84817035D01*
X148561210Y-84810420D01*
X147709710Y-83958920D01*
X147697330Y-83952160D01*
X147689680Y-83957887D01*
X147584795Y-84129042D01*
X147580313Y-84137837D01*
X147493266Y-84347988D01*
X147490217Y-84357373D01*
X147437115Y-84578554D01*
X147435572Y-84588301D01*
X147417725Y-84815070D01*
X147417725Y-84824930D01*
X143942275Y-84824930D01*
X143942275Y-84815070D01*
X143924428Y-84588301D01*
X143922885Y-84578554D01*
X143869783Y-84357373D01*
X143866734Y-84347988D01*
X143779687Y-84137837D01*
X143775205Y-84129042D01*
X143672568Y-83961555D01*
X143662110Y-83952093D01*
X143653334Y-83955876D01*
X142802022Y-84807188D01*
X142794408Y-84821132D01*
X142064356Y-84821132D01*
X142065592Y-84818868D01*
X142065461Y-84817035D01*
X142061210Y-84810420D01*
X141209710Y-83958920D01*
X141197330Y-83952160D01*
X141189680Y-83957887D01*
X141084795Y-84129042D01*
X141080313Y-84137837D01*
X140993266Y-84347988D01*
X140990217Y-84357373D01*
X140937115Y-84578554D01*
X140935572Y-84588301D01*
X140917725Y-84815070D01*
X140917725Y-84824930D01*
X135580500Y-84824930D01*
X135580500Y-83960000D01*
X138694750Y-83960000D01*
X138713670Y-84103709D01*
X138769139Y-84237625D01*
X138857379Y-84352621D01*
X138972375Y-84440861D01*
X139106291Y-84496330D01*
X139250000Y-84515250D01*
X139393709Y-84496330D01*
X139527625Y-84440861D01*
X139642621Y-84352621D01*
X139730861Y-84237625D01*
X139786330Y-84103709D01*
X139805250Y-83960000D01*
X139786330Y-83816291D01*
X139730861Y-83682375D01*
X139658360Y-83587890D01*
X141562093Y-83587890D01*
X141565876Y-83596666D01*
X142417188Y-84447978D01*
X142431132Y-84455592D01*
X142432965Y-84455461D01*
X142439580Y-84451210D01*
X143291080Y-83599710D01*
X143297534Y-83587890D01*
X148062093Y-83587890D01*
X148065876Y-83596666D01*
X148917188Y-84447978D01*
X148931132Y-84455592D01*
X148932965Y-84455461D01*
X148939580Y-84451210D01*
X149791080Y-83599710D01*
X149797840Y-83587330D01*
X149792113Y-83579680D01*
X149620958Y-83474795D01*
X149612163Y-83470313D01*
X149402012Y-83383266D01*
X149392627Y-83380217D01*
X149171446Y-83327115D01*
X149161699Y-83325572D01*
X148934930Y-83307725D01*
X148925070Y-83307725D01*
X148698301Y-83325572D01*
X148688554Y-83327115D01*
X148467373Y-83380217D01*
X148457988Y-83383266D01*
X148247837Y-83470313D01*
X148239042Y-83474795D01*
X148071555Y-83577432D01*
X148062093Y-83587890D01*
X143297534Y-83587890D01*
X143297840Y-83587330D01*
X143292113Y-83579680D01*
X143120958Y-83474795D01*
X143112163Y-83470313D01*
X142902012Y-83383266D01*
X142892627Y-83380217D01*
X142671446Y-83327115D01*
X142661699Y-83325572D01*
X142434930Y-83307725D01*
X142425070Y-83307725D01*
X142198301Y-83325572D01*
X142188554Y-83327115D01*
X141967373Y-83380217D01*
X141957988Y-83383266D01*
X141747837Y-83470313D01*
X141739042Y-83474795D01*
X141571555Y-83577432D01*
X141562093Y-83587890D01*
X139658360Y-83587890D01*
X139642621Y-83567379D01*
X139527625Y-83479139D01*
X139393709Y-83423670D01*
X139250000Y-83404750D01*
X139106291Y-83423670D01*
X138972375Y-83479139D01*
X138857379Y-83567379D01*
X138769139Y-83682375D01*
X138713670Y-83816291D01*
X138694750Y-83960000D01*
X135580500Y-83960000D01*
X135580500Y-83055444D01*
X135600502Y-82987323D01*
X135629796Y-82955482D01*
X135666071Y-82927647D01*
X135672621Y-82922621D01*
X135760861Y-82807625D01*
X135816330Y-82673709D01*
X135835250Y-82530000D01*
X135816330Y-82386291D01*
X135760861Y-82252375D01*
X135672621Y-82137379D01*
X135557625Y-82049139D01*
X135423709Y-81993670D01*
X135280000Y-81974750D01*
X135136291Y-81993670D01*
X135002375Y-82049139D01*
X134887379Y-82137379D01*
X134799139Y-82252375D01*
X134743670Y-82386291D01*
X134724750Y-82530000D01*
X134743670Y-82673709D01*
X134799139Y-82807625D01*
X134887379Y-82922621D01*
X134893929Y-82927647D01*
X134930204Y-82955482D01*
X134972071Y-83012820D01*
X134979500Y-83055444D01*
X134979500Y-87243339D01*
X134959498Y-87311460D01*
X134942595Y-87332434D01*
X134002434Y-88272595D01*
X133940122Y-88306621D01*
X133913339Y-88309500D01*
X133395444Y-88309500D01*
X133327323Y-88289498D01*
X133295482Y-88260204D01*
X133267647Y-88223929D01*
X133262621Y-88217379D01*
X133147625Y-88129139D01*
X133013709Y-88073670D01*
X132870000Y-88054750D01*
X132726291Y-88073670D01*
X132592375Y-88129139D01*
X132477379Y-88217379D01*
X132389139Y-88332375D01*
X132333670Y-88466291D01*
X132314750Y-88610000D01*
X130760500Y-88610000D01*
X130760500Y-82216661D01*
X130780502Y-82148540D01*
X130797405Y-82127566D01*
X131777566Y-81147405D01*
X131839878Y-81113379D01*
X131866661Y-81110500D01*
X132194556Y-81110500D01*
X132262677Y-81130502D01*
X132294518Y-81159796D01*
X132327379Y-81202621D01*
X132442375Y-81290861D01*
X132576291Y-81346330D01*
X132720000Y-81365250D01*
X132863709Y-81346330D01*
X132997625Y-81290861D01*
X133112621Y-81202621D01*
X133200861Y-81087625D01*
X133256330Y-80953709D01*
X133275250Y-80810000D01*
X133256330Y-80666291D01*
X133200861Y-80532375D01*
X133112621Y-80417379D01*
X132997625Y-80329139D01*
X132902540Y-80289754D01*
X141274967Y-80289754D01*
X141288796Y-80500749D01*
X141290217Y-80506345D01*
X141290218Y-80506350D01*
X141337759Y-80693539D01*
X141340845Y-80705690D01*
X141429369Y-80897714D01*
X141551405Y-81070391D01*
X141702865Y-81217937D01*
X141707661Y-81221142D01*
X141707664Y-81221144D01*
X141822159Y-81297647D01*
X141878677Y-81335411D01*
X141883985Y-81337692D01*
X141883986Y-81337692D01*
X142067650Y-81416600D01*
X142067653Y-81416601D01*
X142072953Y-81418878D01*
X142078582Y-81420152D01*
X142078583Y-81420152D01*
X142273550Y-81464269D01*
X142273553Y-81464269D01*
X142279186Y-81465544D01*
X142284957Y-81465771D01*
X142284959Y-81465771D01*
X142346989Y-81468208D01*
X142490470Y-81473846D01*
X142496179Y-81473018D01*
X142496183Y-81473018D01*
X142694015Y-81444333D01*
X142694019Y-81444332D01*
X142699730Y-81443504D01*
X142778987Y-81416600D01*
X142894483Y-81377395D01*
X142894488Y-81377393D01*
X142899955Y-81375537D01*
X142918324Y-81365250D01*
X143079395Y-81275046D01*
X143079399Y-81275043D01*
X143084442Y-81272219D01*
X143247012Y-81137012D01*
X143382219Y-80974442D01*
X143385043Y-80969399D01*
X143385046Y-80969395D01*
X143482713Y-80794998D01*
X143482714Y-80794995D01*
X143485537Y-80789955D01*
X143487393Y-80784487D01*
X143487395Y-80784483D01*
X143541616Y-80624750D01*
X143553504Y-80589730D01*
X143555998Y-80572534D01*
X143583314Y-80384140D01*
X143583314Y-80384138D01*
X143583846Y-80380470D01*
X143585429Y-80320000D01*
X143566081Y-80109440D01*
X143508686Y-79905931D01*
X143497553Y-79883354D01*
X143417719Y-79721469D01*
X143415165Y-79716290D01*
X143327251Y-79598559D01*
X143292104Y-79551491D01*
X143292103Y-79551490D01*
X143288651Y-79546867D01*
X143133381Y-79403337D01*
X143096955Y-79380354D01*
X142959434Y-79293584D01*
X142959433Y-79293584D01*
X142954554Y-79290505D01*
X142758160Y-79212152D01*
X142752503Y-79211027D01*
X142752497Y-79211025D01*
X142556442Y-79172028D01*
X142556440Y-79172028D01*
X142550775Y-79170901D01*
X142545000Y-79170825D01*
X142544996Y-79170825D01*
X142438976Y-79169437D01*
X142339346Y-79168133D01*
X142333649Y-79169112D01*
X142333648Y-79169112D01*
X142136650Y-79202962D01*
X142136649Y-79202962D01*
X142130953Y-79203941D01*
X141932575Y-79277127D01*
X141927614Y-79280079D01*
X141927613Y-79280079D01*
X141908245Y-79291602D01*
X141750856Y-79385238D01*
X141591881Y-79524655D01*
X141460976Y-79690708D01*
X141458287Y-79695819D01*
X141458285Y-79695822D01*
X141434154Y-79741688D01*
X141362523Y-79877836D01*
X141299820Y-80079773D01*
X141274967Y-80289754D01*
X132902540Y-80289754D01*
X132863709Y-80273670D01*
X132720000Y-80254750D01*
X132576291Y-80273670D01*
X132442375Y-80329139D01*
X132327379Y-80417379D01*
X132322353Y-80423929D01*
X132294518Y-80460204D01*
X132237180Y-80502071D01*
X132194556Y-80509500D01*
X131742370Y-80509500D01*
X131739695Y-80509304D01*
X131734658Y-80507574D01*
X131685730Y-80509411D01*
X131681003Y-80509500D01*
X131662052Y-80509500D01*
X131657319Y-80510382D01*
X131653792Y-80510610D01*
X131634420Y-80511337D01*
X131634418Y-80511338D01*
X131622792Y-80511774D01*
X131612100Y-80516368D01*
X131607497Y-80517405D01*
X131595787Y-80520962D01*
X131591384Y-80522661D01*
X131579947Y-80524791D01*
X131570046Y-80530894D01*
X131570043Y-80530895D01*
X131558956Y-80537729D01*
X131542585Y-80546233D01*
X131528106Y-80552454D01*
X131528103Y-80552456D01*
X131519938Y-80555964D01*
X131515051Y-80559977D01*
X131512856Y-80562172D01*
X131510586Y-80564230D01*
X131510439Y-80564068D01*
X131501461Y-80571165D01*
X131494554Y-80577428D01*
X131484652Y-80583532D01*
X131474119Y-80597384D01*
X131468094Y-80605307D01*
X131456901Y-80618127D01*
X130542012Y-81533016D01*
X130479702Y-81567040D01*
X130408887Y-81561976D01*
X130352051Y-81519429D01*
X130327240Y-81452909D01*
X130336510Y-81395703D01*
X130363168Y-81331343D01*
X130363169Y-81331340D01*
X130366330Y-81323709D01*
X130385250Y-81180000D01*
X130366330Y-81036291D01*
X130310861Y-80902375D01*
X130222621Y-80787379D01*
X130107625Y-80699139D01*
X129973709Y-80643670D01*
X129830000Y-80624750D01*
X129686291Y-80643670D01*
X129552375Y-80699139D01*
X129437379Y-80787379D01*
X129349139Y-80902375D01*
X129293670Y-81036291D01*
X129274750Y-81180000D01*
X129293670Y-81323709D01*
X129349139Y-81457625D01*
X129437379Y-81572621D01*
X129552375Y-81660861D01*
X129686291Y-81716330D01*
X129830000Y-81735250D01*
X129973709Y-81716330D01*
X129981343Y-81713168D01*
X130056189Y-81682167D01*
X130126779Y-81674578D01*
X130190266Y-81706358D01*
X130226492Y-81767417D01*
X130223958Y-81838368D01*
X130210909Y-81865904D01*
X130209508Y-81868119D01*
X130201599Y-81876646D01*
X130197290Y-81887447D01*
X130194766Y-81891439D01*
X130189006Y-81902227D01*
X130187089Y-81906552D01*
X130180508Y-81916146D01*
X130177822Y-81927465D01*
X130177821Y-81927467D01*
X130174817Y-81940127D01*
X130169252Y-81957724D01*
X130163600Y-81971892D01*
X130160117Y-81980622D01*
X130159500Y-81986915D01*
X130159500Y-81989994D01*
X130159350Y-81993067D01*
X130159134Y-81993056D01*
X130157802Y-82004431D01*
X130157346Y-82013746D01*
X130154660Y-82025066D01*
X130156229Y-82036595D01*
X130156229Y-82036596D01*
X130158349Y-82052173D01*
X130159500Y-82069164D01*
X130159500Y-89354556D01*
X130139498Y-89422677D01*
X130110204Y-89454518D01*
X130096898Y-89464728D01*
X130067379Y-89487379D01*
X129979139Y-89602375D01*
X129975979Y-89610004D01*
X129928440Y-89724775D01*
X129883892Y-89780056D01*
X129816529Y-89802477D01*
X129747738Y-89784919D01*
X129699359Y-89732957D01*
X129686031Y-89676557D01*
X129686031Y-88500000D01*
X129627760Y-88500583D01*
X129559443Y-88481263D01*
X129512416Y-88428075D01*
X129500500Y-88374589D01*
X129500500Y-87736567D01*
X129497436Y-87727136D01*
X129497435Y-87727132D01*
X129493703Y-87715647D01*
X129489087Y-87696422D01*
X129487197Y-87684488D01*
X129487197Y-87684487D01*
X129485646Y-87674696D01*
X129481145Y-87665863D01*
X129481144Y-87665859D01*
X129475658Y-87655092D01*
X129468092Y-87636828D01*
X129465719Y-87629523D01*
X129461296Y-87615911D01*
X129455467Y-87607888D01*
X129448365Y-87598113D01*
X129438037Y-87581258D01*
X129432555Y-87570499D01*
X129432554Y-87570497D01*
X129428050Y-87561658D01*
X129405487Y-87539095D01*
X129405484Y-87539091D01*
X126806393Y-84940000D01*
X128074750Y-84940000D01*
X128093670Y-85083709D01*
X128149139Y-85217625D01*
X128237379Y-85332621D01*
X128352375Y-85420861D01*
X128486291Y-85476330D01*
X128630000Y-85495250D01*
X128773709Y-85476330D01*
X128907625Y-85420861D01*
X129022621Y-85332621D01*
X129110861Y-85217625D01*
X129166330Y-85083709D01*
X129185250Y-84940000D01*
X129166330Y-84796291D01*
X129110861Y-84662375D01*
X129022621Y-84547379D01*
X128907625Y-84459139D01*
X128773709Y-84403670D01*
X128630000Y-84384750D01*
X128486291Y-84403670D01*
X128352375Y-84459139D01*
X128237379Y-84547379D01*
X128149139Y-84662375D01*
X128093670Y-84796291D01*
X128074750Y-84940000D01*
X126806393Y-84940000D01*
X120858893Y-78992500D01*
X126042250Y-78992500D01*
X126061170Y-79136209D01*
X126116639Y-79270125D01*
X126204879Y-79385121D01*
X126319875Y-79473361D01*
X126453791Y-79528830D01*
X126597500Y-79547750D01*
X126741209Y-79528830D01*
X126875125Y-79473361D01*
X126990121Y-79385121D01*
X127078361Y-79270125D01*
X127133830Y-79136209D01*
X127152750Y-78992500D01*
X127133830Y-78848791D01*
X127078361Y-78714875D01*
X126990121Y-78599879D01*
X126875125Y-78511639D01*
X126741209Y-78456170D01*
X126597500Y-78437250D01*
X126453791Y-78456170D01*
X126319875Y-78511639D01*
X126204879Y-78599879D01*
X126116639Y-78714875D01*
X126061170Y-78848791D01*
X126042250Y-78992500D01*
X120858893Y-78992500D01*
X120670909Y-78804516D01*
X120670905Y-78804513D01*
X120648342Y-78781950D01*
X120628746Y-78771965D01*
X120611893Y-78761639D01*
X120594090Y-78748704D01*
X120573166Y-78741905D01*
X120554906Y-78734341D01*
X120544141Y-78728856D01*
X120544137Y-78728855D01*
X120535304Y-78724354D01*
X120525513Y-78722803D01*
X120525512Y-78722803D01*
X120513578Y-78720913D01*
X120494353Y-78716297D01*
X120482868Y-78712565D01*
X120482864Y-78712564D01*
X120473433Y-78709500D01*
X119743428Y-78709500D01*
X119675307Y-78689498D01*
X119628814Y-78635842D01*
X119617431Y-78584363D01*
X119594776Y-75276863D01*
X119614311Y-75208607D01*
X119667647Y-75161748D01*
X119720773Y-75150000D01*
X176760031Y-75150000D01*
X176828152Y-75170002D01*
X176874645Y-75223658D01*
X176886031Y-75276000D01*
X176886031Y-88656870D01*
X176866029Y-88724991D01*
X176812373Y-88771484D01*
X176742099Y-88781588D01*
X176677519Y-88752094D01*
X176670936Y-88745965D01*
X175999519Y-88074548D01*
X175997763Y-88072514D01*
X175995425Y-88067731D01*
X175982594Y-88055828D01*
X175959523Y-88034427D01*
X175956118Y-88031147D01*
X175942723Y-88017752D01*
X175938753Y-88015028D01*
X175936105Y-88012703D01*
X175921881Y-87999508D01*
X175921878Y-87999506D01*
X175913354Y-87991599D01*
X175902550Y-87987289D01*
X175898561Y-87984767D01*
X175887773Y-87979006D01*
X175883448Y-87977089D01*
X175873854Y-87970508D01*
X175862535Y-87967822D01*
X175862533Y-87967821D01*
X175849873Y-87964817D01*
X175832276Y-87959252D01*
X175817638Y-87953412D01*
X175817635Y-87953411D01*
X175809378Y-87950117D01*
X175803085Y-87949500D01*
X175800006Y-87949500D01*
X175796933Y-87949350D01*
X175796944Y-87949134D01*
X175785569Y-87947802D01*
X175776254Y-87947346D01*
X175764934Y-87944660D01*
X175753405Y-87946229D01*
X175753404Y-87946229D01*
X175737827Y-87948349D01*
X175720836Y-87949500D01*
X172302366Y-87949500D01*
X172299693Y-87949304D01*
X172294658Y-87947575D01*
X172283036Y-87948011D01*
X172283034Y-87948011D01*
X172245745Y-87949411D01*
X172241019Y-87949500D01*
X172222052Y-87949500D01*
X172217317Y-87950382D01*
X172213791Y-87950610D01*
X172210051Y-87950751D01*
X172182792Y-87951774D01*
X172172107Y-87956364D01*
X172167507Y-87957401D01*
X172155786Y-87960962D01*
X172151383Y-87962661D01*
X172139947Y-87964791D01*
X172118961Y-87977727D01*
X172102589Y-87986231D01*
X172088112Y-87992451D01*
X172088108Y-87992453D01*
X172079937Y-87995964D01*
X172075051Y-87999978D01*
X172072866Y-88002163D01*
X172070603Y-88004215D01*
X172070458Y-88004055D01*
X172061451Y-88011175D01*
X172054556Y-88017427D01*
X172044652Y-88023532D01*
X172028084Y-88045320D01*
X172016890Y-88058139D01*
X170074548Y-90000481D01*
X170072514Y-90002237D01*
X170067731Y-90004575D01*
X170059819Y-90013104D01*
X170059818Y-90013105D01*
X170034427Y-90040477D01*
X170031147Y-90043882D01*
X170017752Y-90057277D01*
X170015028Y-90061247D01*
X170012703Y-90063895D01*
X169999508Y-90078119D01*
X169999506Y-90078122D01*
X169991599Y-90086646D01*
X169987289Y-90097450D01*
X169984767Y-90101439D01*
X169979006Y-90112227D01*
X169977089Y-90116552D01*
X169970508Y-90126146D01*
X169967822Y-90137465D01*
X169967821Y-90137467D01*
X169964817Y-90150127D01*
X169959252Y-90167724D01*
X169950117Y-90190622D01*
X169949500Y-90196915D01*
X169949500Y-90199994D01*
X169949350Y-90203067D01*
X169949134Y-90203056D01*
X169947802Y-90214431D01*
X169947346Y-90223746D01*
X169944660Y-90235066D01*
X169946229Y-90246595D01*
X169946229Y-90246596D01*
X169948349Y-90262173D01*
X169949500Y-90279164D01*
X169949500Y-90474556D01*
X169929498Y-90542677D01*
X169900204Y-90574518D01*
X169874129Y-90594526D01*
X169857379Y-90607379D01*
X169769139Y-90722375D01*
X169713670Y-90856291D01*
X169694750Y-91000000D01*
X169713670Y-91143709D01*
X169769139Y-91277625D01*
X169857379Y-91392621D01*
X169972375Y-91480861D01*
X170106291Y-91536330D01*
X170250000Y-91555250D01*
X170393709Y-91536330D01*
X170527625Y-91480861D01*
X170642621Y-91392621D01*
X170730861Y-91277625D01*
X170786330Y-91143709D01*
X170805250Y-91000000D01*
X170786330Y-90856291D01*
X170730861Y-90722375D01*
X170642621Y-90607379D01*
X170625871Y-90594526D01*
X170599796Y-90574518D01*
X170557929Y-90517180D01*
X170550500Y-90474556D01*
X170550500Y-90426661D01*
X170570502Y-90358540D01*
X170587405Y-90337566D01*
X170984905Y-89940066D01*
X171047217Y-89906040D01*
X171118032Y-89911105D01*
X171174868Y-89953652D01*
X171199679Y-90020172D01*
X171200000Y-90029161D01*
X171200000Y-93400000D01*
X171789593Y-93743929D01*
X173537488Y-94763535D01*
X173586251Y-94815136D01*
X173600000Y-94872371D01*
X173600000Y-96600000D01*
X174700000Y-96600000D01*
X174700000Y-94769836D01*
X174720002Y-94701715D01*
X174759220Y-94662988D01*
X176508230Y-93569856D01*
X176693251Y-93454218D01*
X176761618Y-93435076D01*
X176829482Y-93455935D01*
X176875295Y-93510172D01*
X176886031Y-93561066D01*
X176886031Y-97074000D01*
X176866029Y-97142121D01*
X176812373Y-97188614D01*
X176760031Y-97200000D01*
X175586031Y-97200000D01*
X175586031Y-98700000D01*
X176508962Y-98682420D01*
X176577451Y-98701121D01*
X176624957Y-98753881D01*
X176637354Y-98807085D01*
X176642093Y-99262456D01*
X176650521Y-100072218D01*
X176631229Y-100140543D01*
X176578060Y-100187592D01*
X176507895Y-100198426D01*
X176443011Y-100169607D01*
X176435433Y-100162624D01*
X176089881Y-99817072D01*
X176085340Y-99812288D01*
X176072770Y-99798328D01*
X176059411Y-99783491D01*
X176040889Y-99775245D01*
X176023526Y-99765817D01*
X176006522Y-99754774D01*
X175993441Y-99752702D01*
X175988798Y-99750920D01*
X175983932Y-99749886D01*
X175971836Y-99744500D01*
X175951570Y-99744500D01*
X175931861Y-99742949D01*
X175911839Y-99739778D01*
X175899050Y-99743205D01*
X175885822Y-99743898D01*
X175885797Y-99743424D01*
X175877627Y-99744500D01*
X171585595Y-99744500D01*
X171517474Y-99724498D01*
X171496500Y-99707595D01*
X171373521Y-99584616D01*
X171339495Y-99522304D01*
X171344560Y-99451489D01*
X171349224Y-99440583D01*
X171399674Y-99336454D01*
X171399675Y-99336452D01*
X171403588Y-99328375D01*
X171411872Y-99279139D01*
X171424190Y-99205917D01*
X171424997Y-99201120D01*
X171425133Y-99190000D01*
X171414737Y-99117408D01*
X171408112Y-99071145D01*
X171408111Y-99071142D01*
X171406839Y-99062259D01*
X171400724Y-99048809D01*
X171357145Y-98952962D01*
X171357143Y-98952959D01*
X171353428Y-98944788D01*
X171312821Y-98897661D01*
X171275051Y-98853826D01*
X171275049Y-98853824D01*
X171269193Y-98847028D01*
X171160906Y-98776841D01*
X171152311Y-98774271D01*
X171152310Y-98774270D01*
X171045874Y-98742438D01*
X171045872Y-98742438D01*
X171037273Y-98739866D01*
X171028298Y-98739811D01*
X171028297Y-98739811D01*
X170973641Y-98739477D01*
X170908231Y-98739078D01*
X170896475Y-98742438D01*
X170792786Y-98772072D01*
X170792784Y-98772073D01*
X170784155Y-98774539D01*
X170776565Y-98779328D01*
X170706226Y-98823709D01*
X170675019Y-98843399D01*
X170669076Y-98850128D01*
X170669075Y-98850129D01*
X170608588Y-98918618D01*
X170589596Y-98940122D01*
X170585782Y-98948245D01*
X170585781Y-98948247D01*
X170581378Y-98957625D01*
X170534754Y-99056932D01*
X170525898Y-99113812D01*
X170516282Y-99175567D01*
X170516282Y-99175571D01*
X170514901Y-99184440D01*
X170516065Y-99193342D01*
X170516065Y-99193345D01*
X170530468Y-99303489D01*
X170530469Y-99303493D01*
X170531633Y-99312394D01*
X170535250Y-99320614D01*
X170571936Y-99403989D01*
X170583605Y-99430510D01*
X170666639Y-99529291D01*
X170674109Y-99534264D01*
X170674112Y-99534266D01*
X170734411Y-99574404D01*
X170770263Y-99610664D01*
X170771908Y-99613197D01*
X170776654Y-99625560D01*
X170790986Y-99639892D01*
X170803827Y-99654927D01*
X170807955Y-99660609D01*
X170807957Y-99660611D01*
X170815740Y-99671323D01*
X170827207Y-99677944D01*
X170837050Y-99686806D01*
X170836731Y-99687160D01*
X170843267Y-99692173D01*
X171274032Y-100122938D01*
X171278573Y-100127722D01*
X171304493Y-100156509D01*
X171323017Y-100164757D01*
X171340386Y-100174188D01*
X171357382Y-100185225D01*
X171356083Y-100187226D01*
X171398159Y-100219353D01*
X171422336Y-100286106D01*
X171406585Y-100355334D01*
X171396546Y-100370593D01*
X171349139Y-100432375D01*
X171293670Y-100566291D01*
X171274750Y-100710000D01*
X171275957Y-100719164D01*
X171278970Y-100742052D01*
X171268031Y-100812200D01*
X171220903Y-100865299D01*
X171154048Y-100884499D01*
X169537665Y-100884499D01*
X169517956Y-100882948D01*
X169497934Y-100879777D01*
X169485145Y-100883204D01*
X169471917Y-100883897D01*
X169471892Y-100883423D01*
X169463722Y-100884499D01*
X166385594Y-100884499D01*
X166317473Y-100864497D01*
X166296499Y-100847594D01*
X163771405Y-98322500D01*
X166644750Y-98322500D01*
X166663670Y-98466209D01*
X166719139Y-98600125D01*
X166807379Y-98715121D01*
X166922375Y-98803361D01*
X167056291Y-98858830D01*
X167200000Y-98877750D01*
X167343709Y-98858830D01*
X167477625Y-98803361D01*
X167592621Y-98715121D01*
X167680861Y-98600125D01*
X167736330Y-98466209D01*
X167755250Y-98322500D01*
X167736330Y-98178791D01*
X167680861Y-98044875D01*
X167592621Y-97929879D01*
X167477625Y-97841639D01*
X167343709Y-97786170D01*
X167200000Y-97767250D01*
X167056291Y-97786170D01*
X166922375Y-97841639D01*
X166807379Y-97929879D01*
X166719139Y-98044875D01*
X166663670Y-98178791D01*
X166644750Y-98322500D01*
X163771405Y-98322500D01*
X162840281Y-97391376D01*
X162805290Y-97324161D01*
X162798648Y-97286492D01*
X162796734Y-97275637D01*
X162743748Y-97183862D01*
X162680584Y-97130861D01*
X162671013Y-97122830D01*
X162671012Y-97122830D01*
X162662568Y-97115744D01*
X162652210Y-97111974D01*
X162649863Y-97110619D01*
X162600870Y-97059236D01*
X162587435Y-96989522D01*
X162613822Y-96923611D01*
X162671654Y-96882430D01*
X162712864Y-96875500D01*
X166270792Y-96875500D01*
X166277386Y-96875673D01*
X166302836Y-96877007D01*
X166302837Y-96877007D01*
X166316064Y-96877700D01*
X166334984Y-96870437D01*
X166353942Y-96864821D01*
X166360816Y-96863360D01*
X166373768Y-96860607D01*
X166384481Y-96852824D01*
X166389029Y-96850799D01*
X166393198Y-96848092D01*
X166405560Y-96843346D01*
X166419892Y-96829014D01*
X166434927Y-96816173D01*
X166440609Y-96812045D01*
X166440611Y-96812043D01*
X166451323Y-96804260D01*
X166457944Y-96792793D01*
X166466806Y-96782950D01*
X166467159Y-96783268D01*
X166472175Y-96776731D01*
X168392928Y-94855977D01*
X168397712Y-94851436D01*
X168416669Y-94834367D01*
X168426509Y-94825507D01*
X168434754Y-94806989D01*
X168444187Y-94789616D01*
X168448013Y-94783725D01*
X168448014Y-94783723D01*
X168455226Y-94772617D01*
X168457298Y-94759535D01*
X168459078Y-94754898D01*
X168460112Y-94750034D01*
X168465500Y-94737932D01*
X168465500Y-94717665D01*
X168467051Y-94697954D01*
X168468151Y-94691010D01*
X168470222Y-94677934D01*
X168466795Y-94665145D01*
X168466102Y-94651917D01*
X168466576Y-94651892D01*
X168465500Y-94643722D01*
X168465500Y-89655596D01*
X168485502Y-89587475D01*
X168502405Y-89566501D01*
X168983074Y-89085832D01*
X169583173Y-88485732D01*
X169645485Y-88451707D01*
X169677204Y-88450855D01*
X169677233Y-88449278D01*
X169806255Y-88451643D01*
X169868505Y-88434671D01*
X169922092Y-88420062D01*
X169922093Y-88420062D01*
X169930755Y-88417700D01*
X169938405Y-88413003D01*
X169938407Y-88413002D01*
X170033072Y-88354878D01*
X170033075Y-88354875D01*
X170040724Y-88350179D01*
X170053924Y-88335596D01*
X170121300Y-88261161D01*
X170121303Y-88261157D01*
X170127322Y-88254507D01*
X170183588Y-88138375D01*
X170185674Y-88125979D01*
X170204190Y-88015917D01*
X170204997Y-88011120D01*
X170205133Y-88000000D01*
X170186839Y-87872259D01*
X170133428Y-87754788D01*
X170058672Y-87668029D01*
X170055051Y-87663826D01*
X170055049Y-87663824D01*
X170049193Y-87657028D01*
X169940906Y-87586841D01*
X169932311Y-87584271D01*
X169932310Y-87584270D01*
X169825874Y-87552438D01*
X169825872Y-87552438D01*
X169817273Y-87549866D01*
X169808298Y-87549811D01*
X169808297Y-87549811D01*
X169753641Y-87549477D01*
X169688231Y-87549078D01*
X169641513Y-87562430D01*
X169572786Y-87582072D01*
X169572784Y-87582073D01*
X169564155Y-87584539D01*
X169552772Y-87591721D01*
X169466334Y-87646260D01*
X169455019Y-87653399D01*
X169449076Y-87660128D01*
X169449075Y-87660129D01*
X169400043Y-87715647D01*
X169369596Y-87750122D01*
X169365782Y-87758245D01*
X169365781Y-87758247D01*
X169339794Y-87813598D01*
X169314754Y-87866932D01*
X169313374Y-87875798D01*
X169296282Y-87985567D01*
X169296282Y-87985571D01*
X169294901Y-87994440D01*
X169296065Y-88003342D01*
X169296065Y-88003345D01*
X169303246Y-88058258D01*
X169292246Y-88128397D01*
X169267405Y-88163690D01*
X168331076Y-89100019D01*
X168268764Y-89134045D01*
X168197949Y-89128980D01*
X168141113Y-89086433D01*
X168116302Y-89019913D01*
X168115981Y-89010924D01*
X168115981Y-87005115D01*
X168135983Y-86936994D01*
X168152886Y-86916020D01*
X169583173Y-85485732D01*
X169645485Y-85451707D01*
X169677204Y-85450855D01*
X169677233Y-85449278D01*
X169806255Y-85451643D01*
X169888798Y-85429139D01*
X169922092Y-85420062D01*
X169922093Y-85420062D01*
X169930755Y-85417700D01*
X169938405Y-85413003D01*
X169938407Y-85413002D01*
X170033072Y-85354878D01*
X170033075Y-85354875D01*
X170040724Y-85350179D01*
X170046750Y-85343522D01*
X170121300Y-85261161D01*
X170121303Y-85261157D01*
X170127322Y-85254507D01*
X170183588Y-85138375D01*
X170185102Y-85129379D01*
X170204190Y-85015917D01*
X170204997Y-85011120D01*
X170205133Y-85000000D01*
X170193180Y-84916538D01*
X170188112Y-84881145D01*
X170188111Y-84881142D01*
X170186839Y-84872259D01*
X170177740Y-84852247D01*
X170137145Y-84762962D01*
X170137143Y-84762959D01*
X170133428Y-84754788D01*
X170099238Y-84715108D01*
X170055051Y-84663826D01*
X170055049Y-84663824D01*
X170049193Y-84657028D01*
X169940906Y-84586841D01*
X169932311Y-84584271D01*
X169932310Y-84584270D01*
X169825874Y-84552438D01*
X169825872Y-84552438D01*
X169817273Y-84549866D01*
X169808298Y-84549811D01*
X169808297Y-84549811D01*
X169753641Y-84549477D01*
X169688231Y-84549078D01*
X169626193Y-84566809D01*
X169572786Y-84582072D01*
X169572784Y-84582073D01*
X169564155Y-84584539D01*
X169556565Y-84589328D01*
X169471282Y-84643138D01*
X169455019Y-84653399D01*
X169449076Y-84660128D01*
X169449075Y-84660129D01*
X169435303Y-84675723D01*
X169369596Y-84750122D01*
X169365782Y-84758245D01*
X169365781Y-84758247D01*
X169349895Y-84792084D01*
X169314754Y-84866932D01*
X169313374Y-84875798D01*
X169296282Y-84985567D01*
X169296282Y-84985571D01*
X169294901Y-84994440D01*
X169296065Y-85003342D01*
X169296065Y-85003346D01*
X169303246Y-85058257D01*
X169292246Y-85128396D01*
X169267405Y-85163689D01*
X168540958Y-85890137D01*
X167981555Y-86449540D01*
X167919243Y-86483565D01*
X167848428Y-86478501D01*
X167791592Y-86435954D01*
X167766781Y-86369434D01*
X167766460Y-86360445D01*
X167766460Y-85614636D01*
X167786462Y-85546515D01*
X167803365Y-85525541D01*
X169616501Y-83712405D01*
X169678813Y-83678379D01*
X169705596Y-83675500D01*
X173150792Y-83675500D01*
X173157386Y-83675673D01*
X173182836Y-83677007D01*
X173182837Y-83677007D01*
X173196064Y-83677700D01*
X173214984Y-83670437D01*
X173233942Y-83664821D01*
X173240816Y-83663360D01*
X173253768Y-83660607D01*
X173264481Y-83652824D01*
X173269029Y-83650799D01*
X173273198Y-83648092D01*
X173285560Y-83643346D01*
X173299892Y-83629014D01*
X173314927Y-83616173D01*
X173320609Y-83612045D01*
X173320611Y-83612043D01*
X173331323Y-83604260D01*
X173337944Y-83592793D01*
X173346806Y-83582950D01*
X173347159Y-83583268D01*
X173352175Y-83576731D01*
X174752928Y-82175977D01*
X174757712Y-82171436D01*
X174776669Y-82154367D01*
X174786509Y-82145507D01*
X174794754Y-82126989D01*
X174804187Y-82109616D01*
X174808013Y-82103725D01*
X174808014Y-82103723D01*
X174815226Y-82092617D01*
X174817298Y-82079535D01*
X174819078Y-82074898D01*
X174820112Y-82070034D01*
X174825500Y-82057932D01*
X174825500Y-82037665D01*
X174827051Y-82017954D01*
X174828151Y-82011010D01*
X174830222Y-81997934D01*
X174826795Y-81985145D01*
X174826102Y-81971917D01*
X174826576Y-81971892D01*
X174825500Y-81963722D01*
X174825500Y-81071488D01*
X174845502Y-81003367D01*
X174899158Y-80956874D01*
X174917616Y-80950130D01*
X174963556Y-80937303D01*
X175138689Y-80848837D01*
X175168515Y-80825535D01*
X175288453Y-80731829D01*
X175293303Y-80728040D01*
X175308070Y-80710933D01*
X175417485Y-80584173D01*
X175417485Y-80584172D01*
X175421509Y-80579511D01*
X175452595Y-80524791D01*
X175494687Y-80450695D01*
X175518425Y-80408909D01*
X175580358Y-80222732D01*
X175604949Y-80028071D01*
X175605341Y-80000000D01*
X175586194Y-79804728D01*
X175584413Y-79798829D01*
X175584412Y-79798824D01*
X175531265Y-79622793D01*
X175529484Y-79616894D01*
X175437370Y-79443653D01*
X175313361Y-79291602D01*
X175162180Y-79166535D01*
X174989585Y-79073213D01*
X174887124Y-79041496D01*
X174808039Y-79017015D01*
X174808036Y-79017014D01*
X174802152Y-79015193D01*
X174796027Y-79014549D01*
X174796026Y-79014549D01*
X174613147Y-78995327D01*
X174613146Y-78995327D01*
X174607019Y-78994683D01*
X174484733Y-79005812D01*
X174417759Y-79011907D01*
X174417758Y-79011907D01*
X174411618Y-79012466D01*
X174405704Y-79014207D01*
X174405702Y-79014207D01*
X174336410Y-79034601D01*
X174223393Y-79067864D01*
X174217928Y-79070721D01*
X174054972Y-79155912D01*
X174054968Y-79155915D01*
X174049512Y-79158767D01*
X174044712Y-79162627D01*
X174044711Y-79162627D01*
X174034515Y-79170825D01*
X173896600Y-79281711D01*
X173770480Y-79432016D01*
X173767516Y-79437408D01*
X173767513Y-79437412D01*
X173704798Y-79551491D01*
X173675956Y-79603954D01*
X173674095Y-79609821D01*
X173674094Y-79609823D01*
X173667421Y-79630860D01*
X173616628Y-79790978D01*
X173594757Y-79985963D01*
X173611175Y-80181483D01*
X173665258Y-80370091D01*
X173668076Y-80375574D01*
X173752123Y-80539113D01*
X173752126Y-80539117D01*
X173754944Y-80544601D01*
X173876818Y-80698369D01*
X173881511Y-80702363D01*
X173881512Y-80702364D01*
X174007624Y-80809693D01*
X174026238Y-80825535D01*
X174031616Y-80828541D01*
X174031618Y-80828542D01*
X174067932Y-80848837D01*
X174197513Y-80921257D01*
X174251997Y-80938960D01*
X174287436Y-80950475D01*
X174346042Y-80990549D01*
X174373679Y-81055945D01*
X174374500Y-81070308D01*
X174374500Y-81864405D01*
X174354498Y-81932526D01*
X174337595Y-81953500D01*
X173103500Y-83187595D01*
X173041188Y-83221621D01*
X173014405Y-83224500D01*
X171158596Y-83224500D01*
X171090475Y-83204498D01*
X171043982Y-83150842D01*
X171033878Y-83080568D01*
X171063372Y-83015988D01*
X171069501Y-83009405D01*
X172212928Y-81865977D01*
X172217712Y-81861436D01*
X172236669Y-81844367D01*
X172246509Y-81835507D01*
X172254757Y-81816983D01*
X172264188Y-81799614D01*
X172268012Y-81793725D01*
X172275225Y-81782618D01*
X172277297Y-81769536D01*
X172279079Y-81764894D01*
X172280112Y-81760033D01*
X172285500Y-81747932D01*
X172285500Y-81727667D01*
X172287051Y-81707955D01*
X172288151Y-81701012D01*
X172288151Y-81701011D01*
X172290222Y-81687935D01*
X172286795Y-81675146D01*
X172286102Y-81661918D01*
X172286576Y-81661893D01*
X172285500Y-81653723D01*
X172285500Y-81071488D01*
X172305502Y-81003367D01*
X172359158Y-80956874D01*
X172377616Y-80950130D01*
X172423556Y-80937303D01*
X172598689Y-80848837D01*
X172628515Y-80825535D01*
X172748453Y-80731829D01*
X172753303Y-80728040D01*
X172768070Y-80710933D01*
X172877485Y-80584173D01*
X172877485Y-80584172D01*
X172881509Y-80579511D01*
X172912595Y-80524791D01*
X172954687Y-80450695D01*
X172978425Y-80408909D01*
X173040358Y-80222732D01*
X173064949Y-80028071D01*
X173065341Y-80000000D01*
X173046194Y-79804728D01*
X173044413Y-79798829D01*
X173044412Y-79798824D01*
X172991265Y-79622793D01*
X172989484Y-79616894D01*
X172897370Y-79443653D01*
X172773361Y-79291602D01*
X172622180Y-79166535D01*
X172449585Y-79073213D01*
X172347124Y-79041496D01*
X172268039Y-79017015D01*
X172268036Y-79017014D01*
X172262152Y-79015193D01*
X172256027Y-79014549D01*
X172256026Y-79014549D01*
X172073147Y-78995327D01*
X172073146Y-78995327D01*
X172067019Y-78994683D01*
X171944733Y-79005812D01*
X171877759Y-79011907D01*
X171877758Y-79011907D01*
X171871618Y-79012466D01*
X171865704Y-79014207D01*
X171865702Y-79014207D01*
X171796410Y-79034601D01*
X171683393Y-79067864D01*
X171677928Y-79070721D01*
X171514972Y-79155912D01*
X171514968Y-79155915D01*
X171509512Y-79158767D01*
X171504712Y-79162627D01*
X171504711Y-79162627D01*
X171494515Y-79170825D01*
X171356600Y-79281711D01*
X171230480Y-79432016D01*
X171227516Y-79437408D01*
X171227513Y-79437412D01*
X171164798Y-79551491D01*
X171135956Y-79603954D01*
X171134095Y-79609821D01*
X171134094Y-79609823D01*
X171127421Y-79630860D01*
X171076628Y-79790978D01*
X171054757Y-79985963D01*
X171071175Y-80181483D01*
X171125258Y-80370091D01*
X171128076Y-80375574D01*
X171212123Y-80539113D01*
X171212126Y-80539117D01*
X171214944Y-80544601D01*
X171336818Y-80698369D01*
X171341511Y-80702363D01*
X171341512Y-80702364D01*
X171467624Y-80809693D01*
X171486238Y-80825535D01*
X171491616Y-80828541D01*
X171491618Y-80828542D01*
X171527932Y-80848837D01*
X171657513Y-80921257D01*
X171711997Y-80938960D01*
X171747436Y-80950475D01*
X171806042Y-80990549D01*
X171833679Y-81055945D01*
X171834500Y-81070308D01*
X171834500Y-81554405D01*
X171814498Y-81622526D01*
X171797595Y-81643500D01*
X170723500Y-82717595D01*
X170661188Y-82751621D01*
X170634405Y-82754500D01*
X169544912Y-82754500D01*
X169538318Y-82754327D01*
X169512867Y-82752993D01*
X169512866Y-82752993D01*
X169499640Y-82752300D01*
X169487278Y-82757046D01*
X169487275Y-82757046D01*
X169480716Y-82759564D01*
X169461757Y-82765180D01*
X169454891Y-82766639D01*
X169454889Y-82766640D01*
X169441936Y-82769393D01*
X169431221Y-82777178D01*
X169426673Y-82779203D01*
X169422506Y-82781909D01*
X169410145Y-82786654D01*
X169395816Y-82800983D01*
X169380783Y-82813823D01*
X169364381Y-82825740D01*
X169357761Y-82837206D01*
X169348897Y-82847051D01*
X169348544Y-82846733D01*
X169343527Y-82853272D01*
X167282515Y-84914284D01*
X167220203Y-84948310D01*
X167149388Y-84943245D01*
X167092552Y-84900698D01*
X167067741Y-84834178D01*
X167067420Y-84825189D01*
X167067420Y-84723676D01*
X167087422Y-84655555D01*
X167104325Y-84634581D01*
X169672928Y-82065977D01*
X169677712Y-82061436D01*
X169678607Y-82060630D01*
X169706509Y-82035507D01*
X169714755Y-82016985D01*
X169724183Y-81999622D01*
X169735226Y-81982618D01*
X169737298Y-81969537D01*
X169739080Y-81964894D01*
X169740114Y-81960028D01*
X169745500Y-81947932D01*
X169745500Y-81927666D01*
X169747051Y-81907955D01*
X169748151Y-81901011D01*
X169750222Y-81887935D01*
X169746795Y-81875146D01*
X169746102Y-81861918D01*
X169746576Y-81861893D01*
X169745500Y-81853723D01*
X169745500Y-81071488D01*
X169765502Y-81003367D01*
X169819158Y-80956874D01*
X169837616Y-80950130D01*
X169883556Y-80937303D01*
X170058689Y-80848837D01*
X170088515Y-80825535D01*
X170208453Y-80731829D01*
X170213303Y-80728040D01*
X170228070Y-80710933D01*
X170337485Y-80584173D01*
X170337485Y-80584172D01*
X170341509Y-80579511D01*
X170372595Y-80524791D01*
X170414687Y-80450695D01*
X170438425Y-80408909D01*
X170500358Y-80222732D01*
X170524949Y-80028071D01*
X170525341Y-80000000D01*
X170506194Y-79804728D01*
X170504413Y-79798829D01*
X170504412Y-79798824D01*
X170451265Y-79622793D01*
X170449484Y-79616894D01*
X170357370Y-79443653D01*
X170233361Y-79291602D01*
X170082180Y-79166535D01*
X169909585Y-79073213D01*
X169807124Y-79041496D01*
X169728039Y-79017015D01*
X169728036Y-79017014D01*
X169722152Y-79015193D01*
X169716027Y-79014549D01*
X169716026Y-79014549D01*
X169533147Y-78995327D01*
X169533146Y-78995327D01*
X169527019Y-78994683D01*
X169404733Y-79005812D01*
X169337759Y-79011907D01*
X169337758Y-79011907D01*
X169331618Y-79012466D01*
X169325704Y-79014207D01*
X169325702Y-79014207D01*
X169256410Y-79034601D01*
X169143393Y-79067864D01*
X169137928Y-79070721D01*
X168974972Y-79155912D01*
X168974968Y-79155915D01*
X168969512Y-79158767D01*
X168964712Y-79162627D01*
X168964711Y-79162627D01*
X168954515Y-79170825D01*
X168816600Y-79281711D01*
X168690480Y-79432016D01*
X168687516Y-79437408D01*
X168687513Y-79437412D01*
X168624798Y-79551491D01*
X168595956Y-79603954D01*
X168594095Y-79609821D01*
X168594094Y-79609823D01*
X168587421Y-79630860D01*
X168536628Y-79790978D01*
X168514757Y-79985963D01*
X168531175Y-80181483D01*
X168585258Y-80370091D01*
X168588076Y-80375574D01*
X168672123Y-80539113D01*
X168672126Y-80539117D01*
X168674944Y-80544601D01*
X168796818Y-80698369D01*
X168801511Y-80702363D01*
X168801512Y-80702364D01*
X168927624Y-80809693D01*
X168946238Y-80825535D01*
X168951616Y-80828541D01*
X168951618Y-80828542D01*
X168987932Y-80848837D01*
X169117513Y-80921257D01*
X169171997Y-80938960D01*
X169207436Y-80950475D01*
X169266042Y-80990549D01*
X169293679Y-81055945D01*
X169294500Y-81070308D01*
X169294500Y-81754404D01*
X169274498Y-81822525D01*
X169257595Y-81843499D01*
X166688992Y-84412103D01*
X166684208Y-84416644D01*
X166655411Y-84442573D01*
X166647165Y-84461095D01*
X166637737Y-84478458D01*
X166626694Y-84495462D01*
X166624622Y-84508543D01*
X166622840Y-84513186D01*
X166621806Y-84518052D01*
X166616420Y-84530148D01*
X166616420Y-84550414D01*
X166614869Y-84570123D01*
X166611698Y-84590145D01*
X166615125Y-84602934D01*
X166615818Y-84616162D01*
X166615344Y-84616187D01*
X166616420Y-84624357D01*
X166616420Y-93128189D01*
X166596418Y-93196310D01*
X166579515Y-93217284D01*
X165709204Y-94087595D01*
X165646892Y-94121621D01*
X165620109Y-94124500D01*
X163742456Y-94124500D01*
X163674335Y-94104498D01*
X163642505Y-94071113D01*
X163640861Y-94072375D01*
X163597657Y-94016071D01*
X163552621Y-93957379D01*
X163437625Y-93869139D01*
X163303709Y-93813670D01*
X163160000Y-93794750D01*
X163016291Y-93813670D01*
X162882375Y-93869139D01*
X162767379Y-93957379D01*
X162679139Y-94072375D01*
X162623670Y-94206291D01*
X162604750Y-94350000D01*
X162623670Y-94493709D01*
X162679139Y-94627625D01*
X162684165Y-94634175D01*
X162684523Y-94634795D01*
X162701261Y-94703790D01*
X162678041Y-94770882D01*
X162622233Y-94814769D01*
X162568810Y-94823622D01*
X162562871Y-94823311D01*
X162556812Y-94822993D01*
X162556811Y-94822993D01*
X162543586Y-94822300D01*
X162531224Y-94827046D01*
X162531221Y-94827046D01*
X162524662Y-94829564D01*
X162505703Y-94835180D01*
X162498837Y-94836639D01*
X162498835Y-94836640D01*
X162485882Y-94839393D01*
X162475167Y-94847178D01*
X162470619Y-94849203D01*
X162466452Y-94851909D01*
X162454091Y-94856654D01*
X162439762Y-94870983D01*
X162424729Y-94883823D01*
X162408327Y-94895740D01*
X162401707Y-94907206D01*
X162392843Y-94917051D01*
X162392490Y-94916733D01*
X162387473Y-94923272D01*
X161837311Y-95473434D01*
X161774999Y-95507460D01*
X161748216Y-95510339D01*
X160760646Y-95510339D01*
X160692525Y-95490337D01*
X160687453Y-95484483D01*
X160635768Y-95508834D01*
X160616354Y-95510339D01*
X160310887Y-95510339D01*
X160304293Y-95510166D01*
X160278842Y-95508832D01*
X160278841Y-95508832D01*
X160265615Y-95508139D01*
X160253253Y-95512885D01*
X160253250Y-95512885D01*
X160246691Y-95515403D01*
X160227732Y-95521019D01*
X160220866Y-95522478D01*
X160220864Y-95522479D01*
X160207911Y-95525232D01*
X160197196Y-95533017D01*
X160192648Y-95535042D01*
X160188481Y-95537748D01*
X160176120Y-95542493D01*
X160161791Y-95556822D01*
X160146758Y-95569662D01*
X160130356Y-95581579D01*
X160123736Y-95593045D01*
X160114872Y-95602890D01*
X160114519Y-95602572D01*
X160109502Y-95609111D01*
X156842561Y-98876052D01*
X156837777Y-98880593D01*
X156808980Y-98906522D01*
X156800734Y-98925044D01*
X156791306Y-98942407D01*
X156780263Y-98959411D01*
X156778191Y-98972492D01*
X156776409Y-98977135D01*
X156775375Y-98982001D01*
X156769989Y-98994097D01*
X156769989Y-99014363D01*
X156768438Y-99034072D01*
X156765267Y-99054094D01*
X156768694Y-99066883D01*
X156769387Y-99080111D01*
X156768913Y-99080136D01*
X156769989Y-99088306D01*
X156769989Y-99958916D01*
X156749987Y-100027037D01*
X156733084Y-100048011D01*
X155466702Y-101314393D01*
X155404390Y-101348419D01*
X155367274Y-101349640D01*
X155367273Y-101349866D01*
X155358297Y-101349811D01*
X155358296Y-101349811D01*
X155304558Y-101349483D01*
X155238231Y-101349078D01*
X155176193Y-101366809D01*
X155122786Y-101382072D01*
X155122784Y-101382073D01*
X155114155Y-101384539D01*
X155106565Y-101389328D01*
X155068746Y-101413190D01*
X155000461Y-101432624D01*
X154932509Y-101412055D01*
X154886464Y-101358014D01*
X154875510Y-101306628D01*
X154875510Y-98164230D01*
X154875683Y-98157636D01*
X154877017Y-98132186D01*
X154877017Y-98132185D01*
X154877710Y-98118958D01*
X154870447Y-98100037D01*
X154864831Y-98081080D01*
X154863370Y-98074206D01*
X154860617Y-98061254D01*
X154852834Y-98050541D01*
X154850809Y-98045993D01*
X154848102Y-98041824D01*
X154843356Y-98029462D01*
X154829024Y-98015130D01*
X154816183Y-98000095D01*
X154812055Y-97994413D01*
X154812053Y-97994411D01*
X154804270Y-97983699D01*
X154792803Y-97977078D01*
X154782960Y-97968216D01*
X154783278Y-97967863D01*
X154776741Y-97962847D01*
X153662405Y-96848512D01*
X153628380Y-96786200D01*
X153625500Y-96759417D01*
X153625500Y-95145597D01*
X153645502Y-95077476D01*
X153662405Y-95056502D01*
X153738544Y-94980363D01*
X153800856Y-94946337D01*
X153871671Y-94951402D01*
X153928507Y-94993949D01*
X153952574Y-95053121D01*
X153955759Y-95077476D01*
X153960468Y-95113488D01*
X153960469Y-95113491D01*
X153961633Y-95122394D01*
X153965250Y-95130614D01*
X154007664Y-95227007D01*
X154013605Y-95240510D01*
X154019382Y-95247383D01*
X154019383Y-95247384D01*
X154060034Y-95295744D01*
X154096639Y-95339291D01*
X154204060Y-95410796D01*
X154292938Y-95438564D01*
X154314587Y-95445327D01*
X154327233Y-95449278D01*
X154336203Y-95449442D01*
X154336207Y-95449443D01*
X154394942Y-95450519D01*
X154456255Y-95451643D01*
X154518505Y-95434672D01*
X154572092Y-95420062D01*
X154572093Y-95420062D01*
X154580755Y-95417700D01*
X154588405Y-95413003D01*
X154588407Y-95413002D01*
X154683072Y-95354878D01*
X154683075Y-95354875D01*
X154690724Y-95350179D01*
X154696750Y-95343522D01*
X154771300Y-95261161D01*
X154771303Y-95261157D01*
X154777322Y-95254507D01*
X154833588Y-95138375D01*
X154835407Y-95127566D01*
X154854190Y-95015917D01*
X154854997Y-95011120D01*
X154855133Y-95000000D01*
X154847002Y-94943226D01*
X154857146Y-94872961D01*
X154882634Y-94836272D01*
X155127448Y-94591457D01*
X155132233Y-94586916D01*
X155151180Y-94569856D01*
X155161020Y-94560996D01*
X155169268Y-94542472D01*
X155178699Y-94525103D01*
X155182523Y-94519214D01*
X155189736Y-94508107D01*
X155191808Y-94495025D01*
X155193590Y-94490383D01*
X155194624Y-94485520D01*
X155200011Y-94473421D01*
X155200011Y-94453156D01*
X155201562Y-94433444D01*
X155202662Y-94426501D01*
X155202662Y-94426500D01*
X155204733Y-94413424D01*
X155201306Y-94400635D01*
X155200613Y-94387407D01*
X155201087Y-94387382D01*
X155200011Y-94379212D01*
X155200011Y-93771237D01*
X155200184Y-93764643D01*
X155201518Y-93739193D01*
X155201518Y-93739192D01*
X155202211Y-93725965D01*
X155194948Y-93707044D01*
X155189332Y-93688087D01*
X155187871Y-93681213D01*
X155185118Y-93668261D01*
X155177335Y-93657548D01*
X155175310Y-93653000D01*
X155172603Y-93648831D01*
X155167857Y-93636469D01*
X155153525Y-93622137D01*
X155140684Y-93607102D01*
X155136556Y-93601420D01*
X155136554Y-93601418D01*
X155128771Y-93590706D01*
X155117304Y-93584085D01*
X155107461Y-93575223D01*
X155107778Y-93574870D01*
X155101244Y-93569856D01*
X154798450Y-93267063D01*
X154793909Y-93262278D01*
X154776851Y-93243333D01*
X154776850Y-93243333D01*
X154767989Y-93233491D01*
X154759669Y-93229787D01*
X154752965Y-93224060D01*
X154665977Y-93137072D01*
X154661436Y-93132288D01*
X154656036Y-93126291D01*
X154635507Y-93103491D01*
X154616985Y-93095245D01*
X154599622Y-93085817D01*
X154582618Y-93074774D01*
X154569537Y-93072702D01*
X154564894Y-93070920D01*
X154560028Y-93069886D01*
X154547932Y-93064500D01*
X154527666Y-93064500D01*
X154507957Y-93062949D01*
X154487935Y-93059778D01*
X154475146Y-93063205D01*
X154461918Y-93063898D01*
X154461893Y-93063424D01*
X154453723Y-93064500D01*
X153975595Y-93064500D01*
X153907474Y-93044498D01*
X153886500Y-93027595D01*
X153562405Y-92703500D01*
X153528379Y-92641188D01*
X153525500Y-92614405D01*
X153525500Y-90524820D01*
X153944500Y-90524820D01*
X153953233Y-90568722D01*
X153960127Y-90579040D01*
X153960128Y-90579042D01*
X153979601Y-90608185D01*
X153986496Y-90618504D01*
X153996815Y-90625399D01*
X154025958Y-90644872D01*
X154025960Y-90644873D01*
X154036278Y-90651767D01*
X154080180Y-90660500D01*
X155809820Y-90660500D01*
X155853722Y-90651767D01*
X155864040Y-90644873D01*
X155864042Y-90644872D01*
X155893185Y-90625399D01*
X155903504Y-90618504D01*
X155910399Y-90608185D01*
X155929872Y-90579042D01*
X155929873Y-90579040D01*
X155936767Y-90568722D01*
X155945500Y-90524820D01*
X155945500Y-89645963D01*
X156479757Y-89645963D01*
X156496175Y-89841483D01*
X156550258Y-90030091D01*
X156553076Y-90035574D01*
X156637123Y-90199113D01*
X156637126Y-90199117D01*
X156639944Y-90204601D01*
X156761818Y-90358369D01*
X156766511Y-90362363D01*
X156766512Y-90362364D01*
X156898338Y-90474556D01*
X156911238Y-90485535D01*
X156916616Y-90488541D01*
X156916618Y-90488542D01*
X156957459Y-90511367D01*
X157082513Y-90581257D01*
X157269118Y-90641889D01*
X157463946Y-90665121D01*
X157470081Y-90664649D01*
X157470083Y-90664649D01*
X157653434Y-90650541D01*
X157653438Y-90650540D01*
X157659576Y-90650068D01*
X157848556Y-90597303D01*
X158023689Y-90508837D01*
X158053515Y-90485535D01*
X158140713Y-90417408D01*
X158178303Y-90388040D01*
X158183115Y-90382466D01*
X158302485Y-90244173D01*
X158302485Y-90244172D01*
X158306509Y-90239511D01*
X158327219Y-90203056D01*
X158364478Y-90137467D01*
X158403425Y-90068909D01*
X158465358Y-89882732D01*
X158489949Y-89688071D01*
X158490341Y-89660000D01*
X158471194Y-89464728D01*
X158469413Y-89458829D01*
X158469412Y-89458824D01*
X158416265Y-89282793D01*
X158414484Y-89276894D01*
X158322370Y-89103653D01*
X158198361Y-88951602D01*
X158047180Y-88826535D01*
X157874585Y-88733213D01*
X157754750Y-88696118D01*
X157693039Y-88677015D01*
X157693036Y-88677014D01*
X157687152Y-88675193D01*
X157681027Y-88674549D01*
X157681026Y-88674549D01*
X157498147Y-88655327D01*
X157498146Y-88655327D01*
X157492019Y-88654683D01*
X157369733Y-88665812D01*
X157302759Y-88671907D01*
X157302758Y-88671907D01*
X157296618Y-88672466D01*
X157290704Y-88674207D01*
X157290702Y-88674207D01*
X157204687Y-88699523D01*
X157108393Y-88727864D01*
X157102928Y-88730721D01*
X156939972Y-88815912D01*
X156939968Y-88815915D01*
X156934512Y-88818767D01*
X156929712Y-88822627D01*
X156929711Y-88822627D01*
X156912496Y-88836468D01*
X156781600Y-88941711D01*
X156655480Y-89092016D01*
X156652516Y-89097408D01*
X156652513Y-89097412D01*
X156625028Y-89147408D01*
X156560956Y-89263954D01*
X156501628Y-89450978D01*
X156479757Y-89645963D01*
X155945500Y-89645963D01*
X155945500Y-88795180D01*
X155936767Y-88751278D01*
X155929873Y-88740960D01*
X155929872Y-88740958D01*
X155910399Y-88711815D01*
X155903504Y-88701496D01*
X155881555Y-88686830D01*
X155864042Y-88675128D01*
X155864040Y-88675127D01*
X155853722Y-88668233D01*
X155809820Y-88659500D01*
X154080180Y-88659500D01*
X154036278Y-88668233D01*
X154025960Y-88675127D01*
X154025958Y-88675128D01*
X154008445Y-88686830D01*
X153986496Y-88701496D01*
X153979601Y-88711815D01*
X153960128Y-88740958D01*
X153960127Y-88740960D01*
X153953233Y-88751278D01*
X153944500Y-88795180D01*
X153944500Y-90524820D01*
X153525500Y-90524820D01*
X153525500Y-88335596D01*
X153545502Y-88267475D01*
X153562405Y-88246501D01*
X155898906Y-85910000D01*
X159964750Y-85910000D01*
X159983670Y-86053709D01*
X160039139Y-86187625D01*
X160127379Y-86302621D01*
X160242375Y-86390861D01*
X160376291Y-86446330D01*
X160520000Y-86465250D01*
X160663709Y-86446330D01*
X160797625Y-86390861D01*
X160912621Y-86302621D01*
X161000861Y-86187625D01*
X161056330Y-86053709D01*
X161075250Y-85910000D01*
X161056330Y-85766291D01*
X161000861Y-85632375D01*
X160912621Y-85517379D01*
X160797625Y-85429139D01*
X160663709Y-85373670D01*
X160520000Y-85354750D01*
X160376291Y-85373670D01*
X160242375Y-85429139D01*
X160127379Y-85517379D01*
X160039139Y-85632375D01*
X159983670Y-85766291D01*
X159964750Y-85910000D01*
X155898906Y-85910000D01*
X157184549Y-84624357D01*
X160813770Y-80995135D01*
X160876082Y-80961109D01*
X160946897Y-80966174D01*
X160972865Y-80979464D01*
X160991278Y-80991767D01*
X161035180Y-81000500D01*
X162764820Y-81000500D01*
X162770887Y-80999293D01*
X162770889Y-80999293D01*
X162801551Y-80993194D01*
X162872265Y-80999522D01*
X162928332Y-81043077D01*
X162951951Y-81110029D01*
X162935624Y-81179123D01*
X162915227Y-81205868D01*
X161627072Y-82494023D01*
X161622288Y-82498564D01*
X161593491Y-82524493D01*
X161585245Y-82543015D01*
X161575817Y-82560378D01*
X161564774Y-82577382D01*
X161562702Y-82590463D01*
X161560920Y-82595106D01*
X161559886Y-82599972D01*
X161554500Y-82612068D01*
X161554500Y-82632334D01*
X161552949Y-82652043D01*
X161549778Y-82672065D01*
X161553205Y-82684854D01*
X161553898Y-82698082D01*
X161553424Y-82698107D01*
X161554500Y-82706277D01*
X161554500Y-91334405D01*
X161534498Y-91402526D01*
X161517595Y-91423500D01*
X158227007Y-94714088D01*
X158164695Y-94748114D01*
X158093880Y-94743049D01*
X158042459Y-94707240D01*
X158005054Y-94663829D01*
X158005050Y-94663826D01*
X157999193Y-94657028D01*
X157890906Y-94586841D01*
X157882311Y-94584271D01*
X157882310Y-94584270D01*
X157775874Y-94552438D01*
X157775872Y-94552438D01*
X157767273Y-94549866D01*
X157758298Y-94549811D01*
X157758297Y-94549811D01*
X157703641Y-94549477D01*
X157638231Y-94549078D01*
X157581961Y-94565160D01*
X157522786Y-94582072D01*
X157522784Y-94582073D01*
X157514155Y-94584539D01*
X157405019Y-94653399D01*
X157399076Y-94660128D01*
X157399075Y-94660129D01*
X157356521Y-94708312D01*
X157319596Y-94750122D01*
X157315782Y-94758245D01*
X157315781Y-94758247D01*
X157300118Y-94791608D01*
X157264754Y-94866932D01*
X157256899Y-94917382D01*
X157246282Y-94985567D01*
X157246282Y-94985571D01*
X157244901Y-94994440D01*
X157246065Y-95003342D01*
X157246065Y-95003345D01*
X157260468Y-95113489D01*
X157260469Y-95113493D01*
X157261633Y-95122394D01*
X157265250Y-95130614D01*
X157307664Y-95227007D01*
X157313605Y-95240510D01*
X157319382Y-95247383D01*
X157319383Y-95247384D01*
X157360034Y-95295744D01*
X157396639Y-95339291D01*
X157504060Y-95410796D01*
X157592938Y-95438564D01*
X157614587Y-95445327D01*
X157627233Y-95449278D01*
X157636203Y-95449442D01*
X157636207Y-95449443D01*
X157694942Y-95450519D01*
X157756255Y-95451643D01*
X157818505Y-95434672D01*
X157872092Y-95420062D01*
X157872093Y-95420062D01*
X157880755Y-95417700D01*
X157888405Y-95413003D01*
X157888407Y-95413002D01*
X157983072Y-95354878D01*
X157983075Y-95354875D01*
X157990724Y-95350179D01*
X158000580Y-95339291D01*
X158066064Y-95266945D01*
X158126607Y-95229863D01*
X158159479Y-95225500D01*
X158250792Y-95225500D01*
X158257386Y-95225673D01*
X158282836Y-95227007D01*
X158282837Y-95227007D01*
X158296064Y-95227700D01*
X158314984Y-95220437D01*
X158333942Y-95214821D01*
X158340816Y-95213360D01*
X158353768Y-95210607D01*
X158364481Y-95202824D01*
X158369029Y-95200799D01*
X158373198Y-95198092D01*
X158385560Y-95193346D01*
X158399892Y-95179014D01*
X158414927Y-95166173D01*
X158420609Y-95162045D01*
X158420611Y-95162043D01*
X158431323Y-95154260D01*
X158437944Y-95142793D01*
X158446806Y-95132950D01*
X158447159Y-95133268D01*
X158452175Y-95126731D01*
X158867406Y-94711500D01*
X160133250Y-94711500D01*
X160152170Y-94855209D01*
X160207639Y-94989125D01*
X160295879Y-95104121D01*
X160410875Y-95192361D01*
X160544791Y-95247830D01*
X160590957Y-95253908D01*
X160632801Y-95259417D01*
X160691208Y-95285255D01*
X160725148Y-95263443D01*
X160744199Y-95259417D01*
X160786043Y-95253908D01*
X160832209Y-95247830D01*
X160966125Y-95192361D01*
X161081121Y-95104121D01*
X161169361Y-94989125D01*
X161224830Y-94855209D01*
X161243750Y-94711500D01*
X161224830Y-94567791D01*
X161169361Y-94433875D01*
X161081121Y-94318879D01*
X160966125Y-94230639D01*
X160832209Y-94175170D01*
X160688500Y-94156250D01*
X160544791Y-94175170D01*
X160410875Y-94230639D01*
X160295879Y-94318879D01*
X160207639Y-94433875D01*
X160152170Y-94567791D01*
X160133250Y-94711500D01*
X158867406Y-94711500D01*
X160308906Y-93270000D01*
X161704750Y-93270000D01*
X161723670Y-93413709D01*
X161779139Y-93547625D01*
X161867379Y-93662621D01*
X161982375Y-93750861D01*
X162116291Y-93806330D01*
X162260000Y-93825250D01*
X162403709Y-93806330D01*
X162537625Y-93750861D01*
X162652621Y-93662621D01*
X162740861Y-93547625D01*
X162796330Y-93413709D01*
X162815250Y-93270000D01*
X162796330Y-93126291D01*
X162799016Y-93125937D01*
X162800394Y-93068310D01*
X162831312Y-93017594D01*
X164562928Y-91285977D01*
X164567712Y-91281436D01*
X164596509Y-91255507D01*
X164604755Y-91236985D01*
X164614183Y-91219622D01*
X164625226Y-91202618D01*
X164627298Y-91189537D01*
X164629080Y-91184894D01*
X164630114Y-91180028D01*
X164635500Y-91167932D01*
X164635500Y-91147666D01*
X164637051Y-91127955D01*
X164637350Y-91126071D01*
X164640222Y-91107935D01*
X164636795Y-91095146D01*
X164636102Y-91081918D01*
X164636576Y-91081893D01*
X164635500Y-91073723D01*
X164635500Y-82715596D01*
X164655502Y-82647475D01*
X164672405Y-82626501D01*
X166381921Y-80916985D01*
X166444233Y-80882959D01*
X166515048Y-80888024D01*
X166532478Y-80896088D01*
X166577513Y-80921257D01*
X166764118Y-80981889D01*
X166958946Y-81005121D01*
X166965081Y-81004649D01*
X166965083Y-81004649D01*
X167148434Y-80990541D01*
X167148438Y-80990540D01*
X167154576Y-80990068D01*
X167343556Y-80937303D01*
X167518689Y-80848837D01*
X167548515Y-80825535D01*
X167668453Y-80731829D01*
X167673303Y-80728040D01*
X167688070Y-80710933D01*
X167797485Y-80584173D01*
X167797485Y-80584172D01*
X167801509Y-80579511D01*
X167832595Y-80524791D01*
X167874687Y-80450695D01*
X167898425Y-80408909D01*
X167960358Y-80222732D01*
X167984949Y-80028071D01*
X167985341Y-80000000D01*
X167966194Y-79804728D01*
X167964413Y-79798829D01*
X167964412Y-79798824D01*
X167911265Y-79622793D01*
X167909484Y-79616894D01*
X167817370Y-79443653D01*
X167693361Y-79291602D01*
X167542180Y-79166535D01*
X167369585Y-79073213D01*
X167267124Y-79041496D01*
X167188039Y-79017015D01*
X167188036Y-79017014D01*
X167182152Y-79015193D01*
X167176027Y-79014549D01*
X167176026Y-79014549D01*
X166993147Y-78995327D01*
X166993146Y-78995327D01*
X166987019Y-78994683D01*
X166864733Y-79005812D01*
X166797759Y-79011907D01*
X166797758Y-79011907D01*
X166791618Y-79012466D01*
X166785704Y-79014207D01*
X166785702Y-79014207D01*
X166716410Y-79034601D01*
X166603393Y-79067864D01*
X166597928Y-79070721D01*
X166434972Y-79155912D01*
X166434968Y-79155915D01*
X166429512Y-79158767D01*
X166424712Y-79162627D01*
X166424711Y-79162627D01*
X166414515Y-79170825D01*
X166276600Y-79281711D01*
X166150480Y-79432016D01*
X166147516Y-79437408D01*
X166147513Y-79437412D01*
X166084798Y-79551491D01*
X166055956Y-79603954D01*
X166054095Y-79609821D01*
X166054094Y-79609823D01*
X166047421Y-79630860D01*
X165996628Y-79790978D01*
X165974757Y-79985963D01*
X165991175Y-80181483D01*
X166045258Y-80370091D01*
X166072927Y-80423929D01*
X166086683Y-80450695D01*
X166100030Y-80520426D01*
X166073560Y-80586303D01*
X166063711Y-80597384D01*
X164257072Y-82404023D01*
X164252288Y-82408564D01*
X164223491Y-82434493D01*
X164215245Y-82453015D01*
X164205817Y-82470378D01*
X164194774Y-82487382D01*
X164192702Y-82500463D01*
X164190920Y-82505106D01*
X164189886Y-82509972D01*
X164184500Y-82522068D01*
X164184500Y-82542334D01*
X164182949Y-82562043D01*
X164179778Y-82582065D01*
X164183205Y-82594854D01*
X164183898Y-82608082D01*
X164183424Y-82608107D01*
X164184500Y-82616277D01*
X164184500Y-90974404D01*
X164164498Y-91042525D01*
X164147595Y-91063499D01*
X163327616Y-91883479D01*
X162512406Y-92698689D01*
X162450094Y-92732714D01*
X162403980Y-92731613D01*
X162403709Y-92733670D01*
X162268188Y-92715828D01*
X162260000Y-92714750D01*
X162116291Y-92733670D01*
X161982375Y-92789139D01*
X161867379Y-92877379D01*
X161779139Y-92992375D01*
X161723670Y-93126291D01*
X161704750Y-93270000D01*
X160308906Y-93270000D01*
X161932938Y-91645968D01*
X161937722Y-91641427D01*
X161950064Y-91630314D01*
X161966509Y-91615507D01*
X161974044Y-91598584D01*
X161974751Y-91596995D01*
X161984185Y-91579619D01*
X161988015Y-91573722D01*
X161988016Y-91573720D01*
X161995226Y-91562617D01*
X161997297Y-91549540D01*
X161999078Y-91544901D01*
X162000113Y-91540032D01*
X162005500Y-91527932D01*
X162005500Y-91507665D01*
X162007051Y-91487954D01*
X162008151Y-91481010D01*
X162010222Y-91467934D01*
X162006795Y-91455145D01*
X162006102Y-91441917D01*
X162006576Y-91441892D01*
X162005500Y-91433722D01*
X162005500Y-82805596D01*
X162025502Y-82737475D01*
X162042405Y-82716501D01*
X162941920Y-81816986D01*
X163841920Y-80916985D01*
X163904232Y-80882960D01*
X163975047Y-80888024D01*
X163992486Y-80896092D01*
X164037513Y-80921257D01*
X164224118Y-80981889D01*
X164418946Y-81005121D01*
X164425081Y-81004649D01*
X164425083Y-81004649D01*
X164608434Y-80990541D01*
X164608438Y-80990540D01*
X164614576Y-80990068D01*
X164803556Y-80937303D01*
X164978689Y-80848837D01*
X165008515Y-80825535D01*
X165128453Y-80731829D01*
X165133303Y-80728040D01*
X165148070Y-80710933D01*
X165257485Y-80584173D01*
X165257485Y-80584172D01*
X165261509Y-80579511D01*
X165292595Y-80524791D01*
X165334687Y-80450695D01*
X165358425Y-80408909D01*
X165420358Y-80222732D01*
X165444949Y-80028071D01*
X165445341Y-80000000D01*
X165426194Y-79804728D01*
X165424413Y-79798829D01*
X165424412Y-79798824D01*
X165371265Y-79622793D01*
X165369484Y-79616894D01*
X165277370Y-79443653D01*
X165153361Y-79291602D01*
X165002180Y-79166535D01*
X164829585Y-79073213D01*
X164727124Y-79041496D01*
X164648039Y-79017015D01*
X164648036Y-79017014D01*
X164642152Y-79015193D01*
X164636027Y-79014549D01*
X164636026Y-79014549D01*
X164453147Y-78995327D01*
X164453146Y-78995327D01*
X164447019Y-78994683D01*
X164324733Y-79005812D01*
X164257759Y-79011907D01*
X164257758Y-79011907D01*
X164251618Y-79012466D01*
X164245704Y-79014207D01*
X164245702Y-79014207D01*
X164176410Y-79034601D01*
X164063393Y-79067864D01*
X164057928Y-79070721D01*
X163894972Y-79155912D01*
X163894968Y-79155915D01*
X163889512Y-79158767D01*
X163884712Y-79162627D01*
X163884711Y-79162627D01*
X163874515Y-79170825D01*
X163736600Y-79281711D01*
X163610480Y-79432016D01*
X163607516Y-79437408D01*
X163607513Y-79437412D01*
X163544798Y-79551491D01*
X163515956Y-79603954D01*
X163514095Y-79609821D01*
X163514094Y-79609823D01*
X163507421Y-79630860D01*
X163456628Y-79790978D01*
X163434757Y-79985963D01*
X163451175Y-80181483D01*
X163505258Y-80370091D01*
X163532927Y-80423929D01*
X163546683Y-80450695D01*
X163560030Y-80520426D01*
X163533560Y-80586303D01*
X163523711Y-80597384D01*
X163105868Y-81015227D01*
X163043556Y-81049253D01*
X162972741Y-81044188D01*
X162915905Y-81001641D01*
X162891094Y-80935121D01*
X162893194Y-80901551D01*
X162899293Y-80870889D01*
X162899293Y-80870887D01*
X162900500Y-80864820D01*
X162900500Y-79135180D01*
X162891767Y-79091278D01*
X162884873Y-79080960D01*
X162884872Y-79080958D01*
X162865399Y-79051815D01*
X162858504Y-79041496D01*
X162848185Y-79034601D01*
X162819042Y-79015128D01*
X162819040Y-79015127D01*
X162808722Y-79008233D01*
X162764820Y-78999500D01*
X161035180Y-78999500D01*
X160991278Y-79008233D01*
X160980960Y-79015127D01*
X160980958Y-79015128D01*
X160951815Y-79034601D01*
X160941496Y-79041496D01*
X160934601Y-79051815D01*
X160915128Y-79080958D01*
X160915127Y-79080960D01*
X160908233Y-79091278D01*
X160899500Y-79135180D01*
X160899500Y-80219404D01*
X160879498Y-80287525D01*
X160862595Y-80308499D01*
X153147072Y-88024023D01*
X153142288Y-88028564D01*
X153113491Y-88054493D01*
X153105245Y-88073015D01*
X153095817Y-88090378D01*
X153084774Y-88107382D01*
X153082702Y-88120463D01*
X153080920Y-88125106D01*
X153079886Y-88129972D01*
X153074500Y-88142068D01*
X153074500Y-88162334D01*
X153072949Y-88182043D01*
X153069778Y-88202065D01*
X153073205Y-88214854D01*
X153073898Y-88228082D01*
X153073424Y-88228107D01*
X153074500Y-88236277D01*
X153074500Y-92750792D01*
X153074327Y-92757386D01*
X153072300Y-92796064D01*
X153077047Y-92808430D01*
X153079563Y-92814985D01*
X153085179Y-92833941D01*
X153089393Y-92853768D01*
X153097176Y-92864481D01*
X153099201Y-92869029D01*
X153101908Y-92873198D01*
X153106654Y-92885560D01*
X153120986Y-92899892D01*
X153133827Y-92914927D01*
X153137955Y-92920609D01*
X153137957Y-92920611D01*
X153145740Y-92931323D01*
X153157207Y-92937944D01*
X153167050Y-92946806D01*
X153166731Y-92947160D01*
X153173267Y-92952173D01*
X153664032Y-93442938D01*
X153668573Y-93447722D01*
X153694493Y-93476509D01*
X153713017Y-93484757D01*
X153730386Y-93494188D01*
X153747382Y-93505225D01*
X153760464Y-93507297D01*
X153765106Y-93509079D01*
X153769967Y-93510112D01*
X153782068Y-93515500D01*
X153802333Y-93515500D01*
X153822045Y-93517051D01*
X153828988Y-93518151D01*
X153828989Y-93518151D01*
X153842065Y-93520222D01*
X153854854Y-93516795D01*
X153868082Y-93516102D01*
X153868107Y-93516576D01*
X153876277Y-93515500D01*
X153947423Y-93515500D01*
X154015544Y-93535502D01*
X154062037Y-93589158D01*
X154072141Y-93659432D01*
X154041865Y-93724907D01*
X154019596Y-93750122D01*
X154015782Y-93758245D01*
X154015781Y-93758247D01*
X154008522Y-93773709D01*
X153964754Y-93866932D01*
X153963374Y-93875798D01*
X153946282Y-93985567D01*
X153946282Y-93985571D01*
X153944901Y-93994440D01*
X153946065Y-94003342D01*
X153946065Y-94003345D01*
X153953246Y-94058258D01*
X153942246Y-94128397D01*
X153917405Y-94163690D01*
X153247072Y-94834023D01*
X153242288Y-94838564D01*
X153213491Y-94864493D01*
X153205245Y-94883015D01*
X153195817Y-94900378D01*
X153184774Y-94917382D01*
X153182702Y-94930463D01*
X153180920Y-94935106D01*
X153179886Y-94939972D01*
X153174500Y-94952068D01*
X153174500Y-94972334D01*
X153172949Y-94992043D01*
X153169778Y-95012065D01*
X153173205Y-95024854D01*
X153173898Y-95038082D01*
X153173424Y-95038107D01*
X153174500Y-95046277D01*
X153174500Y-96237281D01*
X153154498Y-96305402D01*
X153100842Y-96351895D01*
X153030568Y-96361999D01*
X152965988Y-96332505D01*
X152953047Y-96319528D01*
X152905054Y-96263829D01*
X152905050Y-96263826D01*
X152899193Y-96257028D01*
X152790906Y-96186841D01*
X152782311Y-96184271D01*
X152782310Y-96184270D01*
X152675874Y-96152438D01*
X152675872Y-96152438D01*
X152667273Y-96149866D01*
X152658298Y-96149811D01*
X152658297Y-96149811D01*
X152603641Y-96149477D01*
X152538231Y-96149078D01*
X152526475Y-96152438D01*
X152422786Y-96182072D01*
X152422784Y-96182073D01*
X152414155Y-96184539D01*
X152406565Y-96189328D01*
X152320889Y-96243386D01*
X152305019Y-96253399D01*
X152299076Y-96260128D01*
X152299075Y-96260129D01*
X152259091Y-96305402D01*
X152219596Y-96350122D01*
X152215782Y-96358245D01*
X152215781Y-96358247D01*
X152203461Y-96384488D01*
X152164754Y-96466932D01*
X152163374Y-96475798D01*
X152146282Y-96585567D01*
X152146282Y-96585571D01*
X152144901Y-96594440D01*
X152146065Y-96603342D01*
X152146065Y-96603345D01*
X152160468Y-96713489D01*
X152160469Y-96713493D01*
X152161633Y-96722394D01*
X152165250Y-96730614D01*
X152202897Y-96816173D01*
X152213605Y-96840510D01*
X152219382Y-96847383D01*
X152219383Y-96847384D01*
X152286833Y-96927625D01*
X152296639Y-96939291D01*
X152404060Y-97010796D01*
X152527233Y-97049278D01*
X152536203Y-97049442D01*
X152536207Y-97049443D01*
X152647281Y-97051479D01*
X152647284Y-97051479D01*
X152656255Y-97051643D01*
X152662997Y-97049805D01*
X152732081Y-97061073D01*
X152766678Y-97085583D01*
X153688107Y-98007012D01*
X153722133Y-98069324D01*
X153717068Y-98140139D01*
X153674521Y-98196975D01*
X153608001Y-98221786D01*
X153536011Y-98205225D01*
X153534175Y-98204165D01*
X153527625Y-98199139D01*
X153520001Y-98195981D01*
X153519999Y-98195980D01*
X153401340Y-98146831D01*
X153401341Y-98146831D01*
X153393709Y-98143670D01*
X153250000Y-98124750D01*
X153106291Y-98143670D01*
X152972375Y-98199139D01*
X152857379Y-98287379D01*
X152769139Y-98402375D01*
X152713670Y-98536291D01*
X152694750Y-98680000D01*
X152713670Y-98823709D01*
X152769139Y-98957625D01*
X152857379Y-99072621D01*
X152863929Y-99077647D01*
X152972375Y-99160861D01*
X152970724Y-99163013D01*
X153010488Y-99204710D01*
X153024500Y-99262456D01*
X153024500Y-101635780D01*
X153024327Y-101642374D01*
X153022300Y-101681052D01*
X153027047Y-101693418D01*
X153029563Y-101699973D01*
X153035179Y-101718929D01*
X153039393Y-101738756D01*
X153047176Y-101749469D01*
X153049201Y-101754017D01*
X153051908Y-101758186D01*
X153056654Y-101770548D01*
X153070986Y-101784880D01*
X153083827Y-101799915D01*
X153087955Y-101805597D01*
X153087957Y-101805599D01*
X153095740Y-101816311D01*
X153107207Y-101822932D01*
X153117050Y-101831794D01*
X153116732Y-101832147D01*
X153123269Y-101837163D01*
X155617477Y-104331370D01*
X158097595Y-106811488D01*
X158131621Y-106873800D01*
X158134500Y-106900583D01*
X158134500Y-110809131D01*
X158114498Y-110877252D01*
X158060842Y-110923745D01*
X158044088Y-110930000D01*
X157983393Y-110947864D01*
X157912014Y-110985180D01*
X157814972Y-111035912D01*
X157814968Y-111035915D01*
X157809512Y-111038767D01*
X157804712Y-111042627D01*
X157804711Y-111042627D01*
X157787624Y-111056365D01*
X157656600Y-111161711D01*
X157530480Y-111312016D01*
X157527516Y-111317408D01*
X157527513Y-111317412D01*
X157474303Y-111414201D01*
X157435956Y-111483954D01*
X157376628Y-111670978D01*
X157354757Y-111865963D01*
X157371175Y-112061483D01*
X157425258Y-112250091D01*
X157432546Y-112264272D01*
X157512123Y-112419113D01*
X157512126Y-112419117D01*
X157514944Y-112424601D01*
X157636818Y-112578369D01*
X157786238Y-112705535D01*
X157791616Y-112708541D01*
X157791618Y-112708542D01*
X157827932Y-112728837D01*
X157957513Y-112801257D01*
X158144118Y-112861889D01*
X158338946Y-112885121D01*
X158345081Y-112884649D01*
X158345083Y-112884649D01*
X158528434Y-112870541D01*
X158528438Y-112870540D01*
X158534576Y-112870068D01*
X158723556Y-112817303D01*
X158898689Y-112728837D01*
X158928515Y-112705535D01*
X158929430Y-112704820D01*
X167209500Y-112704820D01*
X167218233Y-112748722D01*
X167225127Y-112759040D01*
X167225128Y-112759042D01*
X167241444Y-112783460D01*
X167251496Y-112798504D01*
X167261815Y-112805399D01*
X167290958Y-112824872D01*
X167290960Y-112824873D01*
X167301278Y-112831767D01*
X167345180Y-112840500D01*
X169074820Y-112840500D01*
X169118722Y-112831767D01*
X169129040Y-112824873D01*
X169129042Y-112824872D01*
X169158185Y-112805399D01*
X169168504Y-112798504D01*
X169178556Y-112783460D01*
X169194872Y-112759042D01*
X169194873Y-112759040D01*
X169201767Y-112748722D01*
X169210500Y-112704820D01*
X169210500Y-110975180D01*
X169201767Y-110931278D01*
X169194873Y-110920960D01*
X169194872Y-110920958D01*
X169175399Y-110891815D01*
X169168504Y-110881496D01*
X169158185Y-110874601D01*
X169129042Y-110855128D01*
X169129040Y-110855127D01*
X169118722Y-110848233D01*
X169074820Y-110839500D01*
X167345180Y-110839500D01*
X167301278Y-110848233D01*
X167290960Y-110855127D01*
X167290958Y-110855128D01*
X167261815Y-110874601D01*
X167251496Y-110881496D01*
X167244601Y-110891815D01*
X167225128Y-110920958D01*
X167225127Y-110920960D01*
X167218233Y-110931278D01*
X167209500Y-110975180D01*
X167209500Y-112704820D01*
X158929430Y-112704820D01*
X159048453Y-112611829D01*
X159053303Y-112608040D01*
X159083084Y-112573539D01*
X159177485Y-112464173D01*
X159177485Y-112464172D01*
X159181509Y-112459511D01*
X159198552Y-112429511D01*
X159275378Y-112294272D01*
X159278425Y-112288909D01*
X159340358Y-112102732D01*
X159364949Y-111908071D01*
X159365341Y-111880000D01*
X159346194Y-111684728D01*
X159344413Y-111678829D01*
X159344412Y-111678824D01*
X159291265Y-111502793D01*
X159289484Y-111496894D01*
X159197370Y-111323653D01*
X159073361Y-111171602D01*
X158922180Y-111046535D01*
X158749585Y-110953213D01*
X158674241Y-110929890D01*
X158615081Y-110890639D01*
X158586534Y-110825634D01*
X158585500Y-110809525D01*
X158585500Y-106764184D01*
X158585673Y-106757591D01*
X158587006Y-106732152D01*
X158587699Y-106718924D01*
X158580437Y-106700006D01*
X158574821Y-106681047D01*
X158573360Y-106674173D01*
X158570607Y-106661220D01*
X158562825Y-106650508D01*
X158560803Y-106645967D01*
X158558091Y-106641791D01*
X158553345Y-106629428D01*
X158539017Y-106615100D01*
X158526176Y-106600066D01*
X158522043Y-106594377D01*
X158522042Y-106594376D01*
X158514260Y-106583665D01*
X158502794Y-106577045D01*
X158492949Y-106568181D01*
X158493267Y-106567828D01*
X158486728Y-106562811D01*
X155764512Y-103840595D01*
X155730486Y-103778283D01*
X155735551Y-103707468D01*
X155778098Y-103650632D01*
X155844618Y-103625821D01*
X155853607Y-103625500D01*
X157989792Y-103625500D01*
X158057913Y-103645502D01*
X158104406Y-103699158D01*
X158113878Y-103773379D01*
X158104864Y-103824500D01*
X158123266Y-103928863D01*
X158176252Y-104020638D01*
X158184697Y-104027724D01*
X158248989Y-104081672D01*
X158248991Y-104081673D01*
X158257432Y-104088756D01*
X158357014Y-104125000D01*
X158356958Y-104125155D01*
X158418052Y-104156958D01*
X159924032Y-105662938D01*
X159928573Y-105667722D01*
X159954493Y-105696509D01*
X159966591Y-105701895D01*
X159966592Y-105701896D01*
X159973005Y-105704751D01*
X159990381Y-105714185D01*
X159996278Y-105718015D01*
X159996280Y-105718016D01*
X160007383Y-105725226D01*
X160020460Y-105727297D01*
X160025099Y-105729078D01*
X160029968Y-105730113D01*
X160042068Y-105735500D01*
X160062335Y-105735500D01*
X160082044Y-105737051D01*
X160102066Y-105740222D01*
X160114855Y-105736795D01*
X160128083Y-105736102D01*
X160128108Y-105736576D01*
X160136278Y-105735500D01*
X171880792Y-105735500D01*
X171887386Y-105735673D01*
X171912836Y-105737007D01*
X171912837Y-105737007D01*
X171926064Y-105737700D01*
X171944984Y-105730437D01*
X171963942Y-105724821D01*
X171970816Y-105723360D01*
X171983768Y-105720607D01*
X171994481Y-105712824D01*
X171999029Y-105710799D01*
X172003198Y-105708092D01*
X172015560Y-105703346D01*
X172029892Y-105689014D01*
X172044927Y-105676173D01*
X172050609Y-105672045D01*
X172050611Y-105672043D01*
X172061323Y-105664260D01*
X172067944Y-105652793D01*
X172076806Y-105642950D01*
X172077159Y-105643268D01*
X172082175Y-105636731D01*
X174011438Y-103707468D01*
X175947594Y-101771311D01*
X176009906Y-101737285D01*
X176056020Y-101738387D01*
X176056291Y-101736330D01*
X176200000Y-101755250D01*
X176343709Y-101736330D01*
X176477625Y-101680861D01*
X176481110Y-101678187D01*
X176548365Y-101661871D01*
X176615457Y-101685091D01*
X176659344Y-101740898D01*
X176668363Y-101786416D01*
X176684462Y-103333169D01*
X176762952Y-110874601D01*
X176841940Y-118463703D01*
X176855043Y-119722689D01*
X176835751Y-119791014D01*
X176782582Y-119838063D01*
X176729050Y-119850000D01*
X115114322Y-119850000D01*
X115046201Y-119829998D01*
X115025227Y-119813095D01*
X109618095Y-114405963D01*
X117524757Y-114405963D01*
X117541175Y-114601483D01*
X117595258Y-114790091D01*
X117605748Y-114810502D01*
X117682123Y-114959113D01*
X117682126Y-114959117D01*
X117684944Y-114964601D01*
X117806818Y-115118369D01*
X117956238Y-115245535D01*
X117961616Y-115248541D01*
X117961618Y-115248542D01*
X117997932Y-115268837D01*
X118127513Y-115341257D01*
X118314118Y-115401889D01*
X118508946Y-115425121D01*
X118515081Y-115424649D01*
X118515083Y-115424649D01*
X118698434Y-115410541D01*
X118698438Y-115410540D01*
X118704576Y-115410068D01*
X118710515Y-115408410D01*
X118733869Y-115401889D01*
X118828390Y-115375498D01*
X118899379Y-115376444D01*
X118951368Y-115407761D01*
X121919091Y-118375484D01*
X121919095Y-118375487D01*
X121941658Y-118398050D01*
X121950492Y-118402551D01*
X121950493Y-118402552D01*
X121961257Y-118408037D01*
X121978113Y-118418366D01*
X121995911Y-118431297D01*
X122016836Y-118438096D01*
X122035097Y-118445660D01*
X122045860Y-118451144D01*
X122054696Y-118455646D01*
X122064489Y-118457197D01*
X122076422Y-118459087D01*
X122095648Y-118463703D01*
X122107133Y-118467435D01*
X122107135Y-118467435D01*
X122116567Y-118470500D01*
X146383433Y-118470500D01*
X146392864Y-118467436D01*
X146392868Y-118467435D01*
X146404353Y-118463703D01*
X146423578Y-118459087D01*
X146435512Y-118457197D01*
X146435513Y-118457197D01*
X146445304Y-118455646D01*
X146454137Y-118451145D01*
X146454141Y-118451144D01*
X146464906Y-118445659D01*
X146483166Y-118438095D01*
X146504090Y-118431296D01*
X146521893Y-118418361D01*
X146538745Y-118408035D01*
X146549502Y-118402554D01*
X146558342Y-118398050D01*
X146580905Y-118375487D01*
X146580909Y-118375484D01*
X150445484Y-114510909D01*
X150445487Y-114510905D01*
X150468050Y-114488342D01*
X150472555Y-114479501D01*
X150478037Y-114468742D01*
X150488365Y-114451887D01*
X150495467Y-114442112D01*
X150501296Y-114434089D01*
X150508094Y-114413168D01*
X150511079Y-114405963D01*
X154814757Y-114405963D01*
X154831175Y-114601483D01*
X154885258Y-114790091D01*
X154895748Y-114810502D01*
X154972123Y-114959113D01*
X154972126Y-114959117D01*
X154974944Y-114964601D01*
X155096818Y-115118369D01*
X155246238Y-115245535D01*
X155251616Y-115248541D01*
X155251618Y-115248542D01*
X155287932Y-115268837D01*
X155417513Y-115341257D01*
X155604118Y-115401889D01*
X155798946Y-115425121D01*
X155805081Y-115424649D01*
X155805083Y-115424649D01*
X155988434Y-115410541D01*
X155988438Y-115410540D01*
X155994576Y-115410068D01*
X156183556Y-115357303D01*
X156358689Y-115268837D01*
X156382942Y-115249889D01*
X156508453Y-115151829D01*
X156513303Y-115148040D01*
X156543084Y-115113539D01*
X156637485Y-115004173D01*
X156637485Y-115004172D01*
X156641509Y-114999511D01*
X156658552Y-114969511D01*
X156678383Y-114934601D01*
X156738425Y-114828909D01*
X156800358Y-114642732D01*
X156824949Y-114448071D01*
X156825341Y-114420000D01*
X156823965Y-114405963D01*
X157354757Y-114405963D01*
X157371175Y-114601483D01*
X157425258Y-114790091D01*
X157435748Y-114810502D01*
X157512123Y-114959113D01*
X157512126Y-114959117D01*
X157514944Y-114964601D01*
X157636818Y-115118369D01*
X157786238Y-115245535D01*
X157791616Y-115248541D01*
X157791618Y-115248542D01*
X157827932Y-115268837D01*
X157957513Y-115341257D01*
X158144118Y-115401889D01*
X158338946Y-115425121D01*
X158345081Y-115424649D01*
X158345083Y-115424649D01*
X158528434Y-115410541D01*
X158528438Y-115410540D01*
X158534576Y-115410068D01*
X158723556Y-115357303D01*
X158898689Y-115268837D01*
X158922942Y-115249889D01*
X159048453Y-115151829D01*
X159053303Y-115148040D01*
X159083084Y-115113539D01*
X159177485Y-115004173D01*
X159177485Y-115004172D01*
X159181509Y-114999511D01*
X159198552Y-114969511D01*
X159218383Y-114934601D01*
X159278425Y-114828909D01*
X159340358Y-114642732D01*
X159364949Y-114448071D01*
X159365341Y-114420000D01*
X159360043Y-114365963D01*
X167204757Y-114365963D01*
X167221175Y-114561483D01*
X167275258Y-114750091D01*
X167278076Y-114755574D01*
X167362123Y-114919113D01*
X167362126Y-114919117D01*
X167364944Y-114924601D01*
X167486818Y-115078369D01*
X167636238Y-115205535D01*
X167641616Y-115208541D01*
X167641618Y-115208542D01*
X167682897Y-115231612D01*
X167807513Y-115301257D01*
X167994118Y-115361889D01*
X168188946Y-115385121D01*
X168195081Y-115384649D01*
X168195083Y-115384649D01*
X168378434Y-115370541D01*
X168378438Y-115370540D01*
X168384576Y-115370068D01*
X168573556Y-115317303D01*
X168748689Y-115228837D01*
X168778515Y-115205535D01*
X168890082Y-115118369D01*
X168903303Y-115108040D01*
X168920283Y-115088369D01*
X169027485Y-114964173D01*
X169027485Y-114964172D01*
X169031509Y-114959511D01*
X169042915Y-114939434D01*
X169067644Y-114895902D01*
X169128425Y-114788909D01*
X169190358Y-114602732D01*
X169214949Y-114408071D01*
X169215341Y-114380000D01*
X169196194Y-114184728D01*
X169194413Y-114178829D01*
X169194412Y-114178824D01*
X169141265Y-114002793D01*
X169139484Y-113996894D01*
X169047370Y-113823653D01*
X168923361Y-113671602D01*
X168772180Y-113546535D01*
X168599585Y-113453213D01*
X168476920Y-113415242D01*
X168418039Y-113397015D01*
X168418036Y-113397014D01*
X168412152Y-113395193D01*
X168406027Y-113394549D01*
X168406026Y-113394549D01*
X168223147Y-113375327D01*
X168223146Y-113375327D01*
X168217019Y-113374683D01*
X168107138Y-113384683D01*
X168027759Y-113391907D01*
X168027758Y-113391907D01*
X168021618Y-113392466D01*
X168015704Y-113394207D01*
X168015702Y-113394207D01*
X167887610Y-113431907D01*
X167833393Y-113447864D01*
X167827928Y-113450721D01*
X167664972Y-113535912D01*
X167664968Y-113535915D01*
X167659512Y-113538767D01*
X167654712Y-113542627D01*
X167654711Y-113542627D01*
X167642274Y-113552627D01*
X167506600Y-113661711D01*
X167380480Y-113812016D01*
X167377516Y-113817408D01*
X167377513Y-113817412D01*
X167316919Y-113927632D01*
X167285956Y-113983954D01*
X167284095Y-113989821D01*
X167284094Y-113989823D01*
X167274889Y-114018842D01*
X167226628Y-114170978D01*
X167204757Y-114365963D01*
X159360043Y-114365963D01*
X159346194Y-114224728D01*
X159344413Y-114218829D01*
X159344412Y-114218824D01*
X159291265Y-114042793D01*
X159289484Y-114036894D01*
X159197370Y-113863653D01*
X159073361Y-113711602D01*
X158922180Y-113586535D01*
X158749585Y-113493213D01*
X158644620Y-113460721D01*
X158568039Y-113437015D01*
X158568036Y-113437014D01*
X158562152Y-113435193D01*
X158556027Y-113434549D01*
X158556026Y-113434549D01*
X158373147Y-113415327D01*
X158373146Y-113415327D01*
X158367019Y-113414683D01*
X158244383Y-113425844D01*
X158177759Y-113431907D01*
X158177758Y-113431907D01*
X158171618Y-113432466D01*
X158165704Y-113434207D01*
X158165702Y-113434207D01*
X158075616Y-113460721D01*
X157983393Y-113487864D01*
X157977928Y-113490721D01*
X157814972Y-113575912D01*
X157814968Y-113575915D01*
X157809512Y-113578767D01*
X157804712Y-113582627D01*
X157804711Y-113582627D01*
X157770326Y-113610273D01*
X157656600Y-113701711D01*
X157530480Y-113852016D01*
X157527516Y-113857408D01*
X157527513Y-113857412D01*
X157460912Y-113978559D01*
X157435956Y-114023954D01*
X157434095Y-114029821D01*
X157434094Y-114029823D01*
X157406292Y-114117466D01*
X157376628Y-114210978D01*
X157354757Y-114405963D01*
X156823965Y-114405963D01*
X156806194Y-114224728D01*
X156804413Y-114218829D01*
X156804412Y-114218824D01*
X156751265Y-114042793D01*
X156749484Y-114036894D01*
X156657370Y-113863653D01*
X156533361Y-113711602D01*
X156382180Y-113586535D01*
X156209585Y-113493213D01*
X156104620Y-113460721D01*
X156028039Y-113437015D01*
X156028036Y-113437014D01*
X156022152Y-113435193D01*
X156016027Y-113434549D01*
X156016026Y-113434549D01*
X155833147Y-113415327D01*
X155833146Y-113415327D01*
X155827019Y-113414683D01*
X155704383Y-113425844D01*
X155637759Y-113431907D01*
X155637758Y-113431907D01*
X155631618Y-113432466D01*
X155625704Y-113434207D01*
X155625702Y-113434207D01*
X155535616Y-113460721D01*
X155443393Y-113487864D01*
X155437928Y-113490721D01*
X155274972Y-113575912D01*
X155274968Y-113575915D01*
X155269512Y-113578767D01*
X155264712Y-113582627D01*
X155264711Y-113582627D01*
X155230326Y-113610273D01*
X155116600Y-113701711D01*
X154990480Y-113852016D01*
X154987516Y-113857408D01*
X154987513Y-113857412D01*
X154920912Y-113978559D01*
X154895956Y-114023954D01*
X154894095Y-114029821D01*
X154894094Y-114029823D01*
X154866292Y-114117466D01*
X154836628Y-114210978D01*
X154814757Y-114405963D01*
X150511079Y-114405963D01*
X150515658Y-114394908D01*
X150521144Y-114384141D01*
X150521145Y-114384137D01*
X150525646Y-114375304D01*
X150528096Y-114359838D01*
X150529087Y-114353578D01*
X150533703Y-114334353D01*
X150537435Y-114322868D01*
X150537436Y-114322864D01*
X150540500Y-114313433D01*
X150540500Y-112744820D01*
X154819500Y-112744820D01*
X154828233Y-112788722D01*
X154835127Y-112799040D01*
X154835128Y-112799042D01*
X154846058Y-112815399D01*
X154861496Y-112838504D01*
X154871815Y-112845399D01*
X154900958Y-112864872D01*
X154900960Y-112864873D01*
X154911278Y-112871767D01*
X154955180Y-112880500D01*
X156684820Y-112880500D01*
X156728722Y-112871767D01*
X156739040Y-112864873D01*
X156739042Y-112864872D01*
X156768185Y-112845399D01*
X156778504Y-112838504D01*
X156793942Y-112815399D01*
X156804872Y-112799042D01*
X156804873Y-112799040D01*
X156811767Y-112788722D01*
X156820500Y-112744820D01*
X156820500Y-111015180D01*
X156811767Y-110971278D01*
X156804873Y-110960960D01*
X156804872Y-110960958D01*
X156785399Y-110931815D01*
X156778504Y-110921496D01*
X156768185Y-110914601D01*
X156739042Y-110895128D01*
X156739040Y-110895127D01*
X156728722Y-110888233D01*
X156684820Y-110879500D01*
X154955180Y-110879500D01*
X154911278Y-110888233D01*
X154900960Y-110895127D01*
X154900958Y-110895128D01*
X154871815Y-110914601D01*
X154861496Y-110921496D01*
X154854601Y-110931815D01*
X154835128Y-110960958D01*
X154835127Y-110960960D01*
X154828233Y-110971278D01*
X154819500Y-111015180D01*
X154819500Y-112744820D01*
X150540500Y-112744820D01*
X150540500Y-105670000D01*
X153824750Y-105670000D01*
X153843670Y-105813709D01*
X153899139Y-105947625D01*
X153987379Y-106062621D01*
X154102375Y-106150861D01*
X154236291Y-106206330D01*
X154261791Y-106209687D01*
X154322103Y-106217628D01*
X154387030Y-106246351D01*
X154426121Y-106305616D01*
X154426966Y-106376608D01*
X154389295Y-106436786D01*
X154340347Y-106463136D01*
X154336291Y-106463670D01*
X154202375Y-106519139D01*
X154087379Y-106607379D01*
X153999139Y-106722375D01*
X153943670Y-106856291D01*
X153924750Y-107000000D01*
X153943670Y-107143709D01*
X153999139Y-107277625D01*
X154087379Y-107392621D01*
X154202375Y-107480861D01*
X154336291Y-107536330D01*
X154480000Y-107555250D01*
X154623709Y-107536330D01*
X154757625Y-107480861D01*
X154872621Y-107392621D01*
X154960861Y-107277625D01*
X155016330Y-107143709D01*
X155035250Y-107000000D01*
X155016330Y-106856291D01*
X154960861Y-106722375D01*
X154872621Y-106607379D01*
X154757625Y-106519139D01*
X154623709Y-106463670D01*
X154598209Y-106460313D01*
X154537897Y-106452372D01*
X154472970Y-106423649D01*
X154433879Y-106364384D01*
X154433034Y-106293392D01*
X154470705Y-106233214D01*
X154519653Y-106206864D01*
X154523709Y-106206330D01*
X154657625Y-106150861D01*
X154772621Y-106062621D01*
X154860861Y-105947625D01*
X154916330Y-105813709D01*
X154935250Y-105670000D01*
X154916330Y-105526291D01*
X154860861Y-105392375D01*
X154772621Y-105277379D01*
X154657625Y-105189139D01*
X154523709Y-105133670D01*
X154380000Y-105114750D01*
X154236291Y-105133670D01*
X154102375Y-105189139D01*
X153987379Y-105277379D01*
X153899139Y-105392375D01*
X153843670Y-105526291D01*
X153824750Y-105670000D01*
X150540500Y-105670000D01*
X150540500Y-103400000D01*
X151647250Y-103400000D01*
X151666170Y-103543709D01*
X151721639Y-103677625D01*
X151809879Y-103792621D01*
X151924875Y-103880861D01*
X152058791Y-103936330D01*
X152202500Y-103955250D01*
X152346209Y-103936330D01*
X152480125Y-103880861D01*
X152595121Y-103792621D01*
X152683361Y-103677625D01*
X152738830Y-103543709D01*
X152757750Y-103400000D01*
X152738830Y-103256291D01*
X152683361Y-103122375D01*
X152595121Y-103007379D01*
X152480125Y-102919139D01*
X152346209Y-102863670D01*
X152202500Y-102844750D01*
X152058791Y-102863670D01*
X151924875Y-102919139D01*
X151809879Y-103007379D01*
X151721639Y-103122375D01*
X151666170Y-103256291D01*
X151647250Y-103400000D01*
X150540500Y-103400000D01*
X150540500Y-102426567D01*
X150537436Y-102417136D01*
X150537435Y-102417132D01*
X150533703Y-102405647D01*
X150529087Y-102386422D01*
X150527197Y-102374488D01*
X150527197Y-102374487D01*
X150525646Y-102364696D01*
X150518241Y-102350163D01*
X150505137Y-102280386D01*
X150531837Y-102214602D01*
X150589864Y-102173695D01*
X150660796Y-102170654D01*
X150719603Y-102203865D01*
X150802487Y-102286749D01*
X150836513Y-102349061D01*
X150837892Y-102395227D01*
X150836282Y-102405565D01*
X150836282Y-102405571D01*
X150834901Y-102414440D01*
X150836065Y-102423342D01*
X150836065Y-102423345D01*
X150850468Y-102533489D01*
X150850469Y-102533493D01*
X150851633Y-102542394D01*
X150861633Y-102565121D01*
X150898247Y-102648332D01*
X150903605Y-102660510D01*
X150909382Y-102667383D01*
X150909383Y-102667384D01*
X150970254Y-102739799D01*
X150986639Y-102759291D01*
X151094060Y-102830796D01*
X151217233Y-102869278D01*
X151226203Y-102869442D01*
X151226207Y-102869443D01*
X151284942Y-102870519D01*
X151346255Y-102871643D01*
X151440623Y-102845915D01*
X151462092Y-102840062D01*
X151462093Y-102840062D01*
X151470755Y-102837700D01*
X151478405Y-102833003D01*
X151478407Y-102833002D01*
X151573072Y-102774878D01*
X151573075Y-102774875D01*
X151580724Y-102770179D01*
X151586750Y-102763522D01*
X151661300Y-102681161D01*
X151661303Y-102681157D01*
X151667322Y-102674507D01*
X151723588Y-102558375D01*
X151732859Y-102503272D01*
X151744190Y-102435917D01*
X151744997Y-102431120D01*
X151745133Y-102420000D01*
X151744264Y-102413929D01*
X151728112Y-102301145D01*
X151728111Y-102301142D01*
X151726839Y-102292259D01*
X151721441Y-102280386D01*
X151677145Y-102182962D01*
X151677143Y-102182959D01*
X151673428Y-102174788D01*
X151608556Y-102099500D01*
X151595051Y-102083826D01*
X151595049Y-102083824D01*
X151589193Y-102077028D01*
X151480906Y-102006841D01*
X151472311Y-102004271D01*
X151472310Y-102004270D01*
X151365874Y-101972438D01*
X151365872Y-101972438D01*
X151357273Y-101969866D01*
X151348298Y-101969811D01*
X151348297Y-101969811D01*
X151317170Y-101969621D01*
X151244862Y-101969180D01*
X151176866Y-101948762D01*
X151156537Y-101932277D01*
X150507405Y-101283145D01*
X150473379Y-101220833D01*
X150470500Y-101194050D01*
X150470500Y-100320500D01*
X150985250Y-100320500D01*
X151004170Y-100464209D01*
X151059639Y-100598125D01*
X151147879Y-100713121D01*
X151262875Y-100801361D01*
X151396791Y-100856830D01*
X151540500Y-100875750D01*
X151684209Y-100856830D01*
X151818125Y-100801361D01*
X151933121Y-100713121D01*
X152021361Y-100598125D01*
X152076830Y-100464209D01*
X152095750Y-100320500D01*
X152076830Y-100176791D01*
X152021361Y-100042875D01*
X151933121Y-99927879D01*
X151818125Y-99839639D01*
X151684209Y-99784170D01*
X151540500Y-99765250D01*
X151396791Y-99784170D01*
X151262875Y-99839639D01*
X151147879Y-99927879D01*
X151059639Y-100042875D01*
X151004170Y-100176791D01*
X150985250Y-100320500D01*
X150470500Y-100320500D01*
X150470500Y-94716500D01*
X150961250Y-94716500D01*
X150980170Y-94860209D01*
X151035639Y-94994125D01*
X151123879Y-95109121D01*
X151238875Y-95197361D01*
X151372791Y-95252830D01*
X151516500Y-95271750D01*
X151660209Y-95252830D01*
X151794125Y-95197361D01*
X151909121Y-95109121D01*
X151997361Y-94994125D01*
X152052830Y-94860209D01*
X152071750Y-94716500D01*
X152052830Y-94572791D01*
X151997361Y-94438875D01*
X151909121Y-94323879D01*
X151794125Y-94235639D01*
X151660209Y-94180170D01*
X151516500Y-94161250D01*
X151372791Y-94180170D01*
X151238875Y-94235639D01*
X151123879Y-94323879D01*
X151035639Y-94438875D01*
X150980170Y-94572791D01*
X150961250Y-94716500D01*
X150470500Y-94716500D01*
X150470500Y-93087090D01*
X150472921Y-93062507D01*
X150472988Y-93062170D01*
X150475409Y-93050000D01*
X150455966Y-92952260D01*
X150414578Y-92890317D01*
X150414577Y-92890316D01*
X150400601Y-92869399D01*
X150390286Y-92862507D01*
X150390284Y-92862505D01*
X150390001Y-92862316D01*
X150370908Y-92846647D01*
X149921696Y-92397435D01*
X149470052Y-91945792D01*
X149436027Y-91883479D01*
X149441091Y-91812664D01*
X149449592Y-91794457D01*
X149458425Y-91778909D01*
X149520358Y-91592732D01*
X149544949Y-91398071D01*
X149545341Y-91370000D01*
X149526194Y-91174728D01*
X149524413Y-91168829D01*
X149524412Y-91168824D01*
X149481470Y-91026594D01*
X149469484Y-90986894D01*
X149466592Y-90981454D01*
X149465609Y-90979070D01*
X149458145Y-90908467D01*
X149493008Y-90841963D01*
X151595452Y-88739519D01*
X151597486Y-88737763D01*
X151602269Y-88735425D01*
X151624171Y-88711815D01*
X151635573Y-88699523D01*
X151638853Y-88696118D01*
X151652248Y-88682723D01*
X151654972Y-88678753D01*
X151657297Y-88676105D01*
X151670492Y-88661881D01*
X151670494Y-88661878D01*
X151678401Y-88653354D01*
X151682711Y-88642550D01*
X151685233Y-88638561D01*
X151690994Y-88627773D01*
X151692911Y-88623448D01*
X151699492Y-88613854D01*
X151705183Y-88589873D01*
X151710748Y-88572276D01*
X151716588Y-88557638D01*
X151716589Y-88557635D01*
X151719883Y-88549378D01*
X151720500Y-88543085D01*
X151720500Y-88540006D01*
X151720650Y-88536933D01*
X151720866Y-88536944D01*
X151722198Y-88525569D01*
X151722654Y-88516254D01*
X151725340Y-88504934D01*
X151721651Y-88477827D01*
X151720500Y-88460836D01*
X151720500Y-82862366D01*
X151720696Y-82859693D01*
X151722425Y-82854658D01*
X151720589Y-82805745D01*
X151720500Y-82801019D01*
X151720500Y-82782052D01*
X151719618Y-82777317D01*
X151719390Y-82773791D01*
X151719121Y-82766639D01*
X151718226Y-82742792D01*
X151713636Y-82732107D01*
X151712599Y-82727507D01*
X151709038Y-82715786D01*
X151707339Y-82711383D01*
X151705209Y-82699947D01*
X151692272Y-82678959D01*
X151683769Y-82662589D01*
X151677548Y-82648109D01*
X151677545Y-82648104D01*
X151674036Y-82639937D01*
X151670023Y-82635051D01*
X151667840Y-82632868D01*
X151665776Y-82630592D01*
X151665937Y-82630446D01*
X151658835Y-82621461D01*
X151652572Y-82614554D01*
X151646468Y-82604652D01*
X151624693Y-82588094D01*
X151611865Y-82576893D01*
X150817590Y-81782618D01*
X149995324Y-80960353D01*
X149961299Y-80898041D01*
X149966363Y-80827226D01*
X149974484Y-80809693D01*
X149982715Y-80794995D01*
X149982717Y-80794990D01*
X149985537Y-80789955D01*
X150053504Y-80589730D01*
X150055998Y-80572534D01*
X150083314Y-80384140D01*
X150083314Y-80384138D01*
X150083846Y-80380470D01*
X150085429Y-80320000D01*
X150066081Y-80109440D01*
X150008686Y-79905931D01*
X149997553Y-79883354D01*
X149917719Y-79721469D01*
X149915165Y-79716290D01*
X149827251Y-79598559D01*
X149792104Y-79551491D01*
X149792103Y-79551490D01*
X149788651Y-79546867D01*
X149633381Y-79403337D01*
X149596955Y-79380354D01*
X149459434Y-79293584D01*
X149459433Y-79293584D01*
X149454554Y-79290505D01*
X149258160Y-79212152D01*
X149252503Y-79211027D01*
X149252497Y-79211025D01*
X149056442Y-79172028D01*
X149056440Y-79172028D01*
X149050775Y-79170901D01*
X149045000Y-79170825D01*
X149044996Y-79170825D01*
X148938976Y-79169437D01*
X148839346Y-79168133D01*
X148833649Y-79169112D01*
X148833648Y-79169112D01*
X148636650Y-79202962D01*
X148636649Y-79202962D01*
X148630953Y-79203941D01*
X148432575Y-79277127D01*
X148427614Y-79280079D01*
X148427613Y-79280079D01*
X148408245Y-79291602D01*
X148250856Y-79385238D01*
X148091881Y-79524655D01*
X147960976Y-79690708D01*
X147958287Y-79695819D01*
X147958285Y-79695822D01*
X147934154Y-79741688D01*
X147862523Y-79877836D01*
X147799820Y-80079773D01*
X147774967Y-80289754D01*
X147788796Y-80500749D01*
X147790217Y-80506345D01*
X147790218Y-80506350D01*
X147837759Y-80693539D01*
X147840845Y-80705690D01*
X147929369Y-80897714D01*
X148051405Y-81070391D01*
X148202865Y-81217937D01*
X148207661Y-81221142D01*
X148207664Y-81221144D01*
X148322159Y-81297647D01*
X148378677Y-81335411D01*
X148383985Y-81337692D01*
X148383986Y-81337692D01*
X148567650Y-81416600D01*
X148567653Y-81416601D01*
X148572953Y-81418878D01*
X148578582Y-81420152D01*
X148578583Y-81420152D01*
X148773550Y-81464269D01*
X148773553Y-81464269D01*
X148779186Y-81465544D01*
X148784957Y-81465771D01*
X148784959Y-81465771D01*
X148846989Y-81468208D01*
X148990470Y-81473846D01*
X148996179Y-81473018D01*
X148996183Y-81473018D01*
X149194015Y-81444333D01*
X149194019Y-81444332D01*
X149199730Y-81443504D01*
X149399955Y-81375537D01*
X149404990Y-81372717D01*
X149404995Y-81372715D01*
X149419693Y-81364484D01*
X149488901Y-81348651D01*
X149555683Y-81372749D01*
X149570353Y-81385324D01*
X151082595Y-82897566D01*
X151116621Y-82959878D01*
X151119500Y-82986661D01*
X151119500Y-88313339D01*
X151099498Y-88381460D01*
X151082595Y-88402434D01*
X149068011Y-90417018D01*
X149005699Y-90451044D01*
X148931406Y-90444198D01*
X148929585Y-90443213D01*
X148860459Y-90421815D01*
X148748039Y-90387015D01*
X148748036Y-90387014D01*
X148742152Y-90385193D01*
X148736027Y-90384549D01*
X148736026Y-90384549D01*
X148553147Y-90365327D01*
X148553146Y-90365327D01*
X148547019Y-90364683D01*
X148439468Y-90374471D01*
X148357759Y-90381907D01*
X148357758Y-90381907D01*
X148351618Y-90382466D01*
X148345704Y-90384207D01*
X148345702Y-90384207D01*
X148332679Y-90388040D01*
X148163393Y-90437864D01*
X148157928Y-90440721D01*
X147994972Y-90525912D01*
X147994968Y-90525915D01*
X147989512Y-90528767D01*
X147836600Y-90651711D01*
X147710480Y-90802016D01*
X147707516Y-90807408D01*
X147707513Y-90807412D01*
X147652417Y-90907632D01*
X147615956Y-90973954D01*
X147614095Y-90979821D01*
X147614094Y-90979823D01*
X147600024Y-91024178D01*
X147556628Y-91160978D01*
X147534757Y-91355963D01*
X147551175Y-91551483D01*
X147605258Y-91740091D01*
X147608076Y-91745574D01*
X147692123Y-91909113D01*
X147692126Y-91909117D01*
X147694944Y-91914601D01*
X147816818Y-92068369D01*
X147966238Y-92195535D01*
X148137513Y-92291257D01*
X148324118Y-92351889D01*
X148518946Y-92375121D01*
X148525081Y-92374649D01*
X148525083Y-92374649D01*
X148708434Y-92360541D01*
X148708438Y-92360540D01*
X148714576Y-92360068D01*
X148903556Y-92307303D01*
X148909054Y-92304526D01*
X148909061Y-92304523D01*
X148967969Y-92274766D01*
X149037791Y-92261905D01*
X149103482Y-92288834D01*
X149113875Y-92298135D01*
X149530489Y-92714750D01*
X149932596Y-93116857D01*
X149966621Y-93179169D01*
X149969500Y-93205952D01*
X149969500Y-95732684D01*
X149949498Y-95800805D01*
X149895842Y-95847298D01*
X149825568Y-95857402D01*
X149760988Y-95827908D01*
X149737708Y-95801124D01*
X149622427Y-95622926D01*
X149616136Y-95614757D01*
X149472806Y-95457240D01*
X149465273Y-95450215D01*
X149298139Y-95318222D01*
X149289552Y-95312517D01*
X149103117Y-95209599D01*
X149093705Y-95205369D01*
X148892959Y-95134280D01*
X148882988Y-95131646D01*
X148817600Y-95119999D01*
X148754043Y-95088361D01*
X148717679Y-95027384D01*
X148720056Y-94956427D01*
X148760417Y-94898019D01*
X148805812Y-94874594D01*
X148818745Y-94870983D01*
X148903556Y-94847303D01*
X149078689Y-94758837D01*
X149105447Y-94737932D01*
X149185223Y-94675604D01*
X149233303Y-94638040D01*
X149248878Y-94619997D01*
X149357485Y-94494173D01*
X149357485Y-94494172D01*
X149361509Y-94489511D01*
X149370650Y-94473421D01*
X149440661Y-94350179D01*
X149458425Y-94318909D01*
X149520358Y-94132732D01*
X149544949Y-93938071D01*
X149545341Y-93910000D01*
X149526194Y-93714728D01*
X149524413Y-93708829D01*
X149524412Y-93708824D01*
X149471265Y-93532793D01*
X149469484Y-93526894D01*
X149377370Y-93353653D01*
X149253361Y-93201602D01*
X149102180Y-93076535D01*
X148929585Y-92983213D01*
X148811973Y-92946806D01*
X148748039Y-92927015D01*
X148748036Y-92927014D01*
X148742152Y-92925193D01*
X148736027Y-92924549D01*
X148736026Y-92924549D01*
X148553147Y-92905327D01*
X148553146Y-92905327D01*
X148547019Y-92904683D01*
X148434457Y-92914927D01*
X148357759Y-92921907D01*
X148357758Y-92921907D01*
X148351618Y-92922466D01*
X148345704Y-92924207D01*
X148345702Y-92924207D01*
X148251743Y-92951861D01*
X148163393Y-92977864D01*
X148157928Y-92980721D01*
X147994972Y-93065912D01*
X147994968Y-93065915D01*
X147989512Y-93068767D01*
X147984712Y-93072627D01*
X147984711Y-93072627D01*
X147973070Y-93081987D01*
X147836600Y-93191711D01*
X147747319Y-93298113D01*
X147723023Y-93327068D01*
X147663913Y-93366395D01*
X147592926Y-93367521D01*
X147532598Y-93330090D01*
X147502084Y-93265986D01*
X147500501Y-93246077D01*
X147500501Y-92632371D01*
X147500697Y-92629696D01*
X147502427Y-92624659D01*
X147500590Y-92575730D01*
X147500501Y-92571004D01*
X147500501Y-92552053D01*
X147499619Y-92547320D01*
X147499391Y-92543793D01*
X147498664Y-92524421D01*
X147498663Y-92524419D01*
X147498227Y-92512793D01*
X147493633Y-92502101D01*
X147492596Y-92497498D01*
X147489039Y-92485788D01*
X147487340Y-92481385D01*
X147485210Y-92469948D01*
X147479107Y-92460047D01*
X147479106Y-92460044D01*
X147472272Y-92448957D01*
X147463768Y-92432586D01*
X147457547Y-92418107D01*
X147457545Y-92418104D01*
X147454037Y-92409939D01*
X147450024Y-92405052D01*
X147447829Y-92402857D01*
X147445771Y-92400587D01*
X147445933Y-92400440D01*
X147438836Y-92391462D01*
X147432573Y-92384555D01*
X147426469Y-92374653D01*
X147404694Y-92358095D01*
X147391866Y-92346894D01*
X147037405Y-91992433D01*
X147003379Y-91930121D01*
X147000500Y-91903338D01*
X147000500Y-90505180D01*
X146991767Y-90461278D01*
X146984873Y-90450960D01*
X146984872Y-90450958D01*
X146965399Y-90421815D01*
X146958504Y-90411496D01*
X146948185Y-90404601D01*
X146919042Y-90385128D01*
X146919040Y-90385127D01*
X146908722Y-90378233D01*
X146864820Y-90369500D01*
X145135180Y-90369500D01*
X145091278Y-90378233D01*
X145080960Y-90385127D01*
X145080958Y-90385128D01*
X145051815Y-90404601D01*
X145041496Y-90411496D01*
X145034601Y-90421815D01*
X145015128Y-90450958D01*
X145015127Y-90450960D01*
X145008233Y-90461278D01*
X144999500Y-90505180D01*
X144999500Y-90943500D01*
X144979498Y-91011621D01*
X144925842Y-91058114D01*
X144873500Y-91069500D01*
X141812366Y-91069500D01*
X141809693Y-91069304D01*
X141804658Y-91067575D01*
X141793036Y-91068011D01*
X141793034Y-91068011D01*
X141755745Y-91069411D01*
X141751019Y-91069500D01*
X141732052Y-91069500D01*
X141727317Y-91070382D01*
X141723791Y-91070610D01*
X141720051Y-91070751D01*
X141692792Y-91071774D01*
X141682107Y-91076364D01*
X141677507Y-91077401D01*
X141665786Y-91080962D01*
X141661383Y-91082661D01*
X141649947Y-91084791D01*
X141628961Y-91097727D01*
X141612589Y-91106231D01*
X141598112Y-91112451D01*
X141598108Y-91112453D01*
X141589937Y-91115964D01*
X141585051Y-91119978D01*
X141582866Y-91122163D01*
X141580603Y-91124215D01*
X141580458Y-91124055D01*
X141571451Y-91131175D01*
X141564556Y-91137427D01*
X141554652Y-91143532D01*
X141538084Y-91165320D01*
X141526890Y-91178139D01*
X140282434Y-92422595D01*
X140220122Y-92456621D01*
X140193339Y-92459500D01*
X137712372Y-92459500D01*
X137709695Y-92459303D01*
X137704658Y-92457574D01*
X137693037Y-92458010D01*
X137693035Y-92458010D01*
X137655730Y-92459411D01*
X137651003Y-92459500D01*
X137632052Y-92459500D01*
X137627319Y-92460382D01*
X137623792Y-92460610D01*
X137604420Y-92461337D01*
X137604418Y-92461338D01*
X137592792Y-92461774D01*
X137582100Y-92466368D01*
X137577497Y-92467405D01*
X137565787Y-92470962D01*
X137561384Y-92472661D01*
X137549947Y-92474791D01*
X137540046Y-92480894D01*
X137540043Y-92480895D01*
X137528956Y-92487729D01*
X137512585Y-92496233D01*
X137498106Y-92502454D01*
X137498103Y-92502456D01*
X137489938Y-92505964D01*
X137485051Y-92509977D01*
X137482856Y-92512172D01*
X137480586Y-92514230D01*
X137480439Y-92514068D01*
X137471461Y-92521165D01*
X137464554Y-92527428D01*
X137454652Y-92533532D01*
X137442732Y-92549208D01*
X137438094Y-92555307D01*
X137426893Y-92568135D01*
X129554548Y-100440481D01*
X129552514Y-100442237D01*
X129547731Y-100444575D01*
X129539819Y-100453104D01*
X129539818Y-100453105D01*
X129514427Y-100480477D01*
X129511147Y-100483882D01*
X129497752Y-100497277D01*
X129495028Y-100501247D01*
X129492703Y-100503895D01*
X129479508Y-100518119D01*
X129479506Y-100518122D01*
X129471599Y-100526646D01*
X129467289Y-100537450D01*
X129464767Y-100541439D01*
X129459006Y-100552227D01*
X129457089Y-100556552D01*
X129450508Y-100566146D01*
X129447822Y-100577465D01*
X129447821Y-100577467D01*
X129444817Y-100590127D01*
X129439252Y-100607724D01*
X129433412Y-100622362D01*
X129430117Y-100630622D01*
X129429500Y-100636915D01*
X129429500Y-100639994D01*
X129429350Y-100643067D01*
X129429134Y-100643056D01*
X129427802Y-100654431D01*
X129427346Y-100663746D01*
X129424660Y-100675066D01*
X129426229Y-100686595D01*
X129426229Y-100686596D01*
X129428349Y-100702173D01*
X129429500Y-100719164D01*
X129429500Y-101574556D01*
X129409498Y-101642677D01*
X129380204Y-101674518D01*
X129357892Y-101691639D01*
X129337379Y-101707379D01*
X129249139Y-101822375D01*
X129193670Y-101956291D01*
X129174750Y-102100000D01*
X129193670Y-102243709D01*
X129249139Y-102377625D01*
X129337379Y-102492621D01*
X129452375Y-102580861D01*
X129586291Y-102636330D01*
X129730000Y-102655250D01*
X129873709Y-102636330D01*
X130007625Y-102580861D01*
X130122621Y-102492621D01*
X130210861Y-102377625D01*
X130266330Y-102243709D01*
X130285250Y-102100000D01*
X130266330Y-101956291D01*
X130210861Y-101822375D01*
X130122621Y-101707379D01*
X130102108Y-101691639D01*
X130079796Y-101674518D01*
X130037929Y-101617180D01*
X130030500Y-101574556D01*
X130030500Y-100866661D01*
X130050502Y-100798540D01*
X130067405Y-100777566D01*
X137214971Y-93630000D01*
X141034750Y-93630000D01*
X141053670Y-93773709D01*
X141109139Y-93907625D01*
X141197379Y-94022621D01*
X141312375Y-94110861D01*
X141446291Y-94166330D01*
X141590000Y-94185250D01*
X141733709Y-94166330D01*
X141867625Y-94110861D01*
X141982621Y-94022621D01*
X142070861Y-93907625D01*
X142126330Y-93773709D01*
X142145250Y-93630000D01*
X142126330Y-93486291D01*
X142070861Y-93352375D01*
X141982621Y-93237379D01*
X141867625Y-93149139D01*
X141733709Y-93093670D01*
X141590000Y-93074750D01*
X141446291Y-93093670D01*
X141312375Y-93149139D01*
X141197379Y-93237379D01*
X141109139Y-93352375D01*
X141053670Y-93486291D01*
X141034750Y-93630000D01*
X137214971Y-93630000D01*
X137747566Y-93097405D01*
X137809878Y-93063379D01*
X137836661Y-93060500D01*
X140317634Y-93060500D01*
X140320307Y-93060696D01*
X140325342Y-93062425D01*
X140336964Y-93061989D01*
X140336966Y-93061989D01*
X140374255Y-93060589D01*
X140378981Y-93060500D01*
X140397948Y-93060500D01*
X140402683Y-93059618D01*
X140406209Y-93059390D01*
X140409949Y-93059249D01*
X140437208Y-93058226D01*
X140447893Y-93053636D01*
X140452493Y-93052599D01*
X140464214Y-93049038D01*
X140468617Y-93047339D01*
X140480053Y-93045209D01*
X140501041Y-93032272D01*
X140517411Y-93023769D01*
X140531888Y-93017549D01*
X140531892Y-93017547D01*
X140540063Y-93014036D01*
X140544949Y-93010022D01*
X140547134Y-93007837D01*
X140549397Y-93005785D01*
X140549542Y-93005945D01*
X140558549Y-92998825D01*
X140565444Y-92992573D01*
X140575348Y-92986468D01*
X140591916Y-92964680D01*
X140603110Y-92951861D01*
X141847566Y-91707405D01*
X141909878Y-91673379D01*
X141936661Y-91670500D01*
X144873500Y-91670500D01*
X144941621Y-91690502D01*
X144988114Y-91744158D01*
X144999500Y-91796500D01*
X144999500Y-92234820D01*
X145008233Y-92278722D01*
X145015127Y-92289040D01*
X145015128Y-92289042D01*
X145026119Y-92305491D01*
X145041496Y-92328504D01*
X145051815Y-92335399D01*
X145080958Y-92354872D01*
X145080960Y-92354873D01*
X145091278Y-92361767D01*
X145135180Y-92370500D01*
X146513339Y-92370500D01*
X146581460Y-92390502D01*
X146602434Y-92407405D01*
X146862596Y-92667567D01*
X146896622Y-92729879D01*
X146899501Y-92756662D01*
X146899501Y-93087827D01*
X146879499Y-93155948D01*
X146825843Y-93202441D01*
X146755569Y-93212545D01*
X146693186Y-93184912D01*
X146566930Y-93080464D01*
X146566927Y-93080462D01*
X146562180Y-93076535D01*
X146389585Y-92983213D01*
X146271973Y-92946806D01*
X146208039Y-92927015D01*
X146208036Y-92927014D01*
X146202152Y-92925193D01*
X146196027Y-92924549D01*
X146196026Y-92924549D01*
X146013147Y-92905327D01*
X146013146Y-92905327D01*
X146007019Y-92904683D01*
X145894457Y-92914927D01*
X145817759Y-92921907D01*
X145817758Y-92921907D01*
X145811618Y-92922466D01*
X145805704Y-92924207D01*
X145805702Y-92924207D01*
X145711743Y-92951861D01*
X145623393Y-92977864D01*
X145617928Y-92980721D01*
X145454972Y-93065912D01*
X145454968Y-93065915D01*
X145449512Y-93068767D01*
X145444712Y-93072627D01*
X145444711Y-93072627D01*
X145433070Y-93081987D01*
X145296600Y-93191711D01*
X145170480Y-93342016D01*
X145167516Y-93347408D01*
X145167513Y-93347412D01*
X145112645Y-93447217D01*
X145075956Y-93513954D01*
X145073531Y-93521598D01*
X145072987Y-93522405D01*
X145071665Y-93525491D01*
X145071078Y-93525240D01*
X145033869Y-93580481D01*
X144968668Y-93608575D01*
X144953429Y-93609500D01*
X144712366Y-93609500D01*
X144709693Y-93609304D01*
X144704658Y-93607575D01*
X144693036Y-93608011D01*
X144693034Y-93608011D01*
X144655744Y-93609411D01*
X144651018Y-93609500D01*
X144632052Y-93609500D01*
X144627317Y-93610381D01*
X144623790Y-93610610D01*
X144619254Y-93610780D01*
X144592791Y-93611774D01*
X144582104Y-93616366D01*
X144577492Y-93617405D01*
X144565800Y-93620957D01*
X144561383Y-93622661D01*
X144549947Y-93624791D01*
X144531002Y-93636469D01*
X144528961Y-93637727D01*
X144512589Y-93646231D01*
X144498112Y-93652451D01*
X144498108Y-93652453D01*
X144489937Y-93655964D01*
X144485051Y-93659978D01*
X144482866Y-93662163D01*
X144480603Y-93664215D01*
X144480458Y-93664055D01*
X144471451Y-93671175D01*
X144464556Y-93677427D01*
X144454652Y-93683532D01*
X144438084Y-93705320D01*
X144426890Y-93718139D01*
X143354548Y-94790481D01*
X143352514Y-94792237D01*
X143347731Y-94794575D01*
X143339819Y-94803104D01*
X143339818Y-94803105D01*
X143314427Y-94830477D01*
X143311147Y-94833882D01*
X143297752Y-94847277D01*
X143295028Y-94851247D01*
X143292703Y-94853895D01*
X143279508Y-94868119D01*
X143279506Y-94868122D01*
X143271599Y-94876646D01*
X143267289Y-94887450D01*
X143264767Y-94891439D01*
X143259006Y-94902227D01*
X143257089Y-94906552D01*
X143250508Y-94916146D01*
X143247822Y-94927465D01*
X143247821Y-94927467D01*
X143244817Y-94940127D01*
X143239252Y-94957724D01*
X143233412Y-94972362D01*
X143230117Y-94980622D01*
X143229500Y-94986915D01*
X143229500Y-94989994D01*
X143229350Y-94993067D01*
X143229134Y-94993056D01*
X143227802Y-95004431D01*
X143227346Y-95013746D01*
X143224660Y-95025066D01*
X143226229Y-95036595D01*
X143226229Y-95036596D01*
X143228349Y-95052173D01*
X143229500Y-95069164D01*
X143229500Y-95843341D01*
X143209498Y-95911462D01*
X143192595Y-95932436D01*
X141652436Y-97472595D01*
X141590124Y-97506621D01*
X141563341Y-97509500D01*
X135482366Y-97509500D01*
X135479693Y-97509304D01*
X135474658Y-97507575D01*
X135463036Y-97508011D01*
X135463034Y-97508011D01*
X135425744Y-97509411D01*
X135421018Y-97509500D01*
X135402052Y-97509500D01*
X135397317Y-97510381D01*
X135393790Y-97510610D01*
X135389254Y-97510780D01*
X135362791Y-97511774D01*
X135352104Y-97516366D01*
X135347492Y-97517405D01*
X135335800Y-97520957D01*
X135331383Y-97522661D01*
X135319947Y-97524791D01*
X135298961Y-97537727D01*
X135282589Y-97546231D01*
X135268112Y-97552451D01*
X135268108Y-97552453D01*
X135259937Y-97555964D01*
X135255051Y-97559978D01*
X135252866Y-97562163D01*
X135250603Y-97564215D01*
X135250458Y-97564055D01*
X135241451Y-97571175D01*
X135234556Y-97577427D01*
X135224652Y-97583532D01*
X135208084Y-97605320D01*
X135196890Y-97618139D01*
X130664548Y-102150481D01*
X130662514Y-102152237D01*
X130657731Y-102154575D01*
X130649819Y-102163104D01*
X130649818Y-102163105D01*
X130624427Y-102190477D01*
X130621147Y-102193882D01*
X130607752Y-102207277D01*
X130605028Y-102211247D01*
X130602703Y-102213895D01*
X130589508Y-102228119D01*
X130589506Y-102228122D01*
X130581599Y-102236646D01*
X130577289Y-102247450D01*
X130574767Y-102251439D01*
X130569006Y-102262227D01*
X130567089Y-102266552D01*
X130560508Y-102276146D01*
X130557822Y-102287465D01*
X130557821Y-102287467D01*
X130554817Y-102300127D01*
X130549252Y-102317724D01*
X130543412Y-102332362D01*
X130540117Y-102340622D01*
X130539500Y-102346915D01*
X130539500Y-102349994D01*
X130539350Y-102353067D01*
X130539134Y-102353056D01*
X130537803Y-102364427D01*
X130537347Y-102373743D01*
X130534660Y-102385066D01*
X130536229Y-102396594D01*
X130538349Y-102412173D01*
X130539500Y-102429164D01*
X130539500Y-102944556D01*
X130519498Y-103012677D01*
X130490204Y-103044518D01*
X130447379Y-103077379D01*
X130359139Y-103192375D01*
X130303670Y-103326291D01*
X130284750Y-103470000D01*
X130303670Y-103613709D01*
X130359139Y-103747625D01*
X130447379Y-103862621D01*
X130562375Y-103950861D01*
X130696291Y-104006330D01*
X130840000Y-104025250D01*
X130983709Y-104006330D01*
X131117625Y-103950861D01*
X131232621Y-103862621D01*
X131320861Y-103747625D01*
X131376330Y-103613709D01*
X131391300Y-103500000D01*
X141274750Y-103500000D01*
X141293670Y-103643709D01*
X141349139Y-103777625D01*
X141437379Y-103892621D01*
X141552375Y-103980861D01*
X141686291Y-104036330D01*
X141830000Y-104055250D01*
X141973709Y-104036330D01*
X142107625Y-103980861D01*
X142222621Y-103892621D01*
X142310861Y-103777625D01*
X142366330Y-103643709D01*
X142385250Y-103500000D01*
X142366330Y-103356291D01*
X142310861Y-103222375D01*
X142222621Y-103107379D01*
X142107625Y-103019139D01*
X141973709Y-102963670D01*
X141830000Y-102944750D01*
X141686291Y-102963670D01*
X141552375Y-103019139D01*
X141437379Y-103107379D01*
X141349139Y-103222375D01*
X141293670Y-103356291D01*
X141274750Y-103500000D01*
X131391300Y-103500000D01*
X131395250Y-103470000D01*
X131376330Y-103326291D01*
X131320861Y-103192375D01*
X131232621Y-103077379D01*
X131189796Y-103044518D01*
X131147929Y-102987180D01*
X131140500Y-102944556D01*
X131140500Y-102576661D01*
X131160502Y-102508540D01*
X131177405Y-102487566D01*
X131774971Y-101890000D01*
X138924750Y-101890000D01*
X138943670Y-102033709D01*
X138999139Y-102167625D01*
X139087379Y-102282621D01*
X139202375Y-102370861D01*
X139336291Y-102426330D01*
X139480000Y-102445250D01*
X139623709Y-102426330D01*
X139757625Y-102370861D01*
X139872621Y-102282621D01*
X139960861Y-102167625D01*
X140016330Y-102033709D01*
X140035250Y-101890000D01*
X140016330Y-101746291D01*
X139960861Y-101612375D01*
X139872621Y-101497379D01*
X139757625Y-101409139D01*
X139623709Y-101353670D01*
X139480000Y-101334750D01*
X139336291Y-101353670D01*
X139202375Y-101409139D01*
X139087379Y-101497379D01*
X138999139Y-101612375D01*
X138943670Y-101746291D01*
X138924750Y-101890000D01*
X131774971Y-101890000D01*
X135517567Y-98147405D01*
X135579879Y-98113379D01*
X135606662Y-98110500D01*
X141687636Y-98110500D01*
X141690309Y-98110696D01*
X141695344Y-98112425D01*
X141706966Y-98111989D01*
X141706968Y-98111989D01*
X141744257Y-98110589D01*
X141748983Y-98110500D01*
X141767950Y-98110500D01*
X141772685Y-98109618D01*
X141776211Y-98109390D01*
X141779951Y-98109249D01*
X141807210Y-98108226D01*
X141817895Y-98103636D01*
X141822495Y-98102599D01*
X141834216Y-98099038D01*
X141838619Y-98097339D01*
X141850055Y-98095209D01*
X141871043Y-98082272D01*
X141887413Y-98073769D01*
X141901890Y-98067549D01*
X141901894Y-98067547D01*
X141910065Y-98064036D01*
X141914951Y-98060022D01*
X141917136Y-98057837D01*
X141919399Y-98055785D01*
X141919544Y-98055945D01*
X141928551Y-98048825D01*
X141935446Y-98042573D01*
X141945350Y-98036468D01*
X141961918Y-98014680D01*
X141973112Y-98001861D01*
X143705452Y-96269521D01*
X143707486Y-96267765D01*
X143712269Y-96265427D01*
X143722275Y-96254641D01*
X143745573Y-96229525D01*
X143748853Y-96226120D01*
X143762247Y-96212726D01*
X143764969Y-96208757D01*
X143767291Y-96206113D01*
X143780488Y-96191887D01*
X143780490Y-96191884D01*
X143788401Y-96183356D01*
X143792713Y-96172549D01*
X143795235Y-96168559D01*
X143800994Y-96157775D01*
X143802911Y-96153450D01*
X143809492Y-96143856D01*
X143813142Y-96128478D01*
X143815183Y-96119875D01*
X143820748Y-96102278D01*
X143826588Y-96087640D01*
X143826589Y-96087637D01*
X143829883Y-96079380D01*
X143830500Y-96073087D01*
X143830500Y-96070008D01*
X143830650Y-96066935D01*
X143830866Y-96066946D01*
X143832198Y-96055571D01*
X143832654Y-96046256D01*
X143835340Y-96034936D01*
X143831651Y-96007829D01*
X143830500Y-95990838D01*
X143830500Y-95216662D01*
X143850502Y-95148541D01*
X143867405Y-95127566D01*
X144747568Y-94247404D01*
X144809880Y-94213379D01*
X144836663Y-94210500D01*
X144952723Y-94210500D01*
X145020844Y-94230502D01*
X145062704Y-94281404D01*
X145065258Y-94280091D01*
X145152123Y-94449113D01*
X145152126Y-94449117D01*
X145154944Y-94454601D01*
X145276818Y-94608369D01*
X145281511Y-94612363D01*
X145281512Y-94612364D01*
X145413492Y-94724687D01*
X145426238Y-94735535D01*
X145431616Y-94738541D01*
X145431618Y-94738542D01*
X145466876Y-94758247D01*
X145597513Y-94831257D01*
X145784118Y-94891889D01*
X145978946Y-94915121D01*
X145985081Y-94914649D01*
X145985083Y-94914649D01*
X146168434Y-94900541D01*
X146168438Y-94900540D01*
X146174576Y-94900068D01*
X146363556Y-94847303D01*
X146538689Y-94758837D01*
X146565447Y-94737932D01*
X146693303Y-94638040D01*
X146694473Y-94639538D01*
X146749728Y-94611093D01*
X146820399Y-94617883D01*
X146876180Y-94661803D01*
X146899501Y-94734830D01*
X146899501Y-95627827D01*
X146879499Y-95695948D01*
X146825843Y-95742441D01*
X146755569Y-95752545D01*
X146693186Y-95724912D01*
X146566930Y-95620464D01*
X146566927Y-95620462D01*
X146562180Y-95616535D01*
X146389585Y-95523213D01*
X146295869Y-95494203D01*
X146208039Y-95467015D01*
X146208036Y-95467014D01*
X146202152Y-95465193D01*
X146196027Y-95464549D01*
X146196026Y-95464549D01*
X146013147Y-95445327D01*
X146013146Y-95445327D01*
X146007019Y-95444683D01*
X145918763Y-95452715D01*
X145817759Y-95461907D01*
X145817758Y-95461907D01*
X145811618Y-95462466D01*
X145805704Y-95464207D01*
X145805702Y-95464207D01*
X145774352Y-95473434D01*
X145623393Y-95517864D01*
X145617928Y-95520721D01*
X145454972Y-95605912D01*
X145454968Y-95605915D01*
X145449512Y-95608767D01*
X145444712Y-95612627D01*
X145444711Y-95612627D01*
X145434964Y-95620464D01*
X145296600Y-95731711D01*
X145170480Y-95882016D01*
X145167516Y-95887408D01*
X145167513Y-95887412D01*
X145100951Y-96008488D01*
X145075956Y-96053954D01*
X145074095Y-96059821D01*
X145074094Y-96059823D01*
X145057901Y-96110869D01*
X145016628Y-96240978D01*
X144994757Y-96435963D01*
X145011175Y-96631483D01*
X145065258Y-96820091D01*
X145072396Y-96833980D01*
X145152123Y-96989113D01*
X145152126Y-96989117D01*
X145154944Y-96994601D01*
X145276818Y-97148369D01*
X145281511Y-97152363D01*
X145281512Y-97152364D01*
X145342387Y-97204172D01*
X145426238Y-97275535D01*
X145431616Y-97278541D01*
X145431618Y-97278542D01*
X145467932Y-97298837D01*
X145597513Y-97371257D01*
X145784118Y-97431889D01*
X145978946Y-97455121D01*
X145985081Y-97454649D01*
X145985083Y-97454649D01*
X146168434Y-97440541D01*
X146168438Y-97440540D01*
X146174576Y-97440068D01*
X146363556Y-97387303D01*
X146538689Y-97298837D01*
X146568515Y-97275535D01*
X146693303Y-97178040D01*
X146694473Y-97179538D01*
X146749728Y-97151093D01*
X146820399Y-97157883D01*
X146876180Y-97201803D01*
X146899501Y-97274830D01*
X146899501Y-98167827D01*
X146879499Y-98235948D01*
X146825843Y-98282441D01*
X146755569Y-98292545D01*
X146693186Y-98264912D01*
X146566930Y-98160464D01*
X146566927Y-98160462D01*
X146562180Y-98156535D01*
X146389585Y-98063213D01*
X146270648Y-98026396D01*
X146208039Y-98007015D01*
X146208036Y-98007014D01*
X146202152Y-98005193D01*
X146196027Y-98004549D01*
X146196026Y-98004549D01*
X146013147Y-97985327D01*
X146013146Y-97985327D01*
X146007019Y-97984683D01*
X145900105Y-97994413D01*
X145817759Y-98001907D01*
X145817758Y-98001907D01*
X145811618Y-98002466D01*
X145805704Y-98004207D01*
X145805702Y-98004207D01*
X145736648Y-98024531D01*
X145623393Y-98057864D01*
X145617928Y-98060721D01*
X145454972Y-98145912D01*
X145454968Y-98145915D01*
X145449512Y-98148767D01*
X145444712Y-98152627D01*
X145444711Y-98152627D01*
X145430280Y-98164230D01*
X145296600Y-98271711D01*
X145170480Y-98422016D01*
X145167516Y-98427408D01*
X145167513Y-98427412D01*
X145103155Y-98544480D01*
X145075956Y-98593954D01*
X145074095Y-98599821D01*
X145074094Y-98599823D01*
X145071851Y-98606894D01*
X145016628Y-98780978D01*
X144994757Y-98975963D01*
X145011175Y-99171483D01*
X145065258Y-99360091D01*
X145068075Y-99365572D01*
X145068076Y-99365575D01*
X145070678Y-99370638D01*
X145084024Y-99440369D01*
X145057552Y-99506245D01*
X145047705Y-99517324D01*
X144804548Y-99760481D01*
X144802514Y-99762237D01*
X144797731Y-99764575D01*
X144789819Y-99773104D01*
X144789818Y-99773105D01*
X144764427Y-99800477D01*
X144761147Y-99803882D01*
X144747752Y-99817277D01*
X144745028Y-99821247D01*
X144742703Y-99823895D01*
X144729508Y-99838119D01*
X144729506Y-99838122D01*
X144721599Y-99846646D01*
X144717289Y-99857450D01*
X144714767Y-99861439D01*
X144709006Y-99872227D01*
X144707089Y-99876552D01*
X144700508Y-99886146D01*
X144697822Y-99897465D01*
X144697821Y-99897467D01*
X144694817Y-99910127D01*
X144689252Y-99927724D01*
X144688759Y-99928960D01*
X144680117Y-99950622D01*
X144679500Y-99956915D01*
X144679500Y-99959994D01*
X144679350Y-99963067D01*
X144679134Y-99963056D01*
X144677802Y-99974431D01*
X144677346Y-99983746D01*
X144674660Y-99995066D01*
X144676229Y-100006595D01*
X144676229Y-100006596D01*
X144678349Y-100022173D01*
X144679500Y-100039164D01*
X144679500Y-110243339D01*
X144659498Y-110311460D01*
X144642595Y-110332434D01*
X142225595Y-112749434D01*
X142163283Y-112783460D01*
X142092468Y-112778395D01*
X142035632Y-112735848D01*
X142010821Y-112669328D01*
X142010500Y-112660339D01*
X142010500Y-110985180D01*
X142001767Y-110941278D01*
X141994873Y-110930960D01*
X141994872Y-110930958D01*
X141975399Y-110901815D01*
X141968504Y-110891496D01*
X141950551Y-110879500D01*
X141929042Y-110865128D01*
X141929040Y-110865127D01*
X141918722Y-110858233D01*
X141874820Y-110849500D01*
X140145180Y-110849500D01*
X140101278Y-110858233D01*
X140090960Y-110865127D01*
X140090958Y-110865128D01*
X140069449Y-110879500D01*
X140051496Y-110891496D01*
X140044601Y-110901815D01*
X140025128Y-110930958D01*
X140025127Y-110930960D01*
X140018233Y-110941278D01*
X140009500Y-110985180D01*
X140009500Y-112714820D01*
X140018233Y-112758722D01*
X140025127Y-112769040D01*
X140025128Y-112769042D01*
X140037330Y-112787303D01*
X140051496Y-112808504D01*
X140061815Y-112815399D01*
X140090958Y-112834872D01*
X140090960Y-112834873D01*
X140101278Y-112841767D01*
X140145180Y-112850500D01*
X141820339Y-112850500D01*
X141888460Y-112870502D01*
X141934953Y-112924158D01*
X141945057Y-112994432D01*
X141915563Y-113059012D01*
X141909434Y-113065595D01*
X141538011Y-113437018D01*
X141475699Y-113471044D01*
X141401406Y-113464198D01*
X141399585Y-113463213D01*
X141344373Y-113446122D01*
X141218039Y-113407015D01*
X141218036Y-113407014D01*
X141212152Y-113405193D01*
X141206027Y-113404549D01*
X141206026Y-113404549D01*
X141023147Y-113385327D01*
X141023146Y-113385327D01*
X141017019Y-113384683D01*
X140912369Y-113394207D01*
X140827759Y-113401907D01*
X140827758Y-113401907D01*
X140821618Y-113402466D01*
X140815704Y-113404207D01*
X140815702Y-113404207D01*
X140780108Y-113414683D01*
X140633393Y-113457864D01*
X140627928Y-113460721D01*
X140464972Y-113545912D01*
X140464968Y-113545915D01*
X140459512Y-113548767D01*
X140454712Y-113552627D01*
X140454711Y-113552627D01*
X140425750Y-113575912D01*
X140306600Y-113671711D01*
X140180480Y-113822016D01*
X140177516Y-113827408D01*
X140177513Y-113827412D01*
X140154593Y-113869104D01*
X140085956Y-113993954D01*
X140084095Y-113999821D01*
X140084094Y-113999823D01*
X140070831Y-114041634D01*
X140026628Y-114180978D01*
X140004757Y-114375963D01*
X140021175Y-114571483D01*
X140075258Y-114760091D01*
X140078076Y-114765574D01*
X140162123Y-114929113D01*
X140162126Y-114929117D01*
X140164944Y-114934601D01*
X140286818Y-115088369D01*
X140436238Y-115215535D01*
X140441616Y-115218541D01*
X140441618Y-115218542D01*
X140477932Y-115238837D01*
X140607513Y-115311257D01*
X140794118Y-115371889D01*
X140988946Y-115395121D01*
X140995081Y-115394649D01*
X140995083Y-115394649D01*
X141178434Y-115380541D01*
X141178438Y-115380540D01*
X141184576Y-115380068D01*
X141373556Y-115327303D01*
X141548689Y-115238837D01*
X141561370Y-115228930D01*
X141660055Y-115151829D01*
X141703303Y-115118040D01*
X141708665Y-115111829D01*
X141827485Y-114974173D01*
X141827485Y-114974172D01*
X141831509Y-114969511D01*
X141928425Y-114798909D01*
X141990358Y-114612732D01*
X142014949Y-114418071D01*
X142015204Y-114399838D01*
X142015292Y-114393523D01*
X142015292Y-114393519D01*
X142015341Y-114390000D01*
X141996194Y-114194728D01*
X141994413Y-114188829D01*
X141994412Y-114188824D01*
X141950322Y-114042793D01*
X141939484Y-114006894D01*
X141936592Y-114001454D01*
X141935609Y-113999070D01*
X141928145Y-113928467D01*
X141963008Y-113861963D01*
X145155452Y-110669519D01*
X145157486Y-110667763D01*
X145162269Y-110665425D01*
X145195573Y-110629523D01*
X145198853Y-110626118D01*
X145212248Y-110612723D01*
X145214972Y-110608753D01*
X145217297Y-110606105D01*
X145230490Y-110591882D01*
X145238401Y-110583354D01*
X145242713Y-110572547D01*
X145245232Y-110568562D01*
X145251004Y-110557753D01*
X145252911Y-110553448D01*
X145259493Y-110543854D01*
X145265186Y-110519864D01*
X145270751Y-110502268D01*
X145276586Y-110487642D01*
X145279883Y-110479378D01*
X145280500Y-110473085D01*
X145280500Y-110470003D01*
X145280650Y-110466933D01*
X145280866Y-110466944D01*
X145282198Y-110455569D01*
X145282653Y-110446255D01*
X145285340Y-110434934D01*
X145281651Y-110407827D01*
X145280500Y-110390836D01*
X145280500Y-100186661D01*
X145300502Y-100118540D01*
X145317405Y-100097566D01*
X145472119Y-99942852D01*
X145534431Y-99908826D01*
X145600150Y-99912114D01*
X145645952Y-99926996D01*
X145784118Y-99971889D01*
X145978946Y-99995121D01*
X145985081Y-99994649D01*
X145985083Y-99994649D01*
X146168434Y-99980541D01*
X146168438Y-99980540D01*
X146174576Y-99980068D01*
X146363556Y-99927303D01*
X146538689Y-99838837D01*
X146568515Y-99815535D01*
X146693303Y-99718040D01*
X146694473Y-99719538D01*
X146749728Y-99691093D01*
X146820399Y-99697883D01*
X146876180Y-99741803D01*
X146899501Y-99814830D01*
X146899501Y-101317635D01*
X146899305Y-101320308D01*
X146897576Y-101325343D01*
X146898012Y-101336965D01*
X146898012Y-101336967D01*
X146899412Y-101374256D01*
X146899501Y-101378982D01*
X146899501Y-101397949D01*
X146900383Y-101402684D01*
X146900611Y-101406210D01*
X146901775Y-101437209D01*
X146906365Y-101447894D01*
X146907402Y-101452494D01*
X146910963Y-101464215D01*
X146912662Y-101468618D01*
X146914792Y-101480054D01*
X146920896Y-101489956D01*
X146927728Y-101501040D01*
X146936232Y-101517412D01*
X146942452Y-101531889D01*
X146942454Y-101531893D01*
X146945965Y-101540064D01*
X146949979Y-101544950D01*
X146952164Y-101547135D01*
X146954216Y-101549398D01*
X146954056Y-101549543D01*
X146961176Y-101558550D01*
X146967428Y-101565445D01*
X146973533Y-101575349D01*
X146995321Y-101591917D01*
X147008140Y-101603111D01*
X148045969Y-102640940D01*
X148079995Y-102703252D01*
X148081796Y-102746480D01*
X148074750Y-102800000D01*
X148093670Y-102943709D01*
X148149139Y-103077625D01*
X148237379Y-103192621D01*
X148352375Y-103280861D01*
X148486291Y-103336330D01*
X148630000Y-103355250D01*
X148773709Y-103336330D01*
X148907625Y-103280861D01*
X149022621Y-103192621D01*
X149110861Y-103077625D01*
X149166330Y-102943709D01*
X149185250Y-102800000D01*
X149166330Y-102656291D01*
X149110861Y-102522375D01*
X149022621Y-102407379D01*
X148907625Y-102319139D01*
X148773709Y-102263670D01*
X148630000Y-102244750D01*
X148576481Y-102251796D01*
X148506333Y-102240857D01*
X148470940Y-102215969D01*
X147537406Y-101282435D01*
X147503380Y-101220123D01*
X147500501Y-101193340D01*
X147500501Y-99651098D01*
X147520503Y-99582977D01*
X147574159Y-99536484D01*
X147644433Y-99526380D01*
X147709013Y-99555874D01*
X147725246Y-99572833D01*
X147816818Y-99688369D01*
X147821511Y-99692363D01*
X147821512Y-99692364D01*
X147959522Y-99809819D01*
X147966238Y-99815535D01*
X147971616Y-99818541D01*
X147971618Y-99818542D01*
X148021905Y-99846646D01*
X148069964Y-99873505D01*
X148074970Y-99876303D01*
X148124676Y-99926996D01*
X148139500Y-99986291D01*
X148139500Y-100953433D01*
X148142564Y-100962864D01*
X148142565Y-100962868D01*
X148146297Y-100974353D01*
X148150913Y-100993578D01*
X148154354Y-101015304D01*
X148158855Y-101024137D01*
X148158856Y-101024141D01*
X148164341Y-101034906D01*
X148171905Y-101053166D01*
X148178704Y-101074090D01*
X148191639Y-101091893D01*
X148201965Y-101108745D01*
X148211950Y-101128342D01*
X148234513Y-101150905D01*
X148234516Y-101150909D01*
X149702595Y-102618988D01*
X149736621Y-102681300D01*
X149739500Y-102708083D01*
X149739500Y-114031917D01*
X149719498Y-114100038D01*
X149702595Y-114121012D01*
X146191012Y-117632595D01*
X146128700Y-117666621D01*
X146101917Y-117669500D01*
X122398083Y-117669500D01*
X122329962Y-117649498D01*
X122308988Y-117632595D01*
X119517649Y-114841256D01*
X119483623Y-114778944D01*
X119487186Y-114712389D01*
X119508411Y-114648585D01*
X119508411Y-114648584D01*
X119510358Y-114642732D01*
X119534949Y-114448071D01*
X119535341Y-114420000D01*
X119531023Y-114375963D01*
X128404757Y-114375963D01*
X128421175Y-114571483D01*
X128475258Y-114760091D01*
X128478076Y-114765574D01*
X128562123Y-114929113D01*
X128562126Y-114929117D01*
X128564944Y-114934601D01*
X128686818Y-115088369D01*
X128836238Y-115215535D01*
X128841616Y-115218541D01*
X128841618Y-115218542D01*
X128877932Y-115238837D01*
X129007513Y-115311257D01*
X129194118Y-115371889D01*
X129388946Y-115395121D01*
X129395081Y-115394649D01*
X129395083Y-115394649D01*
X129578434Y-115380541D01*
X129578438Y-115380540D01*
X129584576Y-115380068D01*
X129590515Y-115378410D01*
X129620391Y-115370068D01*
X129708390Y-115345498D01*
X129779379Y-115346444D01*
X129831368Y-115377761D01*
X130978644Y-116525036D01*
X131012669Y-116587348D01*
X131014288Y-116603190D01*
X131014758Y-116603138D01*
X131032035Y-116759633D01*
X131086143Y-116907490D01*
X131090380Y-116913796D01*
X131090382Y-116913799D01*
X131130709Y-116973811D01*
X131173958Y-117038172D01*
X131290410Y-117144135D01*
X131297085Y-117147759D01*
X131422099Y-117215637D01*
X131422101Y-117215638D01*
X131428776Y-117219262D01*
X131436125Y-117221190D01*
X131573719Y-117257287D01*
X131573721Y-117257287D01*
X131581069Y-117259215D01*
X131664380Y-117260524D01*
X131730898Y-117261569D01*
X131730901Y-117261569D01*
X131738495Y-117261688D01*
X131891968Y-117226538D01*
X132032625Y-117155795D01*
X132058869Y-117133381D01*
X132146574Y-117058474D01*
X132146576Y-117058471D01*
X132152348Y-117053542D01*
X132244224Y-116925683D01*
X132302950Y-116779598D01*
X132325134Y-116623723D01*
X132325278Y-116610000D01*
X132306363Y-116453694D01*
X132262411Y-116337377D01*
X132253394Y-116313514D01*
X132253393Y-116313511D01*
X132250710Y-116306412D01*
X132161531Y-116176657D01*
X132114971Y-116135174D01*
X132049648Y-116076972D01*
X132049645Y-116076970D01*
X132043976Y-116071919D01*
X132025379Y-116062072D01*
X131911543Y-116001799D01*
X131911544Y-116001799D01*
X131904831Y-115998245D01*
X131897466Y-115996395D01*
X131759498Y-115961740D01*
X131759496Y-115961740D01*
X131752128Y-115959889D01*
X131744530Y-115959849D01*
X131744528Y-115959849D01*
X131597001Y-115959077D01*
X131528986Y-115938719D01*
X131508566Y-115922174D01*
X130397649Y-114811256D01*
X130363623Y-114748944D01*
X130367186Y-114682389D01*
X130388411Y-114618585D01*
X130388411Y-114618584D01*
X130390358Y-114612732D01*
X130414949Y-114418071D01*
X130415204Y-114399838D01*
X130415292Y-114393523D01*
X130415292Y-114393519D01*
X130415341Y-114390000D01*
X130413965Y-114375963D01*
X130944757Y-114375963D01*
X130961175Y-114571483D01*
X131015258Y-114760091D01*
X131018076Y-114765574D01*
X131102123Y-114929113D01*
X131102126Y-114929117D01*
X131104944Y-114934601D01*
X131226818Y-115088369D01*
X131376238Y-115215535D01*
X131381616Y-115218541D01*
X131381618Y-115218542D01*
X131417932Y-115238837D01*
X131547513Y-115311257D01*
X131734118Y-115371889D01*
X131928946Y-115395121D01*
X131935081Y-115394649D01*
X131935083Y-115394649D01*
X132118434Y-115380541D01*
X132118438Y-115380540D01*
X132124576Y-115380068D01*
X132313556Y-115327303D01*
X132488689Y-115238837D01*
X132501370Y-115228930D01*
X132600055Y-115151829D01*
X132643303Y-115118040D01*
X132648665Y-115111829D01*
X132767485Y-114974173D01*
X132767485Y-114974172D01*
X132771509Y-114969511D01*
X132836980Y-114854262D01*
X132888018Y-114804913D01*
X132946535Y-114790500D01*
X133231917Y-114790500D01*
X133300038Y-114810502D01*
X133321007Y-114827400D01*
X134270360Y-115776752D01*
X134304384Y-115839063D01*
X134306186Y-115882291D01*
X134304758Y-115893138D01*
X134322035Y-116049633D01*
X134376143Y-116197490D01*
X134380380Y-116203796D01*
X134380382Y-116203799D01*
X134420709Y-116263811D01*
X134463958Y-116328172D01*
X134580410Y-116434135D01*
X134587085Y-116437759D01*
X134712099Y-116505637D01*
X134712101Y-116505638D01*
X134718776Y-116509262D01*
X134726125Y-116511190D01*
X134863719Y-116547287D01*
X134863721Y-116547287D01*
X134871069Y-116549215D01*
X134954380Y-116550524D01*
X135020898Y-116551569D01*
X135020901Y-116551569D01*
X135028495Y-116551688D01*
X135181968Y-116516538D01*
X135322625Y-116445795D01*
X135348869Y-116423381D01*
X135436574Y-116348474D01*
X135436576Y-116348471D01*
X135442348Y-116343542D01*
X135534224Y-116215683D01*
X135592950Y-116069598D01*
X135608564Y-115959889D01*
X135614553Y-115917807D01*
X135614553Y-115917804D01*
X135615134Y-115913723D01*
X135615278Y-115900000D01*
X135596363Y-115743694D01*
X135540710Y-115596412D01*
X135451531Y-115466657D01*
X135388017Y-115410068D01*
X135339648Y-115366972D01*
X135339645Y-115366970D01*
X135333976Y-115361919D01*
X135194831Y-115288245D01*
X135117564Y-115268837D01*
X135049498Y-115251740D01*
X135049496Y-115251740D01*
X135042128Y-115249889D01*
X135034530Y-115249849D01*
X135034528Y-115249849D01*
X134996828Y-115249652D01*
X134927213Y-115249288D01*
X134859199Y-115228930D01*
X134838778Y-115212385D01*
X133710909Y-114084516D01*
X133710905Y-114084513D01*
X133688342Y-114061950D01*
X133668746Y-114051965D01*
X133651893Y-114041639D01*
X133634090Y-114028704D01*
X133613166Y-114021905D01*
X133594906Y-114014341D01*
X133584141Y-114008856D01*
X133584137Y-114008855D01*
X133575304Y-114004354D01*
X133565513Y-114002803D01*
X133565512Y-114002803D01*
X133553578Y-114000913D01*
X133534353Y-113996297D01*
X133522868Y-113992565D01*
X133522864Y-113992564D01*
X133513433Y-113989500D01*
X132945943Y-113989500D01*
X132877822Y-113969498D01*
X132834692Y-113922653D01*
X132829642Y-113913156D01*
X132787370Y-113833653D01*
X132663361Y-113681602D01*
X132512180Y-113556535D01*
X132339585Y-113463213D01*
X132238451Y-113431907D01*
X132158039Y-113407015D01*
X132158036Y-113407014D01*
X132152152Y-113405193D01*
X132146027Y-113404549D01*
X132146026Y-113404549D01*
X131963147Y-113385327D01*
X131963146Y-113385327D01*
X131957019Y-113384683D01*
X131852369Y-113394207D01*
X131767759Y-113401907D01*
X131767758Y-113401907D01*
X131761618Y-113402466D01*
X131755704Y-113404207D01*
X131755702Y-113404207D01*
X131720108Y-113414683D01*
X131573393Y-113457864D01*
X131567928Y-113460721D01*
X131404972Y-113545912D01*
X131404968Y-113545915D01*
X131399512Y-113548767D01*
X131394712Y-113552627D01*
X131394711Y-113552627D01*
X131365750Y-113575912D01*
X131246600Y-113671711D01*
X131120480Y-113822016D01*
X131117516Y-113827408D01*
X131117513Y-113827412D01*
X131094593Y-113869104D01*
X131025956Y-113993954D01*
X131024095Y-113999821D01*
X131024094Y-113999823D01*
X131010831Y-114041634D01*
X130966628Y-114180978D01*
X130944757Y-114375963D01*
X130413965Y-114375963D01*
X130396194Y-114194728D01*
X130394413Y-114188829D01*
X130394412Y-114188824D01*
X130341265Y-114012793D01*
X130339484Y-114006894D01*
X130247370Y-113833653D01*
X130123361Y-113681602D01*
X129972180Y-113556535D01*
X129799585Y-113463213D01*
X129698451Y-113431907D01*
X129618039Y-113407015D01*
X129618036Y-113407014D01*
X129612152Y-113405193D01*
X129606027Y-113404549D01*
X129606026Y-113404549D01*
X129423147Y-113385327D01*
X129423146Y-113385327D01*
X129417019Y-113384683D01*
X129312369Y-113394207D01*
X129227759Y-113401907D01*
X129227758Y-113401907D01*
X129221618Y-113402466D01*
X129215704Y-113404207D01*
X129215702Y-113404207D01*
X129180108Y-113414683D01*
X129033393Y-113457864D01*
X129027928Y-113460721D01*
X128864972Y-113545912D01*
X128864968Y-113545915D01*
X128859512Y-113548767D01*
X128854712Y-113552627D01*
X128854711Y-113552627D01*
X128825750Y-113575912D01*
X128706600Y-113671711D01*
X128580480Y-113822016D01*
X128577516Y-113827408D01*
X128577513Y-113827412D01*
X128554593Y-113869104D01*
X128485956Y-113993954D01*
X128484095Y-113999821D01*
X128484094Y-113999823D01*
X128470831Y-114041634D01*
X128426628Y-114180978D01*
X128404757Y-114375963D01*
X119531023Y-114375963D01*
X119516194Y-114224728D01*
X119514413Y-114218829D01*
X119514412Y-114218824D01*
X119461265Y-114042793D01*
X119459484Y-114036894D01*
X119367370Y-113863653D01*
X119243361Y-113711602D01*
X119092180Y-113586535D01*
X118919585Y-113493213D01*
X118814620Y-113460721D01*
X118738039Y-113437015D01*
X118738036Y-113437014D01*
X118732152Y-113435193D01*
X118726027Y-113434549D01*
X118726026Y-113434549D01*
X118543147Y-113415327D01*
X118543146Y-113415327D01*
X118537019Y-113414683D01*
X118414383Y-113425844D01*
X118347759Y-113431907D01*
X118347758Y-113431907D01*
X118341618Y-113432466D01*
X118335704Y-113434207D01*
X118335702Y-113434207D01*
X118245616Y-113460721D01*
X118153393Y-113487864D01*
X118147928Y-113490721D01*
X117984972Y-113575912D01*
X117984968Y-113575915D01*
X117979512Y-113578767D01*
X117974712Y-113582627D01*
X117974711Y-113582627D01*
X117940326Y-113610273D01*
X117826600Y-113701711D01*
X117700480Y-113852016D01*
X117697516Y-113857408D01*
X117697513Y-113857412D01*
X117630912Y-113978559D01*
X117605956Y-114023954D01*
X117604095Y-114029821D01*
X117604094Y-114029823D01*
X117576292Y-114117466D01*
X117546628Y-114210978D01*
X117524757Y-114405963D01*
X109618095Y-114405963D01*
X100186905Y-104974773D01*
X100152879Y-104912461D01*
X100150000Y-104885678D01*
X100150000Y-103145996D01*
X101395814Y-103145996D01*
X101405523Y-103355767D01*
X101406927Y-103361592D01*
X101406927Y-103361593D01*
X101452657Y-103551340D01*
X101454724Y-103559918D01*
X101457206Y-103565376D01*
X101457207Y-103565380D01*
X101500320Y-103660201D01*
X101541640Y-103751081D01*
X101663137Y-103922360D01*
X101814831Y-104067575D01*
X101819866Y-104070826D01*
X101986209Y-104178233D01*
X101986212Y-104178234D01*
X101991246Y-104181485D01*
X101996809Y-104183727D01*
X102180455Y-104257739D01*
X102180458Y-104257740D01*
X102186019Y-104259981D01*
X102191900Y-104261129D01*
X102191905Y-104261131D01*
X102387676Y-104299362D01*
X102387679Y-104299362D01*
X102392122Y-104300230D01*
X102397643Y-104300500D01*
X104152469Y-104300500D01*
X104309046Y-104285561D01*
X104314802Y-104283872D01*
X104314804Y-104283872D01*
X104444505Y-104245822D01*
X104510549Y-104226447D01*
X104627273Y-104166330D01*
X104691908Y-104133041D01*
X104691911Y-104133039D01*
X104697239Y-104130295D01*
X104759139Y-104081672D01*
X104857662Y-104004282D01*
X104857667Y-104004278D01*
X104862379Y-104000576D01*
X104883851Y-103975832D01*
X104996079Y-103846502D01*
X104996083Y-103846497D01*
X105000010Y-103841971D01*
X105105166Y-103660201D01*
X105148462Y-103535520D01*
X105172086Y-103467491D01*
X105172086Y-103467489D01*
X105174053Y-103461826D01*
X105182946Y-103400494D01*
X105203325Y-103259944D01*
X105203325Y-103259941D01*
X105204186Y-103254004D01*
X105194477Y-103044233D01*
X105145276Y-102840082D01*
X105132674Y-102812364D01*
X105074709Y-102684877D01*
X105058360Y-102648919D01*
X104950407Y-102496733D01*
X104940329Y-102482526D01*
X104940328Y-102482525D01*
X104936863Y-102477640D01*
X104818599Y-102364427D01*
X104789499Y-102336570D01*
X104785169Y-102332425D01*
X104714430Y-102286749D01*
X104613791Y-102221767D01*
X104613788Y-102221766D01*
X104608754Y-102218515D01*
X104572403Y-102203865D01*
X104419545Y-102142261D01*
X104419542Y-102142260D01*
X104413981Y-102140019D01*
X104408100Y-102138871D01*
X104408095Y-102138869D01*
X104212324Y-102100638D01*
X104212321Y-102100638D01*
X104207878Y-102099770D01*
X104202357Y-102099500D01*
X102447531Y-102099500D01*
X102290954Y-102114439D01*
X102285198Y-102116128D01*
X102285196Y-102116128D01*
X102207679Y-102138869D01*
X102089451Y-102173553D01*
X101998941Y-102220169D01*
X101908092Y-102266959D01*
X101908089Y-102266961D01*
X101902761Y-102269705D01*
X101864032Y-102300127D01*
X101742338Y-102395718D01*
X101742333Y-102395722D01*
X101737621Y-102399424D01*
X101733690Y-102403954D01*
X101733689Y-102403955D01*
X101603921Y-102553498D01*
X101603917Y-102553503D01*
X101599990Y-102558029D01*
X101494834Y-102739799D01*
X101469635Y-102812364D01*
X101430811Y-102924168D01*
X101425947Y-102938174D01*
X101425086Y-102944109D01*
X101425086Y-102944111D01*
X101398133Y-103130004D01*
X101395814Y-103145996D01*
X100150000Y-103145996D01*
X100150000Y-99881105D01*
X102599031Y-99881105D01*
X102600805Y-99888492D01*
X102600805Y-99888496D01*
X102620827Y-99971889D01*
X102638612Y-100045968D01*
X102642093Y-100052712D01*
X102642094Y-100052715D01*
X102702170Y-100169109D01*
X102716375Y-100196631D01*
X102721367Y-100202353D01*
X102721368Y-100202355D01*
X102750572Y-100235832D01*
X102827831Y-100324396D01*
X102886351Y-100365525D01*
X102960330Y-100417518D01*
X102960332Y-100417519D01*
X102966547Y-100421887D01*
X103124513Y-100483476D01*
X103132046Y-100484468D01*
X103132047Y-100484468D01*
X103240472Y-100498742D01*
X103253826Y-100500500D01*
X103342516Y-100500500D01*
X103468320Y-100485276D01*
X103626923Y-100425345D01*
X103728789Y-100355334D01*
X103760392Y-100333614D01*
X103760393Y-100333613D01*
X103766651Y-100329312D01*
X103771704Y-100323641D01*
X103874388Y-100208392D01*
X103874390Y-100208388D01*
X103879440Y-100202721D01*
X103883264Y-100195500D01*
X103922042Y-100122259D01*
X103958776Y-100052881D01*
X104000081Y-99888441D01*
X104000130Y-99879205D01*
X104000590Y-99791340D01*
X104000969Y-99718895D01*
X103995925Y-99697883D01*
X103963161Y-99561417D01*
X103961388Y-99554032D01*
X103951311Y-99534507D01*
X103887108Y-99410117D01*
X103887108Y-99410116D01*
X103883625Y-99403369D01*
X103878313Y-99397279D01*
X103804263Y-99312394D01*
X103772169Y-99275604D01*
X103682711Y-99212732D01*
X103639670Y-99182482D01*
X103639668Y-99182481D01*
X103633453Y-99178113D01*
X103475487Y-99116524D01*
X103467954Y-99115532D01*
X103467953Y-99115532D01*
X103350261Y-99100038D01*
X103350260Y-99100038D01*
X103346174Y-99099500D01*
X103257484Y-99099500D01*
X103131680Y-99114724D01*
X102973077Y-99174655D01*
X102966819Y-99178956D01*
X102845327Y-99262456D01*
X102833349Y-99270688D01*
X102828297Y-99276358D01*
X102828296Y-99276359D01*
X102725612Y-99391608D01*
X102725610Y-99391612D01*
X102720560Y-99397279D01*
X102717008Y-99403988D01*
X102717007Y-99403989D01*
X102697745Y-99440369D01*
X102641224Y-99547119D01*
X102599919Y-99711559D01*
X102599879Y-99719157D01*
X102599879Y-99719159D01*
X102599600Y-99772540D01*
X102599031Y-99881105D01*
X100150000Y-99881105D01*
X100150000Y-95281105D01*
X102599031Y-95281105D01*
X102600805Y-95288492D01*
X102600805Y-95288496D01*
X102628949Y-95405719D01*
X102638612Y-95445968D01*
X102642093Y-95452712D01*
X102642094Y-95452715D01*
X102685058Y-95535955D01*
X102716375Y-95596631D01*
X102721367Y-95602353D01*
X102721368Y-95602355D01*
X102726962Y-95608767D01*
X102827831Y-95724396D01*
X102878327Y-95759885D01*
X102960330Y-95817518D01*
X102960332Y-95817519D01*
X102966547Y-95821887D01*
X103124513Y-95883476D01*
X103132046Y-95884468D01*
X103132047Y-95884468D01*
X103249739Y-95899962D01*
X103253826Y-95900500D01*
X103342516Y-95900500D01*
X103468320Y-95885276D01*
X103626923Y-95825345D01*
X103662629Y-95800805D01*
X103760392Y-95733614D01*
X103760393Y-95733613D01*
X103766651Y-95729312D01*
X103780062Y-95714260D01*
X103874388Y-95608392D01*
X103874390Y-95608388D01*
X103879440Y-95602721D01*
X103886238Y-95589883D01*
X103929150Y-95508834D01*
X103958776Y-95452881D01*
X104000081Y-95288441D01*
X104000169Y-95271750D01*
X104000829Y-95145597D01*
X104000969Y-95118895D01*
X103998623Y-95109121D01*
X103963161Y-94961417D01*
X103961388Y-94954032D01*
X103957417Y-94946337D01*
X103887108Y-94810117D01*
X103887108Y-94810116D01*
X103883625Y-94803369D01*
X103878313Y-94797279D01*
X103816192Y-94726069D01*
X103772169Y-94675604D01*
X103684545Y-94614021D01*
X103639670Y-94582482D01*
X103639668Y-94582481D01*
X103633453Y-94578113D01*
X103475487Y-94516524D01*
X103467954Y-94515532D01*
X103467953Y-94515532D01*
X103350261Y-94500038D01*
X103350260Y-94500038D01*
X103346174Y-94499500D01*
X103257484Y-94499500D01*
X103131680Y-94514724D01*
X102973077Y-94574655D01*
X102966819Y-94578956D01*
X102839690Y-94666330D01*
X102833349Y-94670688D01*
X102828297Y-94676358D01*
X102828296Y-94676359D01*
X102725612Y-94791608D01*
X102725610Y-94791612D01*
X102720560Y-94797279D01*
X102717008Y-94803988D01*
X102717007Y-94803989D01*
X102694087Y-94847277D01*
X102641224Y-94947119D01*
X102599919Y-95111559D01*
X102599879Y-95119157D01*
X102599879Y-95119159D01*
X102599642Y-95164471D01*
X102599031Y-95281105D01*
X100150000Y-95281105D01*
X100150000Y-91745996D01*
X101395814Y-91745996D01*
X101405523Y-91955767D01*
X101406927Y-91961592D01*
X101406927Y-91961593D01*
X101442672Y-92109909D01*
X101454724Y-92159918D01*
X101457206Y-92165376D01*
X101457207Y-92165380D01*
X101500320Y-92260201D01*
X101541640Y-92351081D01*
X101663137Y-92522360D01*
X101778056Y-92632371D01*
X101796464Y-92649992D01*
X101814831Y-92667575D01*
X101819866Y-92670826D01*
X101986209Y-92778233D01*
X101986212Y-92778234D01*
X101991246Y-92781485D01*
X101996809Y-92783727D01*
X102180455Y-92857739D01*
X102180458Y-92857740D01*
X102186019Y-92859981D01*
X102191900Y-92861129D01*
X102191905Y-92861131D01*
X102387676Y-92899362D01*
X102387679Y-92899362D01*
X102392122Y-92900230D01*
X102397643Y-92900500D01*
X104152469Y-92900500D01*
X104309046Y-92885561D01*
X104314802Y-92883872D01*
X104314804Y-92883872D01*
X104461569Y-92840816D01*
X104510549Y-92826447D01*
X104644639Y-92757386D01*
X104691908Y-92733041D01*
X104691911Y-92733039D01*
X104697239Y-92730295D01*
X104772947Y-92670826D01*
X104857662Y-92604282D01*
X104857667Y-92604278D01*
X104862379Y-92600576D01*
X104866311Y-92596045D01*
X104996079Y-92446502D01*
X104996083Y-92446497D01*
X105000010Y-92441971D01*
X105105166Y-92260201D01*
X105174053Y-92061826D01*
X105175226Y-92053738D01*
X105203325Y-91859944D01*
X105203325Y-91859941D01*
X105204186Y-91854004D01*
X105194477Y-91644233D01*
X105156813Y-91487954D01*
X105146682Y-91445915D01*
X105146681Y-91445913D01*
X105145276Y-91440082D01*
X105142385Y-91433722D01*
X105060840Y-91254374D01*
X105058360Y-91248919D01*
X104951112Y-91097727D01*
X104940329Y-91082526D01*
X104940328Y-91082525D01*
X104936863Y-91077640D01*
X104785169Y-90932425D01*
X104721540Y-90891340D01*
X104613791Y-90821767D01*
X104613788Y-90821766D01*
X104608754Y-90818515D01*
X104556108Y-90797298D01*
X104419545Y-90742261D01*
X104419542Y-90742260D01*
X104413981Y-90740019D01*
X104408100Y-90738871D01*
X104408095Y-90738869D01*
X104212324Y-90700638D01*
X104212321Y-90700638D01*
X104207878Y-90699770D01*
X104202357Y-90699500D01*
X102447531Y-90699500D01*
X102290954Y-90714439D01*
X102285198Y-90716128D01*
X102285196Y-90716128D01*
X102271984Y-90720004D01*
X102089451Y-90773553D01*
X102034187Y-90802016D01*
X101908092Y-90866959D01*
X101908089Y-90866961D01*
X101902761Y-90869705D01*
X101854478Y-90907632D01*
X101742338Y-90995718D01*
X101742333Y-90995722D01*
X101737621Y-90999424D01*
X101733690Y-91003954D01*
X101733689Y-91003955D01*
X101603921Y-91153498D01*
X101603917Y-91153503D01*
X101599990Y-91158029D01*
X101494834Y-91339799D01*
X101478011Y-91388245D01*
X101429504Y-91527932D01*
X101425947Y-91538174D01*
X101425086Y-91544109D01*
X101425086Y-91544111D01*
X101403279Y-91694513D01*
X101395814Y-91745996D01*
X100150000Y-91745996D01*
X100150000Y-90114322D01*
X100170002Y-90046201D01*
X100186905Y-90025227D01*
X115025227Y-75186905D01*
X115087539Y-75152879D01*
X115114322Y-75150000D01*
X119462696Y-75150000D01*
X119530817Y-75170002D01*
G37*
G04 #@! TD.AperFunction*
G04 #@! TA.AperFunction,Conductor*
G36*
X175641460Y-88570502D02*
G01*
X175662434Y-88587405D01*
X176459934Y-89384905D01*
X176493960Y-89447217D01*
X176488895Y-89518032D01*
X176446348Y-89574868D01*
X176379828Y-89599679D01*
X176370839Y-89600000D01*
X171629161Y-89600000D01*
X171561040Y-89579998D01*
X171514547Y-89526342D01*
X171504443Y-89456068D01*
X171533937Y-89391488D01*
X171540066Y-89384905D01*
X172337566Y-88587405D01*
X172399878Y-88553379D01*
X172426661Y-88550500D01*
X175573339Y-88550500D01*
X175641460Y-88570502D01*
G37*
G04 #@! TD.AperFunction*
M02*
