M48
INCH,TZ
T1C0.0118
T2C0.0157
T3C0.0197
T4C0.0354
T5C0.0394
T6C0.0433
%
G90
G05
T1
X43382Y-40669
X44843Y-38498
X45087Y-38053
X48120Y-42313
X48504Y-34213
X48772Y-39839
X48980Y-44843
X48980Y-46500
X49362Y-33906
X49402Y-43787
X50276Y-42717
X50394Y-41969
X50657Y-45823
X50787Y-41890
X50898Y-41378
X51142Y-45709
X51181Y-45394
X51457Y-46378
X51630Y-38291
X51732Y-41575
X51811Y-48701
X52027Y-48040
X52087Y-42165
X52362Y-47051
X52520Y-41890
X52874Y-45591
X52992Y-41874
X53004Y-41252
X53138Y-45772
X53224Y-37193
X53272Y-38508
X53299Y-38866
X53307Y-41823
X53730Y-38927
X53740Y-39961
X53898Y-43661
X54130Y-38622
X54185Y-39295
X54516Y-38988
X54606Y-39291
X54630Y-38397
X54785Y-37385
X54785Y-37691
X54795Y-36949
X55276Y-40606
X55307Y-36433
X55398Y-36008
X55409Y-41016
X55661Y-50102
X55878Y-35965
X56079Y-41134
X56087Y-36173
X56097Y-50910
X56372Y-36246
X56417Y-50591
X56598Y-36016
X56875Y-36248
X57075Y-36031
X57126Y-50787
X57414Y-35911
X57524Y-41846
X57602Y-36139
X57650Y-40043
X57992Y-48819
X58240Y-36406
X58492Y-37071
X58724Y-41189
X58810Y-37696
X59177Y-37945
X59646Y-35709
X59803Y-34055
X60118Y-39882
X60744Y-37543
X61029Y-34986
X61417Y-40118
X61453Y-39114
X61713Y-40335
X61736Y-39331
X61974Y-39506
X62087Y-40551
X62161Y-37264
X62264Y-34177
X62480Y-40787
X62484Y-39550
X63128Y-37006
X68976Y-37890
T2
X42887Y-40670
X44232Y-36399
X44291Y-35866
X44909Y-37299
X45661Y-36854
X45799Y-39098
X46024Y-40098
X46272Y-40689
X46728Y-32425
X47193Y-43795
X47272Y-31567
X47402Y-40610
X47638Y-42858
X47744Y-31567
X47893Y-36002
X48094Y-44795
X48142Y-33823
X48728Y-31945
X49413Y-32591
X49610Y-34622
X49776Y-35311
X49803Y-38425
X49843Y-41429
X49906Y-39874
X50193Y-33650
X50224Y-45394
X50457Y-34449
X50906Y-34457
X51134Y-44988
X52268Y-35335
X52272Y-34886
X53311Y-43303
X53350Y-44295
X53465Y-52799
X53717Y-38083
X53768Y-51657
X53819Y-35748
X53932Y-36283
X54063Y-50543
X54189Y-52827
X54378Y-36232
X54638Y-35217
X54892Y-41392
X55276Y-42874
X55606Y-34791
X56161Y-52965
X56567Y-51244
X56634Y-52339
X57594Y-34740
X57866Y-42602
X58102Y-34748
X58783Y-40626
X58880Y-35689
X59198Y-39524
X59252Y-35236
X59701Y-31740
X59764Y-39555
X60004Y-37913
X60130Y-38720
X60197Y-38295
X61079Y-35650
X62211Y-34911
X63882Y-34811
X63890Y-33524
X64064Y-35387
X64988Y-35724
X65188Y-38924
X65244Y-36197
X65303Y-36669
X65713Y-38921
X65945Y-36780
X68110Y-44449
X69594Y-41677
X69598Y-34264
X72327Y-38768
X73866Y-38748
T3
X41925Y-34591
X41925Y-35453
X42484Y-36020
X42786Y-41987
X43807Y-44311
X43819Y-42529
X44256Y-44756
X45098Y-39458
X45669Y-42489
X56024Y-37677
X56024Y-38268
X56024Y-38898
X56614Y-37677
X56614Y-38268
X56614Y-38898
X57244Y-37677
X57283Y-38268
X57283Y-38898
X64492Y-33059
X64492Y-34059
X64508Y-39067
X64508Y-39980
X64508Y-40972
X64508Y-41984
X64512Y-34992
X64689Y-43114
X65091Y-32461
X65839Y-43315
X66154Y-32390
X66854Y-43315
X67319Y-32390
X67791Y-43315
X68362Y-32390
X68524Y-43315
X69370Y-32390
X69626Y-43315
X70496Y-32390
X70689Y-43315
X71594Y-32390
X71846Y-43315
X72878Y-32390
X72913Y-43315
X73945Y-43315
X74043Y-32390
X74449Y-35146
X74453Y-40638
X74898Y-43315
X75524Y-32390
X75888Y-43018
X76283Y-40472
X76283Y-41307
X76283Y-42134
X76362Y-33244
X76362Y-34291
X76362Y-35205
T5
X46514Y-30539
X47514Y-30539
X48514Y-30539
X49514Y-30539
X50514Y-30539
X50846Y-49606
X50846Y-50606
X50846Y-51606
X50846Y-52606
X50846Y-53606
X51514Y-30539
X51570Y-32944
X51846Y-49606
X51846Y-50606
X51846Y-51606
X51846Y-52606
X51846Y-53606
X52514Y-30539
X52570Y-32944
X53514Y-30539
X53570Y-32944
X53595Y-54650
X54514Y-30539
X54595Y-54650
X55514Y-30539
X55595Y-54650
X55711Y-43935
X55711Y-44935
X56514Y-30539
X56595Y-54650
X56711Y-43935
X56711Y-44935
X57514Y-30539
X58282Y-49969
X58282Y-50969
X58282Y-51969
X58282Y-52969
X58514Y-30539
X59282Y-49969
X59282Y-50969
X59282Y-51969
X59282Y-52969
X59514Y-30539
X60514Y-30539
X61514Y-30539
X62514Y-30539
X63780Y-43986
X63780Y-44986
T6
X55835Y-32201
X55835Y-33972
X58394Y-32201
X58394Y-33972
X59307Y-42598
X59307Y-45157
X61079Y-42598
X61079Y-45157
T4
X40878Y-36146G85X40248Y-36146
G05
X40878Y-40634G85X40248Y-40634
G05
T0
M30
