G04 #@! TF.GenerationSoftware,KiCad,Pcbnew,6.0.7*
G04 #@! TF.CreationDate,2022-07-31T19:24:19+02:00*
G04 #@! TF.ProjectId,LoRaDongle_iCE40,4c6f5261-446f-46e6-976c-655f69434534,1.0*
G04 #@! TF.SameCoordinates,Original*
G04 #@! TF.FileFunction,Soldermask,Top*
G04 #@! TF.FilePolarity,Negative*
%FSLAX46Y46*%
G04 Gerber Fmt 4.6, Leading zero omitted, Abs format (unit mm)*
G04 Created by KiCad (PCBNEW 6.0.7) date 2022-07-31 19:24:19*
%MOMM*%
%LPD*%
G01*
G04 APERTURE LIST*
G04 Aperture macros list*
%AMRoundRect*
0 Rectangle with rounded corners*
0 $1 Rounding radius*
0 $2 $3 $4 $5 $6 $7 $8 $9 X,Y pos of 4 corners*
0 Add a 4 corners polygon primitive as box body*
4,1,4,$2,$3,$4,$5,$6,$7,$8,$9,$2,$3,0*
0 Add four circle primitives for the rounded corners*
1,1,$1+$1,$2,$3*
1,1,$1+$1,$4,$5*
1,1,$1+$1,$6,$7*
1,1,$1+$1,$8,$9*
0 Add four rect primitives between the rounded corners*
20,1,$1+$1,$2,$3,$4,$5,0*
20,1,$1+$1,$4,$5,$6,$7,0*
20,1,$1+$1,$6,$7,$8,$9,0*
20,1,$1+$1,$8,$9,$2,$3,0*%
G04 Aperture macros list end*
%ADD10C,0.001000*%
%ADD11RoundRect,0.160000X-0.197500X-0.160000X0.197500X-0.160000X0.197500X0.160000X-0.197500X0.160000X0*%
%ADD12C,2.500000*%
%ADD13RoundRect,0.218750X0.218750X0.256250X-0.218750X0.256250X-0.218750X-0.256250X0.218750X-0.256250X0*%
%ADD14RoundRect,0.155000X0.212500X0.155000X-0.212500X0.155000X-0.212500X-0.155000X0.212500X-0.155000X0*%
%ADD15RoundRect,0.155000X0.155000X-0.212500X0.155000X0.212500X-0.155000X0.212500X-0.155000X-0.212500X0*%
%ADD16RoundRect,0.160000X0.197500X0.160000X-0.197500X0.160000X-0.197500X-0.160000X0.197500X-0.160000X0*%
%ADD17R,0.600000X0.800000*%
%ADD18C,2.000000*%
%ADD19RoundRect,0.155000X-0.155000X0.212500X-0.155000X-0.212500X0.155000X-0.212500X0.155000X0.212500X0*%
%ADD20RoundRect,0.155000X-0.212500X-0.155000X0.212500X-0.155000X0.212500X0.155000X-0.212500X0.155000X0*%
%ADD21C,1.100000*%
%ADD22R,2.500000X1.100000*%
%ADD23O,3.500000X1.900000*%
%ADD24RoundRect,0.237500X-0.237500X0.300000X-0.237500X-0.300000X0.237500X-0.300000X0.237500X0.300000X0*%
%ADD25RoundRect,0.237500X0.300000X0.237500X-0.300000X0.237500X-0.300000X-0.237500X0.300000X-0.237500X0*%
%ADD26R,1.400000X1.200000*%
%ADD27RoundRect,0.160000X0.160000X-0.222500X0.160000X0.222500X-0.160000X0.222500X-0.160000X-0.222500X0*%
%ADD28RoundRect,0.160000X-0.160000X0.222500X-0.160000X-0.222500X0.160000X-0.222500X0.160000X0.222500X0*%
%ADD29RoundRect,0.160000X-0.222500X-0.160000X0.222500X-0.160000X0.222500X0.160000X-0.222500X0.160000X0*%
%ADD30R,0.330000X0.150000*%
%ADD31R,0.300000X0.800000*%
%ADD32R,0.800000X0.300000*%
%ADD33R,2.700000X2.700000*%
%ADD34R,1.600000X0.650000*%
%ADD35RoundRect,0.160000X0.160000X-0.197500X0.160000X0.197500X-0.160000X0.197500X-0.160000X-0.197500X0*%
%ADD36RoundRect,0.237500X-0.237500X0.287500X-0.237500X-0.287500X0.237500X-0.287500X0.237500X0.287500X0*%
%ADD37RoundRect,0.237500X0.237500X-0.287500X0.237500X0.287500X-0.237500X0.287500X-0.237500X-0.287500X0*%
%ADD38RoundRect,0.237500X-0.300000X-0.237500X0.300000X-0.237500X0.300000X0.237500X-0.300000X0.237500X0*%
%ADD39R,1.400000X0.600000*%
%ADD40R,0.300000X0.650000*%
%ADD41R,2.750000X1.750000*%
%ADD42RoundRect,0.200000X-0.250000X0.200000X-0.250000X-0.200000X0.250000X-0.200000X0.250000X0.200000X0*%
%ADD43RoundRect,0.237500X-0.287500X-0.237500X0.287500X-0.237500X0.287500X0.237500X-0.287500X0.237500X0*%
%ADD44R,1.150000X1.000000*%
%ADD45RoundRect,0.237500X0.287500X0.237500X-0.287500X0.237500X-0.287500X-0.237500X0.287500X-0.237500X0*%
%ADD46R,0.750000X0.450000*%
%ADD47R,1.350000X1.740000*%
%ADD48R,1.700000X1.700000*%
%ADD49O,1.700000X1.700000*%
%ADD50RoundRect,0.075000X-0.700000X-0.075000X0.700000X-0.075000X0.700000X0.075000X-0.700000X0.075000X0*%
%ADD51RoundRect,0.075000X-0.075000X-0.700000X0.075000X-0.700000X0.075000X0.700000X-0.075000X0.700000X0*%
%ADD52RoundRect,0.237500X-0.250000X-0.237500X0.250000X-0.237500X0.250000X0.237500X-0.250000X0.237500X0*%
%ADD53RoundRect,0.160000X-0.160000X0.197500X-0.160000X-0.197500X0.160000X-0.197500X0.160000X0.197500X0*%
%ADD54RoundRect,0.150000X0.650000X0.150000X-0.650000X0.150000X-0.650000X-0.150000X0.650000X-0.150000X0*%
%ADD55RoundRect,0.062500X-0.375000X-0.062500X0.375000X-0.062500X0.375000X0.062500X-0.375000X0.062500X0*%
%ADD56RoundRect,0.062500X-0.062500X-0.375000X0.062500X-0.375000X0.062500X0.375000X-0.062500X0.375000X0*%
%ADD57R,5.600000X5.600000*%
%ADD58R,5.080000X2.286000*%
%ADD59R,5.080000X2.413000*%
G04 APERTURE END LIST*
G36*
X176392000Y-95865000D02*
G01*
X176442000Y-96065000D01*
X176442000Y-96415000D01*
X176392000Y-96615000D01*
X176392000Y-96915000D01*
X176192000Y-96915000D01*
X176192000Y-96490000D01*
X176042000Y-96340000D01*
X175617000Y-96340000D01*
X175617000Y-96140000D01*
X176042000Y-96140000D01*
X176192000Y-95990000D01*
X176192000Y-95565000D01*
X176392000Y-95565000D01*
X176392000Y-95865000D01*
G37*
D10*
X176392000Y-95865000D02*
X176442000Y-96065000D01*
X176442000Y-96415000D01*
X176392000Y-96615000D01*
X176392000Y-96915000D01*
X176192000Y-96915000D01*
X176192000Y-96490000D01*
X176042000Y-96340000D01*
X175617000Y-96340000D01*
X175617000Y-96140000D01*
X176042000Y-96140000D01*
X176192000Y-95990000D01*
X176192000Y-95565000D01*
X176392000Y-95565000D01*
X176392000Y-95865000D01*
D11*
X150442500Y-81750000D03*
X151637500Y-81750000D03*
D12*
X175630000Y-112430000D03*
X138050000Y-116860000D03*
X121000000Y-116100000D03*
X116000000Y-115000000D03*
X159580000Y-106790000D03*
D13*
X112710000Y-94740000D03*
X111135000Y-94740000D03*
D14*
X132275000Y-104840000D03*
X131140000Y-104840000D03*
D15*
X131650000Y-89747500D03*
X131650000Y-88612500D03*
D16*
X119217500Y-101830000D03*
X118022500Y-101830000D03*
X112350000Y-93460000D03*
X111155000Y-93460000D03*
X110447500Y-98060000D03*
X109252500Y-98060000D03*
X110457500Y-97030000D03*
X109262500Y-97030000D03*
D17*
X117080000Y-93610000D03*
X118480000Y-93610000D03*
D15*
X119907500Y-99185000D03*
X119907500Y-98050000D03*
D18*
X148320000Y-81790000D03*
X141820000Y-81790000D03*
X141820000Y-86290000D03*
X148320000Y-86290000D03*
D16*
X122197500Y-109920000D03*
X121002500Y-109920000D03*
D11*
X121002500Y-111240000D03*
X122197500Y-111240000D03*
X133132500Y-112510000D03*
X134327500Y-112510000D03*
D16*
X134247500Y-109970000D03*
X133052500Y-109970000D03*
D11*
X139432500Y-107730000D03*
X140627500Y-107730000D03*
D19*
X135390000Y-95592500D03*
X135390000Y-96727500D03*
D20*
X121032500Y-112500000D03*
X122167500Y-112500000D03*
D14*
X129297500Y-89800000D03*
X128162500Y-89800000D03*
D17*
X108818000Y-101056000D03*
X110218000Y-101056000D03*
D20*
X108932500Y-102300000D03*
X110067500Y-102300000D03*
D16*
X119497500Y-95970000D03*
X118302500Y-95970000D03*
D21*
X103030000Y-95210000D03*
X103030000Y-99810000D03*
D22*
X105780000Y-101010000D03*
X105780000Y-98510000D03*
X105780000Y-96510000D03*
X105780000Y-94010000D03*
D23*
X103030000Y-91810000D03*
X103030000Y-103210000D03*
D24*
X121648000Y-88583500D03*
X121648000Y-90308500D03*
D25*
X117610500Y-91946000D03*
X115885500Y-91946000D03*
D26*
X119800000Y-88570000D03*
X117600000Y-88570000D03*
X117600000Y-90270000D03*
X119800000Y-90270000D03*
D27*
X155140000Y-92622500D03*
X155140000Y-91477500D03*
D28*
X163810000Y-94482500D03*
X163810000Y-95627500D03*
D20*
X153862500Y-99060000D03*
X154997500Y-99060000D03*
D29*
X185037500Y-96340000D03*
X186182500Y-96340000D03*
D20*
X163742500Y-91940000D03*
X164877500Y-91940000D03*
D14*
X169747500Y-95640000D03*
X168612500Y-95640000D03*
D29*
X170893500Y-95640000D03*
X172038500Y-95640000D03*
D30*
X175807000Y-95890000D03*
X175807000Y-96590000D03*
X176777000Y-96590000D03*
X176777000Y-96240000D03*
X176777000Y-95890000D03*
D31*
X160260000Y-95540000D03*
X159760000Y-95540000D03*
X159260000Y-95540000D03*
X158760000Y-95540000D03*
X158260000Y-95540000D03*
X157760000Y-95540000D03*
D32*
X157010000Y-96290000D03*
X157010000Y-96790000D03*
X157010000Y-97290000D03*
X157010000Y-97790000D03*
X157010000Y-98290000D03*
X157010000Y-98790000D03*
D31*
X157760000Y-99540000D03*
X158260000Y-99540000D03*
X158760000Y-99540000D03*
X159260000Y-99540000D03*
X159760000Y-99540000D03*
X160260000Y-99540000D03*
D32*
X161010000Y-98790000D03*
X161010000Y-98290000D03*
X161010000Y-97790000D03*
X161010000Y-97290000D03*
X161010000Y-96790000D03*
X161010000Y-96290000D03*
D33*
X159010000Y-97540000D03*
D34*
X151900000Y-93167500D03*
X151900000Y-94517500D03*
D20*
X164442500Y-97840000D03*
X165577500Y-97840000D03*
D28*
X163110000Y-96767500D03*
X163110000Y-97912500D03*
D15*
X155140000Y-95367500D03*
X155140000Y-94232500D03*
D19*
X176780000Y-92372500D03*
X176780000Y-93507500D03*
D15*
X187610000Y-97307500D03*
X187610000Y-96172500D03*
D14*
X166191500Y-94540000D03*
X165056500Y-94540000D03*
D19*
X176780000Y-98762500D03*
X176780000Y-99897500D03*
D20*
X178010500Y-96240000D03*
X179145500Y-96240000D03*
X164442500Y-96840000D03*
X165577500Y-96840000D03*
D29*
X165051500Y-95640000D03*
X166196500Y-95640000D03*
D20*
X173184500Y-96840000D03*
X174319500Y-96840000D03*
X162722500Y-90740000D03*
X163857500Y-90740000D03*
X153842500Y-97910000D03*
X154977500Y-97910000D03*
D19*
X166910000Y-96772500D03*
X166910000Y-97907500D03*
D20*
X163742500Y-93140000D03*
X164877500Y-93140000D03*
D15*
X167500000Y-95587500D03*
X167500000Y-94452500D03*
D14*
X181431500Y-96236000D03*
X180296500Y-96236000D03*
D20*
X173184500Y-95640000D03*
X174319500Y-95640000D03*
D15*
X183710000Y-97307500D03*
X183710000Y-96172500D03*
D35*
X175618000Y-99937500D03*
X175618000Y-98742500D03*
X175618000Y-93537500D03*
X175618000Y-92342500D03*
D11*
X116079500Y-104322000D03*
X117274500Y-104322000D03*
D16*
X117264500Y-106362000D03*
X116069500Y-106362000D03*
D36*
X114450000Y-108748000D03*
X114450000Y-110498000D03*
D37*
X112930000Y-110508000D03*
X112930000Y-108758000D03*
D38*
X112682000Y-102307000D03*
X114407000Y-102307000D03*
D20*
X116119500Y-105332000D03*
X117254500Y-105332000D03*
D25*
X117992500Y-110543000D03*
X116267500Y-110543000D03*
D14*
X129297500Y-88700000D03*
X128162500Y-88700000D03*
X118527500Y-94840000D03*
X117392500Y-94840000D03*
D15*
X125530000Y-106357500D03*
X125530000Y-105222500D03*
D20*
X120122500Y-85910000D03*
X121257500Y-85910000D03*
D16*
X127457500Y-84550000D03*
X126262500Y-84550000D03*
D39*
X123760000Y-84500000D03*
X123760000Y-83550000D03*
X123760000Y-82600000D03*
X121260000Y-82600000D03*
X121260000Y-83550000D03*
X121260000Y-84500000D03*
D11*
X125382500Y-81180000D03*
X126577500Y-81180000D03*
D19*
X119600000Y-93702500D03*
X119600000Y-94837500D03*
D14*
X118795000Y-98047500D03*
X117660000Y-98047500D03*
D17*
X117437500Y-99307500D03*
X118837500Y-99307500D03*
D40*
X114932000Y-104307000D03*
X114432000Y-104307000D03*
X113932000Y-104307000D03*
X113432000Y-104307000D03*
X112932000Y-104307000D03*
X112432000Y-104307000D03*
X112432000Y-107107000D03*
X112932000Y-107107000D03*
X113432000Y-107107000D03*
X113932000Y-107107000D03*
X114432000Y-107107000D03*
X114932000Y-107107000D03*
D41*
X113682000Y-105707000D03*
D19*
X148705250Y-89515000D03*
X148705250Y-90650000D03*
X139878000Y-90222500D03*
X139878000Y-91357500D03*
D15*
X146698000Y-103687500D03*
X146698000Y-102552500D03*
D14*
X151497500Y-99498000D03*
X150362500Y-99498000D03*
D19*
X145885000Y-89237500D03*
X145885000Y-90372500D03*
D42*
X144380000Y-88960000D03*
X142530000Y-88960000D03*
X142530000Y-90410000D03*
X144380000Y-90410000D03*
D14*
X138097500Y-94160000D03*
X136962500Y-94160000D03*
X151497500Y-98310000D03*
X150362500Y-98310000D03*
X138122500Y-93072000D03*
X136987500Y-93072000D03*
D15*
X147710000Y-103687500D03*
X147710000Y-102552500D03*
D43*
X153420000Y-84950000D03*
X155170000Y-84950000D03*
X153420000Y-83250000D03*
X155170000Y-83250000D03*
D16*
X156432500Y-86600000D03*
X155237500Y-86600000D03*
X156432500Y-81600000D03*
X155237500Y-81600000D03*
D12*
X120030000Y-105350000D03*
D44*
X159765000Y-89850000D03*
X158015000Y-89850000D03*
X158015000Y-91250000D03*
X159765000Y-91250000D03*
D38*
X109527500Y-110533000D03*
X111252500Y-110533000D03*
D14*
X111219500Y-105332000D03*
X110084500Y-105332000D03*
D16*
X111249500Y-104332000D03*
X110054500Y-104332000D03*
D11*
X110086500Y-106332000D03*
X111281500Y-106332000D03*
D12*
X139200000Y-126100000D03*
D45*
X141180000Y-106395000D03*
X139430000Y-106395000D03*
D12*
X111950000Y-88580000D03*
D46*
X138812500Y-131200000D03*
X138812500Y-132000000D03*
X138812500Y-132800000D03*
X141312500Y-132800000D03*
X141312500Y-132000000D03*
X141312500Y-131200000D03*
D47*
X140062500Y-132000000D03*
D48*
X162000000Y-111725000D03*
D49*
X162000000Y-114265000D03*
D48*
X130988000Y-83678000D03*
D49*
X133528000Y-83678000D03*
X136068000Y-83678000D03*
D50*
X122225000Y-93720000D03*
X122225000Y-94220000D03*
X122225000Y-94720000D03*
X122225000Y-95220000D03*
X122225000Y-95720000D03*
X122225000Y-96220000D03*
X122225000Y-96720000D03*
X122225000Y-97220000D03*
X122225000Y-97720000D03*
X122225000Y-98220000D03*
X122225000Y-98720000D03*
X122225000Y-99220000D03*
X122225000Y-99720000D03*
X122225000Y-100220000D03*
X122225000Y-100720000D03*
X122225000Y-101220000D03*
D51*
X124150000Y-103145000D03*
X124650000Y-103145000D03*
X125150000Y-103145000D03*
X125650000Y-103145000D03*
X126150000Y-103145000D03*
X126650000Y-103145000D03*
X127150000Y-103145000D03*
X127650000Y-103145000D03*
X128150000Y-103145000D03*
X128650000Y-103145000D03*
X129150000Y-103145000D03*
X129650000Y-103145000D03*
X130150000Y-103145000D03*
X130650000Y-103145000D03*
X131150000Y-103145000D03*
X131650000Y-103145000D03*
D50*
X133575000Y-101220000D03*
X133575000Y-100720000D03*
X133575000Y-100220000D03*
X133575000Y-99720000D03*
X133575000Y-99220000D03*
X133575000Y-98720000D03*
X133575000Y-98220000D03*
X133575000Y-97720000D03*
X133575000Y-97220000D03*
X133575000Y-96720000D03*
X133575000Y-96220000D03*
X133575000Y-95720000D03*
X133575000Y-95220000D03*
X133575000Y-94720000D03*
X133575000Y-94220000D03*
X133575000Y-93720000D03*
D51*
X131650000Y-91795000D03*
X131150000Y-91795000D03*
X130650000Y-91795000D03*
X130150000Y-91795000D03*
X129650000Y-91795000D03*
X129150000Y-91795000D03*
X128650000Y-91795000D03*
X128150000Y-91795000D03*
X127650000Y-91795000D03*
X127150000Y-91795000D03*
X126650000Y-91795000D03*
X126150000Y-91795000D03*
X125650000Y-91795000D03*
X125150000Y-91795000D03*
X124650000Y-91795000D03*
X124150000Y-91795000D03*
D19*
X123670000Y-88672500D03*
X123670000Y-89807500D03*
D12*
X159510000Y-85030000D03*
D14*
X138107500Y-95210000D03*
X136972500Y-95210000D03*
D12*
X162160000Y-81390000D03*
D11*
X120072500Y-81180000D03*
X121267500Y-81180000D03*
D52*
X124415000Y-114940000D03*
X126240000Y-114940000D03*
X124407500Y-116690000D03*
X126232500Y-116690000D03*
D38*
X133017500Y-91290000D03*
X134742500Y-91290000D03*
D15*
X142640000Y-133397500D03*
X142640000Y-132262500D03*
D53*
X148000000Y-107015000D03*
X148000000Y-108210000D03*
D48*
X144045000Y-114135000D03*
D49*
X141505000Y-114135000D03*
X144045000Y-111595000D03*
X141505000Y-111595000D03*
D12*
X137000000Y-87600000D03*
D54*
X131300000Y-112505000D03*
X131300000Y-111235000D03*
X131300000Y-109965000D03*
X131300000Y-108695000D03*
X124100000Y-108695000D03*
X124100000Y-109965000D03*
X124100000Y-111235000D03*
X124100000Y-112505000D03*
D55*
X140332500Y-94480000D03*
X140332500Y-94980000D03*
X140332500Y-95480000D03*
X140332500Y-95980000D03*
X140332500Y-96480000D03*
X140332500Y-96980000D03*
X140332500Y-97480000D03*
X140332500Y-97980000D03*
X140332500Y-98480000D03*
X140332500Y-98980000D03*
X140332500Y-99480000D03*
X140332500Y-99980000D03*
D56*
X141020000Y-100667500D03*
X141520000Y-100667500D03*
X142020000Y-100667500D03*
X142520000Y-100667500D03*
X143020000Y-100667500D03*
X143520000Y-100667500D03*
X144020000Y-100667500D03*
X144520000Y-100667500D03*
X145020000Y-100667500D03*
X145520000Y-100667500D03*
X146020000Y-100667500D03*
X146520000Y-100667500D03*
D55*
X147207500Y-99980000D03*
X147207500Y-99480000D03*
X147207500Y-98980000D03*
X147207500Y-98480000D03*
X147207500Y-97980000D03*
X147207500Y-97480000D03*
X147207500Y-96980000D03*
X147207500Y-96480000D03*
X147207500Y-95980000D03*
X147207500Y-95480000D03*
X147207500Y-94980000D03*
X147207500Y-94480000D03*
D56*
X146520000Y-93792500D03*
X146020000Y-93792500D03*
X145520000Y-93792500D03*
X145020000Y-93792500D03*
X144520000Y-93792500D03*
X144020000Y-93792500D03*
X143520000Y-93792500D03*
X143020000Y-93792500D03*
X142520000Y-93792500D03*
X142020000Y-93792500D03*
X141520000Y-93792500D03*
X141020000Y-93792500D03*
D57*
X143770000Y-97230000D03*
D18*
X150640000Y-114700000D03*
X150640000Y-108200000D03*
X155140000Y-108200000D03*
X155140000Y-114700000D03*
D48*
X129150000Y-126000000D03*
D49*
X131690000Y-126000000D03*
X129150000Y-128540000D03*
X131690000Y-128540000D03*
X129150000Y-131080000D03*
X131690000Y-131080000D03*
X129150000Y-133620000D03*
X131690000Y-133620000D03*
X129150000Y-136160000D03*
X131690000Y-136160000D03*
D12*
X115230000Y-83680000D03*
D53*
X119720000Y-82362500D03*
X119720000Y-83557500D03*
D16*
X137640000Y-132830000D03*
X136445000Y-132830000D03*
D19*
X137652500Y-130592500D03*
X137652500Y-131727500D03*
D48*
X148037500Y-126920000D03*
D49*
X150577500Y-126920000D03*
X148037500Y-129460000D03*
X150577500Y-129460000D03*
X148037500Y-132000000D03*
X150577500Y-132000000D03*
X148037500Y-134540000D03*
X150577500Y-134540000D03*
D12*
X106600000Y-108100000D03*
D52*
X131307500Y-114270000D03*
X133132500Y-114270000D03*
D48*
X136132500Y-138810000D03*
D49*
X138672500Y-138810000D03*
X141212500Y-138810000D03*
X143752500Y-138810000D03*
D14*
X136637500Y-99800000D03*
X135502500Y-99800000D03*
D20*
X118022500Y-100690000D03*
X119157500Y-100690000D03*
D14*
X151497500Y-97260000D03*
X150362500Y-97260000D03*
D58*
X191940000Y-96230000D03*
D59*
X191940000Y-91848500D03*
X191940000Y-100611500D03*
D16*
X137630000Y-129550000D03*
X136435000Y-129550000D03*
D48*
X118145000Y-77570000D03*
D49*
X120685000Y-77570000D03*
X123225000Y-77570000D03*
X125765000Y-77570000D03*
X128305000Y-77570000D03*
X130845000Y-77570000D03*
X133385000Y-77570000D03*
X135925000Y-77570000D03*
X138465000Y-77570000D03*
X141005000Y-77570000D03*
X143545000Y-77570000D03*
X146085000Y-77570000D03*
X148625000Y-77570000D03*
X151165000Y-77570000D03*
X153705000Y-77570000D03*
X156245000Y-77570000D03*
X158785000Y-77570000D03*
D11*
X142487500Y-131180000D03*
X143682500Y-131180000D03*
M02*
